<svg width="20" height="20" viewBox="0 0 20 20" fill="none" xmlns="http://www.w3.org/2000/svg">
<path fill-rule="evenodd" clip-rule="evenodd" d="M1.83609 10.1953C1.83609 8.80988 2.06309 7.62477 2.59055 6.57653C3.56535 4.64363 4.64029 3.56869 6.57319 2.59389C8.56952 1.58571 11.4238 1.58571 13.4201 2.59389C15.353 3.56869 16.428 4.64363 17.4028 6.57653C18.4109 8.57286 18.4109 11.4271 17.4028 13.4235C17.0823 14.0578 16.7251 14.7154 16.2544 15.2429C15.2996 16.3078 14.6954 16.7651 13.4201 17.4061C11.4238 18.4143 8.56952 18.4143 6.57319 17.4061C6.35954 17.2993 6.11918 17.1958 5.92889 17.0756C4.42998 16.1275 3.89251 15.56 2.93774 14.0911C2.35019 13.1898 1.83609 11.4939 1.83609 10.192V10.1953ZM8.78985 5.35136C8.78985 5.78201 8.83325 6.00234 9.17042 6.33951C9.84143 7.01052 11.2135 6.69004 11.2135 5.35136C11.2135 4.54014 10.0517 3.77566 9.17042 4.56017C9.00684 4.70706 8.78985 5.05759 8.78985 5.35136ZM9.0636 9.64781V14.6086C9.0636 15.9706 10.2854 15.9673 10.7127 15.4365C10.8763 15.2295 10.9397 14.9691 10.9397 14.6086V9.64781C10.9397 8.34919 9.81138 8.219 9.28726 8.81656C9.12369 9.00351 9.0636 9.31063 9.0636 9.64781ZM9.56769 0H10.2921C11.1501 0.0333834 12.0147 0.18027 12.9294 0.430646C13.0896 0.474044 13.2098 0.514104 13.3734 0.570856C14.3716 0.918044 15.2796 1.45886 16.1142 2.08646C16.8519 2.64397 17.6832 3.50192 18.194 4.2664L18.4443 4.64029C18.6613 4.9808 18.9317 5.42814 19.0853 5.7987C19.2088 6.10249 19.329 6.33617 19.4392 6.65665C19.783 7.66483 19.9633 8.61626 20 9.56769V10.2921C19.9666 11.1501 19.8197 12.0147 19.5694 12.9294C19.3123 13.8641 18.905 14.6019 18.4143 15.4064C18.1906 15.7737 17.9169 16.1075 17.6498 16.438C17.533 16.5815 17.4762 16.6316 17.3527 16.7651C17.2459 16.882 17.2025 16.9588 17.079 17.079C16.9521 17.2058 16.8653 17.2559 16.7451 17.3694C16.2744 17.8234 15.58 18.3308 14.9958 18.668C14.5018 18.9518 13.8908 19.2522 13.3433 19.4358C13.0529 19.536 12.6957 19.6562 12.412 19.7129C11.2001 19.9666 10.9965 19.9967 9.72793 19.9967C7.3577 19.9967 4.96745 18.9551 3.23485 17.3494C3.11801 17.2425 3.04123 17.1991 2.92105 17.0756C2.40027 16.5548 1.71257 15.6602 1.332 14.9925C0.901352 14.2414 0.464029 13.2599 0.283759 12.4086C0.0300451 11.1968 0 10.9932 0 9.72459C0 8.90336 0.14021 8.24236 0.290436 7.55467C0.517443 6.49975 1.03155 5.50159 1.58571 4.59356C1.67585 4.44333 1.72926 4.38324 1.82273 4.24303C1.92622 4.08613 1.98297 4.02938 2.0898 3.88583C2.18995 3.7523 2.25672 3.67885 2.35019 3.56201L2.92105 2.92105C3.90586 1.93958 5.34135 1.00818 6.65665 0.56418C7.66483 0.220331 8.61626 0.0400601 9.56769 0.00333834V0Z" fill="#C7C7C7"/>
</svg>
