<svg width="375" height="721" viewBox="0 0 375 721" fill="none" xmlns="http://www.w3.org/2000/svg">
<path d="M0 37.7644C15.469 34.5974 18.7627 39.0312 31.3603 38.6511C36.7512 38.4822 41.8747 36.3287 47.1952 35.5405C55.7109 34.2737 64.7192 36.7228 71.4473 42.0996C77.908 47.2794 81.455 44.6051 89.5485 42.8457C97.6419 41.0862 105.341 37.511 113.589 36.7087C130.199 35.076 146.625 44.8585 163.079 42.0152C178.562 39.3408 195.706 30.4029 210.865 34.527C217.889 36.4413 224.251 40.4247 231.359 42.0433C241.114 44.2673 251.318 41.8181 260.735 38.4259C270.151 35.0337 279.301 30.6703 289.139 28.8827C303.299 26.3069 318.43 29.4317 330.409 37.4266C335.729 40.9736 340.656 42.3389 347.046 42.4375C353.436 42.5219 359.742 41.1144 365.978 39.7209C368.863 39.0734 372.1 38.4259 375 37.7785V90.1816H0V37.7785V37.7644Z" fill="#255C42"/>
<path d="M120.615 59.3966L120.015 62.995C121.064 65.6938 122.264 71.3912 124.363 73.94L126.012 74.2399C126.312 74.2399 126.612 74.5398 126.612 74.8396C126.762 75.2894 126.462 75.7392 126.012 75.8892L123.763 76.339C123.313 76.4889 122.864 76.0391 122.714 75.5893L122.564 74.6897C121.514 70.9414 118.366 67.1931 116.866 64.6442C116.566 64.0445 116.566 63.4448 116.866 62.845C118.665 58.7969 117.466 53.0994 117.166 49.8009C115.517 45.7528 115.967 43.6537 116.416 42.1544C116.866 40.805 117.616 39.6055 118.665 38.7059C119.715 37.8064 121.364 36.307 122.264 35.4074C122.564 35.1076 123.913 33.7582 124.063 33.4583C124.663 32.7087 125.113 31.959 125.712 31.2093C126.312 30.4597 127.062 30.0099 127.961 29.8599C128.711 29.8599 129.311 30.1598 129.91 30.4597C130.51 30.7595 131.26 30.9095 131.859 30.6096C132.609 30.3097 133.059 29.71 133.509 29.2602C134.558 28.3606 136.058 28.2107 137.257 28.9603C138.157 29.4101 138.756 30.3097 139.506 31.0594C140.556 31.959 144.604 32.2589 147.003 35.5574L147.302 35.8572C147.752 36.307 148.352 36.7568 148.952 36.9068L150.901 37.5065C151.201 37.6564 151.501 37.6564 151.651 37.6564C153 37.6564 154.349 36.9068 154.949 35.7073L156.898 31.6591L159.747 26.4115C159.447 26.5614 158.997 26.4115 158.697 26.1116L158.098 25.6618L158.697 25.212C158.997 25.0621 159.447 24.9122 159.747 25.0621L161.246 25.5119L164.695 25.362C165.894 25.362 167.094 25.5119 168.293 25.8118L169.492 26.1116C169.942 26.2616 170.242 26.5614 170.242 27.0112V27.611L170.392 27.7609C170.542 27.9108 170.542 28.0608 170.542 28.2107C170.542 28.5105 170.242 28.6605 170.092 28.6605H168.743L170.692 29.1103L170.542 29.2602C170.392 29.5601 169.942 29.5601 169.642 29.5601L169.343 29.4101C168.743 29.8599 167.843 29.4101 167.843 29.4101C166.794 30.6096 165.294 31.3593 163.645 31.3593L158.248 40.5051C156.748 43.054 153.9 44.7032 150.901 44.7032H147.452C147.153 45.303 146.703 45.7528 146.253 46.2026C145.803 48.0017 145.054 49.5011 144.004 51.0004C145.803 52.6496 147.752 54.4488 149.701 56.0981C150.301 56.6978 150.751 57.4475 150.751 58.3471C150.751 59.3966 150.301 60.4461 149.551 61.3457C148.802 62.2453 148.052 62.995 147.153 63.8946C146.403 64.6442 145.503 65.5438 145.054 66.5934C145.203 67.0432 145.203 67.4929 145.203 67.9427C145.203 68.2426 145.054 68.5425 144.754 68.6924C144.304 68.8423 143.854 68.6924 143.704 68.3925C143.404 67.6429 143.104 66.8932 142.805 66.1436C142.655 65.6938 142.805 65.094 143.254 64.7942C143.404 64.6442 143.554 64.6442 143.704 64.4943C145.803 63.4448 147.003 61.0459 147.752 58.9468C147.302 58.497 147.003 57.7473 146.853 57.1476C145.054 56.0981 143.104 55.0486 141.305 53.999L140.855 55.7982C142.205 58.3471 141.155 61.3457 140.705 63.1449L141.755 70.9414H143.104C143.404 70.9414 143.854 71.2413 143.854 71.5411C144.004 71.9909 143.704 72.4407 143.254 72.4407L140.705 72.8905C140.106 73.0404 139.656 72.5906 139.656 71.9909V70.9414L138.906 62.995C137.107 58.9468 138.307 55.6483 138.307 55.6483L137.857 49.5011L136.957 49.651L137.257 52.1999L126.012 51.4502L125.862 48.6015L125.262 48.3016C123.763 49.2012 122.864 49.2012 122.864 49.2012C122.864 53.3993 122.864 57.5974 122.864 61.7955C125.262 64.7942 125.113 68.3925 129.161 72.4407L130.81 72.5906C131.26 72.5906 131.56 73.0404 131.56 73.4902C131.56 73.94 131.26 74.2399 130.81 74.3898L128.561 74.8396C128.111 74.9896 127.661 74.6897 127.661 74.2399L127.511 73.4902C125.712 69.4421 120.914 65.9936 120.615 63.7446C120.465 62.5452 120.315 61.0459 120.015 59.0967L120.615 59.3966Z" fill="#1E4A35"/>
<path d="M25.5395 44.6657L23.4761 48.7925C23.6824 50.8559 25.3331 53.7447 26.3648 55.6017L27.3965 56.0144C27.6029 56.0144 27.8092 56.2208 27.8092 56.4271C27.8092 56.8398 27.6029 57.0461 27.1902 57.0461L25.5395 56.8398C25.1268 56.8398 24.9205 56.4271 24.9205 56.2208V55.6017C24.3014 52.713 21.4127 51.0623 21 48.9989C21 48.5862 21 48.1735 21.4127 47.7608C23.0634 45.9038 23.4761 43.015 23.8888 40.9516C22.4444 38.0628 22.8571 36.6184 23.2697 35.5867C23.4761 34.7614 24.0951 33.936 24.7141 33.1107C25.3331 32.4916 26.5712 31.4599 27.1902 30.8409C27.3965 30.6346 28.2219 29.6029 28.4282 29.3965C28.8409 28.9839 29.0473 28.3648 29.4599 27.9522C29.8726 27.5395 30.4916 27.1268 31.1107 27.1268C31.5233 27.1268 31.936 27.3331 32.555 27.5395C32.9677 27.7458 33.5867 27.7458 33.9994 27.7458C34.4121 27.5395 34.8248 27.1268 35.2375 26.7141C35.8565 26.0951 37.0945 25.8888 37.9199 26.5078C38.5389 26.9205 38.9516 27.5395 39.5706 27.9522C40.1896 28.5712 43.0784 28.7775 44.9355 31.0473L45.1418 31.2536C45.3481 31.6663 45.7608 31.8726 46.3798 31.8726L47.6179 32.2853C47.8242 32.2853 48.0306 32.2853 48.2369 32.2853C49.2686 32.2853 50.094 31.6663 50.5066 30.8409L51.7447 27.9522L53.6017 24.238C53.3954 24.238 53.1891 24.238 52.9827 24.0317L52.57 23.619L52.9827 23.2063C53.1891 23 53.3954 23 53.6017 23L54.6334 23.4127L56.9032 23.2063C57.7285 23.2063 58.5539 23.2063 59.3793 23.4127L60.2046 23.619C60.411 23.619 60.6173 24.0317 60.6173 24.238V24.6507H60.8236L61.03 24.8571C61.03 25.0634 60.8236 25.0634 60.6173 25.0634H59.7919L61.03 25.2697V25.4761C60.8236 25.6824 60.6173 25.6824 60.411 25.6824H60.2046C59.7919 25.8888 59.1729 25.6824 59.1729 25.6824C58.5539 26.5078 57.5222 27.1268 56.2842 27.1268L52.7764 33.5233C51.7447 35.3804 49.8876 36.4121 47.8242 36.6184H45.5545C45.3481 37.0311 45.1418 37.4438 44.7291 37.6501C44.5228 38.8882 43.9038 39.9199 43.2847 40.9516C44.5228 41.9833 45.9672 43.2213 47.2052 44.4594C47.6179 44.8721 48.0306 45.4911 48.0306 46.1101C48.0306 47.9672 48.8559 49.8242 49.2686 51.6813C49.6813 51.8876 49.8876 52.3003 50.094 52.5066C50.094 52.5066 50.3003 52.713 50.3003 52.9193C50.3003 53.1257 50.3003 53.1257 50.3003 53.332C50.094 53.5383 49.8876 53.332 49.6813 53.332C49.2686 53.1257 48.8559 53.1257 48.4432 52.9193C48.2369 52.9193 48.0306 52.713 47.8242 52.713C47.6179 52.5066 47.6179 51.8876 47.8242 51.6813C47.4115 50.0306 47.2052 48.1735 46.1735 46.7291C45.9672 46.3164 45.5545 45.9038 45.5545 45.4911C44.3164 44.6657 42.8721 44.0467 41.634 43.4277L41.4277 44.6657C42.4594 46.3164 41.8404 48.5862 41.4277 49.8242L42.253 55.1891H43.2847C43.4911 55.1891 43.6974 55.3954 43.9038 55.6017C43.9038 55.8081 43.6974 56.2208 43.4911 56.2208L41.8404 56.6334C41.4277 56.6334 41.015 56.4271 41.015 56.0144V55.3954L40.396 50.0306C38.9516 47.1418 39.7769 44.8721 39.7769 44.8721L39.3643 40.5389L38.7452 40.7453L38.9516 42.396L31.1107 41.9833L30.9043 39.9199L30.4916 39.7136C29.4599 40.3326 28.8409 40.3326 28.8409 40.3326C28.8409 43.2213 29.0473 46.1101 29.0473 48.9989C30.698 51.0623 30.698 53.5383 33.5867 56.2208H34.6184C35.0311 56.2208 35.2375 56.4271 35.2375 56.8398C35.2375 57.0461 35.0311 57.4588 34.6184 57.4588L33.1741 57.8715C32.9677 57.8715 32.555 57.6651 32.555 57.4588V56.8398C31.317 54.1574 28.0156 51.8876 27.6029 50.2369C27.3965 48.9989 27.3965 46.9355 26.3648 44.253L25.5395 44.6657Z" fill="#1E4A35"/>
<path d="M375 53.7181C355.615 62.5463 336.721 76.1681 316.788 81.2148C296.952 86.2474 276.274 78.1361 258.083 68.7738C239.879 59.4255 221.59 48.3903 201.164 47.1111C185.096 46.0989 169.506 51.2862 154.872 57.3872C142.136 62.6869 127.812 64.5144 113.923 63.2632C101.032 62.0964 88.6893 57.6824 76.4732 53.3948C64.2572 49.1072 51.8303 44.8619 38.9114 44.0887C25.9925 43.3015 13.1438 47.8561 0 53.7322V118.327H375V53.7322V53.7181Z" fill="#1E4A35"/>
<path fill-rule="evenodd" clip-rule="evenodd" d="M302.512 0L337 14.5799V74.6387L302.771 82.6687L252 76.3409V8.03004L302.512 0Z" fill="#242834"/>
<path fill-rule="evenodd" clip-rule="evenodd" d="M302.512 0L302.771 82.6687L337 74.6387V14.5799L302.512 0Z" fill="#343F51"/>
<path fill-rule="evenodd" clip-rule="evenodd" d="M252 21.7588L302.549 15.9491L302.586 19.6866L252 25.5703V21.7588Z" fill="#EA8E21"/>
<path fill-rule="evenodd" clip-rule="evenodd" d="M337 28.0126L302.586 15.9491V19.6865L337 31.8241V28.0126Z" fill="#F5C21B"/>
<path fill-rule="evenodd" clip-rule="evenodd" d="M259.549 27.1985L273.241 25.7183V61.687L259.327 60.9839V28.4937V27.1615L259.549 27.1985Z" fill="#EA8E21"/>
<path fill-rule="evenodd" clip-rule="evenodd" d="M337 34.0814L333.522 32.8603V36.6717L337 37.8929V34.0814ZM328.341 31.047L320.977 28.4567V32.2312L328.341 34.8215V31.01V31.047ZM315.833 26.6805L308.432 24.0901V27.8276L315.833 30.4179V26.6434V26.6805Z" fill="#F5C21B"/>
<path fill-rule="evenodd" clip-rule="evenodd" d="M252 27.8276L254.109 27.5686V31.3801L252 31.6391V27.8276ZM278.273 24.8302L288.857 23.6091V27.3836L278.273 28.6047V24.8302ZM294.704 22.943L302.549 22.0549V25.7924L294.704 26.7175V22.98V22.943Z" fill="#EA8E21"/>
<path fill-rule="evenodd" clip-rule="evenodd" d="M331.079 32.2311C331.819 32.2311 332.411 33.0082 332.411 33.9704C332.411 34.9325 331.819 35.7096 331.079 35.7096C330.339 35.7096 329.747 34.9325 329.747 33.9704C329.747 33.0082 330.339 32.2311 331.079 32.2311Z" fill="#F5C21B"/>
<path fill-rule="evenodd" clip-rule="evenodd" d="M318.461 27.7166C319.201 27.7166 319.793 28.4937 319.793 29.4558C319.793 30.4179 319.201 31.195 318.461 31.195C317.72 31.195 317.128 30.4179 317.128 29.4558C317.128 28.4937 317.72 27.7166 318.461 27.7166Z" fill="#F5C21B"/>
<path fill-rule="evenodd" clip-rule="evenodd" d="M305.731 23.313C306.471 23.313 307.063 24.0901 307.063 25.0522C307.063 26.0144 306.471 26.7915 305.731 26.7915C304.991 26.7915 304.399 26.0144 304.399 25.0522C304.399 24.0901 304.991 23.313 305.731 23.313Z" fill="#F5C21B"/>
<path fill-rule="evenodd" clip-rule="evenodd" d="M291.743 23.498C292.483 23.498 293.075 24.2751 293.075 25.2373C293.075 26.1994 292.483 26.9765 291.743 26.9765C291.003 26.9765 290.411 26.1994 290.411 25.2373C290.411 24.2751 291.003 23.498 291.743 23.498Z" fill="#EA8E21"/>
<path fill-rule="evenodd" clip-rule="evenodd" d="M275.683 25.4223C276.423 25.4223 277.015 26.1994 277.015 27.1615C277.015 28.1236 276.423 28.9007 275.683 28.9007C274.943 28.9007 274.351 28.1236 274.351 27.1615C274.351 26.1994 274.943 25.4223 275.683 25.4223Z" fill="#EA8E21"/>
<path fill-rule="evenodd" clip-rule="evenodd" d="M256.885 27.5686C257.625 27.5686 258.217 28.3457 258.217 29.3078C258.217 30.2699 257.625 31.047 256.885 31.047C256.145 31.047 255.552 30.2699 255.552 29.3078C255.552 28.3457 256.145 27.5686 256.885 27.5686Z" fill="#EA8E21"/>
<path d="M0 110C0 92.3269 14.3269 78 32 78H343C360.673 78 375 92.3269 375 110V721H0V110Z" fill="white"/>
</svg>
