<svg width="35" height="25" viewBox="0 0 35 25" fill="none" xmlns="http://www.w3.org/2000/svg">
<path fill-rule="evenodd" clip-rule="evenodd" d="M3.4941 20.2949H12.7022C14.2397 20.2949 15.08 20.5497 16.3985 21.1689C16.3985 16.7776 16.3985 12.3884 16.3985 7.99705C16.3985 5.23589 16.8324 3.03707 14.326 1.06571C13.5383 0.446504 12.3463 0 11.1563 0H3.4941V20.297V20.2949ZM0 23.5215L12.6559 23.7026C13.5489 23.8206 14.8399 24.0922 15.615 24.5072C15.9162 24.6693 16.1226 24.8526 16.3985 25C16.3985 24.1744 16.3753 23.5699 16.051 23.0623C14.9895 21.4006 12.5948 21.5059 10.5518 21.5059C9.85046 21.5059 2.99916 21.5944 2.49789 21.428C2.24305 21.3437 1.9503 21.1184 1.9503 20.7666V3.5615H0.00210615V23.5215H0ZM32.46 20.6992C32.46 21.0362 32.2388 21.2763 31.9861 21.369C31.5754 21.5206 24.4714 21.4385 23.8564 21.4385C22.2346 21.4385 20.8277 21.4659 19.6504 21.9356C19.0291 22.1841 18.6921 22.4726 18.3572 22.9949C18.016 23.5278 18.0097 24.1407 18.0097 25C18.2624 24.8673 18.4309 24.722 18.6794 24.5956C20.7582 23.5383 23.2056 23.5889 25.6045 23.5889H33.4667C33.7742 23.5889 34.4082 23.711 34.4082 23.3867V3.5615H32.46V20.6992ZM18.0118 5.04002L18.0792 21.0046C19.3197 20.2738 20.2822 19.8926 21.9777 19.8926H30.9162V0H23.254C20.5413 0 18.0118 2.24516 18.0118 5.04002Z" fill="white"/>
</svg>
