<svg width="55" height="52" viewBox="0 0 55 52" fill="none" xmlns="http://www.w3.org/2000/svg">
<path d="M4.61454 34.3966L4.01481 37.995C5.06433 40.6938 6.26379 46.3912 8.36284 48.94L10.0121 49.2399C10.312 49.2399 10.6118 49.5398 10.6118 49.8396C10.7618 50.2894 10.4619 50.7392 10.0121 50.8892L7.76311 51.339C7.31332 51.4889 6.86352 51.0391 6.71359 50.5893L6.56366 49.6897C5.51413 45.9414 2.36555 42.1931 0.866228 39.6442C0.566363 39.0445 0.566363 38.4448 0.866228 37.845C2.66542 33.7969 1.46596 28.0994 1.16609 24.8009C-0.483163 20.7528 -0.0333659 18.6537 0.416431 17.1544C0.866228 15.805 1.61589 14.6055 2.66542 13.7059C3.71494 12.8064 5.3642 11.307 6.26379 10.4074C6.56366 10.1076 7.91305 8.75818 8.06298 8.45831C8.66271 7.70865 9.1125 6.95899 9.71223 6.20933C10.312 5.45967 11.0616 5.00987 11.9612 4.85994C12.7109 4.85994 13.3106 5.1598 13.9103 5.45967C14.5101 5.75953 15.2597 5.90946 15.8595 5.6096C16.6091 5.30974 17.0589 4.71001 17.5087 4.26021C18.5582 3.36061 20.0576 3.21068 21.257 3.96034C22.1566 4.41014 22.7563 5.30974 23.506 6.0594C24.5555 6.95899 28.6037 7.25886 31.0026 10.5574L31.3025 10.8572C31.7523 11.307 32.352 11.7568 32.9517 11.9068L34.9009 12.5065C35.2007 12.6564 35.5006 12.6564 35.6505 12.6564C36.9999 12.6564 38.3493 11.9068 38.949 10.7073L40.8982 6.65913L43.7469 1.41149C43.447 1.56143 42.9972 1.41149 42.6973 1.11163L42.0976 0.661833L42.6973 0.212036C42.9972 0.062104 43.447 -0.0878283 43.7469 0.062104L45.2462 0.511901L48.6946 0.361969C49.8941 0.361969 51.0936 0.511901 52.293 0.811766L53.4925 1.11163C53.9423 1.26156 54.2421 1.56143 54.2421 2.01122V2.61095L54.3921 2.76089C54.542 2.91082 54.542 3.06075 54.542 3.21068C54.542 3.51055 54.2421 3.66048 54.0922 3.66048H52.7428L54.6919 4.11028L54.542 4.26021C54.3921 4.56007 53.9423 4.56007 53.6424 4.56007L53.3425 4.41014C52.7428 4.85994 51.8432 4.41014 51.8432 4.41014C50.7937 5.6096 49.2944 6.35926 47.6451 6.35926L42.2475 15.5051C40.7482 18.054 37.8995 19.7032 34.9009 19.7032H31.4524C31.1526 20.303 30.7028 20.7528 30.253 21.2026C29.8032 23.0017 29.0535 24.5011 28.004 26.0004C29.8032 27.6496 31.7523 29.4488 33.7014 31.0981C34.3011 31.6978 34.7509 32.4475 34.7509 33.3471C34.7509 34.3966 34.3011 35.4461 33.5515 36.3457C32.8018 37.2453 32.0521 37.995 31.1526 38.8946C30.4029 39.6442 29.5033 40.5438 29.0535 41.5934C29.2034 42.0432 29.2034 42.4929 29.2034 42.9427C29.2034 43.2426 29.0535 43.5425 28.7536 43.6924C28.3038 43.8423 27.854 43.6924 27.7041 43.3925C27.4042 42.6429 27.1044 41.8932 26.8045 41.1436C26.6546 40.6938 26.8045 40.094 27.2543 39.7942C27.4042 39.6442 27.5542 39.6442 27.7041 39.4943C29.8032 38.4448 31.0026 36.0459 31.7523 33.9468C31.3025 33.497 31.0026 32.7473 30.8527 32.1476C29.0535 31.0981 27.1044 30.0486 25.3052 28.999L24.8554 30.7982C26.2048 33.3471 25.1553 36.3457 24.7055 38.1449L25.755 45.9414H27.1044C27.4042 45.9414 27.854 46.2413 27.854 46.5411C28.004 46.9909 27.7041 47.4407 27.2543 47.4407L24.7055 47.8905C24.1057 48.0404 23.6559 47.5906 23.6559 46.9909V45.9414L22.9063 37.995C21.1071 33.9468 22.3065 30.6483 22.3065 30.6483L21.8568 24.5011L20.9572 24.651L21.257 27.1999L10.0121 26.4502L9.86217 23.6015L9.26244 23.3016C7.76311 24.2012 6.86352 24.2012 6.86352 24.2012C6.86352 28.3993 6.86352 32.5974 6.86352 36.7955C9.26244 39.7942 9.1125 43.3925 13.1607 47.4407L14.8099 47.5906C15.2597 47.5906 15.5596 48.0404 15.5596 48.4902C15.5596 48.94 15.2597 49.2399 14.8099 49.3898L12.5609 49.8396C12.1112 49.9896 11.6614 49.6897 11.6614 49.2399L11.5114 48.4902C9.71223 44.4421 4.9144 40.9936 4.61454 38.7446C4.4646 37.5452 4.31467 36.0459 4.01481 34.0967L4.61454 34.3966Z" fill="#1E4A35"/>
</svg>
