<svg width="41" height="35" viewBox="0 0 41 35" fill="none" xmlns="http://www.w3.org/2000/svg">
<path d="M4.53948 21.6657L2.47608 25.7925C2.68242 27.8559 4.33314 30.7447 5.36484 32.6017L6.39654 33.0144C6.60288 33.0144 6.80922 33.2208 6.80922 33.4271C6.80922 33.8398 6.60288 34.0461 6.1902 34.0461L4.53948 33.8398C4.1268 33.8398 3.92046 33.4271 3.92046 33.2208V32.6017C3.30144 29.713 0.41268 28.0623 0 25.9989C0 25.5862 0 25.1735 0.41268 24.7608C2.0634 22.9038 2.47608 20.015 2.88876 17.9516C1.44438 15.0628 1.85706 13.6184 2.26974 12.5867C2.47608 11.7614 3.0951 10.936 3.71412 10.1107C4.33314 9.49165 5.57118 8.45994 6.1902 7.84092C6.39654 7.63458 7.2219 6.60288 7.42824 6.39654C7.84092 5.98386 8.04726 5.36484 8.45994 4.95216C8.87262 4.53948 9.49164 4.1268 10.1107 4.1268C10.5233 4.1268 10.936 4.33314 11.555 4.53948C11.9677 4.74582 12.5867 4.74582 12.9994 4.74582C13.4121 4.53948 13.8248 4.1268 14.2375 3.71412C14.8565 3.0951 16.0945 2.88876 16.9199 3.50778C17.5389 3.92046 17.9516 4.53948 18.5706 4.95216C19.1896 5.57118 22.0784 5.77752 23.9355 8.04726L24.1418 8.2536C24.3481 8.66629 24.7608 8.87263 25.3798 8.87263L26.6179 9.28531C26.8242 9.28531 27.0306 9.28531 27.2369 9.28531C28.2686 9.28531 29.094 8.66629 29.5066 7.84092L30.7447 4.95216L32.6017 1.23804C32.3954 1.23804 32.1891 1.23804 31.9827 1.0317L31.57 0.61902L31.9827 0.20634C32.1891 0 32.3954 0 32.6017 0L33.6334 0.41268L35.9032 0.20634C36.7285 0.20634 37.5539 0.20634 38.3793 0.41268L39.2046 0.61902C39.411 0.61902 39.6173 1.0317 39.6173 1.23804V1.65072H39.8236L40.03 1.85706C40.03 2.0634 39.8236 2.0634 39.6173 2.0634H38.7919L40.03 2.26974V2.47608C39.8236 2.68242 39.6173 2.68242 39.411 2.68242H39.2046C38.7919 2.88876 38.1729 2.68242 38.1729 2.68242C37.5539 3.50778 36.5222 4.1268 35.2842 4.1268L31.7764 10.5233C30.7447 12.3804 28.8876 13.4121 26.8242 13.6184H24.5545C24.3481 14.0311 24.1418 14.4438 23.7291 14.6501C23.5228 15.8882 22.9038 16.9199 22.2847 17.9516C23.5228 18.9833 24.9672 20.2213 26.2052 21.4594C26.6179 21.8721 27.0306 22.4911 27.0306 23.1101C27.0306 24.9672 27.8559 26.8242 28.2686 28.6813C28.6813 28.8876 28.8876 29.3003 29.094 29.5066C29.094 29.5066 29.3003 29.713 29.3003 29.9193C29.3003 30.1257 29.3003 30.1257 29.3003 30.332C29.094 30.5383 28.8876 30.332 28.6813 30.332C28.2686 30.1257 27.8559 30.1257 27.4432 29.9193C27.2369 29.9193 27.0306 29.713 26.8242 29.713C26.6179 29.5066 26.6179 28.8876 26.8242 28.6813C26.4115 27.0306 26.2052 25.1735 25.1735 23.7291C24.9672 23.3164 24.5545 22.9038 24.5545 22.4911C23.3164 21.6657 21.8721 21.0467 20.634 20.4277L20.4277 21.6657C21.4594 23.3164 20.8404 25.5862 20.4277 26.8242L21.253 32.1891H22.2847C22.4911 32.1891 22.6974 32.3954 22.9038 32.6017C22.9038 32.8081 22.6974 33.2208 22.4911 33.2208L20.8404 33.6334C20.4277 33.6334 20.015 33.4271 20.015 33.0144V32.3954L19.396 27.0306C17.9516 24.1418 18.7769 21.8721 18.7769 21.8721L18.3643 17.5389L17.7452 17.7453L17.9516 19.396L10.1107 18.9833L9.90433 16.9199L9.49164 16.7135C8.45994 17.3326 7.84092 17.3326 7.84092 17.3326C7.84092 20.2213 8.04726 23.1101 8.04726 25.9989C9.69798 28.0623 9.69798 30.5383 12.5867 33.2208H13.6184C14.0311 33.2208 14.2375 33.4271 14.2375 33.8398C14.2375 34.0461 14.0311 34.4588 13.6184 34.4588L12.1741 34.8715C11.9677 34.8715 11.555 34.6651 11.555 34.4588V33.8398C10.317 31.1574 7.01556 28.8876 6.60288 27.2369C6.39654 25.9989 6.39654 23.9355 5.36484 21.253L4.53948 21.6657Z" fill="#1E4A35"/>
</svg>
