<svg width="117" height="90" viewBox="0 0 117 90" fill="none" xmlns="http://www.w3.org/2000/svg">
<path d="M71.2212 14.7642C67.2098 15.7143 63.5678 17.8784 60.0314 20.0424C56.495 22.2593 52.9586 24.5289 49.0528 25.7429C44.8302 27.0624 40.291 27.168 35.8573 27.0624C31.4236 27.0096 26.9372 26.7985 22.5563 27.643C17.8587 28.5403 13.3722 30.7044 9.73026 33.8185C6.08831 36.9326 3.23809 40.9968 1.65463 45.5361C0.0711729 50.0753 -0.351082 55.0368 0.598992 59.7344C1.54907 64.432 3.76591 68.9185 7.03838 72.4548C12.1054 77.997 19.3366 81.0583 26.6733 82.6418C34.0099 84.2252 41.505 84.4891 49 85.2809C55.281 85.967 61.5621 86.9699 67.8959 87.2866C74.2297 87.6033 80.6691 87.181 86.6335 84.9642C94.8147 81.9556 101.624 75.569 105.529 67.7573C109.382 59.9455 110.333 50.7615 108.38 42.2636C106.955 35.877 103.893 29.8599 99.5123 25.0567C95.1314 20.2536 89.3254 16.6644 82.9915 15.0281C79.1912 14.0781 75.1798 13.8142 71.3795 14.7115L71.2212 14.7642Z" fill="#E7F5F6"/>
<path d="M103.049 29.8599C100.568 30.8099 98.7205 33.1323 98.7205 36.1937C98.7205 37.7244 95.6064 34.7686 94.2341 35.3492C92.0172 36.352 91.7533 41.2608 91.3839 40.6274C90.9616 39.9412 89.4309 37.3021 85.4723 41.1024H107.905C106.849 37.1438 105.213 33.2907 102.996 29.8599H103.049Z" fill="white"/>
<path d="M91.9117 42.6331L90.8033 44.3749L87.3197 44.4804L84.3639 47.8057L38.2325 58.6788L29.154 55.9869L26.4621 57.3592L21.9229 56.2508L15.9585 48.9141L10.0997 49.4419L8.67462 46.9612L1.76019 45.061C1.70741 45.1666 1.65463 45.2722 1.65463 45.3777C1.65463 45.4305 1.60185 45.4833 1.60185 45.5361C1.39072 46.1167 1.17959 46.75 1.02125 47.3306C1.02125 47.3834 0.968465 47.489 0.968465 47.5418C0.915683 47.7001 0.915683 47.8057 0.862901 47.964C0.282301 50.2864 0.018391 52.6616 0.0711729 55.0368C0.0711729 55.1951 0.0711729 55.3535 0.0711729 55.4591C0.0711729 55.5118 0.0711729 55.6174 0.0711729 55.6702C0.0711729 55.723 0.0711729 55.8285 0.0711729 55.8813C0.0711729 55.9341 0.0711729 56.0397 0.0711729 56.0924C0.0711729 56.2508 0.0711729 56.4091 0.123955 56.5675C0.229519 57.6231 0.335082 58.6788 0.54621 59.6816C0.757338 60.79 1.07403 61.8985 1.39072 62.9541C1.39072 63.0069 1.4435 63.1124 1.4435 63.1652C1.4435 63.218 1.49628 63.3236 1.49628 63.3763C1.49628 63.4291 1.54907 63.5347 1.54907 63.5875C1.60185 63.7458 1.65463 63.8514 1.70741 64.0097C1.76019 64.1681 1.81298 64.2736 1.86576 64.432C1.91854 64.4848 1.91854 64.5903 1.97132 64.6431C3.13252 67.4933 4.82154 70.1324 6.88004 72.4021C9.57192 75.3051 12.8444 77.5747 16.4336 79.2637C16.6975 79.3693 16.9086 79.4748 17.1725 79.6332C17.3309 79.686 17.4892 79.7915 17.6475 79.8443C20.4978 81.0583 23.4536 81.9556 26.4621 82.6417C31.7931 83.8029 37.2296 84.278 42.7189 84.753H42.9829L43.4579 84.8058H43.7218L44.1441 84.8586C45.7275 85.0169 47.2582 85.1225 48.8417 85.2808C50.8474 85.492 52.8003 85.7559 54.806 85.967C59.0286 86.4948 63.1983 87.0226 67.4737 87.2865C67.5792 87.2865 67.6848 87.2865 67.7904 87.2865C68.9516 87.3393 70.1655 87.3921 71.3795 87.3921C71.4851 87.3921 71.5907 87.3921 71.6962 87.3921C72.0129 87.3921 72.2768 87.3921 72.5935 87.3921C72.963 87.3921 73.3852 87.3921 73.7547 87.3393H73.8075C78.1884 87.181 82.4637 86.4948 86.5807 84.9641C91.1727 83.2751 95.3425 80.5305 98.8261 77.0469C101.518 74.355 103.788 71.1881 105.477 67.7572C105.529 67.6517 105.582 67.5461 105.635 67.4405L105.688 67.3878C105.741 67.2822 105.793 67.1766 105.846 67.0711L105.899 67.0183C105.952 66.9127 106.004 66.8072 106.057 66.7016L106.11 66.6488C106.163 66.5433 106.216 66.4377 106.268 66.3321V66.2793C106.321 66.1738 106.374 66.0682 106.427 65.9627C106.427 65.9627 106.427 65.9099 106.479 65.9099C106.532 65.8043 106.585 65.6987 106.585 65.5932L106.638 65.4876C106.691 65.3821 106.743 65.2765 106.743 65.1709C106.743 65.1181 106.743 65.1181 106.796 65.0654C106.849 64.9598 106.902 64.8542 106.902 64.7487L106.955 64.6959C107.007 64.5903 107.007 64.4848 107.06 64.432C107.06 64.3792 107.06 64.3792 107.113 64.3264C107.166 64.2209 107.166 64.1153 107.218 64.0097C107.218 63.9569 107.218 63.9569 107.271 63.9042C107.324 63.7986 107.324 63.693 107.377 63.5875C107.377 63.5347 107.377 63.5347 107.43 63.4819C107.482 63.3763 107.482 63.2708 107.535 63.218C107.535 63.1652 107.535 63.1652 107.588 63.1124C107.641 63.0069 107.641 62.9541 107.693 62.8485C107.693 62.7957 107.693 62.7957 107.746 62.743C107.799 62.6374 107.799 62.5318 107.852 62.4791C107.852 62.4263 107.852 62.3735 107.905 62.3735C107.957 62.2679 107.957 62.1624 108.01 62.1096C108.01 62.0568 108.063 62.004 108.063 61.9512C108.063 61.8985 108.116 61.7929 108.116 61.7401C108.116 61.6873 108.169 61.6345 108.169 61.5818C108.169 61.529 108.221 61.4234 108.221 61.3706C108.221 61.3179 108.274 61.2651 108.274 61.1595C108.274 61.1067 108.327 61.0012 108.327 60.9484C108.327 60.8956 108.38 60.8428 108.38 60.79C108.38 60.6845 108.432 60.6317 108.432 60.5261C108.432 60.4733 108.485 60.4206 108.485 60.3678C108.485 60.315 108.538 60.2622 108.538 60.2094C108.538 60.1039 108.591 60.0511 108.591 59.9455C108.591 59.8927 108.591 59.84 108.644 59.7872C108.644 59.6816 108.696 59.6288 108.696 59.5233C108.696 59.4705 108.696 59.4177 108.749 59.3649C108.749 59.3121 108.802 59.2594 108.802 59.1538C108.802 59.101 108.855 58.9954 108.855 58.9427C108.855 58.8899 108.907 58.8371 108.907 58.7315C108.907 58.6788 108.907 58.626 108.907 58.626C108.907 58.5204 108.96 58.4148 108.96 58.3093C108.96 58.2565 108.96 58.2565 108.96 58.2037C108.96 58.0982 109.013 57.9926 109.013 57.887C109.013 57.8342 109.013 57.8342 109.013 57.7815C109.066 57.5703 109.066 57.3592 109.119 57.1481V57.0953C109.119 56.9897 109.171 56.8314 109.171 56.7258V56.673C109.171 56.5675 109.224 56.4091 109.224 56.3036V56.2508C109.277 56.0397 109.277 55.7758 109.33 55.5646C109.33 55.4063 109.382 55.2479 109.382 55.1424V55.0896C109.382 54.9312 109.435 54.8257 109.435 54.6673V54.6145C109.488 54.2451 109.488 53.8756 109.541 53.5061L101.94 45.9055L92.3339 42.6331H91.9117Z" fill="#9CDADB"/>
<path d="M15.9057 48.9141L10.3636 49.4419L4.29373 58.4148L5.29658 59.8927L15.5363 60.3677L20.1811 54.2978L15.853 48.9668L15.9057 48.9141ZM109.119 53.5589V53.5061L101.518 45.9055L100.99 59.5232C100.99 59.5232 104.949 59.7343 108.274 59.7343C108.644 58.0453 108.907 56.3563 109.066 54.6673C109.066 54.5617 109.066 54.4562 109.119 54.2978V54.1922C109.119 54.0867 109.119 53.9811 109.119 53.8756V53.77C109.119 53.6644 109.119 53.5589 109.119 53.4533V53.5589ZM8.67462 47.0139L4.71598 52.4504L0.282302 50.7086C0.0183929 52.3449 -0.034389 54.0339 0.0183929 55.6701L3.02696 56.8841L9.99417 49.3363L8.67462 46.9611V47.0139ZM87.3197 44.5332L84.3639 47.8584L81.7248 48.4918L84.1 54.984L88.2697 57.0425L91.0144 54.2978L87.3197 44.5859V44.5332ZM91.8589 42.6858L90.7505 44.4276L98.0872 53.4533C98.0872 53.4533 99.4595 51.6059 99.1428 51.0253C98.8261 50.3919 91.8061 42.6858 91.8061 42.6858H91.8589Z" fill="#B5E3E4"/>
<path d="M6.03556 53.5061C4.34654 54.0867 3.66038 57.2536 4.29376 61.1067C2.92143 60.4206 1.65466 60.2094 0.70459 60.4733C1.70745 64.907 3.8715 69.0768 6.98564 72.4548C7.83015 73.3521 8.67466 74.1966 9.62473 74.9356C10.2581 74.8828 10.7859 74.6717 11.2082 74.355C11.4193 74.1966 11.5777 73.9855 11.736 73.7216C12.2638 74.4078 12.8972 74.7772 13.5834 74.8828C14.7446 75.0411 16.0113 74.2494 17.067 72.7187C18.1226 71.1881 18.8616 69.024 19.1255 66.7016C19.7061 61.8984 18.2282 57.7287 15.8002 57.412C14.4807 57.2536 13.1083 58.2037 11.9999 60.1039C10.6804 55.9341 8.2524 53.1367 6.35225 53.4533C6.24669 53.4533 6.19391 53.5061 6.08834 53.5061H6.03556Z" fill="#007391"/>
<path d="M6.61616 55.8813C9.20247 59.7872 9.73029 63.6403 10.2053 67.1767C10.522 69.5519 10.8387 71.7687 11.736 73.6688L11.5249 73.7744C10.5748 71.8215 10.3109 69.6046 9.94142 67.2295C9.46638 63.7459 8.93856 59.9456 6.40503 56.0397L6.61616 55.8813Z" fill="#2B8DA7"/>
<path d="M4.3993 61.054C5.45494 62.004 6.82727 63.957 8.04125 66.121C9.09689 68.0212 9.9414 70.0797 10.3109 71.8215L10.047 71.8742C9.67749 70.1324 8.83298 68.0739 7.77734 66.2266C6.61614 64.1153 5.24381 62.2152 4.18817 61.2651L4.34652 61.1067L4.3993 61.054Z" fill="#005267"/>
<path d="M12.0527 60.1566C11.4721 61.6345 11.2082 63.3763 11.1026 65.2237C10.997 67.071 11.1026 68.9712 11.1554 70.7658H10.8915C10.8387 68.9712 10.7331 67.071 10.8387 65.2237C10.9443 63.3763 11.2082 61.5817 11.7888 60.051L11.9999 60.1566H12.0527Z" fill="#005267"/>
<path d="M5.87721 70.8187C6.56338 71.6104 7.30232 72.2965 8.09405 72.8244C8.88578 73.3522 9.67751 73.7744 10.522 73.9328L10.4165 74.4078C9.51916 74.1967 8.62187 73.7744 7.77736 73.1938C6.98563 72.6132 6.1939 71.9271 5.45496 71.0826L5.82443 70.7659L5.87721 70.8187Z" fill="#2B8DA7"/>
<path d="M15.853 60.2622C15.9585 62.6902 16.0641 64.9598 15.853 67.2294C15.6418 69.499 15.1668 71.7159 14.164 73.9327L13.7417 73.7216C14.6918 71.5575 15.1668 69.3935 15.3779 67.1766C15.5891 64.9598 15.4835 62.6374 15.3779 60.2622H15.853Z" fill="#2B8DA7"/>
<path d="M47.5749 22.7344C47.5749 23.4734 47.311 24.1595 46.7832 24.6873C46.3082 25.2152 45.622 25.4791 44.883 25.4791C44.1969 25.4791 43.5107 25.2152 42.9829 24.6873C42.5079 24.1595 42.1912 23.4734 42.1912 22.7344C42.1912 21.2037 43.4051 19.9897 44.8303 19.9897C46.3082 19.9897 47.4694 21.2037 47.4694 22.7344H47.5749Z" fill="#E67051"/>
<path d="M68.4237 22.7344C68.4237 23.4734 68.1598 24.1595 67.632 24.6873C67.157 25.2152 66.4708 25.4791 65.7319 25.4791C65.0457 25.4791 64.3595 25.2152 63.8317 24.6873C63.3567 24.1595 63.04 23.4734 63.04 22.7344C63.04 21.2037 64.254 19.9897 65.6791 19.9897C67.157 19.9897 68.3182 21.2037 68.3182 22.7344H68.4237Z" fill="#E67051"/>
<path d="M95.712 2.88843C92.5979 8.53609 92.4923 13.2865 93.6535 17.2979C90.3283 15.1338 85.8418 14.5004 81.672 16.3478L89.167 20.7287C86.1057 20.8871 82.7277 22.365 79.6135 26.2708L92.2284 26.3236C86.3168 28.2237 82.9916 35.2965 84.1 39.0968L97.8761 27.1153L98.4567 31.6546L97.1371 31.1795L97.7705 36.4049L96.6093 35.9299L97.5066 41.5776L96.3454 40.5747L96.1343 48.8615L95.2898 47.8586L94.1285 54.8786L93.4952 53.823L92.7562 61.6347L91.8589 60.3151L90.3283 66.3851L89.4837 69.4464L92.3867 82.0085C93.7063 81.2168 94.9203 80.2667 96.1343 79.3166L95.9759 78.3138L101.043 65.435L99.6706 65.3822L103.629 57.201L100.937 57.1482L103.524 49.2837L101.465 49.4421L103.524 42.1582L102.046 41.9998L103.26 35.666L101.254 36.5633L101.412 30.0711L100.198 31.2851L99.7234 26.7986L116.508 33.977C116.403 30.0183 111.072 24.3179 104.896 24.3179L116.878 20.412C112.708 17.6674 109.066 17.2979 106.11 18.0368L111.916 11.5447C106.691 11.0168 101.993 13.7615 99.7234 17.7201C99.829 13.5504 99.09 8.8 95.6064 2.88843H95.712Z" fill="#6CC1C2"/>
<path d="M53.4337 29.5432L50.8474 29.8599C50.8474 29.8599 51.4808 38.1467 50.3196 39.4134C49.1584 40.733 37.5991 44.1638 36.1212 48.8086C34.3794 54.773 32.9015 72.9299 32.1098 83.6974C39.077 84.278 47.5221 86.9699 56.2839 87.3922C62.6177 87.7089 69.0571 87.2866 75.0215 85.0698C76.1827 84.6475 77.2911 84.1725 78.3995 83.5919C77.6078 72.666 76.0243 54.5618 74.3881 48.8614C73.3852 45.4833 61.351 40.7858 60.1898 39.4662C59.0286 38.1467 59.662 29.9127 59.662 29.9127L57.0756 29.596L55.2811 31.3378L53.4865 29.596L53.4337 29.5432Z" fill="#F3B294"/>
<path d="M59.5036 30.7043C58.7119 30.7043 57.5507 31.021 55.7561 31.4961C53.9615 31.9183 51.8502 32.235 51.0057 33.7129C51.0057 33.8713 51.0057 33.9768 51.0057 34.1352C54.5949 39.255 58.0257 40.0467 59.8731 38.78C59.3453 36.9326 59.5036 32.5517 59.6092 30.7043C59.5564 30.7043 59.5564 30.7043 59.5036 30.7043Z" fill="#E67051"/>
<path d="M47.2582 7.26927C48.4194 6.68867 50.4251 5.73859 52.7475 5.26356C55.0699 4.78852 57.7618 4.78852 59.6619 5.21078C61.5621 5.68581 62.7761 6.5831 63.7261 7.74431C64.729 8.90551 65.5207 10.2778 65.943 12.3891C66.3652 14.5004 66.418 17.3506 66.2069 20.5703C66.0486 23.79 65.6791 27.3792 64.254 29.9655C62.8816 32.5518 60.5065 34.0825 58.1313 34.8214C55.7561 35.5076 53.4337 35.402 51.2696 34.4519C49.1056 33.5019 47.0471 31.7073 45.7803 27.8014C44.5135 23.9484 44.0385 17.984 44.1441 14.3948C44.1968 10.8057 44.7774 9.59167 45.2525 8.85273C45.7275 8.11378 46.0442 7.84987 47.2054 7.21649L47.2582 7.26927Z" fill="#F3B294"/>
<path d="M46.097 13.9198C46.097 13.9198 44.7774 22.2065 44.6191 21.9954C44.4607 21.7843 41.2938 14.6587 41.2938 14.6587L42.6662 11.3862C42.6662 11.3862 44.3552 12.4947 44.6719 12.8113C44.9886 13.128 46.0442 13.867 46.0442 13.867L46.097 13.9198Z" fill="#5E2425"/>
<path d="M63.3567 12.917C63.3567 12.917 66.1013 21.7843 66.1541 21.5204C66.2069 21.2565 70.2711 11.3335 70.2711 11.3335L67.157 8.32495L63.3567 12.8642V12.917Z" fill="#5E2425"/>
<path d="M68.4765 8.06096C66.5236 17.1395 53.3809 17.2978 46.9943 17.2978L49.3167 13.9198C44.8302 14.7643 40.5021 13.0752 40.1854 11.2807C43.2468 3.46894 61.6149 -7.87917 68.4765 8.00818V8.06096Z" fill="#7F2D2E"/>
<path d="M97.5594 59.7872C99.2484 60.3678 99.9346 63.5347 99.3012 67.3878C101.254 66.4377 102.943 66.3849 103.946 67.2294C104.421 67.6517 104.685 68.2323 104.843 68.9184C102.204 73.7744 98.4039 77.9969 93.8646 81.1639C93.3368 81.1111 92.8618 80.8999 92.4923 80.5833C92.2812 80.4249 92.1228 80.2138 91.9645 79.9499C91.4367 80.636 90.8033 81.0055 90.1171 81.1111C88.9559 81.2694 87.6892 80.4777 86.6335 78.947C85.5779 77.4163 84.8389 75.2523 84.575 72.9299C83.9944 68.1267 85.4723 63.9569 87.9003 63.6403C89.2198 63.4819 90.5922 64.432 91.7006 66.3321C93.0201 62.1624 95.4481 59.3649 97.3483 59.6816C97.4538 59.6816 97.5066 59.7344 97.6122 59.7344L97.5594 59.7872Z" fill="#007391"/>
<path d="M97.1899 62.3207C94.6563 66.1738 94.1285 70.0269 93.6535 73.5105C93.3368 75.8856 93.0201 78.1025 92.07 80.0554L91.8589 79.9499C92.7562 78.0497 93.0729 75.8329 93.3896 73.4577C93.8646 69.9741 94.3924 66.121 96.9787 62.1624L97.1899 62.3207Z" fill="#2B8DA7"/>
<path d="M99.4595 67.599C98.4039 68.549 97.0843 70.4492 95.9231 72.5605C94.9203 74.4078 94.023 76.4663 93.6535 78.1553L93.1785 78.0498C93.5479 76.2552 94.4452 74.1967 95.4481 72.2966C96.6621 70.1325 98.0344 68.1796 99.09 67.2295L99.4067 67.599H99.4595Z" fill="#005267"/>
<path d="M89.2726 67.071C89.8532 68.6017 90.1171 70.3963 90.2227 72.2437C90.3282 74.091 90.2227 75.9912 90.1699 77.7858H89.906C89.9587 75.9912 90.0643 74.091 89.9587 72.2437C89.8532 70.3963 89.5893 68.6545 89.0087 67.1766L89.2198 67.071H89.2726Z" fill="#005267"/>
<path d="M102.89 69.9741C102.732 70.238 102.679 70.3435 102.626 70.4491C100.568 73.9855 97.2954 79.6859 93.1257 80.5832L93.0729 80.3193C97.1371 79.4748 100.41 73.8271 102.415 70.2908L102.679 69.7629L102.89 69.8685V69.9741Z" fill="#2B8DA7"/>
<path d="M76.4994 66.5432C76.2883 71.3464 76.1827 75.7273 78.1357 80.1082" stroke="#2B8DA7" stroke-width="4.7955"/>
<path d="M59.8203 44.9556C56.7589 48.8086 50.6362 56.5148 47.2582 60.4734C43.8802 64.4321 43.1412 64.696 42.7717 64.9599C42.4023 65.2238 42.3495 65.5405 42.0328 68.813C41.7161 72.0855 41.0827 78.3665 40.6605 82.9058C40.5549 83.9086 40.5021 84.1197 40.3965 84.9642C45.6747 85.5976 50.9001 87.0755 56.2311 87.3394C61.5621 87.6033 79.7718 88.8173 84.3111 85.756C82.9915 77.5748 77.8717 61.054 76.2882 54.4563C74.4409 46.8029 74.2825 46.5918 74.1242 46.4335C73.9658 46.2751 73.9131 46.1695 73.8603 45.7473C73.8603 45.325 73.9131 44.6389 73.438 44.0583C72.963 43.4777 72.0129 43.0026 71.3795 42.7915C70.7461 42.5804 70.4294 42.5804 70.1655 42.6332C69.9016 42.6859 69.7433 42.7915 69.6377 42.8443C69.5322 42.8443 69.5849 42.7915 69.321 42.422C69.0571 42.0526 68.5293 41.4192 67.7904 40.9441C67.0514 40.4691 66.1541 40.1524 65.5207 39.9941C64.8873 39.8885 64.5707 39.9413 64.3067 40.0468C64.0428 40.2052 63.8845 40.4163 63.7261 40.4691C63.5678 40.5747 63.515 40.5219 63.3567 40.5219C63.1983 40.5219 63.04 40.6274 62.9344 40.733C62.8289 40.8386 62.8289 40.9441 62.8289 40.9969C62.8289 41.0497 62.8289 41.0497 59.7675 44.9028L59.8203 44.9556Z" fill="white"/>
<path d="M72.5935 54.8785L71.4851 87.4449C72.8574 87.0755 76.4994 87.6561 77.8189 87.0755L72.5935 54.8785ZM40.5021 85.017C43.1412 85.3337 46.7304 86.3365 49.3695 86.6004C63.7262 77.4164 71.3268 59.3122 72.9102 47.8057C66.5236 67.9156 49.9501 81.6917 49.7917 77.8386C56.6534 66.7544 67.2625 61.1068 69.6377 43.4776C63.04 64.0098 44.7775 72.0326 44.0913 70.3964L62.5122 41.5247C62.1427 41.9997 61.351 42.9498 59.8203 44.9027C56.7589 48.7558 50.6362 56.462 47.2582 60.4206C43.8802 64.3793 43.1412 64.6432 42.7717 64.9071C42.4023 65.171 42.3495 65.4877 42.0328 68.7601C41.7161 72.0326 41.0827 78.3137 40.6605 82.8529C40.5549 83.8558 40.5549 84.0669 40.4493 84.9114L40.5021 85.017ZM56.7062 87.3922C59.0286 87.4977 61.4038 87.4977 63.7789 87.3394C66.3125 84.0669 68.0543 80.0555 69.7961 76.1496C65.7847 83.1168 61.1398 86.1254 56.7062 87.4449V87.3922ZM63.0928 40.6802C63.04 40.733 62.9872 40.733 62.9872 40.7857C62.9344 40.8385 62.8816 40.9441 62.8816 40.9969L63.0928 40.6802Z" fill="#E6F4F8"/>
<path d="M69.7961 43.4776C69.0571 48.3335 65.7846 54.8257 61.2982 60.3678C57.3923 65.2237 52.5364 69.2879 47.6277 70.8714L47.5221 70.5547C52.378 69.024 57.1284 64.9598 61.0343 60.1567C65.4679 54.6674 68.6876 48.1752 69.4266 43.4248L69.7433 43.4776H69.7961Z" fill="#8CB5BF"/>
<path d="M52.7475 57.2537H60.7703V69.8158H52.7475V57.2537Z" fill="#F9A56E"/>
<path d="M48.525 39.9939C48.3139 40.7329 48.1555 41.4718 48.0499 42.3163C47.8388 45.0082 48.4722 48.1224 49.7917 50.7087C51.1113 53.295 53.117 55.459 55.545 56.2508C56.02 56.4091 56.5478 56.5147 57.0756 56.5675L57.0229 56.9369C56.4423 56.8842 55.9144 56.7786 55.3866 56.6202C52.8531 55.7757 50.7946 53.6117 49.4223 50.9198C48.0499 48.2279 47.4166 45.1138 47.6277 42.3163C47.6805 41.4718 47.8388 40.6801 48.1027 39.9412L48.4194 40.0467L48.525 39.9939Z" fill="#8CB5BF"/>
<path d="M62.9872 40.3108C63.8845 43.2666 63.8317 47.278 62.6705 50.656C61.6676 53.5063 59.9258 55.8815 57.1812 56.8843L57.0756 56.5676C59.6619 55.6175 61.4037 53.2951 62.3538 50.5505C63.515 47.2252 63.5678 43.3194 62.6705 40.4164L63.04 40.3108H62.9872Z" fill="#8CB5BF"/>
<path d="M57.4979 56.7786C57.4979 56.9897 57.3924 57.2008 57.234 57.3592C57.0757 57.5175 56.8645 57.6231 56.6534 57.6231C56.1784 57.6231 55.8089 57.2536 55.8089 56.7786C55.8089 56.3036 56.1784 55.9341 56.6534 55.9341C56.8645 55.9341 57.0757 56.0396 57.234 56.198C57.3924 56.3563 57.4979 56.5675 57.4979 56.7786Z" fill="#FFF6D5"/>
<path d="M72.7519 54.8784V85.8086H72.4352V54.8784H72.7519Z" fill="#8CB5BF"/>
<path d="M73.0158 47.8057C72.1185 52.9256 69.9544 58.0454 67.1042 62.743C63.9373 67.9684 59.8731 72.666 55.5977 76.3607L55.3866 76.0968C59.6091 72.4549 63.6206 67.7573 66.7875 62.5846C69.6377 57.8871 71.8018 52.82 72.6991 47.7529L73.0158 47.8057Z" fill="#8CB5BF"/>
<path d="M55.1227 87.1281C58.5535 86.2836 61.9843 84.7002 64.729 82.5889C67.157 80.7415 68.9515 78.5247 69.6377 76.0439L69.9544 76.1495C69.2682 78.683 67.3681 81.0054 64.9401 82.8528C62.1955 84.9641 59.1341 86.442 55.7033 87.2865L55.1227 87.0754V87.1281Z" fill="#8CB5BF"/>
<path d="M40.291 84.9642L43.194 55.0896H43.5107L40.6076 85.0169L40.291 84.9642Z" fill="#C57A57"/>
<path d="M41.3466 74.5133C40.9244 73.8271 40.3438 73.4576 39.6576 73.2993C38.9714 73.0882 38.1797 73.0882 37.3352 73.0882V72.7715C38.1797 72.7715 38.9714 72.7715 39.7104 72.9826C40.4493 73.1937 41.1355 73.5632 41.6105 74.3549L41.3466 74.5133Z" fill="#C57A57"/>
<path d="M34.6433 35.1909C36.649 35.9298 38.2853 36.6688 40.1327 34.4519C40.6605 33.8185 42.2967 32.9213 42.8773 31.7601C43.669 30.1238 43.3523 28.2764 43.4051 28.382C47.2054 42.6859 22.7674 53.0312 22.5035 27.6431C22.0812 34.7158 28.9429 35.1381 34.6433 35.1381V35.1909Z" fill="#E6F4F8"/>
<path d="M54.2254 30.4932C54.2782 30.4404 54.4365 30.546 54.7004 30.5988C54.9643 30.7043 55.3338 30.8099 55.7561 30.8099C56.1783 30.8099 56.5478 30.7043 56.8645 30.6516C57.1812 30.5988 57.3395 30.546 57.3923 30.6516C57.4451 30.7043 57.2868 30.8627 57.0228 31.021C56.7589 31.1794 56.3367 31.3377 55.8089 31.3377C55.8089 31.3377 55.8089 31.3377 55.7561 31.3377C55.2283 31.3377 54.806 31.1266 54.4893 30.9155C54.2254 30.7043 54.1198 30.4932 54.1726 30.4404L54.2254 30.4932Z" fill="white"/>
<path d="M12.6333 43.8999C12.5277 44.0054 12.211 43.8471 12.0527 43.8471C11.8943 43.8471 11.5776 44.0054 11.4721 43.8999C11.3665 43.7943 11.5249 43.4776 11.5249 43.3193C11.5249 43.1609 11.3665 42.8442 11.4721 42.7387C11.5776 42.6331 11.8943 42.7915 12.0527 42.7915C12.211 42.7915 12.5277 42.6331 12.6333 42.7387C12.7388 42.8442 12.5805 43.1609 12.5805 43.3193C12.5805 43.4776 12.7388 43.7943 12.6333 43.8999Z" fill="white"/>
<path d="M6.14109 60.0512C6.08831 60.2096 5.71884 60.2096 5.61327 60.2623C5.50771 60.3151 5.29658 60.6846 5.13824 60.6318C4.97989 60.579 4.97989 60.2096 4.92711 60.104C4.87433 59.9984 4.50485 59.7873 4.55764 59.629C4.61042 59.4706 4.97989 59.4706 5.08545 59.4178C5.19102 59.365 5.40215 58.9956 5.56049 59.0484C5.71884 59.1011 5.71884 59.4706 5.77162 59.5762C5.8244 59.6817 6.19387 59.8929 6.14109 60.0512Z" fill="white"/>
<path d="M98.0344 58.1511C97.9289 58.2039 97.7177 57.9927 97.6122 57.9927C97.5066 57.9399 97.1899 58.0455 97.1371 57.9399C97.0844 57.8344 97.2955 57.6233 97.2955 57.5177C97.3483 57.4121 97.2427 57.0954 97.3483 57.0427C97.4538 56.9899 97.665 57.201 97.7705 57.201C97.8761 57.2538 98.1928 57.1482 98.2456 57.2538C98.2983 57.3593 98.0872 57.5705 98.0872 57.676C98.0344 57.7816 98.14 58.0983 98.0344 58.1511Z" fill="white"/>
<path d="M77.8189 42.4219C77.7661 42.4747 77.555 42.3163 77.4494 42.2635C77.3439 42.2635 77.1327 42.3163 77.08 42.2108C77.0272 42.158 77.1855 41.9468 77.2383 41.8413C77.2383 41.7357 77.1855 41.5246 77.2911 41.4718C77.3439 41.419 77.555 41.5774 77.6606 41.6302C77.7661 41.6302 77.9773 41.5774 78.03 41.6829C78.0828 41.7357 77.9245 41.9468 77.8717 42.0524C77.8717 42.158 77.9245 42.3691 77.8189 42.4219Z" fill="white"/>
<path d="M78.8218 47.489C78.769 47.5418 78.5579 47.3834 78.5051 47.3306C78.3995 47.3306 78.1884 47.3834 78.1356 47.2778C78.0828 47.2251 78.2412 47.0139 78.294 46.9612C78.294 46.8556 78.294 46.6445 78.3468 46.5917C78.3995 46.5389 78.6107 46.6972 78.6634 46.75C78.769 46.75 78.9801 46.75 79.0329 46.8028C79.0857 46.8556 78.9274 47.0667 78.8746 47.1195C78.8746 47.2251 78.8746 47.4362 78.8218 47.489Z" fill="white"/>
<path d="M101.254 68.9184C101.149 68.9712 100.885 68.7601 100.779 68.7073C100.673 68.6545 100.357 68.7601 100.304 68.6545C100.251 68.549 100.462 68.285 100.515 68.1795C100.568 68.0739 100.462 67.7572 100.568 67.7044C100.673 67.6517 100.937 67.8628 101.043 67.9156C101.149 67.9684 101.465 67.8628 101.518 67.9684C101.571 68.0739 101.36 68.3378 101.307 68.4434C101.254 68.549 101.36 68.8656 101.254 68.9184Z" fill="white"/>
<path d="M103.893 61.9512C103.84 62.004 103.576 61.8985 103.524 61.8985C103.418 61.8985 103.207 62.004 103.154 61.9512C103.101 61.8985 103.207 61.6345 103.207 61.5818C103.207 61.4762 103.101 61.2651 103.154 61.2123C103.207 61.1595 103.471 61.2651 103.524 61.2651C103.629 61.2651 103.84 61.1595 103.893 61.2123C103.946 61.2651 103.84 61.529 103.84 61.5818C103.84 61.6873 103.946 61.8985 103.893 61.9512Z" fill="white"/>
<path d="M5.29663 48.7031C5.19107 48.7559 4.97994 48.5447 4.87438 48.5447C4.76881 48.4919 4.45212 48.5975 4.39934 48.4919C4.34656 48.3864 4.55769 48.1753 4.55769 48.0697C4.61047 47.9641 4.5049 47.6474 4.61047 47.5947C4.71603 47.5419 4.92716 47.753 5.03272 47.753C5.13829 47.8058 5.45498 47.7002 5.50776 47.8058C5.56054 47.9113 5.34941 48.1225 5.34941 48.228C5.29663 48.3336 5.4022 48.6503 5.29663 48.7031Z" fill="white"/>
<path d="M2.07693 72.5077C2.34084 72.4022 3.29092 74.2495 5.40219 76.5719C6.29948 77.5748 7.46069 78.5776 8.8858 79.5805C11.2082 81.164 13.9529 82.3252 17.3837 83.328C17.4365 83.328 17.4892 83.3808 17.542 83.3808C20.9201 84.3837 24.2453 85.1226 27.0956 85.9143C30.1569 86.7588 32.321 87.5506 34.0628 88.3423C35.699 89.134 36.5435 89.7674 36.438 89.9258C36.3324 90.1369 35.3295 89.873 33.6405 89.4507C31.4764 88.9229 30.0513 88.5534 26.6205 87.8673C23.9814 87.3394 20.1811 86.6005 16.8559 85.5976C16.8031 85.5976 16.7503 85.5449 16.6975 85.5449C13.1611 84.4892 10.1526 83.0641 7.7246 81.2167C6.19392 80.0555 5.03272 78.7888 4.18821 77.5748C2.12971 74.7246 1.8658 72.6133 2.07693 72.5077Z" fill="#9CDADB"/>
<path d="M84.1 88.8172C84.1 88.4477 85.5251 88.1838 87.6364 87.4977C89.8532 86.8115 92.5451 85.7558 95.5009 83.9085C95.5536 83.8557 95.6592 83.8029 95.712 83.8029C97.6649 82.5889 99.2484 81.2694 100.568 80.0026C103.101 77.6274 104.421 75.5689 104.843 75.7801C105.213 75.9384 104.685 78.5247 102.204 81.5333C100.937 83.064 99.2484 84.6474 97.0843 85.967C97.0315 86.0198 96.926 86.0725 96.8732 86.1253C93.6535 88.131 90.4866 89.0811 88.0058 89.345C85.5779 89.6089 84.1 89.2395 84.1 88.87V88.8172Z" fill="#007391"/>
</svg>
