<svg width="200" height="200" viewBox="0 0 200 200" fill="none" xmlns="http://www.w3.org/2000/svg">
<path d="M189.037 24.4244C183.667 16.9573 175.979 11.219 167.408 7.94529C158.801 4.67152 149.347 3.8255 140.262 5.33363C130.404 6.95212 121.171 11.1823 112.232 15.6699C103.294 20.1575 94.4657 24.9762 84.9019 27.8821C75.8531 30.6409 66.3996 31.6341 57.0933 33.4733C47.8238 35.3125 38.4439 38.0713 30.9768 43.8831C25.6799 47.9661 21.5601 53.3733 18.2496 59.1852C14.939 64.997 12.401 71.1767 9.82609 77.3564C6.66267 85.0074 3.38891 92.7688 2.2854 101.008C1.73364 105.128 1.73364 109.322 2.54288 113.405C3.35213 117.488 5.0074 121.387 7.58227 124.66C11.5549 129.737 17.5139 132.974 23.6568 134.85C29.8365 136.762 36.2737 137.461 42.6741 138.344C63.7512 141.324 84.5709 146.51 105.832 147.797C127.093 149.085 149.458 146.069 167.003 134.004C179.069 125.727 188.265 113.515 193.672 99.9049C199.079 86.2949 200.808 71.3606 199.594 56.7575C198.601 45.3545 195.732 33.8043 189.037 24.5348V24.4244Z" fill="#D6F0E3"/>
<path d="M19.7945 56.6104C19.2795 57.4564 18.7645 58.3024 18.2863 59.1484C14.9758 64.9603 12.4377 71.14 9.86283 77.3197C6.69942 84.9707 3.42566 92.7321 2.32214 100.972C1.77038 105.091 1.77038 109.285 2.57963 113.368C3.38887 117.451 5.04414 121.35 7.61901 124.624C11.5917 129.7 17.5507 132.937 23.6936 134.813C26.0477 135.548 28.4019 136.063 30.8296 136.542H162.994C164.355 135.732 165.716 134.886 167.04 133.967C179.105 125.69 188.301 113.478 193.708 99.8682C199.116 86.2581 200.845 71.3239 199.631 56.7207C199.631 56.6839 199.631 56.6839 199.631 56.6471H19.8312L19.7945 56.6104Z" fill="#72E0AD"/>
<path d="M21.9647 53.4101C20.6405 55.2493 19.4266 57.1989 18.2863 59.1484C18.2496 59.1852 18.2496 59.222 18.2128 59.2588H199.778C199.741 58.4127 199.667 57.5299 199.594 56.6839C199.484 55.5804 199.373 54.5137 199.263 53.4101H21.9647Z" fill="#429E73"/>
<path d="M2.61641 99.1325C2.50606 99.721 2.43249 100.346 2.32214 100.935C1.77038 105.055 1.77038 109.248 2.57963 113.331C3.38887 117.414 5.04414 121.313 7.61901 124.587C11.5917 129.663 17.5507 132.9 23.6936 134.776C29.8732 136.689 36.3104 137.388 42.7108 138.27C63.7879 141.25 84.6076 146.437 105.869 147.724C127.13 149.011 149.494 145.995 167.04 133.93C179.105 125.654 188.301 113.441 193.709 99.8314C193.782 99.6107 193.892 99.3532 193.966 99.1325H2.57963H2.61641Z" fill="#E7F5F6"/>
<path d="M184.476 72.5745C182.085 72.5745 180.135 74.5241 180.135 76.915V99.0589H188.816V76.915C188.816 74.5241 186.867 72.5745 184.476 72.5745Z" fill="white"/>
<path d="M192.973 63.8935C192.789 63.8935 192.605 63.8935 192.421 63.9303C189.478 64.1142 186.021 65.6592 184.181 66.873C182.342 68.0501 182.085 68.8961 182.122 71.5814C182.122 74.2666 182.416 78.791 182.857 81.8808C183.299 84.9707 183.924 86.6259 184.623 87.6559C185.322 88.6858 186.057 89.1272 186.867 89.2376C187.676 89.3479 188.485 89.1272 189.368 88.7594C190.251 88.4284 191.17 87.9502 191.465 88.9065C191.722 89.7526 191.538 91.6653 191.391 93.1735C191.318 93.247 191.281 93.3574 191.207 93.4677C190.876 93.9459 190.324 94.6448 189.442 95.3805C188.559 96.1162 187.308 96.8151 186.462 97.9554C185.616 99.0957 185.138 100.677 184.549 102.884C183.961 105.091 183.188 108.328 182.857 110.02C182.489 111.749 182.526 112.154 183.446 112.669C184.108 113.037 185.211 113.515 186.536 113.699C189.405 109.322 191.796 104.613 193.745 99.7578C196.762 92.1435 198.674 84.0879 199.52 75.9218C199.484 73.5677 199.631 70.0732 198.821 67.719C197.902 64.997 195.695 63.82 193.01 63.82L192.973 63.8935Z" fill="#429E73"/>
<path d="M28.3283 72.6481C25.9373 72.6481 23.9878 74.5976 23.9878 76.9886V99.1325H32.6688V76.9886C32.6688 74.5976 30.7192 72.6481 28.3283 72.6481Z" fill="white"/>
<path d="M16.3367 72.6481C13.9458 72.6481 11.9962 74.5976 11.9962 76.9886V99.1325H20.6772V76.9886C20.6772 74.5976 18.7277 72.6481 16.3367 72.6481Z" fill="white"/>
<path d="M25.827 95.6012C25.6798 95.6012 25.5327 95.6012 25.312 95.638C24.4292 95.7116 22.7004 95.8955 21.5601 96.6679C20.4565 97.4404 19.9416 98.7278 19.7209 101.082C19.5002 103.436 19.5369 106.784 19.7209 108.917C19.9048 111.05 20.2726 111.97 20.8244 112.706C21.3761 113.441 22.1118 114.03 22.59 114.435C23.0682 114.839 23.2521 115.06 23.3257 115.428C23.3992 115.759 23.3257 116.237 22.3325 116.862C21.3394 117.488 19.3898 118.334 17.6978 119.033C16.0057 119.731 14.5343 120.32 13.4676 122.821C12.8055 124.403 12.2905 126.794 11.9595 128.927C15.4172 131.613 19.5369 133.562 23.7303 134.85C26.8569 135.806 30.0203 136.468 33.2573 136.983C35.0597 136.505 36.8989 136.027 38.1864 135.622C40.5037 134.886 40.9084 134.482 40.7612 132.128C40.6509 129.737 39.9888 125.359 38.922 122.858C37.8553 120.357 36.3839 119.768 34.6919 119.069C32.9998 118.37 31.0503 117.524 30.0571 116.899C29.064 116.274 28.9904 115.796 29.064 115.464C29.1375 115.133 29.3214 114.876 29.7996 114.471C30.2778 114.067 31.0135 113.478 31.5653 112.742C32.117 112.007 32.4481 111.087 32.6688 108.954C32.8527 106.82 32.8895 103.473 32.6688 101.119C32.4481 98.7646 31.9331 97.4772 30.7928 96.7047C29.6893 95.9323 27.9604 95.7483 27.0408 95.6748C26.5259 95.638 26.3052 95.638 26.1948 95.7116C26.1213 95.6748 26.0477 95.6748 25.8638 95.6748L25.827 95.6012Z" fill="#429E73"/>
<path d="M77.067 0L33.6252 27.4775V136.983C36.6415 137.461 39.6578 137.866 42.7109 138.27C54.2242 139.889 65.6272 142.17 77.1038 144.119V0H77.067Z" fill="#1A402D"/>
<path d="M77.0669 0H175.684V126.867C172.999 129.442 170.093 131.797 167.04 133.93C149.494 145.958 127.13 148.975 105.869 147.724C96.1945 147.135 86.6307 145.738 77.1037 144.119V0H77.0669Z" fill="#1E4A35"/>
<path d="M77.0669 32.8112H175.684V19.8265H77.0669V32.8112Z" fill="#429E73"/>
<path d="M33.6252 44.7292L77.067 19.8265V32.6641L33.6252 57.5299V44.7292Z" fill="#3F916B"/>
<path d="M156.042 85.3385C152.547 85.3385 149.678 88.1709 149.678 91.7021C149.678 94.0931 151.002 96.2633 153.136 97.3668C154.055 98.1393 154.607 99.3899 154.019 100.677C153.835 101.008 153.724 101.413 153.724 101.781C153.724 102.259 153.872 102.7 154.129 103.068C154.57 104.209 154.166 105.422 153.504 105.974C153.467 105.974 153.467 106.011 153.43 106.011C151.113 107.004 149.641 109.285 149.605 111.823C149.605 115.317 152.437 118.186 155.968 118.186C157.66 118.186 159.279 117.524 160.456 116.311C161.633 115.133 162.332 113.515 162.332 111.823C162.332 109.285 160.824 106.967 158.47 105.974C158.47 105.974 158.47 105.974 158.433 105.937C157.771 105.422 157.403 104.245 157.807 103.105C158.102 102.7 158.249 102.222 158.249 101.744C158.249 101.303 158.138 100.861 157.881 100.493C157.403 99.2796 157.918 98.1025 158.801 97.3668C160.971 96.3001 162.332 94.0931 162.332 91.7021C162.332 90.0101 161.67 88.3916 160.456 87.2145C159.279 86.0374 157.66 85.3385 155.968 85.3385H156.042Z" fill="#D38144"/>
<path d="M79.6786 76.6575C80.2303 74.3769 81.1867 70.1468 81.2603 67.0937C81.3706 64.0407 80.635 62.1647 77.6555 60.2887C74.676 58.4495 69.4895 56.6471 65.1857 56.6471C60.8452 56.6103 57.3876 58.3392 54.9966 60.583C52.6057 62.8268 51.3182 65.6592 48.5962 77.7978C45.8742 89.9365 41.6809 111.381 39.0324 123.741C37.5243 130.73 36.5311 134.813 35.869 137.314C38.1496 137.645 40.4302 137.939 42.674 138.27C58.8221 140.551 74.8231 144.119 91.008 146.253C90.8609 145.075 90.6769 143.567 90.4195 141.618C89.2792 133.121 86.8882 116.163 84.6812 104.613C82.4741 93.0631 80.451 86.9202 79.4947 83.6465C78.5383 80.4095 78.6854 80.0416 78.8326 79.7106C78.9797 79.3428 79.1268 78.9749 79.6786 76.6943V76.6575Z" fill="white"/>
<path d="M100.498 70.4778L100.278 73.678C100.278 73.678 100.167 80.3727 99.7258 81.3659C99.5787 81.6234 99.4315 81.9176 99.2108 82.1751C98.4384 83.2418 97.2245 84.0511 95.275 85.3017C93.3254 86.5892 90.6402 88.318 89.1321 90.1572C87.6239 91.9964 87.2561 93.9459 87.9182 102.038C88.5803 110.131 90.2356 124.403 91.3759 132.937C92.5162 141.507 93.1783 144.377 95.8267 145.811C98.4752 147.246 103.11 147.246 109.032 147.246C114.991 147.246 122.238 147.246 126.173 144.524C130.072 141.802 130.661 136.321 129.263 126.021C127.902 115.722 124.592 100.567 122.495 92.4746C120.398 84.3821 119.479 83.389 118.449 82.874C117.456 82.359 116.352 82.3958 115.396 82.3222C114.439 82.2487 113.593 82.1015 113.115 81.7337C112.747 81.4394 112.6 80.9612 112.49 80.5566C112.416 76.6207 112.269 70.7353 112.269 70.7353L100.425 70.4778H100.498Z" fill="#F3B294"/>
<path d="M102.301 70.5146C101.565 70.5514 100.903 70.5882 100.461 70.625L100.314 72.4642C102.521 76.0322 110.136 81.3291 112.49 80.0784C112.453 77.2461 112.379 74.0091 112.343 72.2067C111.497 71.2871 109.547 70.8089 107.45 70.625L102.301 70.5146Z" fill="#E67051"/>
<path d="M115.69 41.0508C117.86 41.6393 120.178 41.9336 120.656 46.0534V58.4127L112.343 45.0602L115.727 41.0875L115.69 41.0508Z" fill="#7F3300"/>
<path d="M109.069 38.6966C108.627 38.6966 108.149 38.7334 107.524 38.8805C105.795 39.2116 102.926 40.0208 100.204 41.6761C97.4819 43.3314 94.8703 45.7591 93.4725 48.0029C92.0747 50.2467 91.854 52.2698 92.4426 55.8747C93.0679 59.4795 94.5024 64.666 97.0037 68.6019C99.5051 72.5377 103.073 75.1862 106.825 76.1426C110.577 77.0989 114.55 76.3265 117.308 74.708C120.067 73.0527 121.612 70.5146 122.09 67.5719C122.569 64.6292 121.943 61.2819 120.803 56.7207C119.626 52.1595 117.897 46.4212 116.095 43.2578C114.292 40.0944 112.416 39.4691 111.166 39.1012C110.393 38.8437 109.878 38.6966 109.179 38.6966H109.069Z" fill="#F3B294"/>
<path d="M107.818 38.807C107.708 38.807 107.597 38.8438 107.524 38.8438C105.795 39.1748 102.926 39.9841 100.204 41.6393C97.4819 43.2946 94.8703 45.7223 93.4725 47.9661C92.0747 50.21 91.854 52.2331 92.4426 55.8379C92.9943 59.1117 94.2082 63.6729 96.3049 67.388C98.0705 65.9902 99.5418 63.9303 98.5119 56.5L102.558 52.932L101.381 60.2152C107.929 57.6403 115.432 53.0055 116.683 44.4349C116.462 43.9935 116.278 43.5889 116.058 43.221C114.255 40.0576 112.379 39.4323 111.129 39.0645C110.687 38.9173 110.356 38.807 109.988 38.7334C109.547 38.6966 109.106 38.6598 108.627 38.6598C108.407 38.6598 108.149 38.6966 107.855 38.7702L107.818 38.807Z" fill="#E67051"/>
<path d="M99.4682 53.8148L103.514 50.2467L102.337 57.5299C109.952 54.5137 118.853 48.7754 117.713 37.2253C109.473 34.4297 80.9659 34.7975 88.2859 51.571C84.2029 52.3802 87.1824 62.0911 95.8634 65.696C98.1072 63.9671 100.756 63.1211 99.4682 53.778V53.8148Z" fill="#7F2D2E"/>
<path d="M93.6932 59.0013C93.1783 59.0749 92.7369 59.2588 92.3322 59.5531C90.7137 60.7669 90.6402 63.3786 92.1483 65.4385C93.6564 67.4616 96.2313 68.1237 97.8498 66.9098C98.6223 66.3213 99.0637 65.3649 99.1005 64.2982C99.1372 63.1947 98.7326 62.0176 97.9969 61.0612C96.8934 59.5898 95.2014 58.7806 93.6564 59.0013H93.6932Z" fill="#F3B294"/>
<path d="M115.616 69.4847C115.469 69.4847 115.249 69.595 114.954 69.7422C114.55 69.9261 114.071 70.0364 113.373 70.1468C113.373 70.1468 113.373 70.1468 113.336 70.1468C112.637 70.2204 112.122 70.2204 111.68 70.1836C111.239 70.1468 110.945 70.11 110.871 70.2204C110.798 70.3307 111.018 70.5882 111.46 70.8457C111.938 71.0664 112.637 71.2135 113.446 71.14C113.446 71.14 113.446 71.14 113.483 71.14C114.292 71.0296 114.917 70.6985 115.322 70.3307C115.69 69.9629 115.763 69.6318 115.69 69.5582C115.653 69.5582 115.653 69.5215 115.616 69.5215V69.4847Z" fill="white"/>
<path d="M114.954 82.2487C115.249 82.3222 115.69 82.4326 115.837 83.389C115.984 84.3454 115.837 86.1478 113.814 89.8997C111.828 93.6517 108.002 99.39 105.059 102.958C102.117 106.526 100.094 107.924 98.5854 108.77C97.0773 109.653 96.0841 109.984 94.5024 113.037C92.9207 116.09 90.7505 121.865 90.0148 128.339C89.2791 134.85 89.978 142.096 90.824 145.848C90.8608 145.958 90.8608 146.069 90.8976 146.179C95.8634 146.841 100.829 147.356 105.832 147.65C113.041 148.092 120.398 148.018 127.608 147.283C128.123 146.694 128.601 145.922 128.932 144.892C130.072 141.471 129.925 135.438 130.845 130.987C131.764 126.536 133.788 123.667 134.155 120.21C134.486 116.715 133.162 112.632 131.397 106.931C129.631 101.229 127.424 93.9827 126.1 90.2308C124.776 86.4788 124.297 86.2949 124.003 86.1846C123.746 86.0742 123.672 86.0742 123.635 85.8903C123.598 85.7064 123.562 85.3385 123.341 84.6764C123.12 84.0143 122.752 83.0947 122.237 82.6533C121.722 82.2119 121.024 82.2487 120.619 82.359C120.214 82.4694 120.104 82.6901 120.03 82.6533C119.92 82.6165 119.846 82.3222 119.736 82.1015C119.589 81.8808 119.405 81.7337 118.78 81.513C118.154 81.2555 117.124 80.9245 116.499 80.7773C115.874 80.6302 115.616 80.7038 115.285 80.8141C114.954 80.9612 114.55 81.1452 114.292 81.3659C114.035 81.5866 113.888 81.8073 113.851 81.9176C113.814 82.028 113.851 82.0648 113.961 82.1015C114.071 82.1383 114.292 82.1751 114.439 82.1751C114.586 82.2119 114.734 82.2119 115.028 82.2855L114.954 82.2487Z" fill="white"/>
<path d="M115.874 80.667C115.616 80.667 115.433 80.7037 115.249 80.8141C114.918 80.9612 114.513 81.1452 114.255 81.3659C113.998 81.5866 113.851 81.8073 113.814 81.9176C113.777 82.028 113.814 82.0647 113.924 82.1015C114.035 82.1383 114.255 82.1751 114.403 82.1751C114.55 82.2119 114.697 82.2119 114.991 82.2855C115.285 82.359 115.727 82.4694 115.874 83.4258C116.021 84.3821 115.874 86.1845 113.851 89.9365C111.864 93.6884 108.039 99.4267 105.096 102.995C102.154 106.563 100.13 107.961 98.6223 108.807C97.1142 109.689 96.121 110.02 94.5393 113.074C92.9576 116.127 90.7873 121.902 90.0517 128.376C89.316 134.886 90.0149 142.133 90.8609 145.885C90.8977 145.995 90.8977 146.105 90.9345 146.216C95.0175 146.768 99.1005 147.209 103.22 147.503C109.179 136.873 119.442 115.06 123.415 92.07C117.014 119.952 108.922 118.003 106.384 115.538C111.57 109.873 116.279 103.399 118.596 93.1735C110.871 113.221 97.8498 121.46 98.2912 116.862C105.133 104.54 118.596 88.2076 117.125 80.9244C116.867 80.8509 116.61 80.7773 116.426 80.7405C116.168 80.7037 115.984 80.667 115.837 80.667H115.874Z" fill="#D6F0E3"/>
<path d="M80.8924 120.688C81.1499 117.892 81.5913 114.545 82.5845 109.579C83.6144 104.613 85.2329 98.029 86.741 94.277C88.2124 90.525 89.5366 89.6422 91.008 89.2744C92.5161 88.9066 94.1714 89.0169 95.6795 90.5618C97.1876 92.1068 98.5854 95.0127 98.8797 97.514C99.174 100.015 98.3647 102.038 97.298 106.71C96.2313 111.381 94.907 118.665 94.2449 122.306C93.5828 125.948 93.5828 125.948 94.3553 129.884C95.1277 133.82 96.6359 141.728 97.3348 145.922C97.4083 146.289 97.4451 146.657 97.5187 146.988C93.3253 146.547 89.0952 145.995 84.9386 145.333C83.8351 141.029 82.2902 134.923 81.4809 130.693C80.5613 125.727 80.6717 123.447 80.9292 120.651L80.8924 120.688Z" fill="#F3B294"/>
<path d="M112.159 117.708C111.68 118.665 111.055 120.246 111.166 122.38C111.313 124.513 112.232 127.199 112.674 129.442C113.152 131.686 113.152 133.452 113.409 136.505C113.667 139.558 114.219 143.898 114.954 146.51C115.101 147.062 115.285 147.54 115.469 147.981C117.934 147.981 120.398 147.871 122.826 147.724C123.231 147.099 123.635 146.289 123.966 145.296C124.702 143.052 125.107 139.705 124.776 136.1C124.444 132.495 123.415 128.596 121.355 125.175C119.295 121.755 116.278 118.849 114.586 117.598C112.894 116.347 112.563 116.715 112.085 117.708H112.159Z" fill="#D6F0E3"/>
<path d="M124.04 89.164C123.488 93.1367 122.421 97.4036 120.913 101.634C119.479 105.717 117.603 109.763 115.432 113.515L115.028 113.294C117.198 109.579 119.037 105.57 120.472 101.523C121.943 97.3301 123.01 93.0999 123.562 89.164L124.003 89.2376L124.04 89.164Z" fill="#429E73"/>
<path d="M120.251 83.9039C120.031 89.4951 118.559 95.7851 116.058 101.597C113.704 107.078 110.467 112.117 106.568 115.759L106.237 115.428C110.099 111.823 113.299 106.857 115.616 101.45C118.081 95.7116 119.552 89.4583 119.773 83.9407H120.251V83.9039Z" fill="#429E73"/>
<path d="M106.825 104.797H117.198V121.019H106.825V104.797Z" fill="#F9A56E"/>
<path d="M114.697 117.377C114.329 117.524 113.888 117.745 113.373 117.782C112.858 117.819 112.269 117.745 111.607 117.819C110.982 117.892 110.319 118.187 109.142 118.628C108.002 119.069 106.347 119.731 105.538 120.173C104.728 120.614 104.765 120.835 104.986 121.129C105.243 121.423 105.685 121.718 106.384 121.865C107.082 122.012 108.002 121.938 108.112 121.975C108.186 122.012 107.414 122.159 106.347 122.527C105.28 122.895 103.956 123.483 103.11 124.256C102.264 124.992 101.896 125.911 101.786 126.647C101.638 127.382 101.712 127.934 102.337 128.56C102.963 129.185 104.14 129.847 105.611 130.104C107.082 130.399 108.848 130.288 110.503 129.957C112.159 129.626 113.667 129.075 114.807 128.265C115.911 127.456 116.61 126.389 117.088 124.808C117.566 123.226 117.86 121.166 117.603 119.768C117.345 118.37 116.499 117.708 115.947 117.414C115.396 117.12 115.065 117.23 114.697 117.377Z" fill="#F3B294"/>
<path d="M138.165 143.531C137.724 140.882 136.951 135.843 136.142 131.208C135.333 126.573 134.45 122.306 132.978 119.106C131.507 115.906 129.484 113.736 127.645 112.853C125.806 111.97 124.15 112.338 123.304 112.632C122.458 112.926 122.385 113.147 121.833 113.257C121.281 113.368 120.251 113.368 119.626 113.589C119.001 113.809 118.743 114.251 118.412 114.398C118.081 114.545 117.713 114.361 116.977 114.398C116.279 114.435 115.212 114.655 114.182 115.06C113.152 115.465 112.159 116.09 111.607 116.605C111.055 117.12 110.982 117.524 110.982 117.782C110.982 118.039 111.018 118.076 111.239 118.113C111.423 118.15 111.754 118.15 112.784 119.548C113.814 120.945 115.543 123.704 116.389 126.132C117.235 128.56 117.198 130.619 117.309 134.151C117.419 137.682 117.676 142.648 117.897 145.517C117.971 146.584 118.044 147.356 118.118 147.908C124.996 147.724 131.875 147.025 138.533 145.627C138.459 145.149 138.349 144.487 138.165 143.494V143.531Z" fill="white"/>
<path d="M56.2473 72.8688C53.9667 88.4652 75.7427 108.512 80.4143 86.7363C80.0464 85.4857 79.7521 84.4925 79.4947 83.6465C75.1174 84.9707 58.16 94.4977 56.2105 72.8688H56.2473Z" fill="#D6F0E3"/>
<path d="M56.468 72.8688C56.4312 75.9219 57.1301 78.7542 58.4544 81.182C59.8154 83.6465 61.8017 85.6696 64.2662 87.1042L64.0455 87.5088C61.5074 86.0374 59.4475 83.9407 58.0497 81.4027C56.6887 78.9381 55.9531 76.0322 55.9898 72.8688H56.468Z" fill="#429E73"/>
<path d="M62.9788 80.8141C65.2226 77.2461 69.5998 70.4043 72.5058 67.1305C75.3749 63.8568 76.7359 64.1142 78.0601 67.5351C79.3844 70.956 80.7086 77.5036 80.635 81.9176C80.5247 86.3317 79.0165 88.5755 76.7359 89.7526C74.4553 90.9297 71.3655 91.0032 68.5331 90.0101C65.7375 89.0169 63.1627 86.957 61.912 85.7799C60.6614 84.6028 60.7349 84.3086 62.9788 80.7405V80.8141Z" fill="#F3B294"/>
<path d="M75.7059 64.8131C74.8598 64.8499 73.8667 65.5856 72.5057 67.1305C71.9171 67.7926 71.255 68.6019 70.5929 69.5215C71.9539 68.9697 73.3149 68.4547 74.0506 68.3812C75.5219 68.1972 76.9933 68.3076 78.4279 68.5283C78.3175 68.1605 78.1704 67.8294 78.06 67.5351C77.3611 65.7327 76.6254 64.7763 75.7059 64.8131Z" fill="#E57051"/>
<path d="M72.2482 84.0143C72.3585 83.9407 72.5792 84.0879 72.8367 84.235C73.0942 84.4189 73.462 84.6396 73.8299 84.7132C73.8667 84.7132 73.9034 84.7132 73.9402 84.75C74.3081 84.8235 74.6391 84.7867 74.9334 84.75C75.1909 84.7132 75.4116 84.6764 75.4851 84.7867C75.5587 84.8603 75.2277 85.927 73.7931 85.7431C73.7195 85.7431 73.6459 85.7063 73.5724 85.7063C72.9103 85.5224 72.5056 85.1178 72.3217 84.75C72.1378 84.3821 72.1378 84.1246 72.2482 84.0511V84.0143Z" fill="white"/>
<path d="M123.893 111.97L123.194 92.1068L123.635 92.07L124.334 111.933L123.893 111.97Z" fill="#429E73"/>
<path d="M119.074 116.531C123.415 120.688 123.782 126.757 124.15 132.679C124.334 135.585 124.481 138.454 125.143 140.992L124.702 141.103C124.04 138.491 123.893 135.622 123.709 132.679C123.341 126.867 123.01 120.872 118.78 116.826L119.111 116.494L119.074 116.531Z" fill="#429E73"/>
<path d="M122.569 114.913C129.226 118.922 130.293 126.095 131.36 133.194C131.801 136.137 132.243 139.08 133.089 141.765L132.647 141.912C131.801 139.19 131.36 136.247 130.919 133.268C129.852 126.279 128.822 119.216 122.348 115.317L122.569 114.913Z" fill="#429E73"/>
<path d="M133.604 121.276C133.493 120.945 133.346 120.577 133.199 120.21C133.052 119.879 132.942 119.548 132.794 119.216C132.096 117.708 131.286 116.421 130.403 115.391C129.484 114.287 128.491 113.515 127.534 113.037C126.652 112.595 125.805 112.485 125.107 112.485C124.371 112.485 123.782 112.669 123.378 112.816C122.973 112.963 122.752 113.074 122.569 113.184C122.348 113.294 122.201 113.405 121.87 113.478C121.649 113.515 121.355 113.552 121.06 113.589C120.582 113.625 120.067 113.662 119.699 113.809C119.368 113.92 119.111 114.14 118.927 114.287C118.78 114.398 118.669 114.508 118.486 114.582C118.265 114.692 118.044 114.655 117.713 114.618C117.529 114.618 117.272 114.582 116.977 114.582C116.61 114.582 116.168 114.655 115.69 114.802C115.249 114.913 114.734 115.06 114.255 115.281C113.74 115.501 113.262 115.722 112.821 115.979C112.379 116.237 112.012 116.494 111.754 116.752C111.497 116.973 111.386 117.193 111.276 117.377C111.202 117.561 111.202 117.672 111.166 117.782H110.724C110.724 117.635 110.761 117.451 110.871 117.23C110.982 117.009 111.129 116.752 111.423 116.458C111.717 116.2 112.122 115.906 112.563 115.612C113.005 115.354 113.52 115.097 114.071 114.876C114.586 114.655 115.065 114.508 115.543 114.398C116.058 114.287 116.536 114.214 116.941 114.177C117.272 114.177 117.529 114.177 117.75 114.214C118.007 114.251 118.154 114.251 118.302 114.177C118.412 114.14 118.486 114.03 118.633 113.956C118.853 113.772 119.111 113.515 119.552 113.368C119.957 113.221 120.509 113.184 121.024 113.147C121.318 113.11 121.575 113.11 121.796 113.074C122.054 113.037 122.164 112.926 122.348 112.853C122.532 112.742 122.789 112.595 123.231 112.448C123.672 112.301 124.334 112.117 125.107 112.117C125.879 112.08 126.799 112.228 127.755 112.706C128.748 113.184 129.778 113.993 130.771 115.17C131.654 116.2 132.5 117.524 133.199 119.069C133.346 119.4 133.493 119.731 133.64 120.099C133.788 120.43 133.898 120.798 134.045 121.166L133.64 121.313L133.604 121.276ZM116.61 126.095C117.382 128.265 117.419 130.141 117.492 132.974C117.492 133.341 117.529 133.746 117.529 134.187C117.566 135.88 117.676 137.903 117.787 139.852C117.897 141.986 118.007 144.046 118.118 145.554C118.154 146.105 118.191 146.547 118.228 146.915C118.265 147.283 118.302 147.614 118.338 147.908L117.897 147.945C117.86 147.687 117.823 147.356 117.787 146.915C117.75 146.51 117.713 146.032 117.676 145.517C117.566 144.046 117.456 141.949 117.345 139.815C117.235 137.866 117.161 135.843 117.088 134.151C117.088 133.746 117.051 133.341 117.051 132.937C116.977 130.141 116.941 128.302 116.205 126.169L116.61 126.021V126.095Z" fill="#429E73"/>
<path d="M55.6956 87.3249C56.7991 93.8724 58.1601 100.493 59.9993 106.967C61.8753 113.441 64.2294 119.768 67.3193 125.727L66.9147 125.948C63.788 119.952 61.3971 113.589 59.5579 107.115C57.6819 100.604 56.3209 93.9827 55.2174 87.3984L55.6588 87.3249H55.6956Z" fill="#429E73"/>
<path d="M80.3039 98.029C81.1499 102.664 81.297 107.298 80.8188 111.823C80.3407 116.568 79.2004 121.24 77.5083 125.801L77.0669 125.654C78.759 121.166 79.8993 116.531 80.3407 111.823C80.7821 107.335 80.6349 102.737 79.8257 98.1393L80.2671 98.0657L80.3039 98.029Z" fill="#429E73"/>
<path d="M46.6466 87.2145C46.5363 87.5088 46.4995 87.8398 46.4627 88.1709C46.1317 91.9596 50.0308 97.6979 55.1069 102.884C60.2199 108.071 66.5467 112.706 71.0343 114.177C71.8068 114.435 72.5057 114.582 73.131 114.655L73.0942 115.133C72.4321 115.06 71.6597 114.913 70.8872 114.655C66.2892 113.147 59.9256 108.512 54.7759 103.252C49.5893 97.9922 45.6535 92.1068 45.9845 88.1709C46.0213 87.803 46.0949 87.4352 46.2052 87.1042L46.6466 87.2513V87.2145Z" fill="#429E73"/>
<path d="M81.6649 89.5319C82.5845 91.886 81.812 96.0058 80.4143 100.346C78.4279 106.342 75.1542 112.742 73.315 114.986L72.9471 114.692C74.7496 112.485 77.9865 106.158 79.9729 100.199C81.3706 95.969 82.1063 91.9228 81.2235 89.7158L81.6649 89.5319Z" fill="#429E73"/>
<path d="M74.0505 115.097C74.0505 115.391 73.9402 115.685 73.7195 115.869C73.4988 116.09 73.2413 116.2 72.947 116.2C72.3217 116.2 71.8435 115.722 71.8435 115.097C71.8435 114.471 72.3217 113.993 72.947 113.993C73.2413 113.993 73.5356 114.103 73.7195 114.324C73.9402 114.545 74.0505 114.802 74.0505 115.097Z" fill="#FFF6D5"/>
<path d="M67.9077 115.722H78.2808V131.944H67.9077V115.722Z" fill="#F9A56E"/>
<path d="M115.175 82.1751C116.242 84.9339 116.426 89.4215 115.911 93.6885C115.396 98.1025 114.219 102.296 112.6 104.282L112.232 103.988C113.777 102.075 114.954 97.9554 115.432 93.6517C115.911 89.4215 115.764 85.0075 114.697 82.359L115.138 82.1751H115.175Z" fill="#429E73"/>
<path d="M98.9165 82.2119C98.6958 82.9108 98.5487 83.6833 98.4751 84.4925C98.1809 88.0238 99.4315 92.2171 101.602 95.8219C103.809 99.39 106.899 102.369 110.32 103.51C111.018 103.73 111.717 103.878 112.453 103.951L112.416 104.429C111.681 104.356 110.908 104.209 110.172 103.951C106.641 102.811 103.441 99.7578 101.197 96.0794C98.9533 92.401 97.6659 88.1341 97.997 84.4925C98.0705 83.6833 98.2177 82.874 98.4751 82.1383L98.9165 82.2855V82.2119Z" fill="#429E73"/>
<path d="M112.968 104.172C112.968 104.466 112.858 104.76 112.637 104.944C112.416 105.165 112.159 105.275 111.864 105.275C111.239 105.275 110.761 104.797 110.761 104.172C110.761 103.547 111.239 103.068 111.864 103.068C112.159 103.068 112.453 103.179 112.637 103.399C112.858 103.62 112.968 103.878 112.968 104.172Z" fill="#FFF6D5"/>
<path d="M111.129 117.966C110.54 118.444 109.437 118.849 108.26 119.216C106.825 119.695 105.317 120.21 104.949 120.909L104.544 120.688C104.986 119.842 106.604 119.29 108.112 118.775C109.216 118.407 110.283 118.039 110.834 117.598L111.129 117.966Z" fill="#C57A57"/>
<path d="M96.3048 109.726L97.8129 103.142L98.2544 103.252L96.7462 109.8L96.3048 109.726Z" fill="#C57A57"/>
<path d="M108.922 122.784C109.326 123.483 109.547 124.55 109.657 125.617C109.805 127.199 109.694 128.817 109.51 129.222L109.069 129.075C109.216 128.707 109.326 127.199 109.179 125.654C109.106 124.66 108.885 123.667 108.517 123.005L108.922 122.784Z" fill="#C57A57"/>
<path d="M103.073 124.771C104.066 125.212 105.243 125.139 106.31 124.881C107.414 124.587 108.407 124.145 109.032 123.851L109.216 124.256C108.591 124.55 107.561 125.028 106.42 125.323C105.243 125.617 103.956 125.69 102.889 125.212L103.073 124.808V124.771Z" fill="#C57A57"/>
<path d="M102.485 126.684C104.765 127.971 107.046 127.051 108.959 126.279L109.363 126.132L109.547 126.573C109.326 126.647 109.253 126.684 109.142 126.72C107.156 127.53 104.728 128.523 102.264 127.125L102.485 126.72V126.684Z" fill="#C57A57"/>
<path d="M109.437 128.596C108.37 128.964 107.23 129.185 106.053 129.185C104.986 129.222 103.919 129.075 102.926 128.743L103.073 128.302C103.993 128.633 105.023 128.743 106.016 128.743C107.119 128.707 108.223 128.523 109.253 128.155L109.4 128.596H109.437Z" fill="#C57A57"/>
<path d="M93.7668 125.654C93.73 125.69 93.6196 125.727 93.5828 125.727L93.73 125.838L93.7668 125.654ZM93.5828 125.727H93.5461L93.4725 125.764C93.4357 125.801 93.4357 125.801 93.4357 125.801C93.3621 125.69 93.2518 125.58 93.0679 125.396C92.2586 124.624 90.493 123.336 88.3228 123.299V122.821C90.6769 122.895 92.5161 124.256 93.3989 125.065C93.5828 125.249 93.73 125.396 93.8035 125.506C93.9507 125.69 93.9875 125.874 93.9139 125.985C93.8403 126.058 93.7668 126.095 93.6932 126.058L93.73 125.801L93.5828 125.69V125.727ZM93.5461 125.727C93.5828 125.69 93.5093 125.764 93.4725 125.801L93.5461 125.764V125.727Z" fill="#C57A57"/>
<path d="M140.335 110.683H188.412C183.041 119.842 175.795 127.934 167.04 133.93C158.948 139.484 149.862 143.089 140.335 145.259V110.646V110.683Z" fill="#F9EAC9"/>
<path d="M156.042 55.9114C155.858 55.9114 155.674 55.985 155.527 56.1321L154.203 57.4564C153.908 57.7506 153.908 58.192 154.203 58.4495L155.527 59.7737C155.821 60.068 156.263 60.068 156.52 59.7737L157.844 58.4495C158.139 58.1553 158.139 57.7138 157.844 57.4564L156.52 56.1321C156.373 55.985 156.189 55.9114 156.005 55.9114H156.042Z" fill="white"/>
<path d="M150.451 65.4017C150.451 62.3118 152.952 59.8105 156.042 59.8105C159.132 59.8105 161.633 62.3118 161.633 65.4017C161.633 68.4915 159.132 70.9928 156.042 70.9928C152.952 70.9928 150.451 68.4915 150.451 65.4017Z" fill="#FABA8B"/>
<path d="M148.354 68.6019H163.693V90.7825H148.354V68.6019Z" fill="#F9A96E"/>
<path d="M149.568 69.8893H158.065V89.5319H149.568V69.8893Z" fill="white"/>
<path d="M159.316 69.8893H162.81V89.5319H159.316V69.8893Z" fill="white"/>
<path d="M146.735 90.194H165.311V92.4746H146.735V90.194Z" fill="#E7975B"/>
<path d="M146.735 90.194H158.653V92.4746H146.735V90.194Z" fill="#FABA8B"/>
<path d="M147.913 64.9603H164.134V67.4616H147.913V64.9603Z" fill="#D38144"/>
<path d="M146.735 66.9098H165.311V69.1904H146.735V66.9098Z" fill="#E7975B"/>
<path d="M146.735 66.9098H158.653V69.1904H146.735V66.9098Z" fill="#FABA8B"/>
<path d="M145.264 118.628H182.894V119.069H145.264V118.628Z" fill="#DBAB88"/>
<path d="M145.264 126.72H175.574V127.199H145.264V126.72Z" fill="#DBAB88"/>
<path d="M145.264 134.85H165.275V135.328H145.264V134.85Z" fill="#DBAB88"/>
<path d="M161.449 118.849V111.381H161.891V118.849H161.449Z" fill="#DBAB88"/>
<path d="M182.195 118.849V111.381H182.637V118.849H182.195Z" fill="#DBAB88"/>
<path d="M172.337 126.647V119.143H172.815V126.647H172.337Z" fill="#DBAB88"/>
<path d="M151.076 126.647V119.143H151.554V126.647H151.076Z" fill="#DBAB88"/>
<path d="M161.449 134.85V127.346H161.891V134.85H161.449Z" fill="#DBAB88"/>
<path d="M151.076 142.022V135.144H151.554V142.022H151.076Z" fill="#DBAB88"/>
<path d="M10.2307 88.0605C8.24434 88.0605 6.44193 88.833 5.08093 89.6422C3.83028 93.3206 2.83711 97.1093 2.32214 100.972C1.77038 105.091 1.77038 109.285 2.57963 113.368C3.38887 117.451 5.04414 121.35 7.61901 124.624C10.6353 128.449 14.7551 131.208 19.2427 133.158C19.3163 132.532 19.2795 131.686 19.1691 130.619C18.8749 127.677 18.0656 122.748 17.1092 119.658C16.1529 116.568 15.0126 115.281 14.1298 114.508C13.2469 113.736 12.548 113.478 12.217 113.037C11.9227 112.595 11.9227 111.896 11.9227 111.418C11.9227 110.94 11.9595 110.719 12.4377 110.683C12.9159 110.646 13.8355 110.867 15.0126 110.683C16.1897 110.499 17.661 109.984 18.4335 108.476C19.2427 106.967 19.3898 104.466 19.3531 101.523C19.3531 98.5807 19.1691 95.123 17.7346 92.6217C16.3 90.0836 13.6148 88.4651 11.1135 88.1341C10.7824 88.0973 10.4882 88.0605 10.1939 88.0605H10.2307Z" fill="#429E73"/>
<path d="M29.1744 39.7633C29.5054 40.2415 28.3283 41.6393 26.3788 43.7728C24.4293 45.8695 21.7072 48.7386 19.2059 52.0491C16.5575 55.5436 15.0126 58.4128 13.7987 61.0612C12.6584 63.5257 12.0331 65.2178 11.4446 65.1442C10.8928 65.0706 10.4882 63.1947 11.0399 60.2152C11.5917 57.1621 13.063 53.3734 15.8954 49.5478C18.691 45.7959 21.9279 43.0739 24.5028 41.4922C27.0777 39.8737 28.8801 39.3587 29.1744 39.8001V39.7633Z" fill="#D6F0E3"/>
<path d="M0.188676 125.47C0.630082 125.028 2.13822 125.838 4.49239 127.456C6.47871 128.78 10.4146 131.723 14.0194 133.783C17.3667 135.732 21.2658 137.424 25.8638 138.749C27.7398 139.3 29.7261 139.779 31.7492 140.22C35.1701 140.992 38.9956 141.691 42.1958 142.317C49.5894 143.751 55.5484 145.002 60.1463 146.326C64.5604 147.577 67.0985 148.717 66.9881 149.49C66.8778 150.262 64.0822 150.556 59.521 150.446C55.0702 150.336 48.4123 149.857 41.1291 148.901C37.745 148.46 33.993 147.908 30.2043 147.062C27.9973 146.584 25.8638 145.995 23.8039 145.333C18.6542 143.678 14.2401 141.287 10.7089 138.602C6.66263 135.512 3.75671 132.128 2.10144 129.847C0.372595 127.493 -0.289514 125.874 0.115108 125.47H0.188676Z" fill="#D6F0E3"/>
<path d="M157.256 147.908C156.961 147.246 159.132 145.774 162.405 143.347C165.973 140.698 169.799 137.719 174.618 133.194C174.802 133.01 175.022 132.826 175.206 132.643C180.098 127.971 183.409 124.072 186.278 120.541C188.927 117.267 190.582 115.097 191.244 115.391C191.869 115.685 191.391 118.444 189.368 122.49C187.308 126.61 183.85 131.576 178.774 136.394C178.554 136.615 178.333 136.799 178.149 136.983C173.183 141.581 168.291 144.671 164.208 146.473C160.235 148.202 157.55 148.533 157.292 147.908H157.256Z" fill="#F9EAC9"/>
<path d="M40.3199 107.519C40.0624 107.666 39.4739 107.115 39.1796 107.041C38.9221 106.967 38.1129 107.115 37.9657 106.894C37.8186 106.636 38.3704 106.048 38.4439 105.754C38.5175 105.496 38.3704 104.687 38.5911 104.54C38.8486 104.393 39.4371 104.944 39.7314 105.018C39.9889 105.091 40.7981 104.944 40.9452 105.165C41.0924 105.423 40.5406 106.011 40.467 106.305C40.3935 106.563 40.5406 107.372 40.3199 107.519Z" fill="white"/>
<path d="M143.425 104.062C143.278 104.135 142.947 103.841 142.8 103.804C142.652 103.767 142.211 103.841 142.137 103.73C142.064 103.583 142.358 103.252 142.395 103.105C142.432 102.958 142.358 102.517 142.469 102.443C142.616 102.369 142.947 102.664 143.094 102.701C143.241 102.737 143.682 102.664 143.756 102.774C143.83 102.921 143.535 103.252 143.498 103.399C143.462 103.547 143.535 103.988 143.425 104.062Z" fill="white"/>
<path d="M166.525 103.215C166.231 103.363 165.569 102.774 165.238 102.664C164.944 102.59 164.024 102.774 163.877 102.48C163.73 102.186 164.318 101.523 164.429 101.192C164.502 100.898 164.318 99.9785 164.613 99.8314C164.907 99.6842 165.569 100.273 165.9 100.383C166.194 100.457 167.114 100.273 167.261 100.567C167.408 100.861 166.82 101.523 166.709 101.854C166.636 102.149 166.82 103.068 166.525 103.215Z" fill="white"/>
<path d="M187.639 82.9843C187.455 83.0947 186.977 82.6533 186.756 82.6165C186.536 82.5429 185.91 82.6901 185.8 82.5062C185.69 82.3222 186.131 81.8441 186.168 81.6233C186.241 81.4026 186.094 80.7773 186.278 80.667C186.462 80.5566 186.94 80.998 187.161 81.0348C187.382 81.1084 188.007 80.9612 188.117 81.1452C188.228 81.3291 187.786 81.8073 187.749 82.028C187.676 82.2487 187.823 82.874 187.639 82.9843Z" fill="white"/>
<path d="M8.86971 107.225C8.72257 107.298 8.4283 107.004 8.28117 106.967C8.13403 106.931 7.69262 107.004 7.61906 106.894C7.54549 106.747 7.83976 106.452 7.87654 106.305C7.91333 106.158 7.83976 105.717 7.95011 105.643C8.09725 105.57 8.39152 105.864 8.53865 105.901C8.68579 105.937 9.12719 105.864 9.20076 105.974C9.27433 106.121 8.98006 106.416 8.94328 106.563C8.90649 106.71 8.98006 107.151 8.86971 107.225Z" fill="white"/>
<path d="M25.3488 123.594C25.2017 123.667 24.9074 123.373 24.7603 123.336C24.6132 123.299 24.1718 123.373 24.0982 123.263C24.0246 123.116 24.3189 122.821 24.3557 122.674C24.3925 122.527 24.3189 122.086 24.4292 122.012C24.5764 121.938 24.8706 122.233 25.0178 122.27C25.1649 122.306 25.6063 122.233 25.6799 122.343C25.7535 122.49 25.4592 122.784 25.4224 122.932C25.3856 123.079 25.4592 123.52 25.3488 123.594Z" fill="white"/>
<path d="M62.7648 176.765C63.0345 172.63 63.2143 170.023 63.2143 169.124C63.2143 165.438 61.5962 164.09 57.551 164.09C55.2138 164.09 52.6968 164.629 50 165.798C51.0787 168.585 51.4383 172.45 51.4383 177.574C51.4383 185.035 50.809 190.249 50.809 193.395C50.809 197.44 52.1574 198.789 56.2026 198.789C58.7196 198.789 61.3265 198.249 63.9334 197.081C62.9446 194.654 62.585 191.148 62.585 186.293V184.855H75.26C75.0802 189.709 74.9004 192.586 74.9004 193.395C74.9004 197.35 76.2488 198.789 80.294 198.789C82.811 198.789 85.328 198.249 87.9349 197.081C86.8562 194.474 86.4067 190.249 86.4067 184.406C86.4067 177.304 87.036 172.18 87.036 169.214C87.036 165.528 85.5078 164.18 81.4626 164.18C79.0355 164.18 76.6084 164.719 74.0015 165.888C74.9903 168.225 75.4398 171.641 75.4398 176.136V176.945L62.7648 176.855V176.765ZM129.466 195.103C127.038 192.766 124.072 187.192 120.566 178.383C118.229 172.45 117.06 168.045 114.453 165.888C113.195 164.809 111.397 164.18 109.15 164.18C106.633 164.18 104.206 164.629 101.778 165.708C102.228 166.337 102.587 167.146 102.947 168.045C98.9918 177.394 95.9354 183.147 94.4971 185.754C92.5195 189.53 90.8115 192.316 90.8115 194.923C90.8115 197.35 92.5195 198.609 95.8455 198.609C97.6434 198.609 99.3513 198.249 101.149 197.71C101.059 197.26 100.969 196.811 100.969 196.362C100.969 195.013 101.509 193.305 102.318 191.148H114.633C116.251 196.451 117.69 198.699 120.926 198.699C123.533 198.609 126.409 197.44 129.376 195.013L129.466 195.103ZM105.374 183.956C106.273 181.439 107.442 178.473 108.88 175.237C110.049 178.383 111.037 181.259 111.936 183.956H105.374ZM136.657 165.798C137.915 169.034 138.455 174.338 138.455 181.799C138.455 188.541 137.915 191.417 134.23 191.417C132.881 191.417 131.713 190.968 130.544 189.889C129.106 191.777 128.297 193.395 128.297 194.923C128.297 197.62 130.544 199.328 134.769 199.328C140.972 199.328 145.287 196.721 147.354 191.777C149.152 187.552 149.512 181.349 149.512 172.899C149.512 166.247 149.152 164 144.028 164C141.601 164 139.084 164.539 136.567 165.708L136.657 165.798Z" fill="#2C6E4F"/>
</svg>
