<svg width="85" height="83" viewBox="0 0 85 83" fill="none" xmlns="http://www.w3.org/2000/svg">
<path fill-rule="evenodd" clip-rule="evenodd" d="M50.5115 0L85 14.5799V74.6387L50.7706 82.6687L0 76.3409V8.03004L50.5115 0Z" fill="#242834"/>
<path fill-rule="evenodd" clip-rule="evenodd" d="M50.5115 0L50.7706 82.6687L85 74.6387V14.5799L50.5115 0Z" fill="#343F51"/>
<path fill-rule="evenodd" clip-rule="evenodd" d="M0 21.7588L50.5485 15.9491L50.5855 19.6866L0 25.5703V21.7588Z" fill="#EA8E21"/>
<path fill-rule="evenodd" clip-rule="evenodd" d="M85 28.0126L50.5855 15.9491V19.6865L85 31.8241V28.0126Z" fill="#F5C21B"/>
<path fill-rule="evenodd" clip-rule="evenodd" d="M7.54899 27.1985L21.2408 25.7183V61.687L7.32697 60.9839V28.4937V27.1615L7.54899 27.1985Z" fill="#EA8E21"/>
<path fill-rule="evenodd" clip-rule="evenodd" d="M85 34.0814L81.5216 32.8603V36.6717L85 37.8929V34.0814ZM76.3409 31.047L68.9769 28.4567V32.2312L76.3409 34.8215V31.01V31.047ZM63.8333 26.6805L56.4323 24.0901V27.8276L63.8333 30.4179V26.6434V26.6805Z" fill="#F5C21B"/>
<path fill-rule="evenodd" clip-rule="evenodd" d="M0 27.8276L2.10927 27.5686V31.3801L0 31.6391V27.8276ZM26.2734 24.8302L36.8568 23.6091V27.3836L26.2734 28.6047V24.8302ZM42.7035 22.943L50.5485 22.0549V25.7924L42.7035 26.7175V22.98V22.943Z" fill="#EA8E21"/>
<path fill-rule="evenodd" clip-rule="evenodd" d="M79.0792 32.2311C79.8193 32.2311 80.4114 33.0082 80.4114 33.9704C80.4114 34.9325 79.8193 35.7096 79.0792 35.7096C78.3391 35.7096 77.7471 34.9325 77.7471 33.9704C77.7471 33.0082 78.3391 32.2311 79.0792 32.2311Z" fill="#F5C21B"/>
<path fill-rule="evenodd" clip-rule="evenodd" d="M66.4606 27.7166C67.2007 27.7166 67.7928 28.4937 67.7928 29.4558C67.7928 30.4179 67.2007 31.195 66.4606 31.195C65.7205 31.195 65.1284 30.4179 65.1284 29.4558C65.1284 28.4937 65.7205 27.7166 66.4606 27.7166Z" fill="#F5C21B"/>
<path fill-rule="evenodd" clip-rule="evenodd" d="M53.731 23.313C54.4711 23.313 55.0631 24.0901 55.0631 25.0522C55.0631 26.0144 54.4711 26.7915 53.731 26.7915C52.9909 26.7915 52.3988 26.0144 52.3988 25.0522C52.3988 24.0901 52.9909 23.313 53.731 23.313Z" fill="#F5C21B"/>
<path fill-rule="evenodd" clip-rule="evenodd" d="M39.7432 23.498C40.4833 23.498 41.0754 24.2751 41.0754 25.2373C41.0754 26.1994 40.4833 26.9765 39.7432 26.9765C39.0031 26.9765 38.411 26.1994 38.411 25.2373C38.411 24.2751 39.0031 23.498 39.7432 23.498Z" fill="#EA8E21"/>
<path fill-rule="evenodd" clip-rule="evenodd" d="M23.6831 25.4223C24.4232 25.4223 25.0152 26.1994 25.0152 27.1615C25.0152 28.1236 24.4232 28.9007 23.6831 28.9007C22.943 28.9007 22.3509 28.1236 22.3509 27.1615C22.3509 26.1994 22.943 25.4223 23.6831 25.4223Z" fill="#EA8E21"/>
<path fill-rule="evenodd" clip-rule="evenodd" d="M4.88466 27.5686C5.62476 27.5686 6.21683 28.3457 6.21683 29.3078C6.21683 30.2699 5.62476 31.047 4.88466 31.047C4.14457 31.047 3.55249 30.2699 3.55249 29.3078C3.55249 28.3457 4.14457 27.5686 4.88466 27.5686Z" fill="#EA8E21"/>
</svg>
