<svg width="60" height="50" viewBox="0 0 60 50" fill="none" xmlns="http://www.w3.org/2000/svg">
<path d="M53.9096 25.1198L30 15.3985L6.09037 25.1198L4.72009 25.8033V44.1513L5.59748 44.2686H54.4025L55.2799 44.1513V25.8033L53.9096 25.1198Z" fill="#554E56"/>
<path d="M54.9146 10.4315L30.2207 0.39136C30.0792 0.333821 29.9208 0.333821 29.7793 0.39136L5.08537 10.4315C4.86458 10.5213 4.72009 10.736 4.72009 10.9743V19.2201L6.06634 18.7993L30 9.06827L53.9337 18.7993L55.2799 19.2201V10.9743C55.2799 10.736 55.1355 10.5213 54.9146 10.4315Z" fill="#554E56"/>
<path d="M30 15.5249V44.1513H33.2812V16.8591L30 15.5249Z" fill="#433F43"/>
<path d="M54.9146 10.4315L30.2207 0.391361C30.1499 0.36265 30.075 0.348236 30 0.348236V8.94172L33.2812 10.2758V7.67726C33.2812 6.4448 34.5165 5.59496 35.6675 6.03558L55.2799 13.5438V10.9742C55.2799 10.736 55.1355 10.5213 54.9146 10.4315Z" fill="#433F43"/>
<path d="M4.72009 44.1513H30V15.5249L4.72009 25.8033V44.1513Z" fill="#685E68"/>
<path d="M30 0.34845C29.925 0.34845 29.8501 0.362864 29.7793 0.391575L5.08537 10.4317C4.86458 10.5215 4.72009 10.7362 4.72009 10.9745V19.2203L30 8.94193V0.34845Z" fill="#685E68"/>
<path d="M4.72009 25.8034V44.1513H9.64197V23.8023L4.72009 25.8034Z" fill="#554E56"/>
<path d="M9.64197 8.57892L5.08537 10.4315C4.86459 10.5213 4.72009 10.736 4.72009 10.9743V19.2201L9.64197 17.219V8.57892Z" fill="#554E56"/>
<path d="M24.2867 22.1367C23.9398 22.1367 23.611 21.9298 23.4723 21.5886C23.2895 21.1389 23.5058 20.6262 23.9555 20.4434L26.9239 19.2365C27.3731 19.0536 27.8863 19.2699 28.0691 19.7197C28.2519 20.1693 28.0356 20.682 27.5859 20.8648L24.6175 22.0718C24.5091 22.1158 24.397 22.1367 24.2867 22.1367Z" fill="#433F43"/>
<path d="M7.46546 28.9759C7.11847 28.9759 6.78976 28.769 6.65101 28.4278C6.46819 27.9781 6.68452 27.4654 7.13417 27.2826L10.1026 26.0757C10.5519 25.8929 11.0649 26.1091 11.2478 26.5589C11.4306 27.0085 11.2143 27.5212 10.7646 27.704L7.79616 28.9109C7.68788 28.955 7.57573 28.9759 7.46546 28.9759ZM12.9076 26.7631C12.5607 26.7631 12.2319 26.5563 12.0932 26.215C11.9104 25.7654 12.1267 25.2527 12.5764 25.0699L13.0711 24.8688C13.5207 24.686 14.0335 24.9023 14.2163 25.3519C14.3991 25.8016 14.1828 26.3143 13.7331 26.4971L13.2384 26.6982C13.13 26.7423 13.0178 26.7631 12.9076 26.7631ZM15.8761 25.5562C15.5291 25.5562 15.2004 25.3494 15.0617 25.0081C14.8789 24.5585 15.0952 24.0458 15.5448 23.863L18.5133 22.656C18.9626 22.4733 19.4755 22.6896 19.6585 23.1392C19.8413 23.5889 19.625 24.1016 19.1753 24.2844L16.2068 25.4913C16.0986 25.5353 15.9864 25.5562 15.8761 25.5562ZM21.3183 23.3436C20.9713 23.3436 20.6426 23.1367 20.5039 22.7955C20.3211 22.3458 20.5374 21.8331 20.987 21.6503L21.4818 21.4492C21.9312 21.2663 22.4441 21.4828 22.6269 21.9324C22.8098 22.3821 22.5934 22.8948 22.1438 23.0776L21.649 23.2787C21.5406 23.3226 21.4285 23.3436 21.3183 23.3436Z" fill="#433F43"/>
<path d="M4.72009 28.2676V30.0919H4.72044C4.8306 30.0919 4.94275 30.0711 5.05115 30.027L5.32255 29.9167C5.7722 29.7339 5.98865 29.2212 5.80584 28.7716C5.63099 28.3415 5.15451 28.1259 4.72009 28.2676Z" fill="#433F43"/>
<path d="M55.2799 28.2675C54.8451 28.126 54.3691 28.3415 54.1944 28.7715C54.0115 29.2211 54.2278 29.7338 54.6775 29.9166L54.9487 30.0269C55.0573 30.071 55.1693 30.0918 55.2794 30.0918H55.2798V28.2675H55.2799Z" fill="#433F43"/>
<path d="M52.5344 28.9758C52.4243 28.9758 52.3122 28.955 52.2037 28.9109L49.2353 27.704C48.7856 27.5212 48.5693 27.0084 48.7522 26.5588C48.935 26.1092 49.4476 25.8931 49.8974 26.0757L52.8658 27.2826C53.3155 27.4654 53.5318 27.9782 53.3489 28.4278C53.2103 28.769 52.8814 28.9758 52.5344 28.9758Z" fill="#433F43"/>
<path d="M44.4553 23.8629L43.825 23.6067V25.5025C43.9235 25.5383 44.0243 25.5563 44.1239 25.5563C44.4709 25.5563 44.7997 25.3495 44.9384 25.0082C45.1212 24.5585 44.9048 24.0458 44.4553 23.8629Z" fill="#433F43"/>
<path d="M35.6617 20.2876L33.0761 19.2364C32.626 19.0536 32.1138 19.2699 31.931 19.7196C31.7482 20.1692 31.9644 20.6819 32.414 20.8647L35.3825 22.0716C35.4742 22.1089 35.5683 22.1286 35.6617 22.1341V20.2876Z" fill="#433F43"/>
<path d="M47.4237 25.0698L46.9289 24.8687C46.4793 24.6858 45.9666 24.9022 45.7838 25.3518C45.6009 25.8015 45.8173 26.3142 46.267 26.497L46.7618 26.6981C46.8702 26.7421 46.9822 26.763 47.0924 26.763C47.4394 26.763 47.7682 26.5562 47.907 26.2149C48.0897 25.7654 47.8734 25.2527 47.4237 25.0698Z" fill="#433F43"/>
<path d="M4.72009 44.1513H55.2799V48.0112H4.72009V44.1513Z" fill="#FEF1DA"/>
<path d="M30 44.1513H33.2812V47.894H30V44.1513Z" fill="#FAE2C0"/>
<path d="M4.72009 44.1513H9.64197V47.894H4.72009V44.1513Z" fill="#FAE2C0"/>
<path d="M35.6617 17.7004V34.1288C35.6617 34.2719 35.7483 34.4006 35.8808 34.4545L37.2788 35.0229C37.4629 35.0977 37.6724 35.0052 37.7411 34.8186L39.4342 30.2193C39.5572 29.8851 40.0422 29.9247 40.1093 30.2745L41.3023 36.4861C41.3248 36.603 41.4048 36.7006 41.5151 36.7454L43.3407 37.4877C43.572 37.5817 43.8247 37.4116 43.8247 37.162V21.0194L35.6617 17.7004Z" fill="#FED402"/>
<path d="M35.6617 17.8269V34.1288C35.6617 34.2719 35.7483 34.4006 35.8808 34.4545L37.2788 35.0229C37.4629 35.0977 37.6724 35.0052 37.7411 34.8186L38.0859 33.8819V21.9581C38.0859 21.5422 38.5072 21.2586 38.8925 21.4153L43.825 23.4207V21.146L35.6617 17.8269Z" fill="#FAC600"/>
<path d="M30 8.94171L4.72009 19.22V25.8034L30 15.525L55.2799 25.8034V19.22L30 8.94171Z" fill="#FED402"/>
<path d="M30 8.94171V15.525L33.2812 16.8591V10.2758L30 8.94171Z" fill="#FAC600"/>
<path d="M9.64197 17.2189L4.72009 19.22V25.8034L9.64197 23.8023V17.2189Z" fill="#FAC600"/>
<path d="M59.1211 49.6519H0.878906C0.393516 49.6519 0 49.2583 0 48.7729C0 48.2876 0.393516 47.894 0.878906 47.894H59.1211C59.6066 47.894 60 48.2876 60 48.7729C60 49.2583 59.6066 49.6519 59.1211 49.6519Z" fill="#7A6D79"/>
</svg>
