<svg width="112" height="90" viewBox="0 0 112 90" fill="none" xmlns="http://www.w3.org/2000/svg">
<path d="M1.58296 60.7532C2.35199 65.6632 4.59992 70.3365 7.73518 74.1816C11.4028 78.6775 16.3719 82.0494 21.696 84.3565C27.02 86.6635 32.699 88.0241 38.4963 88.9115C50.2683 90.6861 62.4544 90.4495 73.8715 87.0185C85.2886 83.5874 95.8775 76.9028 102.858 67.3195C107.709 60.6941 110.785 52.7672 111.081 44.5445C111.376 36.381 108.774 27.9808 103.449 21.7695C93.393 7.86782 70.4405 7.86782 48.5528 14.4341C22.465 22.2427 -7.23127 6.44808 1.58296 60.7532Z" fill="#E7F5F6"/>
<path d="M77.4209 31.4119V42.474H72.0968V45.7868H54.4092V38.5697H46.364V46.5558H28.913V40.1078H10.2789L4.12666 50.7559L1.5238 60.3983C1.5238 60.5166 1.5238 60.5757 1.58296 60.694C1.81958 62.1138 2.17452 63.4744 2.58861 64.7758H104.514C108.359 58.6827 110.785 51.6432 111.081 44.4853C111.14 43.3022 111.081 42.1782 111.021 40.9951H104.041V45.9051H97.4747V35.5528H89.8436V44.3079H86.945V31.4119H77.48H77.4209Z" fill="#D2EDEE"/>
<path d="M94.7536 14.6116C92.0324 15.4989 89.9028 17.8651 89.9028 21.1779C89.9028 22.7159 86.7675 19.699 85.4069 20.3497C83.159 21.3553 82.9224 26.2653 82.5674 25.6737C82.1534 24.9639 80.6153 22.3018 76.6519 26.147H106.466C105.579 24.6089 104.573 23.1892 103.39 21.8878C100.906 18.9891 97.948 16.682 94.7536 14.6707V14.6116Z" fill="white"/>
<path d="M2.76607 65.4265C3.35762 67.0829 4.0675 68.6801 4.95483 70.2181H100.433C100.492 70.159 100.551 70.0998 100.551 70.0407C100.61 69.9815 100.669 69.8632 100.787 69.8041C100.847 69.7449 100.906 69.6857 100.965 69.6266C101.024 69.5674 101.083 69.5083 101.142 69.39C101.202 69.3308 101.261 69.2125 101.379 69.1533C101.438 69.0942 101.438 69.035 101.497 69.035C101.556 68.9167 101.675 68.7984 101.734 68.7392L101.793 68.6801C101.911 68.5618 101.971 68.4435 102.089 68.3252L102.148 68.266C102.266 68.1477 102.385 67.9702 102.444 67.8519C102.562 67.7336 102.68 67.5561 102.799 67.4378C102.976 67.2603 103.095 67.0237 103.213 66.8463C103.272 66.7279 103.331 66.6688 103.39 66.5505V66.4913C103.449 66.4322 103.509 66.3139 103.568 66.2547L103.627 66.1955C103.686 66.1364 103.745 66.0181 103.804 65.9589L103.864 65.8406C103.923 65.7814 103.982 65.6631 104.041 65.604H2.70691L2.76607 65.4265Z" fill="#D2EDEE"/>
<path d="M69.2574 48.3303V51.229H1.76045C1.10974 54.3642 0.991425 57.6178 1.52383 60.7531C1.87876 62.8827 2.47032 65.0123 3.29851 67.0236H102.976C106.052 62.7644 108.359 57.9136 109.72 52.8853V51.2881H84.7562V48.3895H69.2574V48.3303Z" fill="#9CDADB"/>
<path d="M1.22803 56.6123H108.596C108.833 56.0798 109.01 55.4883 109.188 54.8967H1.28718C1.22803 55.4883 1.22803 56.0207 1.22803 56.6123Z" fill="#6CC1C2"/>
<path d="M7.97184 67.0238H13.8874V58.7419H7.97184V67.0238ZM1.64215 61.1082C1.99709 63.1195 2.58865 65.1308 3.41683 67.0238H7.55774V58.7419H1.64215V61.1082Z" fill="#6CC1C2"/>
<path d="M23.234 67.0238H29.1496V58.7419H23.234V67.0238ZM16.9044 67.0238H22.82V58.7419H16.9044V67.0238Z" fill="#6CC1C2"/>
<path d="M80.4378 67.0238H86.3534V58.7419H80.4378V67.0238ZM74.1082 67.0238H80.0237V58.7419H74.1082V67.0238Z" fill="#6CC1C2"/>
<path d="M14.0649 65.959C12.4085 66.5505 11.6395 69.6858 12.3493 73.5901C10.3972 72.6436 8.74082 72.5844 7.73517 73.4718C7.61686 73.5901 7.5577 73.6492 7.43939 73.7675C7.5577 73.8859 7.67602 74.0633 7.79433 74.1816C11.462 78.6775 16.4311 82.0494 21.7551 84.3565C22.7608 84.8297 23.8256 85.2438 24.8904 85.5987C25.0087 85.4804 25.0679 85.3621 25.1862 85.2438C26.251 83.7057 26.9608 81.517 27.2566 79.2099C27.8482 74.3591 26.3693 70.2182 23.8847 69.8633C22.5833 69.6858 21.1636 70.6914 20.0988 72.5253C18.7973 68.3844 16.3719 65.4857 14.4198 65.8407C14.3015 65.8407 14.2423 65.8998 14.1832 65.8998L14.0649 65.959Z" fill="#007391"/>
<path d="M14.7747 68.2659C17.3776 72.2294 17.91 76.1337 18.3832 79.6239C18.5607 80.7478 18.679 81.8126 18.9156 82.8183L18.3832 82.9366C18.1466 81.8718 18.0283 80.807 17.8508 79.683C17.3776 76.1928 16.8452 72.4069 14.3015 68.5026L14.7747 68.2068V68.2659Z" fill="#2B8DA7"/>
<path d="M12.4677 73.4126C13.355 74.2408 14.4198 75.6605 15.4255 77.3169C16.372 78.8549 17.2593 80.6296 17.8509 82.286L17.3185 82.4635C16.7269 80.8662 15.8987 79.1507 14.9522 77.6127C13.9466 75.9563 12.8818 74.5957 12.0536 73.8267L12.4085 73.4126H12.4677Z" fill="#005267"/>
<path d="M20.2171 72.6435C19.6255 74.1224 19.3889 75.838 19.2706 77.6126C19.1523 79.4465 19.2706 81.3395 19.3297 83.1141H18.7973C18.7382 81.3395 18.679 79.4465 18.7382 77.6126C18.8565 75.7788 19.0931 73.945 19.7438 72.4661L20.2171 72.6435Z" fill="#005267"/>
<path d="M23.8256 72.7618C23.9439 74.8914 24.0031 76.9619 23.8848 78.914C23.7665 80.9253 23.4707 82.8775 22.7608 84.8296L22.465 84.7113C23.1157 82.8183 23.4115 80.8662 23.5298 78.8549C23.6481 76.8436 23.589 74.8323 23.4707 72.7026H23.8256V72.7618Z" fill="#2B8DA7"/>
<path d="M102.089 37.7415L100.492 52.1755H102.917H104.278H106.762L105.106 37.7415H104.278H102.917H102.089Z" fill="#9CDADB"/>
<path d="M100.551 35.5527H106.644V38.9246H100.551V35.5527Z" fill="#9CDADB"/>
<path d="M101.734 35.0203H105.461V36.3217H101.734V35.0203Z" fill="#9CDADB"/>
<path d="M103.331 30.7019C102.68 30.7019 101.971 31.2935 101.616 32.1216C101.142 33.1865 101.32 34.2513 102.03 34.547C102.385 34.6654 102.74 34.6062 103.154 34.3696C103.568 34.1329 103.864 33.7189 104.1 33.1865C104.337 32.7132 104.396 32.1808 104.337 31.7076C104.278 31.2343 104.041 30.9385 103.686 30.7611C103.568 30.7019 103.45 30.7019 103.331 30.7019Z" fill="#9CDADB"/>
<path d="M103.154 32.95H103.923V35.5528H103.154V32.95Z" fill="#9CDADB"/>
<path d="M99.7818 31.4119L101.971 33.4232L102.266 33.0091L100.492 31.7076C100.669 31.7076 100.906 31.7076 101.497 31.7076C101.852 31.7076 102.207 31.7076 102.444 31.7076C102.562 31.7076 102.68 31.7076 102.74 31.7076C102.799 31.7076 102.799 31.7076 102.858 31.7076L102.74 31.471C102.74 31.471 102.74 31.471 102.68 31.471C102.68 31.471 102.621 31.471 102.562 31.471C102.503 31.471 102.385 31.471 102.266 31.471C102.03 31.471 101.675 31.471 101.32 31.471C100.61 31.471 99.9593 31.471 99.9593 31.471H99.7818V31.4119Z" fill="#9CDADB"/>
<path d="M96.055 67.0238H101.971V58.7419H96.055V67.0238ZM89.7253 67.0238H95.6409V58.7419H89.7253V67.0238Z" fill="#6CC1C2"/>
<path d="M15.4254 60.9899C15.3663 61.1082 15.0705 61.049 14.9522 61.049C14.8339 61.049 14.5973 61.2856 14.5381 61.2265C14.4198 61.1673 14.479 60.8715 14.479 60.7532C14.479 60.6349 14.2423 60.3983 14.3015 60.3391C14.3606 60.2208 14.6564 60.28 14.7747 60.28C14.893 60.28 15.1297 60.0434 15.1888 60.1025C15.3071 60.1617 15.248 60.4574 15.248 60.5758C15.248 60.6941 15.4846 60.9307 15.4254 60.9899Z" fill="white"/>
<path d="M88.3648 64.5982C88.2464 64.6574 88.0098 64.4207 87.8915 64.4207C87.7732 64.3616 87.4183 64.4799 87.3591 64.3616C87.2999 64.2433 87.5366 64.0066 87.5366 63.8883C87.5957 63.77 87.4774 63.4151 87.5957 63.3559C87.714 63.2968 87.9507 63.5334 88.069 63.5334C88.1873 63.5926 88.5422 63.4742 88.6014 63.5926C88.6605 63.7109 88.4239 63.9475 88.4239 64.0658C88.3648 64.1841 88.4831 64.539 88.3648 64.5982Z" fill="white"/>
<path d="M26.6651 49.277C26.5467 49.3953 26.0735 49.1587 25.896 49.1587C25.7186 49.1587 25.2453 49.3953 25.127 49.277C25.0087 49.1587 25.2453 48.6854 25.2453 48.508C25.2453 48.3305 25.0087 47.8572 25.127 47.7389C25.2453 47.6206 25.7186 47.8572 25.896 47.8572C26.0735 47.8572 26.5467 47.6206 26.6651 47.7389C26.7834 47.8572 26.5467 48.3305 26.5467 48.508C26.5467 48.6854 26.7834 49.1587 26.6651 49.277Z" fill="white"/>
<path d="M3.89001 75.1281C4.12664 74.9506 5.783 76.9619 8.68164 79.4465C10.2789 80.8071 12.231 82.286 14.4789 83.7649C14.5381 83.7649 14.5381 83.824 14.5972 83.824C16.8452 85.2438 18.8565 86.3677 20.8086 87.2551C22.7016 88.0832 24.1213 88.5565 25.3045 88.9114C26.4284 89.2664 27.0791 89.3847 27.0791 89.5621C27.0791 89.6805 26.3693 89.7988 25.1861 89.6213C23.9439 89.503 22.3467 89.1481 20.3354 88.379C18.2649 87.61 16.0761 86.5452 13.8282 85.0663C13.7691 85.0663 13.7691 85.0071 13.7099 85.0071C11.4028 83.5282 9.45067 81.931 7.91262 80.393C5.07313 77.6126 3.71255 75.3056 3.94917 75.1873L3.89001 75.1281Z" fill="#0C7997"/>
<path d="M109.01 61.5813C109.424 61.7587 109.247 63.4151 108.241 65.8405C107.235 68.3842 105.402 71.4012 102.562 74.4181C102.444 74.5364 102.326 74.6547 102.207 74.7731C99.6043 77.5534 96.7057 79.7422 94.6944 81.1027C92.6239 82.4633 91.2042 83.1732 90.9676 82.8183C90.6718 82.4633 91.6183 81.221 93.2747 79.3872C95.3451 77.1393 97.7705 74.8322 99.9001 72.5843C100.018 72.466 100.137 72.3477 100.196 72.2293C102.917 69.2716 104.692 66.9053 106.23 64.7165C107.65 62.7052 108.537 61.3447 108.951 61.5221L109.01 61.5813Z" fill="#A0DBDD"/>
<path d="M46.0683 89.7395C40.1527 78.3815 39.4428 69.449 39.4428 69.449C39.4428 69.449 40.9809 80.5703 50.8599 89.9761C49.2627 89.9761 47.6655 89.8578 46.0091 89.7395H46.0683Z" fill="#D5D5D5"/>
<path fill-rule="evenodd" clip-rule="evenodd" d="M34.1187 17.9833C33.4089 17.2143 32.4032 18.1608 32.4032 18.1608C31.6342 17.5692 30.806 18.634 30.806 18.634C30.6285 18.4566 30.1553 18.3383 29.682 18.8707C29.2088 19.4622 26.9017 31.2343 26.6059 32.9498C26.3693 34.6653 22.5833 43.1838 19.9805 50.2233C17.3776 57.2037 16.786 64.2433 21.5185 63.3559C26.251 62.4686 34.5328 54.66 34.5328 54.66C34.5328 54.66 34.6511 56.8488 34.7103 58.0319C52.9895 45.7866 59.1417 32.654 59.1417 32.654L58.9051 26.6793L48.9669 25.6144C48.9669 25.6144 48.9077 29.5187 48.7894 31.5892C43.8203 33.1864 39.7385 34.8428 37.0765 37.8006C34.4145 40.7584 29.5637 46.7923 29.5637 46.7923C29.5637 46.7923 31.1609 37.2682 31.4567 35.8484C31.7525 34.4878 31.8708 33.778 33.4089 32.9498C34.9469 32.0624 36.0709 29.8145 37.7272 28.1582C39.3836 26.5609 39.7385 25.9694 39.2061 25.3778C38.6737 24.7863 38.1413 24.9637 37.6681 25.1412C37.1948 25.3187 35.3019 27.2117 35.3019 27.2117L35.5976 23.6031C35.8934 19.9946 36.3667 17.6284 35.5385 17.4509C35.4202 17.4509 35.361 17.4509 35.2427 17.4509C34.5328 17.4509 34.0596 17.9833 34.0596 17.9833H34.1187Z" fill="#F3B294"/>
<path d="M30.806 18.6341C31.2793 20.7046 30.4511 22.8933 30.3919 24.9638C30.3919 26.9751 31.0427 29.4596 29.3863 31.116C30.7469 29.223 29.9779 27.0342 30.037 24.9046C30.1553 23.8398 30.3328 22.775 30.5103 21.7102C30.6286 20.8229 31.1018 19.4623 30.806 18.575V18.6341Z" fill="#DB7F5E"/>
<path d="M32.4032 18.634C32.4624 20.6453 32.2849 22.5975 31.8116 24.5496C31.7525 22.5383 31.9299 20.5862 32.4032 18.634Z" fill="#DB7F5E"/>
<path d="M34.1779 18.2793C34.2371 20.2906 34.0596 22.2427 33.5864 24.1949C33.5272 22.1836 33.7047 20.2314 34.1779 18.2793Z" fill="#DB7F5E"/>
<path fill-rule="evenodd" clip-rule="evenodd" d="M73.8124 87.0183C73.3983 73.1166 73.0433 59.4516 73.1025 58.6826C73.2208 57.2037 77.7758 49.5134 77.7758 49.5134C77.7758 49.5134 78.0716 45.964 77.6575 44.4851C77.2434 42.9471 71.387 35.0794 69.5531 34.4878C67.7785 33.8962 65.8263 33.5413 64.4066 32.7131C62.9277 31.9441 61.6263 33.0681 61.6263 33.0681C61.6263 33.0089 61.6263 32.654 60.6798 32.1216C60.5023 32.0032 60.3248 31.9441 60.2065 31.9441C59.5558 31.9441 59.2009 32.7131 59.2009 32.7131C59.2009 32.7131 52.9895 45.7866 34.7103 58.091V57.9135C34.3554 58.091 33.823 58.5051 33.6455 58.8009C33.2906 59.2741 34.0596 60.9897 34.0596 60.9897C34.0596 60.9897 33.3497 61.3446 33.1723 61.5812C32.9948 61.8178 33.1723 62.1728 33.2906 64.3615C33.4089 65.8996 32.7582 79.0914 32.2849 87.7873C34.2962 88.2605 36.3667 88.6155 38.378 88.9112C50.15 90.6859 62.3361 90.4493 73.7532 87.0183H73.8124Z" fill="#FEFEFE"/>
<path d="M63.4601 41.8232C59.0234 51.3473 52.9895 60.2799 44.826 66.9054C52.4571 59.6883 58.4319 50.9924 63.4601 41.8232Z" fill="#8CB5BF"/>
<path d="M73.1617 48.7444C70.5588 54.66 67.2461 60.3389 62.8685 65.1306C66.6545 59.8657 69.9081 54.3642 73.1617 48.7444Z" fill="#8CB5BF"/>
<path d="M61.3896 33.5415C59.7332 38.274 56.8346 42.6515 52.9303 45.7868C56.3022 42.06 59.0825 37.9782 61.3896 33.5415Z" fill="#8CB5BF"/>
<path d="M34.3553 60.8123C37.8455 59.0968 40.9217 56.7305 44.1752 54.5417C41.4541 57.2629 38.1413 59.7475 34.3553 60.8123Z" fill="#8CB5BF"/>
<path d="M45.1217 89.6804C54.705 81.4577 63.2826 72.1111 70.7954 61.9363C63.815 72.2886 55.4148 81.7535 45.7724 89.7396C45.5358 89.7396 45.3583 89.6804 45.1217 89.6804Z" fill="#8CB5BF"/>
<path d="M60.1474 88.2607C60.0291 88.734 59.9107 89.2072 59.7924 89.6805H59.7333C59.8516 89.2072 60.0291 88.734 60.1474 88.2607Z" fill="#A9BFBF"/>
<path d="M86.2943 59.5699L81.9759 59.2742L75.4096 59.5699L73.0434 60.5756C73.1026 63.7109 73.28 70.2772 73.4575 77.9083C76.4153 81.576 79.9055 83.4689 81.3844 84.1788C81.7985 84.0013 82.2717 83.7647 82.6858 83.5873C87.8324 73.9448 86.2352 59.6291 86.2352 59.6291L86.2943 59.5699Z" fill="#B9D8E1"/>
<path fill-rule="evenodd" clip-rule="evenodd" d="M82.6858 63.4742C84.7563 70.4546 82.9816 80.8069 82.39 83.7056C82.5083 83.6464 82.6267 83.5873 82.745 83.5281C87.8915 73.8857 86.2943 59.5699 86.2943 59.5699L82.3309 59.2742C82.0943 60.1615 82.0943 61.5221 82.6858 63.4742Z" fill="#FEFEFE"/>
<path d="M29.682 46.5557C29.5045 49.8684 29.1496 53.2403 28.0256 56.3164C28.6763 53.122 29.0313 49.7501 29.682 46.5557Z" fill="#DB7F5E"/>
<path fill-rule="evenodd" clip-rule="evenodd" d="M46.3049 10.5298L45.9499 15.558C44.3527 13.6059 42.0456 14.7298 42.5189 17.9243C42.9921 21.1187 46.1274 21.9469 46.1274 21.9469C46.1274 21.9469 46.3049 23.8398 47.1922 24.7863C48.1387 25.8511 54.3501 28.8681 55.7106 28.5723C58.0177 27.9216 63.1643 25.6145 63.2234 22.8342C63.2826 20.0539 63.9333 14.4932 63.9333 14.4932C64.3474 8.87339 57.367 8.40015 57.367 8.40015C52.4571 12.0678 46.1865 10.5889 46.1865 10.5889L46.3049 10.5298Z" fill="#F3B294"/>
<path fill-rule="evenodd" clip-rule="evenodd" d="M46.0091 2.24793C39.916 6.56631 42.5189 16.4453 42.5189 16.4453L42.578 16.5637C42.8738 14.434 44.6485 13.9016 46.0091 15.558L46.364 10.5298C46.364 10.5298 52.6346 12.0087 57.5445 8.34099C57.5445 8.34099 64.5249 8.81423 64.1108 14.434C64.1108 14.434 64.0516 15.1439 63.9333 16.2087L64.5249 16.0313L65.1165 14.9664C65.1165 14.9664 66.1221 13.1326 66.1221 10.5889C66.8911 11.1213 67.3644 11.8312 67.3644 11.8312C66.9503 9.16917 65.5897 7.39449 65.5897 7.39449C65.5897 7.39449 66.7137 6.9804 68.6658 7.92689C68.6658 7.92689 67.601 4.67332 63.8742 4.31838C63.8742 4.31838 59.4375 0 53.4627 0C51.2148 0 48.7303 0.591559 46.1274 2.30708L46.0091 2.24793Z" fill="#7F2D2E"/>
<path fill-rule="evenodd" clip-rule="evenodd" d="M64.7615 14.8481C64.4066 14.8481 64.1108 15.1439 63.9333 15.3805C63.815 16.682 63.5784 18.9891 63.4009 21.0004C64.2883 21.0004 64.9981 20.0539 65.2939 18.8116C65.5897 17.451 65.8855 15.4397 65.0573 14.9665C64.939 14.9073 64.8798 14.9073 64.7615 14.9073V14.8481Z" fill="url(#paint0_linear_226_437)"/>
<path d="M59.4375 26.975C58.1952 27.8032 56.9529 28.5131 55.474 28.7497C53.0486 28.4539 50.8599 27.2117 48.9077 25.8511C51.0965 26.6793 53.2261 27.8624 55.474 28.2173C56.7755 28.0398 58.1952 27.3891 59.4375 26.9159V26.975Z" fill="#DB7F5E"/>
<path fill-rule="evenodd" clip-rule="evenodd" d="M75.1729 19.8173C74.9955 19.1666 74.6405 19.0483 74.3448 19.1075C74.049 19.1075 73.4574 19.1075 73.4574 20.2906C73.4574 21.4146 73.3391 29.1048 73.3391 29.1048C72.156 25.2597 71.1503 25.2597 70.5588 25.6738C69.9672 26.0287 69.9081 26.8569 70.2038 27.6259C70.4996 28.395 71.3278 30.702 72.3926 32.8908C73.4574 35.0204 74.7589 35.3754 75.4096 35.7894C76.0603 36.2035 76.4152 36.7359 76.8293 38.9247C77.1842 41.1135 77.7166 44.5445 77.7166 44.5445C78.1307 46.0234 77.835 49.5728 77.835 49.5728C77.835 49.5728 73.2208 57.2039 73.1616 58.7419C73.1616 58.9194 73.1616 59.9251 73.2208 61.4631C74.2264 62.0547 75.7645 62.8829 78.0124 63.7702C82.2125 65.4857 83.8097 65.0716 85.2886 62.942C86.7083 60.8716 86.945 57.5588 86.1168 53.7728C85.2886 49.9869 82.5674 38.9247 82.0942 36.2035C81.6209 33.4824 80.6153 27.6259 80.3787 24.0174C80.142 20.4089 79.9646 19.8765 79.4322 19.699C78.8998 19.5216 78.7223 20.1723 78.7223 20.1723C78.7223 20.1723 78.4857 19.2258 78.0716 19.2258C77.5983 19.2258 77.3026 19.9357 77.3026 19.9357C77.1842 19.2849 76.8885 18.93 76.2969 18.8708C75.7053 18.8708 75.3504 19.7582 75.3504 19.7582L75.1729 19.8173Z" fill="#F3B294"/>
<path d="M77.7758 49.2769C78.0124 52.0572 78.0124 54.8967 77.7167 57.677C77.48 54.8967 77.48 52.0572 77.7758 49.2769Z" fill="#DB7F5E"/>
<path d="M78.6632 20.1722C78.7815 22.5976 78.8998 24.9047 78.8407 27.3301C78.3083 29.6963 78.3083 32.0034 79.3731 34.2513C78.0125 32.1808 77.9533 29.578 78.4266 27.2709C78.4857 24.9047 78.4857 22.4793 78.6632 20.113V20.1722Z" fill="#DB7F5E"/>
<path d="M77.066 20.2314C77.3026 22.5977 77.3026 24.9639 77.0068 27.3302C76.7702 24.9639 76.7702 22.5977 77.066 20.2314Z" fill="#DB7F5E"/>
<path d="M75.1138 19.9355C75.4096 22.1835 75.4096 24.4906 75.1138 26.7385C74.818 24.4906 74.818 22.1835 75.1138 19.9355Z" fill="#DB7F5E"/>
<defs>
<linearGradient id="paint0_linear_226_437" x1="65.4122" y1="17.9834" x2="62.2178" y2="17.6876" gradientUnits="userSpaceOnUse">
<stop stop-color="#FAB98F"/>
<stop offset="1" stop-color="#FE9E5E"/>
</linearGradient>
</defs>
</svg>
