<svg width="142" height="143" viewBox="0 0 142 143" fill="none" xmlns="http://www.w3.org/2000/svg">
<path fill-rule="evenodd" clip-rule="evenodd" d="M92.3315 129.773C97.5486 121.979 98.2643 120.993 101.875 111.593C102.272 110.559 102.766 109.605 102.861 108.428H120.882C120.596 109.51 115.792 114.79 115.251 115.283C108.746 121.168 105.47 123.904 96.8487 127.928C95.6081 128.501 93.604 129.471 92.3156 129.773H92.3315ZM68.3778 0H73.6267C78.7005 0.174961 83.7426 0.874804 88.5619 2.09953C93.2541 3.29244 97.2145 4.88299 101.207 6.64851C106.503 9.00252 114.981 14.6649 119.021 18.7844C119.435 19.198 119.705 19.5161 120.15 19.8819C122.473 21.8065 121.2 20.9794 123.331 23.0789C131.491 31.1271 136.819 42.7063 139.921 53.6334C141.13 57.8643 141.814 63.129 141.973 68.5369V73.5312C141.814 78.9868 141.098 84.2993 139.857 88.5778C137.137 97.8349 134.545 104.118 128.946 112.054L118.894 123.363C116.333 125.956 112.261 128.819 109.207 130.871C108.237 131.523 107.664 131.809 106.599 132.429C104.706 133.543 103.115 134.545 101.016 135.436C95.3377 137.853 94.3515 138.235 88.3393 139.953C81.4363 141.925 75.6467 142.004 68.4892 142.004C55.0808 142.004 40.7977 136.644 29.9501 128.978C25.4011 125.765 24.6376 124.461 21.8224 122.123C19.7865 120.437 21.0589 121.375 19.7706 120.023L16.7008 116.715C15.3647 115.172 14.1082 113.629 12.9153 111.895C10.7839 108.81 8.03229 104.483 6.56898 101.048C1.25654 88.5937 0 82.327 0 68.521C0 58.7232 2.94252 49.164 6.66441 40.7977C7.4915 38.9208 8.58898 36.9644 9.65465 35.1989C10.7362 33.3857 11.8655 31.652 13.0425 29.9819C15.6033 26.3554 18.6413 22.7131 21.9814 19.7865C22.4109 19.4047 22.6813 19.0866 23.0948 18.6731C30.5386 11.118 43.3744 4.62851 53.6334 2.06772C58.4051 0.874804 63.3835 0.190866 68.3937 0.0159055L68.3778 0ZM75.1536 132.827V108.428H94.0175C93.763 109.541 93.0155 111.148 92.5542 112.229C90.6615 116.635 89.564 118.878 86.86 122.902C84.4424 126.513 79.5117 131.809 75.1536 132.827ZM47.971 108.428H66.835V132.827C60.5841 131.38 53.7925 121.9 51.1203 116.094C50.5159 114.774 50.0865 113.772 49.5298 112.42C49.1958 111.609 49.0367 111.339 48.7027 110.48C48.4164 109.764 48.2414 108.953 47.987 108.412L47.971 108.428ZM21.0748 108.428H39.0958C39.4298 112.404 45.0762 123.093 47.9074 127.34C48.5118 128.246 49.0844 128.978 49.6252 129.773C48.4641 129.503 46.4123 128.564 45.283 128.024C44.4718 127.642 43.9151 127.515 43.1517 127.101C37.712 124.174 32.8767 121.152 28.4868 116.81C27.7869 116.11 27.2621 115.919 26.6895 115.283L21.0589 108.428H21.0748ZM95.9421 100.109H75.1377V75.1536H99.823C99.823 82.8359 98.7574 90.407 97.1668 97.7235C96.9441 98.7733 96.9441 100.109 95.9421 100.109ZM42.1496 76.5374V75.1536H66.835V100.109H46.0306C44.9013 100.109 44.6945 97.1509 44.2969 95.1945C43.2153 89.8026 42.1496 82.152 42.1496 76.5533V76.5374ZM125.892 100.109H105.374L106.487 94.2879C107.474 88.2915 108.428 81.5953 108.428 75.1536H133.384C133.384 83.4563 130.489 90.4865 127.594 97.6599C127.276 98.4393 126.831 100.109 125.892 100.109ZM8.58898 75.1536H33.5447C33.5447 86.4624 36.5509 98.4711 36.5986 100.109H16.0805C14.649 100.109 11.3884 90.1207 11.0543 89.055C10.0046 85.6512 8.58898 79.5435 8.58898 75.1536ZM75.1377 41.5929H96.4829C98.0893 48.5118 99.8071 56.9895 99.8071 65.4353V66.8191H75.1218V41.577L75.1377 41.5929ZM42.1337 65.4353C42.1337 56.9895 43.8515 48.5118 45.458 41.5929H66.8032V66.835H42.1178V65.4512L42.1337 65.4353ZM105.358 41.5929H125.606C127.165 41.5929 130.505 51.6611 130.839 52.7109C131.92 56.1465 133.368 62.4928 133.368 66.8191H108.412C108.412 62.5405 107.935 57.403 107.394 53.697C107.076 51.518 106.806 49.6888 106.472 47.6847L105.358 41.5929ZM33.5447 66.835H8.58898C8.58898 60.266 10.9907 52.4882 13.2652 46.8259C13.6469 45.8715 15.3488 41.5929 16.3509 41.5929H36.5986L35.5329 47.4462C35.1671 49.6093 34.9126 51.4384 34.5786 53.697C34.0378 57.4189 33.5606 62.4928 33.5606 66.8191L33.5447 66.835ZM75.1377 9.16158C81.4363 10.6249 88.0052 19.8978 90.7569 25.7033C91.075 26.3714 91.2182 26.8485 91.4885 27.4529L93.9857 33.2743H75.1218V9.14567L75.1377 9.16158ZM66.8191 9.16158V33.2903H47.9551C50.1024 28.8208 49.7525 28.1051 52.9654 22.4904C55.717 17.671 61.284 10.4499 66.8191 9.16158ZM92.3315 12.2154C93.4926 12.4858 95.5445 13.4243 96.6738 13.965L100.746 16.001C103.481 17.4643 106.01 19.0548 108.38 20.8521L113.343 25.0512C114.09 25.7988 114.456 25.926 115.156 26.5622L120.914 33.2903H102.893C102.304 30.7613 99.5686 24.4309 98.3597 22.0132C97.3895 20.0728 96.6578 18.8162 95.5922 17.0189L92.3475 12.2154H92.3315ZM39.0958 33.2903H21.0748C22.7608 30.7772 27.5006 25.8942 29.8865 23.7947C34.5309 19.7069 39.5411 16.6531 45.1081 14.0605C46.3487 13.4879 48.3528 12.5176 49.6411 12.2154C49.1322 12.9789 48.5914 13.631 48.0347 14.4899C47.4621 15.3488 47.0485 15.9214 46.5077 16.8439C44.0901 20.9158 40.1455 28.8367 39.1117 33.2903H39.0958Z" fill="#429E73"/>
</svg>
