<svg width="143" height="142" viewBox="0 0 143 142" fill="none" xmlns="http://www.w3.org/2000/svg">
<path fill-rule="evenodd" clip-rule="evenodd" d="M125.654 120.37C126.173 121.343 131.094 132.431 131.198 133.678H100.128C100.868 132.678 117.215 124.654 119.175 123.602C120.785 122.733 123.966 120.759 125.641 120.37H125.654ZM66.8518 37.7169C66.8518 33.9517 71.3051 32.3028 73.8369 34.6139C75.8363 36.4316 76.0181 41.599 70.4482 41.599C69.4874 41.599 68.5266 40.9758 68.0203 40.4305C67.5399 39.8981 66.8518 38.5868 66.8518 37.7169ZM58.5294 36.3277C58.5294 41.0407 58.6852 43.0012 62.3335 46.6625C70.3963 54.7512 83.4836 47.7531 83.4836 38.8205C83.4836 34.3282 83.159 31.9133 79.5366 28.3429C71.5648 20.4749 58.5164 27.5509 58.5164 36.3277H58.5294ZM69.3706 0H72.6814C78.0046 0.220719 83.2759 1.4931 87.9239 3.86907C88.5861 4.20664 88.8068 4.41437 89.4949 4.79089C97.1941 9.08842 103.192 16.2033 105.984 24.6426C111.307 40.7031 108.165 53.2581 100.959 67.6697C100.31 68.9681 99.7259 70.2405 98.9599 71.4999C98.5054 72.2399 97.272 74.4211 97.0773 75.1612C101.608 75.1612 106.14 75.1742 110.671 75.1612C115.747 75.1482 115.864 75.5767 118.123 81.0297C120.954 87.898 142.013 136.041 142.013 137.287C142.013 139.975 140.663 142 138.404 142H3.6094C1.35028 142 0 139.975 0 137.287C0 136.274 6.92018 120.72 7.9199 118.305L19.9685 90.1441C21.3188 87.054 22.6172 84.0549 23.9674 80.822C26.2006 75.4728 26.1617 75.1482 31.6147 75.1612C36.055 75.1612 40.4954 75.1612 44.9227 75.1612C44.741 74.3822 43.4037 72.1101 42.9233 71.3311C38.2622 63.6708 33.2636 49.5838 33.2636 40.4954C33.2636 34.7177 34.484 28.4338 36.081 24.1752C37.0288 21.6304 37.8338 19.8906 39.21 17.6056C40.3526 15.697 41.6769 13.6326 43.183 12.1395C44.9098 10.4257 46.2471 8.91963 48.2076 7.4525L53.9722 3.79117C58.6592 1.50608 63.9695 0.233702 69.3576 0.0129835L69.3706 0ZM39.3918 112.333L60.8145 133.626L10.8282 133.691C10.9191 132.678 14.0351 125.355 14.5415 124.927L26.8108 118.617C29.8749 117.085 37.3794 112.8 39.3788 112.333H39.3918ZM47.4285 107.892L62.4114 100.401C63.0476 101.608 65.0731 103.907 66.0208 105.114C68.3449 108.113 71.3181 110.684 74.5899 106.737L77.2385 103.569C78.9913 101.336 80.5104 99.4922 82.2242 97.1941C83.7433 95.1557 91.0919 85.4051 91.5333 83.7562H110.113L122.317 112.32L101.699 123.044C100.713 123.538 100.089 123.849 99.1027 124.33L86.1582 131.081C79.5366 134.379 83.6783 133.665 73.2137 133.665C72.3438 133.665 70.4612 131.328 69.812 130.678L50.5316 111.398C48.9995 109.866 48.2076 109.373 47.4156 107.867L47.4285 107.892ZM19.6959 112.605L31.9003 83.7562H50.4797C50.7653 84.8468 54.2708 89.6897 55.3095 91.1308C55.9717 92.0397 56.5819 92.559 56.8545 93.7405L19.6959 112.605ZM41.8846 41.3263C41.8846 35.8863 42.378 31.9523 44.0009 27.3561C45.3252 23.5779 46.9871 21.0072 49.2203 18.1509C53.2451 12.9964 61.8532 8.60803 68.7993 8.60803C75.4079 8.60803 78.3421 8.64698 84.5223 11.75C87.7032 13.347 90.2869 15.6321 92.585 18.1119C98.1549 24.1103 100.141 33.2117 100.141 41.6249C100.141 53.2971 90.5076 70.2275 84.6132 79.0692C80.835 84.73 77.706 89.2353 73.5253 94.5974L71.0325 97.6485C69.2148 96.3242 59.0617 81.4971 57.5556 79.238C51.4664 70.0976 41.9106 53.5048 41.9106 41.3523L41.8846 41.3263Z" fill="#429E73"/>
</svg>
