<svg width="119" height="90" viewBox="0 0 119 90" fill="none" xmlns="http://www.w3.org/2000/svg">
<path d="M114.056 33.9202C112.072 25.534 108.744 17.1144 102.422 11.2574C97.3033 6.51849 90.561 3.80959 83.6989 2.53169C76.8368 1.26044 69.8083 1.327 62.8331 1.54664C50.4068 1.93267 37.9273 2.77795 25.8271 5.63993C21.1082 6.75809 16.4159 8.19574 12.2161 10.6251C8.01631 13.0544 4.32236 16.5487 2.31232 20.9615C-0.0637801 26.1862 0.10927 32.243 1.31396 37.8471C2.51865 43.4579 4.70174 48.8025 6.25253 54.3268C7.7767 59.7379 8.70185 65.3287 10.6586 70.5934C12.6221 75.8581 15.7969 80.9298 20.6622 83.7519C24.0234 85.702 27.9769 86.4408 31.8572 86.4607C35.7375 86.4807 39.5912 85.8151 43.4116 85.1163C54.5999 83.0663 65.755 80.6702 77.0831 79.6586C81.8752 79.2326 86.7073 79.0462 91.4462 78.2209C96.1917 77.3956 100.904 75.8848 104.798 73.0561C110.555 68.8762 114.056 62.0807 115.294 55.0722C116.532 48.0637 115.68 40.8356 114.049 33.9136L114.056 33.9202Z" fill="#E7F5F6"/>
<path d="M37.0487 52.21H115.693C115.6 53.1684 115.467 54.1268 115.3 55.0786C114.062 62.0871 110.562 68.8826 104.804 73.0624C100.911 75.8911 96.1917 77.402 91.4528 78.2273C86.7073 79.0526 81.8819 79.2323 77.0897 79.6649C65.7616 80.6766 54.6066 83.0727 43.4183 85.1227C41.3017 85.5087 39.1785 85.8881 37.0487 86.141V52.21Z" fill="#E7F5F6"/>
<path d="M80.9567 7.39014H84.3711V29.1545H80.9567V7.39014Z" fill="#B9E1E5"/>
<path d="M93.2766 27.577C93.2766 29.0613 92.6842 30.4856 91.6326 31.5372C90.581 32.5888 89.1567 33.1812 87.6724 33.1812C86.1882 33.1812 84.7639 32.5888 83.7123 31.5372C82.6607 30.4856 82.0683 29.0613 82.0683 27.577C82.0683 26.0928 82.6607 24.6685 83.7123 23.6169C84.7639 22.5653 86.1882 21.9729 87.6724 21.9729C89.1567 21.9729 90.581 22.5653 91.6326 23.6169C92.6842 24.6685 93.2766 26.0928 93.2766 27.577Z" fill="#79C7B7"/>
<path d="M71.6187 14.1858C69.4756 16.7948 62.5935 17.4072 61.5685 23.0313V47.7907L71.6187 47.9172L81.6689 47.7907V23.0313C80.6439 17.4072 73.7619 16.7948 71.6187 14.1858Z" fill="#49B09B"/>
<path d="M58.5868 26.4856H111.886C112.758 28.9216 113.47 31.4175 114.056 33.9201C115.5 40.05 116.332 46.4196 115.647 52.6627H58.5868V26.4856Z" fill="#9CDADB"/>
<path d="M8.56873 13.1274H19.3511V75.219H12.7619C11.9432 73.7347 11.251 72.1773 10.6653 70.5999C8.70185 65.3352 7.7767 59.7444 6.25918 54.3332C4.70839 48.8089 2.52531 43.4644 1.32061 37.8536C0.115922 32.2428 -0.0571273 26.186 2.31898 20.9679C3.71669 17.893 5.93971 15.2639 8.57539 13.1274H8.56873Z" fill="#A8DADF"/>
<path d="M58.5868 33.1348H113.863C113.929 33.3943 113.989 33.6606 114.056 33.9201L114.063 33.9601H58.5868V33.1348Z" fill="#6CC1C2"/>
<path d="M61.8481 21.9729C61.7283 22.3057 61.6351 22.6584 61.5685 23.0312V24.1693H81.6689V23.0312C81.6024 22.6584 81.5025 22.3057 81.3894 21.9729H61.8547H61.8481Z" fill="#79C7B7"/>
<path d="M62.2275 33.8601H82.0949V52.6759H62.2275V33.8601Z" fill="#52B6B7"/>
<path d="M15.8102 17.0211C15.8102 14.8712 17.554 13.1274 19.7039 13.1274H58.447C59.4786 13.1274 60.4704 13.5401 61.2025 14.2656C61.9346 14.9977 62.3406 15.9894 62.3406 17.0211V77.8413C62.3406 78.873 61.928 79.8647 61.2025 80.5968C60.4704 81.329 59.4786 81.735 58.447 81.735H19.7039C17.554 81.735 15.8102 79.9912 15.8102 77.8413V17.0211Z" fill="#CAE9EB"/>
<path d="M18.7986 18.552C18.7986 17.1476 19.9368 16.0161 21.3345 16.0161H57.8746C59.2789 16.0161 60.4104 17.1542 60.4104 18.552V43.551C60.4104 44.9553 59.2723 46.0868 57.8746 46.0868H21.3345C19.9301 46.0868 18.7986 44.9487 18.7986 43.551V18.552Z" fill="#007391"/>
<path d="M62.2275 80.8164H67.5188" stroke="#A9DBDF" stroke-width="4.78188"/>
<path d="M62.2275 72.7698H105.204" stroke="#A9DBDF" stroke-width="4.78188"/>
<path d="M62.2275 64.8096H107.613" stroke="#A9DBDF" stroke-width="4.78188"/>
<path d="M67.5587 52.6426L62.2275 64.8093" stroke="#A9DBDF" stroke-width="4.78188"/>
<path d="M60.1708 52.8691C61.5086 56.3967 63.492 71.6716 63.6517 75.4122C63.7649 77.9813 63.8448 79.9181 63.8714 81.3824C63.2391 81.4889 62.6001 81.5887 61.9678 81.7019C61.6018 77.4089 61.3622 71.3921 60.5435 71.2523C59.2523 71.0393 58.9395 70.1808 58.407 66.6199C57.8746 63.0591 57.1291 56.8027 56.8762 53.4815C56.6233 50.1602 56.8629 49.7676 57.1624 49.5279C57.4619 49.295 57.8147 49.2151 58.0476 49.2018C58.2806 49.1885 58.8463 49.3283 58.9861 49.3682C59.1258 49.4081 58.833 49.3416 60.1708 52.8691Z" fill="#7CC2A6"/>
<path d="M44.5964 45.561L37.5346 50.6061L37.102 86.1412C39.2185 85.8883 41.3284 85.5089 43.425 85.1295C49.708 83.9781 55.9844 82.7135 62.2874 81.6552L58.9994 49.3748L54.2006 46.1002L49.7146 45.5743L44.6097 45.5677L44.5964 45.561Z" fill="#7CC2A6"/>
<path d="M60.9163 72.2905C59.9179 78.8797 56.6965 82.4539 53.2622 83.2725C56.2506 82.7068 59.2457 82.161 62.2474 81.6552L60.9163 72.2905C61.056 72.2905 60.7832 72.2839 60.9163 72.2905ZM52.6365 83.3923C49.9809 83.7651 47.272 82.5271 45.4217 79.7916C42.3667 75.2856 42.8792 69.2222 42.6396 60.6496C40.33 60.217 39.1919 75.5252 37.2351 75.4187L37.102 86.1478C39.2185 85.8949 41.3284 85.5155 43.425 85.1361C46.4999 84.5704 49.5682 83.9847 52.6432 83.4057L52.6365 83.3923Z" fill="#5EB492"/>
<path d="M36.6028 75.5386C37.062 78.0878 37.5679 82.9797 37.8674 86.0347C35.8773 86.301 33.8739 86.474 31.8639 86.4607C27.9836 86.4407 24.0301 85.6953 20.6689 83.7518C19.3111 82.9664 18.0798 82.0013 16.975 80.9098C17.1347 79.5121 17.3876 78.1343 17.7604 77.0827C18.5724 74.8131 19.9568 74.0144 22.5259 73.2157C25.0883 72.4104 28.8355 71.6051 31.1517 71.5119C33.4679 71.4187 34.3665 72.0377 35.032 72.4171C35.6976 72.7964 36.1236 72.9362 36.5961 75.5453L36.6028 75.5386Z" fill="#7CC2A6"/>
<path d="M37.528 50.606C40.7826 50.7524 42.999 57.7076 42.6595 61.2352L40.4565 85.6485C38.9123 85.9081 37.3682 86.1277 35.8174 86.2808L31.9771 73.7946C33.4813 65.6746 35.0454 57.6078 37.5346 50.606H37.528Z" fill="#7CC2A6"/>
<path d="M21.1881 73.6814C19.4509 74.3736 18.4126 75.2455 17.7604 77.0825C17.381 78.1408 17.1347 79.5185 16.975 80.9162C17.8402 81.7748 18.7853 82.5535 19.8103 83.2324C24.8221 85.116 30.3198 86.1077 34.9588 86.1077C35.2317 86.1077 35.8973 86.1476 36.7026 86.1876C37.0953 86.141 37.4814 86.0944 37.874 86.0411C37.5945 83.2124 37.1419 78.813 36.7093 76.1507C33.9205 74.9992 28.1766 75.2588 26.0068 74.8994C24.7689 74.6931 23.0583 74.1939 21.1947 73.6814H21.1881Z" fill="#5EB492"/>
<path d="M46.3801 38.6458L45.9275 45.1617L49.6813 47.1185C49.6813 47.1185 52.9493 46.2333 52.9759 46.047C53.0026 45.8606 52.8428 38.7789 52.8428 38.7789L46.3801 38.6458Z" fill="#F3B294"/>
<path d="M47.3718 38.6656C46.9592 38.6856 46.6131 38.7055 46.3668 38.7321L46.2936 39.7372C47.4916 41.6873 51.6515 44.5826 52.9427 43.8904C52.9161 42.3529 52.8761 40.5824 52.8562 39.5907C52.3969 39.0849 51.332 38.832 50.1805 38.7188L47.3718 38.6589V38.6656Z" fill="#E67051"/>
<path d="M54.6998 20.8216C55.818 21.3407 57.5019 23.5238 57.3754 25.7668L57.4686 33.1414L54.1873 25.1944L54.6998 20.8149V20.8216Z" fill="#7F2D2E"/>
<path d="M54.0609 21.8998C54.6932 22.2193 55.6516 22.7118 56.3438 24.5887C57.0294 26.459 57.4487 29.707 57.6683 32.2628C57.888 34.8186 57.9146 36.6756 57.3954 38.2131C56.8763 39.7572 55.818 40.9819 54.1874 41.6208C52.5567 42.2598 50.3603 42.3064 48.4235 41.4611C46.4866 40.6091 44.8161 38.8587 43.8243 36.5225C42.8326 34.1863 42.5198 31.2578 42.5198 29.2611C42.5132 27.2644 42.8193 26.1861 43.7778 25.1079C44.7362 24.0297 46.3535 22.9381 47.9709 22.2992C49.5882 21.6602 51.2056 21.4738 52.164 21.4539C53.1224 21.4339 53.4286 21.587 54.0609 21.9065V21.8998Z" fill="#F3B294"/>
<path d="M56.3704 23.3576C56.1242 16.8549 40.9956 17.6669 39.8642 26.1929C39.5646 27.4043 39.132 32.0633 43.4849 34.8587C43.6113 32.8953 45.0623 34.06 45.435 33.0417C46.1871 30.9917 46.1805 30.6855 45.9076 29.7471C43.405 20.9349 52.8762 28.9484 56.3704 23.3576Z" fill="#7F2D2E"/>
<path d="M42.8992 31.0582C42.6196 31.0582 42.3534 31.1181 42.1204 31.2379C41.142 31.7438 40.8625 33.1548 41.5014 34.3795C42.1404 35.6108 43.4516 36.1965 44.43 35.684C44.9025 35.4377 45.2287 34.9718 45.3485 34.3795C45.4616 33.7871 45.3551 33.1282 45.0556 32.5358C44.5897 31.6439 43.7444 31.0516 42.9125 31.0449L42.8992 31.0582Z" fill="#F3B294"/>
<path d="M46.054 42.9187C47.6447 43.3513 50.6132 44.6559 52.9427 43.165L54.1873 46.0935C51.2654 48.3631 46.5265 47.5844 44.5964 45.561L46.054 42.9187Z" fill="#7CC2A6"/>
<path d="M36.7227 75.5186C36.9556 76.7965 37.1952 78.6602 37.4215 80.5837C37.6412 82.5005 37.8408 84.4906 37.9939 86.0281L37.741 86.0547C37.5946 84.5372 37.3882 82.5538 37.1686 80.6169C36.949 78.6934 36.7027 76.8298 36.4764 75.5652C36.0305 73.1226 35.6378 72.9029 35.0521 72.5701L34.9655 72.5235L34.8391 72.4503C34.2001 72.0776 33.2949 71.5518 31.1584 71.6383C30.0669 71.6849 28.6559 71.8846 27.1983 72.1774C25.5809 72.4969 23.9103 72.9229 22.5659 73.3422C21.2946 73.7416 20.3162 74.1342 19.5641 74.7066C18.812 75.2724 18.2796 76.0245 17.8869 77.1293C17.7005 77.6485 17.5474 78.2475 17.4143 78.8865C17.2879 79.5254 17.1814 80.2176 17.0948 80.9231L16.8419 80.8965C16.9284 80.191 17.0349 79.4988 17.1681 78.8399C17.3012 78.1876 17.4609 77.5753 17.6473 77.0428C18.0599 75.8847 18.6257 75.0993 19.411 74.5003C20.1964 73.9079 21.1948 73.5019 22.4927 73.0959C23.8438 72.67 25.5277 72.244 27.1517 71.9245C28.6159 71.6317 30.0469 71.4253 31.1518 71.3854C33.3615 71.2922 34.3066 71.8447 34.9722 72.2307C35.0055 72.2507 35.0388 72.2706 35.0987 72.3039L35.1785 72.3505C35.8241 72.7166 36.2634 72.9628 36.7227 75.5186Z" fill="#4E8670"/>
<path d="M11.9232 73.4486L11.9099 73.5485C13.7602 77.4421 16.3693 80.9896 19.9368 83.3058C20.0765 81.3757 20.2296 79.2258 20.2895 77.8281C20.3827 75.6384 20.2562 75.279 19.1114 74.2473C17.9666 73.209 15.8035 71.4919 14.5123 70.7997C13.2211 70.1008 12.8018 70.4269 12.5622 70.6466C12.3226 70.8662 12.2693 70.9794 11.9232 73.4553V73.4486Z" fill="#7CC2A6"/>
<path d="M19.8037 83.2992C19.8769 82.3274 19.9501 81.3091 20.01 80.364C20.0699 79.4055 20.1232 78.5203 20.1565 77.8281L20.4094 77.8348C20.3761 78.5403 20.3295 79.4255 20.263 80.3773C20.2031 81.3357 20.1298 82.354 20.0566 83.3191L19.8037 83.2992Z" fill="#4E8670"/>
<path d="M33.428 43.1782C33.7275 41.9269 34.24 39.6307 34.2999 37.9667C34.3532 36.3028 33.9538 35.2645 32.3365 34.2595C30.7191 33.2545 27.8905 32.2827 25.5277 32.2628C23.1649 32.2428 21.2746 33.1813 19.9768 34.4126C18.6789 35.6439 17.9734 37.1747 16.4758 43.7972C14.9849 50.4197 12.702 62.1271 11.5306 68.104C11.2777 69.3952 11.0714 70.4202 10.9116 71.2322C11.5839 72.9427 12.3892 74.6266 13.341 76.2107C15.97 77.6217 20.4893 79.9978 24.4095 81.4155C28.6625 82.953 32.21 83.3523 34.6594 83.4788C37.1087 83.6119 38.4664 83.4721 39.172 83.379C39.8775 83.2924 39.9307 83.2525 39.3051 78.6134C38.6794 73.9744 37.3682 64.7162 36.1636 58.4066C34.9589 52.1036 33.854 48.7424 33.3349 46.972C32.8224 45.2015 32.8956 45.0152 32.9754 44.8222C33.0553 44.6292 33.1352 44.4228 33.4347 43.1715L33.428 43.1782Z" fill="#7CC2A6"/>
<path d="M20.6289 41.1084C19.3777 49.6278 31.2582 60.5632 33.8273 48.6693C33.6276 47.9904 33.4612 47.438 33.3281 46.9854C30.9454 47.7176 21.6872 52.8957 20.6289 41.1151V41.1084Z" fill="#5EB492"/>
<path d="M29.7141 49.2415C29.8738 50.0069 30.1068 50.6459 30.393 51.165C30.7457 51.804 31.1717 52.2499 31.6243 52.5162C32.0702 52.7757 32.5428 52.8556 32.9954 52.7624C33.1817 52.7225 33.3681 52.6559 33.5478 52.5561L33.7009 52.4696L33.7342 52.6426C35.0587 59.7443 35.072 67.8909 35.0853 75.0725C35.0919 77.9678 35.0986 80.7033 35.1851 83.1592L34.9322 83.1659C34.839 80.7166 34.839 77.9744 34.8324 75.0725C34.8191 67.9642 34.8057 59.8974 33.5145 52.8556C33.3614 52.9222 33.2084 52.9754 33.0486 53.0087C32.5361 53.1152 31.997 53.0286 31.4978 52.7358C31.0053 52.4496 30.5461 51.9704 30.1733 51.2848C29.8805 50.7457 29.6342 50.0868 29.4745 49.2881L29.7208 49.2349L29.7141 49.2415Z" fill="#4E8670"/>
<path d="M20.7554 41.1085C20.7354 42.7857 21.1215 44.3232 21.847 45.6344C22.5791 46.9722 23.664 48.077 25.0151 48.8624L24.8886 49.0821C23.4976 48.2767 22.3794 47.1319 21.6207 45.7542C20.8752 44.4031 20.4825 42.819 20.5025 41.1018H20.7554V41.1085Z" fill="#4E8670"/>
<path d="M24.3163 45.4479C25.5343 43.5045 27.937 39.7706 29.5078 37.9802C31.0786 36.1898 31.8107 36.3362 32.5362 38.1998C33.2617 40.0634 33.9871 43.6442 33.9405 46.0536C33.8873 48.463 33.062 49.6943 31.8107 50.3333C30.5594 50.9722 28.8755 51.0188 27.3447 50.4797C25.8072 49.9406 24.4162 48.8157 23.7373 48.1768C23.0584 47.5378 23.0983 47.3781 24.3163 45.4346V45.4479Z" fill="#F3B294"/>
<path d="M31.2516 36.7156C30.799 36.7289 30.2466 37.1416 29.5144 37.9802C29.195 38.3462 28.8422 38.7922 28.4695 39.2847C29.2083 38.9852 29.9471 38.7057 30.3597 38.6591C31.1651 38.5659 31.9638 38.6125 32.7425 38.7456C32.6759 38.5526 32.6094 38.3662 32.5495 38.1998C32.1634 37.2081 31.7774 36.7023 31.2582 36.7156H31.2516Z" fill="#E57051"/>
<path d="M44.7162 45.601C44.603 45.9405 44.5365 46.3066 44.5032 46.6926C44.3302 48.6693 45.1555 51.092 46.5132 53.1886C47.871 55.2852 49.7479 57.0423 51.6981 57.6746C52.0775 57.7944 52.4568 57.8809 52.8296 57.9142L52.8096 58.1671C52.4102 58.1338 52.0175 58.0473 51.6182 57.9208C49.6148 57.2686 47.6847 55.4715 46.3003 53.3284C44.9159 51.1919 44.0772 48.7026 44.2503 46.6726C44.2836 46.2733 44.3568 45.8872 44.4766 45.5278L44.7162 45.6077V45.601Z" fill="white"/>
<path d="M54.3071 46.0469C54.8995 47.5444 54.986 49.9937 54.7131 52.3366C54.4336 54.7393 53.7813 57.0355 52.9094 58.1138L52.7164 57.954C53.5617 56.9157 54.1939 54.6661 54.4602 52.3099C54.7264 50.0004 54.6465 47.5977 54.0675 46.1401L54.3004 46.0469H54.3071Z" fill="white"/>
<path d="M50.713 43.8839L50.8461 47.3382C52.2305 51.4914 52.5367 54.6196 52.8362 57.7478C52.9826 59.3052 53.1357 60.856 53.4219 62.5399L53.169 62.5799C52.8828 60.896 52.7364 59.3319 52.5833 57.7678C52.2838 54.6529 51.9843 51.5313 50.5999 47.3914L50.5932 47.3582L50.4601 43.8839L50.713 43.8772V43.8839Z" fill="#4E8670"/>
<path d="M53.4552 58.2204C53.4552 58.5532 53.1823 58.8261 52.8495 58.8261C52.5167 58.8261 52.2438 58.5532 52.2438 58.2204C52.2438 57.8876 52.5167 57.6147 52.8495 57.6147C53.1823 57.6147 53.4552 57.8876 53.4552 58.2204Z" fill="white"/>
<path d="M49.901 58.553H55.5584V67.4051H49.901V58.553Z" fill="white"/>
<path d="M44.6763 45.4612C45.5082 46.1467 46.48 46.6592 47.5116 46.9587C48.5433 47.2649 49.6348 47.3647 50.7064 47.2316C51.3121 47.1584 51.9111 47.012 52.4835 46.8056C53.0559 46.5927 53.6083 46.3198 54.1208 45.987L54.2606 46.2C53.7348 46.5461 53.169 46.8323 52.5767 47.0453C51.9843 47.2649 51.3653 47.4113 50.7397 47.4845C49.6348 47.6176 48.51 47.5178 47.4451 47.205C46.3802 46.8922 45.3751 46.3664 44.5165 45.6609L44.6763 45.4678V45.4612Z" fill="#4E8670"/>
<path d="M62.2275 57.6013H107.613" stroke="#A9DBDF" stroke-width="4.78188"/>
<path d="M62.2075 81.6553L58.1941 53.5614L58.447 53.5281L62.4538 81.622L62.2075 81.6553Z" fill="#4E8670"/>
<path d="M40.3301 85.6352L42.6862 59.4714L42.9391 59.4914L40.5763 85.6618L40.3301 85.6352Z" fill="#4E8670"/>
<path d="M15.3976 49.4148C14.2129 55.0855 12.8817 61.8877 11.9699 66.5068L11.6504 68.1308C11.5239 68.7764 11.4108 69.3555 11.3043 69.8746C11.2045 70.3938 11.1113 70.853 11.0314 71.259L10.7785 71.2124C10.8584 70.8064 10.9516 70.3472 11.0514 69.828C11.1512 69.3089 11.271 68.7298 11.3975 68.0842L11.717 66.4602C12.6221 61.8544 13.9533 55.0656 15.1447 49.3616L15.3976 49.4148ZM13.4009 76.1044C14.7121 76.8099 16.5025 77.755 18.4459 78.7001C20.3894 79.6453 22.4993 80.5904 24.4494 81.2959C26.566 82.0613 28.5094 82.5405 30.2333 82.8467C31.9505 83.1528 33.448 83.286 34.666 83.3525C35.884 83.4191 36.8358 83.4124 37.5613 83.3858C38.2867 83.3592 38.7992 83.2993 39.152 83.2527C39.4315 83.2194 39.5846 83.1928 39.6046 82.7002C39.6312 82.1079 39.4848 80.9431 39.172 78.6336C38.7992 75.8914 38.1936 71.5319 37.508 67.1258C37.0355 64.0841 36.523 61.0158 36.0304 58.4334C35.9639 58.0873 35.8973 57.7412 35.8241 57.3818C35.7509 57.0157 35.6843 56.6896 35.6244 56.39L35.8774 56.3368C35.9506 56.6829 36.0171 57.0157 36.0837 57.3285C36.1502 57.6546 36.2168 58.0007 36.29 58.3801C36.7825 60.9559 37.295 64.0309 37.7676 67.0792C38.4531 71.492 39.0655 75.8515 39.4315 78.587C39.7443 80.9165 39.8908 82.0879 39.8642 82.7002C39.8375 83.4058 39.6112 83.4457 39.1853 83.4989C38.8325 83.5455 38.3134 83.5988 37.5746 83.6321C36.8358 83.6587 35.884 83.6653 34.6527 83.5988C33.4214 83.5322 31.9172 83.3991 30.1867 83.0929C28.4562 82.7868 26.4994 82.3009 24.3629 81.5288C22.3995 80.8167 20.2829 79.8716 18.3328 78.9198C16.3826 77.968 14.5923 77.0229 13.2811 76.3174L13.4009 76.0911V76.1044Z" fill="#4E8670"/>
<path d="M15.3909 49.428C15.3377 49.5944 15.3044 49.7675 15.2844 49.9538C15.1047 52.0104 17.1946 55.112 19.9368 57.9074C22.6923 60.7095 26.1 63.1921 28.556 63.9975C28.9753 64.1372 29.368 64.2238 29.7208 64.2504L29.7008 64.5033C29.3281 64.47 28.9154 64.3768 28.4828 64.2371C25.9935 63.4251 22.5392 60.9158 19.7638 58.0871C16.975 55.2451 14.8585 52.0703 15.0382 49.9339C15.0581 49.7342 15.0914 49.5345 15.158 49.3481L15.3976 49.428H15.3909Z" fill="white"/>
<path d="M34.3665 50.5728C34.8723 51.8507 34.4596 54.1136 33.6809 56.4698C32.596 59.751 30.8056 63.232 29.8073 64.4633L29.6143 64.3036C30.5993 63.0922 32.3697 59.6445 33.4413 56.3899C34.2001 54.0803 34.6127 51.8773 34.1335 50.6659L34.3665 50.5728Z" fill="white"/>
<path d="M30.2132 64.5234C30.2132 64.6831 30.1467 64.8362 30.0335 64.9494C29.9204 65.0625 29.7673 65.1291 29.6076 65.1291C29.2748 65.1291 29.0019 64.8562 29.0019 64.5234C29.0019 64.1906 29.2748 63.9177 29.6076 63.9177C29.7673 63.9177 29.9204 63.9843 30.0335 64.0974C30.1467 64.2106 30.2132 64.3637 30.2132 64.5234Z" fill="white"/>
<path d="M26.6591 64.8562H32.3164V73.7084H26.6591V64.8562Z" fill="white"/>
<path d="M20.183 75.6515L20.842 63.6445L21.0949 63.6578L20.436 75.6648L20.183 75.6515Z" fill="#4E8670"/>
<path d="M52.0575 37.9401C52.1041 37.8802 52.2638 37.9334 52.4901 37.9933C52.7364 38.0532 53.0159 38.1065 53.3953 38.1264C53.402 38.1264 53.402 38.1264 53.4086 38.1264C53.7813 38.1331 54.0542 38.0998 54.2938 38.0466C54.5135 38 54.6666 37.9401 54.7132 37.9933C54.7597 38.0466 54.6865 38.213 54.4469 38.3794C54.2007 38.5458 53.8279 38.6722 53.382 38.6522C53.3753 38.6522 53.3753 38.6522 53.3687 38.6522C52.9294 38.6389 52.5633 38.4925 52.3237 38.3261C52.0908 38.1597 52.0109 37.9933 52.0509 37.9401H52.0575Z" fill="white"/>
<path d="M29.5478 47.7441C29.6143 47.7041 29.7208 47.7773 29.8739 47.8705C30.0203 47.9637 30.2067 48.0902 30.4064 48.1367C30.4263 48.1434 30.4529 48.1434 30.4729 48.1501C30.6659 48.19 30.8589 48.1634 31.012 48.1434C31.1651 48.1234 31.2783 48.1035 31.3248 48.1567C31.3581 48.1967 31.1917 48.7757 30.393 48.6692C30.3531 48.6626 30.3132 48.6559 30.2799 48.6426C29.9271 48.5427 29.7008 48.3098 29.5943 48.1234C29.4879 47.9304 29.4945 47.784 29.5544 47.7507L29.5478 47.7441Z" fill="white"/>
<path d="M74.9533 63.0459C74.8468 63.1058 74.5806 62.8728 74.4608 62.8396C74.341 62.8063 73.9949 62.8795 73.935 62.773C73.8751 62.6665 74.108 62.4003 74.1413 62.2805C74.1746 62.1607 74.1014 61.8146 74.2079 61.7547C74.3143 61.6948 74.5806 61.9277 74.7004 61.961C74.8202 61.9943 75.1663 61.9211 75.2262 62.0276C75.2861 62.1341 75.0531 62.4003 75.0199 62.5201C74.9866 62.6399 75.0598 62.986 74.9533 63.0459Z" fill="white"/>
<path d="M64.1909 52.6162C64.0777 52.6827 63.8049 52.4365 63.6851 52.4032C63.5653 52.3699 63.1992 52.4431 63.1393 52.3366C63.0727 52.2235 63.319 51.9506 63.3523 51.8308C63.3856 51.711 63.3123 51.3449 63.4188 51.285C63.532 51.2185 63.8049 51.4647 63.9247 51.498C64.0445 51.5313 64.4105 51.4581 64.4704 51.5646C64.537 51.6777 64.2907 51.9506 64.2575 52.0704C64.2242 52.1902 64.2974 52.5563 64.1909 52.6162Z" fill="white"/>
<path d="M12.4823 47.5179C12.3559 47.6444 11.8966 47.4114 11.7169 47.4114C11.5372 47.4114 11.078 47.6377 10.9515 47.5179C10.825 47.3914 11.058 46.9322 11.058 46.7525C11.058 46.5728 10.8317 46.1135 10.9515 45.9871C11.078 45.8606 11.5372 46.0936 11.7169 46.0936C11.8966 46.0936 12.3559 45.8673 12.4823 45.9871C12.6088 46.1135 12.3758 46.5728 12.3758 46.7525C12.3758 46.9322 12.6021 47.3914 12.4823 47.5179Z" fill="white"/>
<path d="M5.55368 16.0095H10.2526C11.657 16.0095 12.7885 17.1477 12.7885 18.5454V43.5444C12.7885 44.2166 12.5223 44.8622 12.043 45.3414C11.5638 45.8206 10.9182 46.0869 10.246 46.0869H3.63682C2.75161 43.3713 1.91298 40.6425 1.30731 37.8537C0.102617 32.2429 -0.0704329 26.1862 2.30567 20.9681C3.13099 19.1577 4.23584 17.5004 5.54702 16.0162L5.55368 16.0095Z" fill="#007391"/>
<path d="M5.54041 29.3943C5.54041 28.7886 6.02628 28.3027 6.63195 28.3027H10.652C11.2577 28.3027 11.7436 28.7886 11.7436 29.3943V40.15C11.7436 40.7557 11.2577 41.2415 10.652 41.2415H6.63195C6.02628 41.2415 5.54041 40.7557 5.54041 40.15V29.3943Z" fill="white"/>
<path d="M8.86829 39.0251V45.2949H14.712" stroke="white" stroke-width="16.8666"/>
<path d="M71.3126 38.3796C70.5139 39.4845 67.9447 39.7441 67.5587 42.1335V52.6429L71.3126 52.6962L75.0664 52.6429V42.1335C74.6804 39.7441 72.1113 39.4845 71.3126 38.3796Z" fill="white"/>
<path d="M89.363 38.3796C88.5643 39.4845 85.9952 39.7441 85.6091 42.1335V52.6429L89.363 52.6962L93.1168 52.6429V42.1335C92.7308 39.7441 90.1617 39.4845 89.363 38.3796Z" fill="#52B6B7"/>
<path d="M99.6727 38.3796C98.874 39.4845 96.3049 39.7441 95.9189 42.1335V52.6429L99.6727 52.6962L103.427 52.6429V42.1335C103.041 39.7441 100.471 39.4845 99.6727 38.3796Z" fill="#52B6B7"/>
<path d="M4.50873 48.7224H4.70174C4.95466 48.7224 5.19427 48.8222 5.37398 49.002C5.55368 49.1817 5.65352 49.4213 5.65352 49.6742C5.65352 49.9271 5.55368 50.1667 5.37398 50.3464C5.29411 50.4263 5.20093 50.4928 5.10109 50.5394C4.90807 49.9338 4.7084 49.3347 4.50873 48.7291V48.7224Z" fill="#007391"/>
<path d="M80.3511 12.8281H84.9835V13.8465H80.3511V12.8281Z" fill="#99D3D9"/>
<path d="M82.4011 2.31183L80.9767 7.99585L82.2214 8.00916V8.01581L82.6673 8.00916L83.1132 8.01581V8.00916L84.3579 7.99585L82.9535 2.39836C82.7738 2.36508 82.5874 2.33845 82.4077 2.30518L82.4011 2.31183Z" fill="#70C1CA"/>
<path d="M80.3511 7.33032H84.9835V8.34865H80.3511V7.33032Z" fill="#99D3D9"/>
<path d="M107.666 46.1467H114.748V57.6346C113.497 62.4799 111.134 67.0791 107.666 70.6066V46.1534V46.1467Z" fill="#EEA865"/>
<path d="M62.4605 21.0081L62.4272 63.7979H62.1743L62.2075 21.0081H62.4605Z" fill="#007391"/>
<path d="M75.0664 52.6426L84.8504 79.046" stroke="#A9DBDF" stroke-width="4.78188"/>
<path d="M85.6091 52.6426L101.077 75.2855" stroke="#A9DBDF" stroke-width="4.78188"/>
<path d="M93.1168 52.6426L107.613 64.8093" stroke="#A9DBDF" stroke-width="4.78188"/>
<path d="M62.2275 52.5496H107.613V52.8025H62.2275V52.5496Z" fill="#007391"/>
<path d="M25.9469 5.61987C25.907 5.62653 25.867 5.63984 25.8271 5.6465C21.1082 6.76466 16.4159 8.20231 12.2227 10.6317C11.4906 11.0576 10.7784 11.5102 10.0796 11.9961H39.5047C35.5179 8.1424 33.9538 10.8313 33.5145 11.5368C33.1285 12.1492 32.8889 7.17732 30.6326 6.15233C29.2282 5.51338 26.08 8.52844 26.08 6.9843C26.08 6.51174 26.0334 6.0525 25.9536 5.61987H25.9469Z" fill="white"/>
<path d="M70.3275 10.1856C70.3275 12.3953 68.5504 14.1924 66.354 14.1924C65.3024 14.1924 64.2907 13.773 63.5453 13.0209C62.7998 12.2688 62.3805 11.2505 62.3805 10.1922C62.3805 9.12733 62.7998 8.109 63.5453 7.36355C64.2907 6.61145 65.3024 6.19214 66.354 6.19214C68.5504 6.19214 70.3275 7.98254 70.3275 10.1989V10.1856Z" fill="white"/>
<path d="M107.666 46.1467H114.748V52.2767H107.666V46.1467Z" fill="#EB8148"/>
<path d="M105.13 38.313L107.673 49.1552H109.943H112.485H114.761L117.304 38.313H112.485H109.943H105.13Z" fill="#EEA865"/>
<path d="M104.252 26.479L105.403 36.0766H110.355H112.072H117.031L118.182 26.479H112.072H110.355H104.252Z" fill="#F0B379"/>
<path d="M103.813 35.6506H118.615V38.4394H103.813V35.6506Z" fill="#F3C192"/>
<path d="M111.174 18.5188L104.598 25.0947L111.174 25.1945L117.756 25.0947L111.174 18.5188Z" fill="#EEA865"/>
<path d="M103.773 24.5022H118.575V27.291H103.773V24.5022Z" fill="#F3C192"/>
<path d="M106.089 47.8638H116.339V50.6525H106.089V47.8638Z" fill="#F3C192"/>
<path d="M105.244 27.9233L106.122 34.8919H110.482H111.953H116.385L117.184 27.9233H111.953H110.482H105.244Z" fill="white"/>
<path d="M110.868 27.77H111.567V35.1712H110.868V27.77Z" fill="#F0B379"/>
<path d="M112.285 15.3708C112.285 15.6636 112.166 15.9498 111.959 16.1562C111.753 16.3625 111.467 16.4823 111.174 16.4823C110.562 16.4823 110.062 15.9831 110.062 15.3708C110.062 14.7585 110.562 14.2593 111.174 14.2593C111.467 14.2593 111.753 14.3791 111.959 14.5854C112.166 14.7917 112.285 15.0779 112.285 15.3708Z" fill="#EEA865"/>
<path d="M112.745 17.893C112.745 18.3123 112.578 18.705 112.285 19.0045C111.993 19.2974 111.593 19.4638 111.174 19.4638C110.309 19.4638 109.603 18.7649 109.603 17.893C109.603 17.0278 110.302 16.3223 111.174 16.3223C111.593 16.3223 111.986 16.4887 112.285 16.7815C112.578 17.0744 112.745 17.4737 112.745 17.893Z" fill="#F3C192"/>
<path d="M105.13 38.313L105.53 40.0169H109.943H112.485H116.904L117.304 38.313H112.485H109.943H105.13Z" fill="#EB8148"/>
<path d="M49.6814 89.8352C49.5016 89.4292 51.2521 88.0981 54.5401 86.8202C57.9877 85.4824 62.4005 84.4773 67.8715 84.0181C72.8367 83.5921 78.168 83.6321 81.2696 83.7252C84.6707 83.8251 86.8071 84.0314 86.8537 84.4906C86.9003 84.9566 84.8304 85.6022 81.4093 86.1147C77.4425 86.7137 73.8284 86.9 68.1577 87.3926C62.5336 87.8851 58.9661 88.3909 55.199 89.1164C51.931 89.7487 49.8677 90.2812 49.6747 89.8352H49.6814Z" fill="#A9DBDF"/>
<path d="M0.0893376 45.9405C0.328945 45.7941 1.18754 46.5861 2.13931 48.1902C3.13102 49.8541 4.04951 52.0971 4.72174 54.9058C4.74837 55.0057 4.76833 55.1055 4.79496 55.2053C5.40063 57.8144 5.66686 60.3303 5.75338 62.0341C5.83991 63.7846 5.74007 64.8828 5.45388 64.9294C5.16102 64.976 4.74171 63.9577 4.27581 62.2671C3.8099 60.5832 3.32403 58.2404 2.7117 55.6979C2.7117 55.7045 2.63849 55.405 2.63849 55.405C1.93298 52.5098 1.40052 50.7526 0.761569 48.8158C0.209141 47.1585 -0.176893 46.0936 0.0826818 45.9339L0.0893376 45.9405Z" fill="#A8DADF"/>
<path d="M90.5012 0.148843C90.5944 -0.104076 91.606 -0.0441741 93.1502 0.401761C94.6943 0.847697 96.7776 1.69963 98.8475 3.08403C98.8808 3.104 98.9074 3.12397 98.9407 3.14393C101.044 4.56161 102.508 6.18561 103.4 7.60994C104.265 9.001 104.465 9.99936 104.232 10.1258C103.979 10.2656 103.34 9.53346 102.289 8.4885C101.15 7.36368 99.786 6.15899 97.8092 4.82118C97.7826 4.80122 97.7493 4.78125 97.7227 4.76128C95.8324 3.49003 93.9356 2.47836 92.5977 1.7196C91.2466 0.954189 90.408 0.415073 90.5012 0.142187V0.148843Z" fill="#79C7B7"/>
<path d="M56.63 76.124C56.4902 76.2638 55.9911 76.0109 55.798 76.0109C55.605 76.0109 55.0992 76.2638 54.9661 76.124C54.8263 75.9843 55.0792 75.4851 55.0792 75.2921C55.0792 75.099 54.8263 74.5932 54.9661 74.4601C55.1058 74.3203 55.605 74.5732 55.798 74.5732C55.9911 74.5732 56.4969 74.3203 56.63 74.4601C56.7698 74.5999 56.5169 75.099 56.5169 75.2921C56.5169 75.4851 56.7698 75.9909 56.63 76.124Z" fill="white"/>
<path d="M68.9631 69.1625C68.8832 69.2091 68.6902 69.0361 68.6037 69.0094C68.5171 68.9895 68.2642 69.0361 68.2176 68.9628C68.171 68.883 68.3441 68.69 68.3707 68.6034C68.3907 68.5169 68.3441 68.264 68.4173 68.2174C68.4972 68.1708 68.6902 68.3439 68.7767 68.3705C68.8632 68.3904 69.1162 68.3439 69.1628 68.4171C69.2093 68.4969 69.0363 68.69 69.0097 68.7765C68.9897 68.863 69.0363 69.1159 68.9631 69.1625Z" fill="white"/>
<path d="M27.8039 77.4556C27.6975 77.5155 27.4312 77.2825 27.3114 77.2492C27.1916 77.2159 26.8455 77.2892 26.7856 77.1827C26.7257 77.0762 26.9587 76.8099 26.9919 76.6901C27.0252 76.5703 26.952 76.2242 27.0585 76.1643C27.165 76.1044 27.4312 76.3374 27.551 76.3707C27.6708 76.4039 28.0169 76.3307 28.0768 76.4372C28.1367 76.5437 27.9038 76.8099 27.8705 76.9298C27.8372 77.0496 27.9104 77.3957 27.8039 77.4556Z" fill="white"/>
<path d="M92.4313 70.074C92.2716 70.2338 91.6925 69.9409 91.4663 69.9409C91.24 69.9409 90.6609 70.2338 90.5012 70.074C90.3414 69.9143 90.6343 69.3352 90.6343 69.109C90.6343 68.8827 90.3414 68.3036 90.5012 68.1439C90.6609 67.9841 91.24 68.277 91.4663 68.277C91.6925 68.277 92.2716 67.9841 92.4313 68.1439C92.5911 68.3036 92.2982 68.8827 92.2982 69.109C92.2982 69.3352 92.5911 69.9143 92.4313 70.074Z" fill="white"/>
<path d="M110.036 61.4883C109.896 61.5283 109.663 61.1755 109.537 61.1023C109.41 61.0291 108.991 61.0025 108.951 60.8627C108.911 60.7229 109.264 60.49 109.337 60.3635C109.41 60.237 109.437 59.8177 109.576 59.7778C109.716 59.7379 109.949 60.0906 110.076 60.1638C110.202 60.237 110.621 60.2637 110.661 60.4034C110.701 60.5432 110.349 60.7762 110.275 60.9026C110.202 61.0291 110.175 61.4484 110.036 61.4883Z" fill="white"/>
<path d="M94.7808 37.5277C94.641 37.6675 94.1352 37.4146 93.9421 37.4146C93.7491 37.4146 93.2433 37.6675 93.1035 37.5277C92.9637 37.3879 93.2167 36.8821 93.2167 36.6891C93.2167 36.4961 92.9637 35.9902 93.1035 35.8505C93.2433 35.7107 93.7491 35.9636 93.9421 35.9636C94.1352 35.9636 94.641 35.7107 94.7808 35.8505C94.9205 35.9902 94.6676 36.4961 94.6676 36.6891C94.6676 36.8821 94.9205 37.3879 94.7808 37.5277Z" fill="white"/>
</svg>
