<svg width="122" height="90" viewBox="0 0 122 90" fill="none" xmlns="http://www.w3.org/2000/svg">
<path d="M74.0614 12.3722C69.8625 13.357 66.0822 15.6027 62.425 17.8841C58.765 20.1654 55.0941 22.5424 50.9801 23.8336C46.5679 25.2204 41.8603 25.2888 37.2347 25.2177C32.6092 25.1465 27.9398 24.9441 23.3991 25.8249C18.4945 26.7741 13.8389 28.9953 10.0339 32.2312C6.22898 35.4672 3.2857 39.7125 1.61437 44.4202C-0.056958 49.1278 -0.44812 54.284 0.522946 59.1858C1.49128 64.0849 3.82184 68.7132 7.20005 72.3923C12.4712 78.1312 20.0044 81.3425 27.6171 83.0084C35.2297 84.6743 43.0666 84.9478 50.8187 85.7657C57.3754 86.455 63.8994 87.5355 70.4835 87.861C77.0703 88.1865 83.7966 87.7324 89.9814 85.4456C98.4884 82.2999 105.592 75.6803 109.611 67.5479C113.632 59.4183 114.592 49.8745 112.587 41.0283C111.082 34.4004 107.934 28.1254 103.352 23.1059C98.7702 18.0865 92.7496 14.3527 86.16 12.6923C82.2101 11.6966 78.0277 11.4449 74.0614 12.375V12.3722Z" fill="#E7F5F6"/>
<path d="M107.19 28.1008C104.624 29.1157 102.663 31.5064 102.663 34.6986C102.663 36.2742 99.4459 33.1941 98.0098 33.8452C95.7011 34.8956 95.4576 39.9752 95.0638 39.3515C94.6097 38.6321 93.0122 35.8803 88.9365 39.822H112.294C111.222 35.6779 109.501 31.6979 107.19 28.1036V28.1008Z" fill="white"/>
<path d="M95.5753 41.3702L94.4483 43.1701L90.8458 43.2822L87.7493 46.7151L39.7376 58.0287L30.2731 55.2359L27.4694 56.6802L22.7426 55.5532L16.5524 47.8996L10.4743 48.4631L9.01091 45.8726L1.80313 43.9114C1.7621 44.0235 1.72107 44.1329 1.68004 44.2451C1.66089 44.297 1.64175 44.3517 1.6226 44.4037L1.61713 44.4174C1.3983 45.0329 1.20135 45.6593 1.02628 46.2884C1.0044 46.3705 0.982515 46.4525 0.960632 46.5346C0.922336 46.6741 0.886776 46.8163 0.851216 46.9586C0.249428 49.3548 -0.035053 51.8331 0.00871338 54.3031C0.0114488 54.4563 0.0141842 54.6095 0.019655 54.7654C0.0223904 54.8447 0.0251258 54.9268 0.0278612 55.0061C0.0305966 55.0827 0.0360673 55.162 0.0388027 55.2386C0.0415381 55.3152 0.0470089 55.3945 0.0524797 55.4711C0.0606859 55.6271 0.0716275 55.783 0.0853045 55.9389C0.167366 57.0276 0.315078 58.1135 0.525703 59.1831C0.752741 60.3319 1.05364 61.4644 1.42838 62.575C1.453 62.6488 1.47762 62.7227 1.50498 62.7965C1.52959 62.8704 1.55695 62.9442 1.58157 63.0181C1.60892 63.092 1.63354 63.1658 1.66089 63.2397C1.7156 63.3874 1.77031 63.5324 1.82502 63.6773C1.87972 63.8223 1.93717 63.9673 1.99735 64.1123C2.02744 64.1834 2.05479 64.2572 2.08488 64.3284C3.3076 67.2853 5.03911 70.0317 7.20554 72.3868C9.99838 75.4286 13.4258 77.7592 17.1651 79.5262C17.4223 79.6493 17.6821 79.7669 17.9447 79.8846C18.1061 79.9557 18.2675 80.0268 18.4316 80.0979C21.3831 81.3726 24.496 82.3191 27.6253 83.0029C33.1754 84.2174 38.8459 84.6934 44.5136 85.1776L44.7625 85.1994L45.2412 85.2405L45.4929 85.2623L45.9497 85.3006C47.5773 85.4429 49.2048 85.5879 50.8269 85.7602C52.8921 85.9763 54.9519 86.2334 57.0117 86.4933C61.3883 87.0431 65.7649 87.6066 70.1662 87.8418C70.2756 87.8473 70.3823 87.8528 70.4917 87.8582C71.7254 87.9184 72.9672 87.954 74.2064 87.9512C74.3103 87.9512 74.4143 87.9512 74.5182 87.9512C74.8246 87.9485 75.1309 87.9458 75.4346 87.9403H75.4592C75.8613 87.9321 76.2606 87.9212 76.6628 87.9047L76.712 87.902C81.2445 87.7187 85.7443 87.013 89.9869 85.4429C94.7711 83.6731 99.1122 80.8036 102.712 77.1847C105.51 74.37 107.86 71.1012 109.619 67.5452L109.624 67.5342C109.679 67.4221 109.734 67.3127 109.786 67.2005L109.816 67.1403C109.868 67.0337 109.92 66.9242 109.969 66.8148L110.005 66.741C110.054 66.6316 110.106 66.5249 110.155 66.4155L110.185 66.3498C110.234 66.2377 110.286 66.1255 110.335 66.0134L110.349 65.9833C110.396 65.8739 110.442 65.7672 110.489 65.6578C110.497 65.6359 110.508 65.614 110.516 65.5921C110.563 65.4827 110.606 65.376 110.653 65.2666L110.688 65.1818C110.732 65.0751 110.776 64.9657 110.82 64.859C110.831 64.8317 110.842 64.8043 110.852 64.777C110.894 64.6703 110.937 64.5663 110.978 64.4597L111.006 64.3858C111.041 64.2901 111.08 64.1943 111.115 64.0958C111.126 64.0658 111.137 64.0357 111.148 64.0056C111.186 63.9016 111.224 63.7977 111.263 63.691C111.276 63.6554 111.287 63.6199 111.301 63.5843C111.337 63.4804 111.375 63.3792 111.41 63.2752C111.421 63.2397 111.435 63.2068 111.446 63.1713C111.479 63.0728 111.514 62.9743 111.547 62.8759C111.561 62.8376 111.572 62.802 111.586 62.7637C111.616 62.6762 111.643 62.5886 111.67 62.5038C111.681 62.4683 111.695 62.4327 111.706 62.3972C111.739 62.296 111.769 62.1975 111.802 62.0963C111.815 62.0525 111.829 62.0115 111.843 61.9677C111.873 61.872 111.903 61.7735 111.93 61.6778C111.944 61.6313 111.958 61.5848 111.971 61.5355C111.996 61.4562 112.018 61.3769 112.04 61.2975C112.056 61.2374 112.075 61.1744 112.092 61.1143C112.111 61.0431 112.13 60.9748 112.152 60.9036C112.171 60.8407 112.187 60.7751 112.204 60.7122C112.223 60.6383 112.245 60.5617 112.264 60.4879C112.278 60.4331 112.294 60.3784 112.308 60.321C112.33 60.2335 112.354 60.1432 112.376 60.0557C112.39 59.9982 112.403 59.9435 112.42 59.8861C112.436 59.8232 112.45 59.7602 112.466 59.6973C112.486 59.6125 112.507 59.5305 112.527 59.4457C112.54 59.3937 112.551 59.3417 112.562 59.2898C112.584 59.1968 112.606 59.1037 112.625 59.0107C112.636 58.9588 112.647 58.9095 112.658 58.8576C112.672 58.7919 112.685 58.729 112.702 58.6633C112.718 58.5813 112.737 58.4992 112.754 58.4172C112.767 58.3515 112.781 58.2831 112.795 58.2175C112.803 58.1764 112.811 58.1327 112.819 58.0917C112.841 57.9822 112.863 57.8728 112.882 57.7634C112.89 57.7278 112.896 57.6923 112.904 57.654C112.926 57.5364 112.948 57.416 112.97 57.2984C112.975 57.2683 112.981 57.2409 112.986 57.2109C113.027 56.9838 113.065 56.7595 113.101 56.5325L113.112 56.4723C113.134 56.3383 113.153 56.207 113.172 56.0729L113.183 56.0045C113.202 55.8678 113.221 55.7337 113.24 55.597L113.246 55.5477C113.279 55.3125 113.306 55.0772 113.333 54.8447V54.8365C113.35 54.6833 113.369 54.5329 113.383 54.3797L113.388 54.3359C113.402 54.1937 113.418 54.0487 113.432 53.9065L113.435 53.8682C113.47 53.4743 113.5 53.0831 113.525 52.6892V52.6728L105.598 44.7456L95.578 41.3674L95.5753 41.3702Z" fill="#9CDADB"/>
<path d="M16.5523 47.8969L10.8107 48.4275L4.49197 57.7416L5.52595 59.2542L16.1913 59.7329L21.0329 53.4388L16.5496 47.8969H16.5523ZM113.519 52.7057L113.522 52.6729L105.595 44.7457L105.026 58.9369C105.026 58.9369 109.162 59.1558 112.581 59.1749C112.978 57.4461 113.26 55.6873 113.424 53.9175L113.426 53.8929C113.437 53.7725 113.448 53.6549 113.459 53.5345L113.467 53.4497C113.476 53.3403 113.484 53.2336 113.492 53.1242L113.5 53.0148C113.508 52.9109 113.514 52.8069 113.522 52.7057H113.519ZM9.01084 45.8699L4.89133 51.5322L0.301338 49.7186C0.0496811 51.4255 -0.0433224 53.1543 0.0223271 54.8749L3.14068 56.1496L10.395 48.3209L9.00811 45.8699H9.01084ZM90.8484 43.2823L87.752 46.7152L85.0166 47.3607L87.4702 54.0898L91.8113 56.2316L94.678 53.3649L90.8484 43.2823ZM95.5752 41.3675L94.4482 43.1674L102.08 52.5662C102.08 52.5662 103.513 50.6569 103.193 50.0195C102.876 49.3822 95.5725 41.3647 95.5725 41.3647L95.5752 41.3675Z" fill="#B5E3E4"/>
<path d="M6.24266 52.6974C4.49748 53.3211 3.75892 56.5844 4.44551 60.6219C3.00669 59.9189 1.69643 59.6918 0.687073 59.9462C1.7402 64.5636 3.99964 68.9019 7.20279 72.3895C8.0535 73.3168 8.96439 74.1758 9.92451 74.9772C10.5783 74.9335 11.139 74.7256 11.5712 74.3508C11.7791 74.1703 11.9569 73.9515 12.0992 73.7025C12.6572 74.4055 13.3164 74.8158 14.0276 74.9088C15.2531 75.062 16.5469 74.2551 17.6274 72.6603C18.7079 71.0656 19.4847 68.8199 19.7884 66.41C20.4202 61.396 18.8638 57.0713 16.3144 56.7513C14.9549 56.5844 13.5188 57.602 12.3864 59.5332C11.0132 55.214 8.51031 52.2652 6.52168 52.6263C6.42867 52.6427 6.33567 52.6673 6.2454 52.7002L6.24266 52.6974Z" fill="#007391"/>
<path d="M99.5717 0C96.3412 5.8729 96.1989 10.824 97.408 14.9736C93.9367 12.7442 89.2784 12.0822 84.9674 13.9642L92.7687 18.546C89.6039 18.7211 86.0916 20.2611 82.8557 24.3149L95.9883 24.3888C89.8254 26.3856 86.3597 33.711 87.5414 37.6774L101.85 25.2368L102.479 29.9635L101.125 29.4848L101.763 34.8982L100.57 34.4195L101.525 40.3088L100.332 39.2748L100.094 47.8722L99.2188 46.8382L98.0234 54.1609L97.3861 53.0476L96.5901 61.1662L95.6354 59.8122L94.0434 66.1009L93.1681 69.2849L96.2071 82.3792C97.5639 81.5312 98.8632 80.593 100.097 79.57L99.9327 78.5168L105.187 65.1435L103.754 65.0641L107.893 56.5461L105.108 56.4668L107.813 48.2688L105.663 48.4275L107.813 40.8668L106.301 40.7082L107.575 34.1022L105.505 35.0568L105.663 28.2922L104.389 29.5669L103.877 24.8976L121.34 32.3789C121.252 28.243 115.711 22.329 109.233 22.3126L121.712 18.2259C117.393 15.3565 113.577 14.9654 110.511 15.7668L116.537 9.0186C111.082 8.46605 106.232 11.3519 103.833 15.4577C103.97 11.1358 103.188 6.18747 99.5689 0.0027354L99.5717 0Z" fill="#6CC1C2"/>
<path d="M101.476 59.2104C103.221 59.834 103.959 63.0974 103.273 67.1348C105.28 66.1528 107.039 66.0981 108.079 66.9871C108.574 67.4111 108.872 68.0183 108.99 68.746C106.252 73.7982 102.31 78.205 97.5912 81.4683C97.025 81.3972 96.5381 81.1947 96.1524 80.8638C95.9445 80.6832 95.7667 80.4644 95.6245 80.2155C95.0665 80.9185 94.4072 81.3288 93.696 81.4218C92.4706 81.575 91.1767 80.768 90.0962 79.1733C89.0158 77.5786 88.2389 75.3328 87.9353 72.9229C87.3034 67.9089 88.8599 63.5843 91.4092 63.2642C92.7687 63.0974 94.2048 64.1149 95.3373 66.0461C96.7104 61.7269 99.2133 58.7782 101.202 59.1392C101.295 59.1557 101.388 59.1803 101.478 59.2131L101.476 59.2104Z" fill="#007391"/>
<path d="M101.062 61.8227C98.4009 65.8546 97.8566 69.8401 97.3642 73.4426C97.0223 75.9346 96.7077 78.2432 95.7394 80.2729L95.5042 80.1608C96.4561 78.1639 96.7706 75.8771 97.1071 73.4071C97.6049 69.7772 98.1548 65.7644 100.846 61.6804L101.062 61.8227Z" fill="#2B8DA7"/>
<path d="M103.445 67.3237C102.367 68.3112 100.953 70.2697 99.7413 72.4744C98.68 74.4056 97.78 76.5146 97.408 78.3145L96.9102 78.2106C97.2931 76.3587 98.2149 74.1977 99.2954 72.231C100.532 69.9825 101.987 67.9747 103.103 66.9517L103.448 67.3264L103.445 67.3237Z" fill="#005267"/>
<path d="M95.4549 65.9971C96.084 67.5699 96.3603 69.43 96.4588 71.3612C96.5572 73.2842 96.4807 75.281 96.4068 77.1301L96.1469 77.1192C96.2208 75.2783 96.2974 73.2896 96.1989 71.3749C96.1004 69.4683 95.8296 67.6356 95.2114 66.0928L95.4521 65.9971H95.4549Z" fill="#005267"/>
<path d="M107.042 69.7936C106.875 70.0808 106.812 70.193 106.741 70.3161C104.61 74.0116 101.199 79.931 96.8418 80.8501L96.7898 80.5957C101.035 79.7012 104.411 73.8447 106.52 70.1875L106.82 69.665L107.045 69.7936H107.042Z" fill="#2B8DA7"/>
<path d="M92.1697 66.2761C92.0548 68.738 91.981 71.1041 92.1861 73.4155C92.3858 75.6859 92.8618 77.8934 93.8438 80.0762L92.6675 80.6069C91.6172 78.2736 91.1111 75.9294 90.9005 73.5277C90.6926 71.167 90.7692 68.7435 90.8841 66.2214L92.1724 66.2761H92.1697Z" fill="#2B8DA7"/>
<path d="M68.3334 28.7599C68.3854 28.7025 68.5687 28.79 68.8504 28.894C69.1349 28.9979 69.5151 29.1155 69.9473 29.1073C69.9555 29.1073 69.9637 29.1073 69.9719 29.1073C70.3932 29.1019 70.8227 29.0006 71.1153 28.9432C71.4217 28.883 71.6241 28.8584 71.6569 28.9295C71.6843 28.9952 71.5393 29.1429 71.2494 29.3043C70.9649 29.4602 70.5163 29.6325 69.9884 29.6517C69.9774 29.6517 69.9692 29.6517 69.9583 29.6517C69.3975 29.6544 68.9434 29.4438 68.6644 29.2304C68.3854 29.0143 68.2924 28.8146 68.3362 28.7627L68.3334 28.7599Z" fill="white"/>
<path d="M101.941 57.498C101.842 57.5555 101.599 57.3367 101.489 57.3093C101.38 57.2792 101.06 57.3449 101.002 57.2464C100.945 57.1479 101.164 56.9017 101.191 56.7951C101.221 56.6856 101.155 56.3656 101.254 56.3082C101.352 56.2507 101.599 56.4695 101.705 56.4969C101.815 56.527 102.135 56.4613 102.192 56.5598C102.25 56.6583 102.031 56.9017 102.003 57.0111C101.973 57.1206 102.039 57.4406 101.941 57.498Z" fill="white"/>
<path d="M92.9028 41.1267C92.8235 41.1732 92.6211 40.9954 92.5308 40.9708C92.4405 40.9462 92.1752 41.0009 92.1287 40.9188C92.0822 40.8395 92.26 40.6371 92.2846 40.5468C92.3092 40.4565 92.2545 40.1912 92.3366 40.1447C92.4159 40.0982 92.6183 40.276 92.7086 40.3006C92.7989 40.3252 93.0642 40.2705 93.1107 40.3526C93.1572 40.4319 92.9794 40.6343 92.9548 40.7246C92.9302 40.8149 92.9849 41.0802 92.9028 41.1267Z" fill="white"/>
<path d="M93.9532 46.4417C93.8793 46.4854 93.6878 46.3186 93.6058 46.2967C93.521 46.2748 93.2748 46.324 93.231 46.2502C93.1873 46.1763 93.3541 45.9848 93.376 45.9028C93.3979 45.818 93.3487 45.5718 93.4225 45.528C93.4964 45.4843 93.6878 45.6511 93.7699 45.673C93.8547 45.6949 94.1009 45.6457 94.1447 45.7195C94.1884 45.7934 94.0216 45.9848 93.9997 46.0669C93.9778 46.1517 94.027 46.3979 93.9532 46.4417Z" fill="white"/>
<path d="M105.311 68.6832C105.207 68.7434 104.947 68.5136 104.829 68.4808C104.714 68.4507 104.372 68.5191 104.312 68.4152C104.252 68.3112 104.482 68.0513 104.515 67.9337C104.545 67.8188 104.476 67.4769 104.58 67.4167C104.684 67.3566 104.944 67.5863 105.062 67.6192C105.177 67.6492 105.518 67.5809 105.579 67.6848C105.639 67.7888 105.409 68.0486 105.376 68.1662C105.346 68.2811 105.414 68.623 105.311 68.6832Z" fill="white"/>
<path d="M108.051 61.4863C107.986 61.5519 107.745 61.4316 107.652 61.4316C107.559 61.4316 107.318 61.5519 107.253 61.4863C107.187 61.4206 107.307 61.1799 107.307 61.0869C107.307 60.9939 107.187 60.7532 107.253 60.6876C107.318 60.6219 107.559 60.7423 107.652 60.7423C107.745 60.7423 107.986 60.6219 108.051 60.6876C108.117 60.7532 107.997 60.9939 107.997 61.0869C107.997 61.1799 108.117 61.4206 108.051 61.4863Z" fill="white"/>
<path d="M87.4703 89.4366C87.4593 89.0427 88.9419 88.7582 91.1576 88.0552C93.4881 87.3166 96.2482 86.2225 99.3528 84.2968C99.4267 84.2503 99.4978 84.2065 99.5717 84.16C101.593 82.8771 103.254 81.545 104.649 80.232C107.296 77.7373 108.648 75.6091 109.085 75.817C109.482 76.0058 108.938 78.6454 106.32 81.7939C104.985 83.4023 103.221 85.0189 101.013 86.4276C100.934 86.4796 100.855 86.5288 100.775 86.5781C97.4162 88.6789 94.1228 89.639 91.5405 89.9125C89.0103 90.1806 87.4812 89.7785 87.473 89.4366H87.4703Z" fill="#007391"/>
<path d="M49.864 46.2119C50.1868 44.8606 50.7448 42.3768 50.805 40.5769C50.8652 38.777 50.4275 37.6583 48.6796 36.5723C46.9317 35.4864 43.8708 34.4332 41.3186 34.4141C38.7665 34.3949 36.7177 35.407 35.3144 36.7419C33.9112 38.0768 33.148 39.7317 31.5341 46.8902C29.9202 54.0488 27.4529 66.7109 25.8965 74.0007C25.0157 78.1203 24.3428 80.5931 23.9379 82.0756C31.5505 84.1792 37.5657 84.491 45.1947 85.6317C48.923 86.1897 52.7991 86.7751 56.5603 87.2702C56.4809 86.5808 56.3661 85.6891 56.2101 84.532C55.5345 79.518 54.1176 69.5038 52.8128 62.6871C51.508 55.8705 50.3154 52.2379 49.7573 50.3232C49.1993 48.4084 49.2814 48.206 49.3662 47.9953C49.451 47.7847 49.5412 47.5631 49.864 46.2119Z" fill="white"/>
<path d="M62.1377 42.563L62.0064 44.4504C62.0092 44.4477 61.9463 48.3894 61.6891 48.9857C61.6043 49.1471 61.5059 49.3057 61.3937 49.4562C60.9287 50.0826 60.2148 50.5558 59.0659 51.3053C57.9198 52.0548 56.3414 53.0806 55.447 54.1665C54.5525 55.2525 54.3391 56.4014 54.7221 61.1801C55.105 65.9588 56.0816 74.3702 56.7627 79.4225C57.4438 84.4747 57.824 86.1707 59.3832 87.0159C60.9424 87.8639 63.675 87.8639 67.1845 87.8639C70.6968 87.8639 74.9859 87.8639 77.2973 86.2527C79.606 84.6416 79.9342 81.4166 79.1273 75.3358C78.3204 69.255 76.381 60.3184 75.1363 55.5479C73.8917 50.7801 73.3474 50.1783 72.7566 49.8802C72.1657 49.582 71.5311 49.5902 70.9621 49.5492C70.3959 49.5082 69.8953 49.4206 69.6191 49.1936C69.3975 49.0103 69.3182 48.7422 69.2416 48.5097C69.1978 46.1819 69.1212 42.7134 69.1212 42.7134L62.135 42.5685L62.1377 42.563Z" fill="#F3B294"/>
<path d="M63.2155 42.5847C62.7697 42.6039 62.3976 42.6312 62.1323 42.6586L62.0557 43.7473C63.3468 45.8563 67.8493 48.9883 69.2416 48.2388C69.2115 46.5757 69.1678 44.6609 69.1459 43.5886C68.648 43.0443 67.5019 42.7707 66.2518 42.6504L63.2183 42.5875L63.2155 42.5847Z" fill="#E67051"/>
<path d="M71.1154 25.1985C72.401 25.5514 73.7714 25.7237 74.0368 28.139L74.0286 35.4343L69.1158 27.5482L71.1126 25.1985H71.1154Z" fill="#7F3300"/>
<path d="M67.2146 23.8061C66.9657 23.8033 66.6757 23.8334 66.2928 23.9046C65.2725 24.096 63.5793 24.5857 61.9681 25.554C60.357 26.5223 58.8252 27.9694 57.9936 29.2933C57.162 30.6172 57.028 31.8153 57.3891 33.9489C57.7501 36.0798 58.6009 39.1462 60.0752 41.4631C61.5496 43.7799 63.6449 45.3501 65.8633 45.9108C68.079 46.4716 70.415 46.0284 72.0399 45.0574C73.6647 44.0863 74.5783 42.5901 74.8573 40.8531C75.1363 39.1161 74.778 37.1384 74.0887 34.4577C73.3994 31.7743 72.3763 28.3851 71.3068 26.5114C70.24 24.6404 69.1267 24.2848 68.3963 24.0523C67.9395 23.9073 67.6304 23.8115 67.2146 23.8061Z" fill="#F3B294"/>
<path d="M66.4761 23.8719C66.4159 23.8828 66.3557 23.891 66.2928 23.9047C65.2725 24.0962 63.5793 24.5858 61.9681 25.5542C60.357 26.5225 58.8252 27.9695 57.9936 29.2935C57.162 30.6174 57.0307 31.8155 57.3891 33.9491C57.7146 35.8748 58.4422 38.561 59.6649 40.7712C60.7126 39.9451 61.577 38.7224 60.9588 34.3539L63.3413 32.2504L62.6465 36.5395C66.5089 35.0159 70.9402 32.2942 71.6761 27.2228C71.553 26.9684 71.4299 26.7277 71.3068 26.5116C70.24 24.6405 69.1267 24.2849 68.3963 24.0524C68.1419 23.9731 67.9368 23.9075 67.7289 23.8637C67.4663 23.8445 67.2009 23.8281 66.9301 23.8145C66.7934 23.8254 66.6457 23.8418 66.4788 23.8692L66.4761 23.8719Z" fill="#E67051"/>
<path d="M61.5414 32.7373L63.924 30.6338L63.2292 34.9229C67.7207 33.1531 72.9754 29.7639 72.3107 22.9446C67.4581 21.2951 50.6245 21.503 54.9437 31.4188C52.5228 31.8893 54.2817 37.6364 59.4242 39.7618C60.7564 38.7524 62.321 38.2327 61.5442 32.7373H61.5414Z" fill="#7F2D2E"/>
<path d="M58.1249 35.801C57.8268 35.8475 57.556 35.9624 57.3234 36.1347C56.3688 36.8514 56.325 38.4024 57.2222 39.5977C58.1194 40.7958 59.6212 41.187 60.5758 40.4703C61.0354 40.1257 61.3035 39.5676 61.3226 38.9194C61.3417 38.2711 61.1092 37.5817 60.6798 37.0073C60.026 36.1347 59.0221 35.6615 58.1277 35.801H58.1249Z" fill="#F3B294"/>
<path d="M71.0633 41.9693C70.9868 41.9666 70.85 42.0404 70.6667 42.1143C70.4178 42.2155 70.1361 42.2975 69.7339 42.355C69.7285 42.355 69.7257 42.355 69.7203 42.3577C69.3154 42.4042 69.0091 42.396 68.7328 42.3741C68.4784 42.355 68.3006 42.3276 68.2623 42.3987C68.2267 42.4644 68.3389 42.6258 68.6206 42.7626C68.9051 42.9021 69.3182 42.9896 69.7914 42.9267C69.7969 42.9267 69.8023 42.9239 69.8078 42.9239C70.2865 42.8692 70.664 42.6668 70.8938 42.4425C71.1208 42.2209 71.1646 42.0267 71.1071 41.9802C71.0962 41.972 71.0798 41.9666 71.0633 41.9666V41.9693Z" fill="white"/>
<path d="M70.6804 49.5079C70.85 49.549 71.1208 49.6256 71.2083 50.1918C71.2958 50.758 71.1974 51.8112 70.0211 54.0296C68.8422 56.2507 66.58 59.6371 64.8512 61.7406C63.1225 63.8442 61.9244 64.6648 61.0299 65.179C60.1354 65.6906 59.5473 65.893 58.6145 67.6956C57.6818 69.4982 56.4071 72.8983 55.9721 76.7361C55.5372 80.5711 55.9421 84.8438 56.4563 87.0649C56.4727 87.1333 56.4864 87.1962 56.5028 87.2619C59.427 87.6476 62.362 87.9539 65.3108 88.1318C69.5671 88.3889 73.8945 88.3533 78.1644 87.9157C78.4735 87.5628 78.7443 87.1032 78.9468 86.5069C79.6306 84.4964 79.5267 80.9212 80.0737 78.2925C80.6208 75.6638 81.8189 73.9843 82.0213 71.93C82.2238 69.8757 81.4332 67.4522 80.3856 64.0931C79.3406 60.7368 78.0413 56.4449 77.2508 54.2402C76.4603 52.0355 76.1813 51.9151 76.0226 51.8522C75.8667 51.7893 75.8311 51.7838 75.8065 51.6716C75.7792 51.5568 75.76 51.3352 75.6397 50.9495C75.5193 50.5638 75.2977 50.0113 74.9832 49.7459C74.6686 49.4806 74.2638 49.4997 74.0285 49.5709C73.7933 49.642 73.7303 49.7678 73.6756 49.7459C73.6209 49.7213 73.5744 49.549 73.4924 49.4204C73.4103 49.2919 73.2899 49.2071 72.9261 49.0648C72.5623 48.9198 71.9523 48.7147 71.5721 48.6299C71.1919 48.5451 71.0442 48.5806 70.85 48.6572C70.6558 48.7338 70.415 48.8487 70.2537 48.9745C70.0923 49.1004 70.0129 49.2317 69.9856 49.3055C69.9582 49.3794 69.9829 49.3903 70.0567 49.4067C70.1278 49.4232 70.2482 49.4423 70.3439 49.456C70.4397 49.4697 70.5108 49.4724 70.6804 49.5134V49.5079Z" fill="white"/>
<path d="M71.2274 48.5778C71.0743 48.5751 70.9703 48.6052 70.85 48.6544C70.6557 48.731 70.415 48.8459 70.2536 48.9717C70.0923 49.0975 70.0129 49.2288 69.9856 49.3027C69.9582 49.3765 69.9828 49.3875 70.0567 49.4039C70.1306 49.4203 70.2482 49.4395 70.3439 49.4531C70.4397 49.4668 70.5108 49.4695 70.6804 49.5106C70.85 49.5516 71.1208 49.6282 71.2083 50.1944C71.2958 50.7607 71.1974 51.8138 70.0184 54.0322C68.8394 56.2533 66.58 59.6398 64.8485 61.7433C63.1197 63.8468 61.9216 64.6674 61.0272 65.1817C60.1327 65.6932 59.5446 65.8956 58.6118 67.6982C57.679 69.5009 56.4043 72.901 55.9694 76.736C55.5345 80.571 55.9393 84.8437 56.4536 87.0648C56.47 87.1332 56.4837 87.1961 56.5001 87.2618C58.91 87.5791 61.328 87.8444 63.7543 88.025C67.2693 81.7527 73.3364 68.8881 75.6725 55.3124C71.8867 71.774 67.1244 70.6169 65.6281 69.1699C68.6917 65.8163 71.4627 62.0004 72.8441 55.9689C68.2951 67.7967 60.5977 72.6575 60.874 69.9495C64.9196 62.6733 72.8495 53.0365 71.9906 48.7419C71.8374 48.6954 71.6952 48.6571 71.5748 48.6298C71.4326 48.597 71.3232 48.5833 71.2302 48.5805L71.2274 48.5778Z" fill="#E6F4F8"/>
<path d="M50.5697 72.1818C50.7257 70.5214 50.9718 68.5547 51.5764 65.6251C52.1809 62.6982 53.1492 58.8003 54.0191 56.5928C54.8889 54.3853 55.663 53.8629 56.5411 53.6413C57.4192 53.4197 58.4066 53.4963 59.3039 54.399C60.2011 55.3017 61.0135 57.0332 61.1831 58.5021C61.3527 59.971 60.8794 61.1773 60.2503 63.9319C59.6212 66.6864 58.8388 70.9865 58.4477 73.1365C58.0565 75.2865 58.0565 75.2865 58.5051 77.6143C58.9537 79.9422 59.8537 84.6005 60.2585 87.087C60.2968 87.3141 60.3296 87.5247 60.357 87.7162C57.8732 87.4563 55.395 87.1253 52.9222 86.7506C52.2712 84.2203 51.3575 80.5987 50.8925 78.1122C50.3454 75.1908 50.4111 73.8395 50.567 72.1818H50.5697Z" fill="#F3B294"/>
<path d="M69.0337 70.4391C68.7492 71.0136 68.3745 71.9327 68.4566 73.1882C68.5386 74.4438 69.0802 76.0385 69.3565 77.357C69.6328 78.6754 69.641 79.7203 69.8024 81.5202C69.961 83.3229 70.2701 85.8832 70.7215 87.4232C70.8172 87.7569 70.9211 88.0414 71.0306 88.2849C72.4803 88.2767 73.9328 88.2302 75.3826 88.1399C75.6315 87.7651 75.8558 87.3001 76.0445 86.7147C76.474 85.3826 76.7175 83.4186 76.5287 81.2905C76.34 79.1596 75.7218 76.8591 74.5127 74.8513C73.3037 72.8408 71.5065 71.1202 70.5108 70.3762C69.5152 69.6322 69.3182 69.862 69.0337 70.4391Z" fill="#B9D8E1"/>
<path d="M76.05 53.592C75.7217 55.9335 75.0981 58.4473 74.2145 60.942C73.3611 63.3519 72.2697 65.7426 70.9731 67.9419L70.7379 67.8024C72.0235 65.6195 73.1094 63.2425 73.9574 60.849C74.8327 58.3735 75.4537 55.8761 75.7792 53.5537L76.05 53.592Z" fill="#8CB5BF"/>
<path d="M73.7988 50.4792C73.673 53.7862 72.7949 57.4954 71.3233 60.9174C69.9364 64.1425 68.0244 67.1186 65.7212 69.2686L65.5352 69.0689C67.8083 66.9462 69.6984 64.0057 71.0716 60.8107C72.5296 57.4161 73.4022 53.7425 73.5253 50.4709L73.7988 50.4819V50.4792Z" fill="#8CB5BF"/>
<path d="M65.8907 62.8103H72.0071V72.376H65.8907V62.8103Z" fill="#F9A56E"/>
<path d="M70.5354 70.226C70.3138 70.319 70.0567 70.4421 69.7503 70.4749C69.444 70.505 69.0911 70.4448 68.7191 70.494C68.3471 70.5433 67.9559 70.7019 67.2748 70.9727C66.5937 71.2408 65.6199 71.621 65.1412 71.8809C64.6625 72.1407 64.6789 72.2775 64.8266 72.4416C64.9716 72.6058 65.2479 72.8 65.6609 72.8793C66.074 72.9586 66.6265 72.9258 66.673 72.9477C66.7195 72.9696 66.26 73.0462 65.6363 73.2622C65.0126 73.4783 64.2248 73.8312 63.727 74.2743C63.2291 74.7175 63.0213 75.2509 62.9365 75.6803C62.8517 76.1098 62.89 76.438 63.2565 76.7991C63.623 77.1602 64.3151 77.5514 65.1877 77.7182C66.0575 77.8851 67.1052 77.8249 68.079 77.6334C69.0528 77.4419 69.9527 77.1192 70.6092 76.6432C71.2657 76.1672 71.6733 75.5381 71.9633 74.6108C72.2505 73.6835 72.4173 72.4608 72.256 71.6456C72.0973 70.8305 71.6131 70.4229 71.2794 70.2478C70.9457 70.0755 70.7597 70.1357 70.5409 70.2287L70.5354 70.226Z" fill="#F3B294"/>
<path d="M84.382 85.6782C84.1166 84.119 83.6653 81.1539 83.1784 78.413C82.6942 75.6721 82.1745 73.1583 81.3129 71.2654C80.4512 69.3725 79.2504 68.1033 78.1617 67.5753C77.0757 67.0501 76.1047 67.269 75.5986 67.444C75.0926 67.6218 75.0515 67.7559 74.7288 67.8215C74.406 67.8872 73.8015 67.8817 73.4267 68.0103C73.0492 68.1388 72.8988 68.3987 72.7128 68.4808C72.524 68.5628 72.297 68.4671 71.8757 68.4862C71.4518 68.5054 70.8336 68.6421 70.229 68.8883C69.6218 69.1345 69.0282 69.4929 68.7109 69.7938C68.3908 70.0946 68.3498 70.3408 68.3443 70.4858C68.3389 70.628 68.3744 70.6663 68.4866 70.6855C68.6015 70.7046 68.793 70.7046 69.4029 71.5225C70.0102 72.3404 71.036 73.9789 71.5338 75.4095C72.0317 76.8401 72.0016 78.0629 72.0672 80.1445C72.1329 82.2261 72.2915 85.1694 72.4146 86.8517C72.4611 87.4754 72.5022 87.9267 72.5404 88.2632C76.597 88.1619 80.6509 87.7462 84.5926 86.9255C84.5598 86.6465 84.4859 86.2581 84.3847 85.6755L84.382 85.6782Z" fill="white"/>
<path d="M36.0257 43.9688C34.6744 53.1761 47.5198 65.0012 50.2963 52.1421C50.0802 51.409 49.8969 50.8072 49.7547 50.3203C49.7547 50.3203 49.7547 50.3203 49.7547 50.3176C47.1834 51.1081 37.1691 56.7102 36.0257 43.9688Z" fill="#D7EEF4"/>
<path d="M36.1624 43.9717C36.1405 45.7825 36.5591 47.4456 37.3386 48.868C38.1346 50.3151 39.3054 51.5104 40.7661 52.3584L40.6293 52.5964C39.1221 51.7238 37.9158 50.4901 37.0979 49.0021C36.2937 47.5414 35.8643 45.8317 35.8889 43.9717L36.1624 43.9744V43.9717Z" fill="#8CB5BF"/>
<path d="M40.0166 48.66C41.3351 46.5592 43.9337 42.5245 45.6296 40.5906C47.3256 38.6539 48.1189 38.8153 48.9039 40.8313C49.6917 42.8473 50.474 46.7206 50.4193 49.322C50.3646 51.9261 49.4701 53.2582 48.1161 53.953C46.7621 54.645 44.9458 54.6943 43.2854 54.1144C41.625 53.5317 40.1206 52.32 39.3875 51.6252C38.6544 50.9331 38.6954 50.7635 40.0139 48.66H40.0166Z" fill="#F3B294"/>
<path d="M47.5089 39.2256C47.0192 39.2365 46.4229 39.6824 45.6269 40.5906C45.2822 40.9845 44.8965 41.4686 44.4944 42.0048C45.2932 41.6792 46.0947 41.3783 46.5405 41.3264C47.4104 41.2252 48.272 41.2717 49.1145 41.4194C49.0434 41.2088 48.9723 41.0118 48.9012 40.8313C48.4827 39.759 48.0641 39.2119 47.5061 39.2256H47.5089Z" fill="#E57051"/>
<path d="M45.4819 50.5501C45.5503 50.5091 45.6734 50.5829 45.8321 50.6842C45.988 50.7826 46.1904 50.9194 46.4092 50.9686C46.4338 50.9741 46.4585 50.9796 46.4803 50.9823C46.6882 51.0261 46.8989 50.9987 47.0602 50.9768C47.2216 50.955 47.3502 50.9331 47.3967 50.9905C47.4323 51.0343 47.2545 51.658 46.3901 51.5458C46.349 51.5376 46.3053 51.5294 46.2642 51.5185C45.8786 51.4145 45.6351 51.1601 45.523 50.955C45.4053 50.7443 45.4163 50.5884 45.4792 50.5501H45.4819Z" fill="white"/>
<path d="M75.9461 67.0392L75.5358 55.3153L75.8093 55.3071L76.2196 67.031L75.9461 67.0392Z" fill="#8CB5BF"/>
<path d="M73.1094 69.739C75.6752 72.2009 75.8913 75.7815 76.1019 79.2719C76.2059 80.9815 76.3071 82.6692 76.6846 84.1819L76.4192 84.2476C76.0363 82.7103 75.9323 81.0088 75.8284 79.2883C75.6205 75.8499 75.4099 72.324 72.9207 69.936L73.1094 69.739Z" fill="#8CB5BF"/>
<path d="M75.1719 68.7925C79.0917 71.1504 79.7291 75.393 80.3582 79.5809C80.6208 81.3261 80.8807 83.063 81.3785 84.6386L81.1159 84.7207C80.6126 83.1232 80.35 81.3753 80.0847 79.6192C79.4665 75.4942 78.8401 71.32 75.0297 69.0277L75.1692 68.7925H75.1719Z" fill="#8CB5BF"/>
<path d="M81.674 72.5235C81.6029 72.3183 81.5263 72.1105 81.4442 71.9026C81.3649 71.7056 81.2828 71.5087 81.1953 71.3172C80.7877 70.4227 80.3035 69.6677 79.792 69.0687C79.2395 68.4204 78.6568 67.9554 78.107 67.6901C77.5846 67.4384 77.0922 67.3645 76.6682 67.3728C76.2442 67.3837 75.8886 67.4794 75.6452 67.5642C75.4072 67.649 75.2759 67.7201 75.1692 67.7831C75.0434 67.8542 74.9422 67.9116 74.7589 67.9472C74.6276 67.9745 74.4607 67.9882 74.2775 68.0046C74.0012 68.0292 73.6893 68.0566 73.4733 68.1305C73.2681 68.2016 73.1341 68.3192 73.0219 68.4177C72.9371 68.4915 72.8605 68.5572 72.7703 68.5982C72.6335 68.6584 72.4995 68.6447 72.3217 68.6283C72.204 68.6174 72.0618 68.6037 71.8867 68.6119C71.6734 68.6201 71.4108 68.6611 71.1208 68.7322C70.8555 68.7979 70.5683 68.8882 70.281 69.003C69.9856 69.1234 69.6929 69.2711 69.4358 69.4216C69.1759 69.5747 68.9544 69.7361 68.8012 69.8811C68.6562 70.0179 68.5742 70.141 68.5304 70.2449C68.4866 70.3434 68.4784 70.4255 68.4757 70.4829L68.2158 70.4747C68.2186 70.3926 68.2322 70.2777 68.2924 70.141C68.3499 70.0097 68.4511 69.8592 68.6234 69.6924C68.7903 69.5337 69.0282 69.3614 69.3045 69.1973C69.5726 69.0359 69.8789 68.8827 70.1853 68.7596C70.4807 68.6392 70.7816 68.5462 71.0606 68.4779C71.3643 68.404 71.646 68.3602 71.8758 68.352C72.0673 68.3438 72.2177 68.3575 72.3463 68.3684C72.4885 68.3821 72.5925 68.3903 72.669 68.3575C72.7238 68.3329 72.7839 68.2809 72.8551 68.218C72.9864 68.1031 73.1423 67.9663 73.3939 67.8815C73.6401 67.7995 73.9656 67.7694 74.261 67.742C74.4361 67.7256 74.5975 67.7119 74.7124 67.6873C74.8574 67.6572 74.9394 67.6107 75.0461 67.5506C75.1637 67.4849 75.306 67.4028 75.5631 67.3126C75.8257 67.2223 76.2087 67.1184 76.6655 67.1074C77.125 67.0965 77.6584 67.1758 78.2246 67.4493C78.8073 67.7311 79.4173 68.218 79.9944 68.8936C80.5224 69.5118 81.0202 70.2859 81.436 71.2023C81.5235 71.391 81.6056 71.5907 81.6876 71.7986C81.767 71.9956 81.8436 72.2062 81.9202 72.4305L81.674 72.5153V72.5235ZM71.6542 75.3683C72.1001 76.6457 72.1302 77.7536 72.1739 79.4304C72.1794 79.6547 72.1876 79.8899 72.1931 80.1416C72.2232 81.1345 72.2779 82.3272 72.3381 83.487C72.4037 84.7425 72.4776 85.9625 72.5405 86.8433C72.5651 87.1688 72.587 87.4369 72.6061 87.6557C72.6253 87.8773 72.6472 88.0742 72.6663 88.2493L72.4092 88.2794C72.39 88.1207 72.3709 87.9211 72.349 87.6776C72.3271 87.4287 72.3052 87.1606 72.2834 86.8625C72.2204 85.9899 72.1466 84.7671 72.0809 83.5007C72.0208 82.3436 71.9688 81.1509 71.936 80.1498C71.9278 79.9036 71.9223 79.6656 71.9168 79.4386C71.873 77.7864 71.843 76.695 71.4108 75.4559L71.6569 75.3711L71.6542 75.3683Z" fill="#8CB5BF"/>
<path d="M35.7138 52.5005C36.3593 56.3656 37.1608 60.2772 38.2604 64.1013C39.3573 67.9227 40.7524 71.6565 42.5851 75.1715L42.3417 75.2973C40.498 71.7632 39.0975 68.0129 37.9951 64.1752C36.8927 60.3401 36.0913 56.4203 35.4402 52.5443L35.7111 52.5005H35.7138Z" fill="#8CB5BF"/>
<path d="M50.2251 58.8138C50.7202 61.5574 50.805 64.2846 50.537 66.9625C50.2552 69.769 49.5823 72.5263 48.5784 75.2015L48.3213 75.1058C49.317 72.4525 49.9844 69.7198 50.2634 66.9352C50.5315 64.2791 50.444 61.5793 49.9543 58.8603L50.2224 58.811L50.2251 58.8138Z" fill="#8CB5BF"/>
<path d="M30.3771 52.4295C30.3196 52.6073 30.2813 52.7933 30.2649 52.993C30.0707 55.2224 32.3602 58.617 35.3637 61.6724C38.3781 64.7415 42.1037 67.4605 44.768 68.3304C45.2166 68.4781 45.6351 68.5711 46.0126 68.6039L45.988 68.8775C45.5886 68.8419 45.1509 68.7462 44.6805 68.5903C41.9779 67.7067 38.2085 64.9604 35.1667 61.8639C32.114 58.7565 29.789 55.2853 29.9886 52.9684C30.0078 52.7523 30.0488 52.5417 30.1145 52.3447L30.3743 52.4295H30.3771Z" fill="#8CB5BF"/>
<path d="M51.0348 53.8081C51.5791 55.1867 51.1332 57.6349 50.2907 60.1843C49.12 63.7321 47.1833 67.4988 46.1056 68.8254L45.8922 68.6531C46.9535 67.3456 48.8683 63.62 50.0281 60.0995C50.8515 57.6021 51.2946 55.2196 50.7776 53.9093L51.032 53.8108L51.0348 53.8081Z" fill="#8CB5BF"/>
<path d="M46.5432 68.891C46.5432 69.0633 46.4749 69.2302 46.3518 69.3532C46.2287 69.4763 46.0646 69.5447 45.8895 69.5447C45.5284 69.5447 45.2385 69.252 45.2385 68.8937C45.2385 68.5326 45.5312 68.2427 45.8895 68.2427C46.0618 68.2427 46.2287 68.3111 46.3518 68.4342C46.4749 68.5572 46.5432 68.7214 46.5432 68.8964V68.891Z" fill="#FFF6D5"/>
<path d="M42.9271 69.2546H49.0434V78.8203H42.9271V69.2546Z" fill="#F9A56E"/>
<path d="M70.8089 49.4587C71.4463 51.0781 71.542 53.7232 71.2493 56.2589C70.9512 58.8548 70.2455 61.3413 69.3017 62.5038L69.0884 62.3315C69.9993 61.21 70.6831 58.7782 70.9785 56.2288C71.2658 53.7314 71.1755 51.1355 70.5546 49.5599L70.8089 49.4615V49.4587Z" fill="#8CB5BF"/>
<path d="M61.2187 49.4835C61.0819 49.902 60.9944 50.3506 60.9533 50.8184C60.7728 52.9082 61.5141 55.3783 62.8052 57.4955C64.0963 59.6099 65.9372 61.3633 67.9532 62.0225C68.3635 62.1566 68.782 62.2468 69.206 62.2824L69.1814 62.5559C68.7383 62.5176 68.2979 62.4246 67.8684 62.2824C65.7868 61.6013 63.8939 59.8014 62.5727 57.6377C61.2515 55.474 60.4938 52.941 60.6798 50.7937C60.7208 50.3068 60.8138 49.8391 60.9561 49.3987L61.2159 49.4835H61.2187Z" fill="#8CB5BF"/>
<path d="M69.5069 62.4491C69.5069 62.6214 69.4385 62.7883 69.3155 62.9114C69.1924 63.0344 69.0282 63.1028 68.8532 63.1028C68.4921 63.1028 68.2021 62.8101 68.2021 62.4518C68.2021 62.0907 68.4948 61.8008 68.8532 61.8008C69.0255 61.8008 69.1924 61.8692 69.3155 61.9923C69.4385 62.1154 69.5069 62.2795 69.5069 62.4545V62.4491Z" fill="#FFF6D5"/>
<path d="M68.4292 70.5925C68.0791 70.8824 67.4198 71.104 66.7442 71.331C65.8907 71.6182 65.0072 71.9164 64.7884 72.3267L64.5449 72.1981C64.8157 71.6921 65.7512 71.3748 66.6566 71.0712C67.3077 70.8523 67.9423 70.639 68.2541 70.3818L68.4265 70.5925H68.4292Z" fill="#C57A57"/>
<path d="M59.6704 65.7096L60.5649 61.8418L60.8302 61.902L59.9385 65.7698L59.6704 65.7096Z" fill="#C57A57"/>
<path d="M67.1107 73.4236C67.3514 73.8448 67.48 74.4685 67.5375 75.0922C67.6223 76.0249 67.5484 76.9741 67.4581 77.2203L67.201 77.1273C67.2831 76.9057 67.3487 76.014 67.2667 75.1168C67.2119 74.5259 67.0943 73.9406 66.8755 73.5604L67.1135 73.4236H67.1107Z" fill="#C57A57"/>
<path d="M63.6778 74.6025C64.2605 74.8733 64.9525 74.8213 65.5899 74.6599C66.2409 74.4958 66.8317 74.2168 67.1901 74.0444L67.3077 74.2906C66.9384 74.4684 66.3284 74.7529 65.6555 74.9252C64.9662 75.1003 64.2112 75.1523 63.5629 74.8514L63.6778 74.6025Z" fill="#C57A57"/>
<path d="M63.3249 75.7241C64.6653 76.49 66.0138 75.9374 67.1408 75.4751L67.3706 75.3794L67.4745 75.6338C67.3432 75.6858 67.294 75.7076 67.2448 75.7268C66.0631 76.211 64.6434 76.7936 63.1882 75.9593L63.3249 75.7213V75.7241Z" fill="#C57A57"/>
<path d="M67.428 76.8648C66.8016 77.0727 66.115 77.2012 65.4312 77.2177C64.802 77.2313 64.1756 77.1493 63.5957 76.9469L63.686 76.6897C64.2331 76.8812 64.8294 76.9578 65.4257 76.9469C66.0794 76.9332 66.7387 76.8101 67.3405 76.6077L67.428 76.8675V76.8648Z" fill="#C57A57"/>
<path d="M58.1797 75.1196C58.155 75.136 58.1003 75.1551 58.073 75.1606L58.1578 75.229L58.1797 75.1196ZM58.073 75.1606C58.0648 75.1606 58.0593 75.1606 58.0566 75.1579L58.021 75.1879C58.0073 75.2016 57.9964 75.2098 57.9964 75.2098C57.9499 75.1524 57.876 75.0703 57.7803 74.9801C57.3043 74.5232 56.2704 73.7737 54.9792 73.7355L54.9875 73.4619C56.3688 73.5029 57.4657 74.2989 57.9718 74.7831C58.0785 74.8843 58.1605 74.9746 58.2125 75.0402C58.3055 75.1579 58.3246 75.2618 58.2754 75.3247C58.2398 75.3685 58.1933 75.3849 58.1359 75.374L58.1632 75.2317L58.0785 75.1633L58.073 75.1606ZM58.0566 75.1579C58.0538 75.1551 58.0566 75.1524 58.0593 75.1497C58.0839 75.1196 58.0484 75.1606 58.021 75.1879L58.0566 75.1579Z" fill="#C57A57"/>
</svg>
