<svg width="23" height="20" viewBox="0 0 23 20" fill="none" xmlns="http://www.w3.org/2000/svg">
<path fill-rule="evenodd" clip-rule="evenodd" d="M1.11527 3.56928H11.1087C11.6076 1.52108 13.4126 0 15.5551 0C17.7123 0 19.5172 1.52108 20.0015 3.56928H21.8065C22.4228 3.56928 22.9217 4.08133 22.9217 4.71386C22.9217 5.34639 22.4228 5.85843 21.8065 5.85843H20.0015C19.5026 7.90663 17.6976 9.42771 15.5551 9.42771C13.3979 9.42771 11.5929 7.90663 11.1087 5.85843H1.11527C0.498937 5.85843 0 5.34639 0 4.71386C0 4.08133 0.498937 3.56928 1.11527 3.56928ZM21.8211 14.1416H11.8277C11.3288 12.0934 9.52382 10.5723 7.38133 10.5723C5.22416 10.5723 3.41918 12.0934 2.93492 14.1416H1.12995C0.513611 14.1416 0.0146746 14.6536 0.0146746 15.2861C0.0146746 15.9187 0.513611 16.4307 1.12995 16.4307H2.93492C3.43386 18.4789 5.23884 20 7.38133 20C9.5385 20 11.3435 18.4789 11.8277 16.4307H21.8211C22.4375 16.4307 22.9364 15.9187 22.9364 15.2861C22.9364 14.6536 22.4375 14.1416 21.8211 14.1416ZM9.5385 14.1416L9.55317 14.1566L9.56785 14.1867L9.58252 14.2169L9.5972 14.247L9.62655 14.3072L9.64122 14.3524V14.3675L9.6559 14.4127V14.4277L9.68524 14.5331V14.5482C9.69992 14.5783 9.69992 14.6235 9.71459 14.6536L9.72927 14.6837C9.75862 14.7892 9.77329 14.9096 9.78797 15.0301V15.0452V15.0904V15.1054C9.78797 15.1657 9.78797 15.2259 9.78797 15.2861C9.78797 15.3464 9.78797 15.4066 9.78797 15.4669V15.4819V15.5271V15.5422C9.77329 15.6627 9.75862 15.7831 9.72927 15.8886V15.9187C9.71459 15.9488 9.71459 15.994 9.69992 16.0241V16.0392L9.67057 16.1446V16.1596L9.6559 16.2048V16.2199L9.64122 16.2651L9.61187 16.3253L9.5972 16.3554L9.58252 16.3855L9.56785 16.4157L9.55317 16.4307C9.14228 17.2289 8.33518 17.7861 7.38133 17.7861C6.44216 17.7861 5.62038 17.2289 5.20949 16.4307L5.19481 16.4157L5.18014 16.3855L5.16546 16.3554L5.15079 16.3253L5.12144 16.2651L5.10677 16.2199V16.2048L5.09209 16.1596V16.1446L5.06274 16.0392V16.0241C5.04807 15.994 5.04807 15.9488 5.03339 15.9187V15.8886C5.00404 15.7681 4.98937 15.6627 4.97469 15.5422V15.5271V15.4819V15.4669C4.97469 15.4066 4.97469 15.3464 4.97469 15.2861C4.97469 15.2259 4.97469 15.1657 4.97469 15.1054V15.0904V15.0452V15.0301C4.98937 14.9096 5.00404 14.8042 5.03339 14.6837L5.04807 14.6536C5.06274 14.6235 5.06274 14.5783 5.07742 14.5482V14.5331L5.10677 14.4277V14.4127L5.12144 14.3675V14.3524L5.13611 14.3072L5.16546 14.247L5.18014 14.2169L5.19481 14.1867L5.20949 14.1566L5.22416 14.1416C5.63505 13.3434 6.44216 12.7861 7.39601 12.7861C8.33518 12.7861 9.15696 13.3434 9.56785 14.1416H9.5385ZM13.3832 3.56928L13.3686 3.58434L13.3539 3.61446L13.3392 3.64458L13.3245 3.6747L13.2952 3.73494L13.2805 3.78012V3.79518L13.2659 3.84036V3.85542L13.2365 3.96084V3.9759C13.2218 4.00602 13.2218 4.0512 13.2072 4.08133L13.1925 4.11145C13.1631 4.21687 13.1485 4.33735 13.1338 4.45783V4.47289V4.51807V4.53313C13.1338 4.59337 13.1338 4.65361 13.1338 4.71386C13.1338 4.7741 13.1338 4.83434 13.1338 4.89458V4.90964V4.95482V4.96988C13.1485 5.09036 13.1631 5.21084 13.1925 5.31627V5.34639C13.2072 5.37651 13.2072 5.42169 13.2218 5.45181V5.46687L13.2512 5.57229V5.58735L13.2659 5.63253V5.64759L13.2805 5.69277L13.3099 5.75301L13.3245 5.78313L13.3392 5.81325L13.3539 5.84337L13.3686 5.85843C13.7795 6.65663 14.5866 7.21386 15.5404 7.21386C16.4796 7.21386 17.3014 6.65663 17.7123 5.85843L17.7269 5.84337L17.7416 5.81325L17.7563 5.78313L17.771 5.75301L17.8003 5.69277L17.815 5.64759V5.63253L17.8297 5.58735V5.57229L17.859 5.46687V5.45181C17.8737 5.42169 17.8737 5.37651 17.8884 5.34639V5.31627C17.9177 5.19578 17.9324 5.09036 17.9471 4.96988V4.95482V4.90964V4.89458C17.9471 4.83434 17.9471 4.7741 17.9471 4.71386C17.9471 4.65361 17.9471 4.59337 17.9471 4.53313V4.51807V4.47289V4.45783C17.9324 4.33735 17.9177 4.23193 17.8884 4.11145L17.8737 4.08133C17.859 4.0512 17.859 4.00602 17.8443 3.9759V3.96084L17.815 3.85542V3.84036L17.8003 3.79518V3.78012L17.7856 3.73494L17.7563 3.6747L17.7416 3.64458L17.7269 3.61446L17.7123 3.58434L17.6976 3.56928C17.2867 2.77108 16.4796 2.21386 15.5257 2.21386C14.5866 2.21386 13.7648 2.77108 13.3539 3.56928H13.3832Z" fill="#FEFEFE"/>
</svg>
