<svg width="118" height="90" viewBox="0 0 118 90" fill="none" xmlns="http://www.w3.org/2000/svg">
<path d="M71.3416 14.729C67.3012 15.6753 63.6534 17.8354 60.13 20.0338C56.6066 22.2322 53.064 24.5166 49.1002 25.7592C44.8492 27.0878 40.3109 27.1547 35.8588 27.0878C31.4066 27.0209 26.9067 26.8297 22.5311 27.6708C17.8109 28.5884 13.3205 30.7199 9.65352 33.8359C5.98651 36.9518 3.15248 41.0332 1.54397 45.5542C-0.0645322 50.0848 -0.437935 55.0455 0.490785 59.7577C1.41951 64.4699 3.6695 68.924 6.92481 72.4605C11.9993 77.9756 19.2567 81.0725 26.5907 82.6687C33.9247 84.2745 41.479 84.5326 48.9374 85.3163C55.2566 85.9758 61.5374 87.0177 67.8853 87.3331C74.2331 87.6485 80.7054 87.2088 86.6703 85.0105C94.866 81.9805 101.712 75.6148 105.58 67.7961C109.448 59.9775 110.377 50.8017 108.443 42.2949C106.997 35.9195 103.962 29.8883 99.5479 25.0614C95.1341 20.2345 89.332 16.6407 82.9841 15.0444C79.1831 14.0886 75.1523 13.8497 71.332 14.7386L71.3416 14.729Z" fill="#E7F5F6"/>
<path d="M103.253 29.8599C100.783 30.8348 98.8873 33.1383 98.8873 36.2065C98.8873 37.7263 95.7852 34.7632 94.4064 35.3845C92.1852 36.3977 91.9458 41.2819 91.5724 40.6797C91.132 39.9916 89.6001 37.3439 85.6746 41.129H108.174C107.14 37.1432 105.484 33.3199 103.253 29.8599Z" fill="white"/>
<path d="M92.0703 42.6199L90.9883 44.35L87.5224 44.4551L84.5447 47.7527L38.3002 58.6299L29.1853 55.9441L26.4854 57.33L21.9279 56.2499L15.9631 48.8901L10.1035 49.4349L8.69605 46.9498L1.75459 45.0668C1.71629 45.172 1.67799 45.2771 1.63969 45.3918C1.62054 45.4396 1.6014 45.497 1.58225 45.5448L1.57267 45.5543C1.36203 46.1469 1.17055 46.7491 1.00778 47.3513C0.988631 47.4277 0.959908 47.5042 0.940759 47.5902C0.902462 47.724 0.873738 47.8578 0.835441 48.0012C0.260974 50.3047 -0.0166844 52.6847 0.0216133 55.0647C0.0216133 55.2081 0.0311878 55.361 0.0311878 55.5044C0.0311878 55.5809 0.0407622 55.6573 0.0407622 55.7338C0.0407622 55.8103 0.0503366 55.8867 0.0503366 55.9632C0.0503366 56.0397 0.0599111 56.1161 0.0599111 56.1926C0.0694855 56.3455 0.07906 56.4889 0.0886344 56.6418C0.16523 57.6932 0.308846 58.7351 0.50991 59.7674C0.730122 60.8761 1.01735 61.9657 1.38118 63.0267C1.40033 63.0936 1.42906 63.1701 1.45778 63.237C1.4865 63.3039 1.50565 63.3804 1.53437 63.4473C1.5631 63.5142 1.58225 63.5906 1.61097 63.6575C1.65884 63.8009 1.71629 63.9347 1.76416 64.0781C1.82161 64.2215 1.86948 64.3553 1.92693 64.4987C1.95565 64.5656 1.98437 64.642 2.0131 64.7089C3.19075 67.5573 4.8567 70.1954 6.94393 72.4606C9.63435 75.3855 12.9375 77.6221 16.5375 79.3234C16.7865 79.4381 17.0354 79.5528 17.2843 79.6675C17.4375 79.7344 17.6003 79.8013 17.7535 79.8682C20.5971 81.0917 23.5939 81.9997 26.6098 82.6592C31.9524 83.8253 37.4194 84.2841 42.8768 84.7525L43.1162 84.7716L43.5757 84.8098L43.8151 84.829L44.2555 84.8672C45.8257 85.001 47.3864 85.1444 48.9566 85.3069C50.948 85.5171 52.93 85.7657 54.9119 86.0142C59.1246 86.5399 63.3469 87.0847 67.5884 87.3141C67.6937 87.3236 67.7991 87.3236 67.9044 87.3332C69.0916 87.3905 70.2884 87.4288 71.4852 87.4192C71.581 87.4192 71.6863 87.4192 71.782 87.4192C72.0788 87.4192 72.3756 87.4097 72.6629 87.4097H72.682C73.065 87.4001 73.4576 87.3905 73.8405 87.3714H73.8884C78.2543 87.1994 82.5916 86.5112 86.6798 85.0106C91.2852 83.3092 95.4692 80.5469 98.9351 77.0677C101.635 74.3627 103.895 71.2181 105.589 67.7962V67.7867C105.647 67.6815 105.695 67.5764 105.743 67.4617L105.771 67.4044C105.819 67.2992 105.867 67.1941 105.915 67.0889L105.944 67.0125C105.991 66.9073 106.039 66.8022 106.087 66.6971L106.116 66.6301C106.164 66.525 106.212 66.4103 106.26 66.3052L106.269 66.2765C106.317 66.1713 106.355 66.0662 106.403 65.9611C106.413 65.942 106.422 65.9228 106.432 65.8942C106.48 65.789 106.518 65.6839 106.566 65.5787L106.595 65.5023C106.633 65.3971 106.681 65.292 106.719 65.1964C106.729 65.1677 106.738 65.1391 106.748 65.1199C106.786 65.0148 106.824 64.9192 106.872 64.8141L106.901 64.7472C106.939 64.6516 106.968 64.5656 107.006 64.47C107.016 64.4413 107.026 64.4126 107.035 64.384C107.073 64.2884 107.112 64.1832 107.15 64.0781C107.16 64.0399 107.179 64.0112 107.188 63.973C107.227 63.8774 107.255 63.7722 107.294 63.6767C107.303 63.648 107.313 63.6098 107.332 63.5811C107.361 63.4855 107.399 63.3899 107.428 63.2943C107.437 63.2561 107.456 63.2179 107.466 63.1892C107.495 63.1032 107.523 63.0267 107.552 62.9407C107.562 62.9024 107.571 62.8738 107.59 62.8355C107.619 62.74 107.648 62.6444 107.686 62.5488C107.696 62.5106 107.715 62.4628 107.724 62.4245C107.753 62.329 107.782 62.2429 107.811 62.1473C107.82 62.0996 107.839 62.0613 107.849 62.0135C107.868 61.9371 107.897 61.8606 107.916 61.7841C107.935 61.7268 107.954 61.6694 107.964 61.6121C107.983 61.5452 108.002 61.4783 108.021 61.4114C108.04 61.354 108.06 61.2871 108.069 61.2298C108.088 61.1533 108.107 61.0864 108.127 61.0099C108.136 60.9526 108.155 60.9048 108.165 60.8474C108.184 60.7614 108.213 60.6754 108.232 60.5894C108.241 60.532 108.261 60.4842 108.27 60.4269C108.289 60.3695 108.299 60.3026 108.318 60.2453C108.337 60.1688 108.356 60.0828 108.376 60.0063C108.385 59.9585 108.395 59.9107 108.414 59.8534C108.433 59.7674 108.452 59.6718 108.471 59.5858C108.481 59.538 108.49 59.4902 108.5 59.4424C108.51 59.3755 108.529 59.3181 108.538 59.2512C108.557 59.1747 108.577 59.0983 108.586 59.0123C108.596 58.9454 108.615 58.888 108.624 58.8211C108.634 58.7829 108.644 58.7446 108.653 58.6968C108.672 58.5917 108.691 58.4866 108.711 58.3814C108.72 58.3432 108.72 58.3145 108.73 58.2763C108.749 58.1616 108.768 58.0469 108.797 57.9322C108.806 57.9035 108.806 57.8748 108.816 57.8462C108.854 57.6263 108.893 57.4065 108.921 57.1962L108.931 57.1389C108.95 57.0146 108.969 56.8808 108.988 56.7565L108.998 56.6896C109.017 56.5558 109.036 56.4315 109.055 56.2977L109.065 56.2499C109.094 56.0205 109.122 55.8007 109.151 55.5713V55.5617C109.17 55.4184 109.18 55.2654 109.199 55.1221V55.0838C109.209 54.95 109.228 54.8067 109.237 54.6728V54.6346C109.276 54.2618 109.304 53.8795 109.323 53.4972V53.4781L101.683 45.8506L92.032 42.6008L92.0703 42.6199Z" fill="#9CDADB"/>
<path d="M15.9439 48.8996L10.4099 49.4062L4.32058 58.3622L5.31633 59.8151L15.5897 60.2739L20.2524 54.2235L15.9344 48.8901L15.9439 48.8996ZM109.352 53.5258V53.4971L101.712 45.8697L101.166 59.5188C101.166 59.5188 105.149 59.729 108.443 59.7482C108.826 58.085 109.094 56.3932 109.256 54.6919V54.6728C109.266 54.5581 109.276 54.4434 109.285 54.3287L109.295 54.2522C109.304 54.1471 109.314 54.0419 109.323 53.9368L109.333 53.8316C109.343 53.7361 109.343 53.6309 109.352 53.5353V53.5258ZM8.67695 46.9497L4.71314 52.3979L0.289746 50.6488C0.0503847 52.2928 -0.0453597 53.9559 0.0216614 55.6095L3.02803 56.8329L10.0174 49.3011L8.68653 46.9402L8.67695 46.9497ZM87.5129 44.4646L84.5352 47.7622L81.9022 48.3835L84.2671 54.8544L88.4512 56.9094L91.2086 54.1566L87.5224 44.4646H87.5129ZM92.0703 42.6199L90.9884 44.3499L98.3416 53.392C98.3416 53.392 99.7203 51.5568 99.4139 50.9451C99.1075 50.3333 92.0703 42.6199 92.0703 42.6199Z" fill="#B5E3E4"/>
<path d="M6.01526 53.5163C4.33973 54.1185 3.62165 57.2535 4.28228 61.1342C2.89399 60.4555 1.63017 60.2357 0.663147 60.4842C1.67804 64.9192 3.85143 69.0962 6.9344 72.4511C7.75781 73.34 8.62908 74.1716 9.5578 74.9362C10.1897 74.898 10.7259 74.6973 11.1472 74.334C11.3482 74.162 11.5206 73.9517 11.6546 73.7128C12.1908 74.3914 12.8323 74.7833 13.512 74.8693C14.6897 75.0127 15.9344 74.2385 16.978 72.7092C18.0216 71.1798 18.7684 69.0101 19.0556 66.697C19.6588 61.8797 18.1652 57.7123 15.7046 57.4065C14.3929 57.244 13.0142 58.2285 11.9227 60.0828C10.6014 55.9345 8.18865 53.0957 6.27377 53.4398C6.1876 53.4589 6.09185 53.4781 6.00568 53.5067L6.01526 53.5163Z" fill="#007391"/>
<path d="M6.61841 55.8867C9.21308 59.8151 9.73967 63.6767 10.2184 67.1654C10.5439 69.5358 10.8503 71.7438 11.7599 73.6554L11.5301 73.7606C10.6014 71.8107 10.295 69.5836 9.95988 67.1941C9.48116 63.734 8.95457 59.9012 6.39819 56.0205L6.60883 55.8867H6.61841Z" fill="#2B8DA7"/>
<path d="M4.36845 61.0386C5.43122 62.0135 6.82908 63.9347 8.00674 66.0853C9.04078 67.9683 9.92163 70.0328 10.295 71.8011L10.0557 71.8489C9.69184 70.1093 8.82057 68.0639 7.7961 66.2C6.61845 64.0685 5.2493 62.176 4.20569 61.2202L4.37803 61.0386H4.36845Z" fill="#005267"/>
<path d="M12.0471 60.1305C11.4535 61.612 11.195 63.3803 11.0993 65.2059C11.0035 67.0506 11.0801 68.9623 11.1471 70.7305L10.8982 70.7401C10.8312 68.9623 10.7546 67.0411 10.8503 65.1963C10.9461 63.342 11.2142 61.5451 11.8174 60.0349L12.0471 60.1305Z" fill="#005267"/>
<path d="M5.6897 70.979C7.11629 72.5657 8.73437 73.8178 10.5056 74.1906" stroke="#2B8DA7" stroke-width="4.78049"/>
<path d="M15.5992 60.2739C15.8195 65.0626 15.896 69.4785 13.9333 73.8275" stroke="#2B8DA7" stroke-width="4.78049"/>
<path d="M32.3832 14.3277C29.5013 14.5093 26.3513 15.4651 24.2928 17.9407C22.2343 20.4163 21.2577 24.402 19.3237 33.3198C17.3896 42.2376 14.4982 56.097 12.4397 64.9288C11.3482 69.6028 10.4961 72.8717 9.94073 75.2517C14.6801 79.0558 20.6162 81.3594 26.6098 82.6688C33.8864 84.2555 41.3832 84.5327 48.7938 85.3069C51.3885 82.3725 53.1023 77.5265 52.9778 68.9719C52.8151 57.6741 49.4544 39.9246 46.8406 29.9076C44.2268 19.8906 42.3694 17.6253 40.1289 16.182C37.8885 14.7483 35.2651 14.1557 32.3832 14.3373V14.3277Z" fill="white"/>
<path d="M59.1917 22.7293C59.1917 23.4557 58.914 24.1631 58.4066 24.6792C57.9087 25.1953 57.2289 25.4821 56.5204 25.4821C55.8119 25.4821 55.1321 25.1953 54.6342 24.6792C54.1364 24.1631 53.8491 23.4653 53.8491 22.7293C53.8491 21.2096 55.0459 19.9766 56.5108 19.9766C57.9853 19.9766 59.1725 21.2096 59.1725 22.7293H59.1917Z" fill="#E67051"/>
<path d="M80.064 22.7293C80.064 23.4557 79.7863 24.1631 79.2789 24.6792C78.781 25.1953 78.1012 25.4821 77.3927 25.4821C76.6842 25.4821 76.0044 25.1953 75.5065 24.6792C75.0087 24.1631 74.7214 23.4653 74.7214 22.7293C74.7214 21.2096 75.9182 19.9766 77.3831 19.9766C78.8576 19.9766 80.0448 21.2096 80.0448 22.7293H80.064Z" fill="#E67051"/>
<path d="M21.3056 59.4041C20.9418 59.4041 21.0471 75.6434 18.4333 76.5132C13.129 78.2815 13.2918 69.7843 13.2918 66.7925V61.1723C12.995 62.5009 12.7077 63.7626 12.4301 64.9383C11.3386 69.6122 10.4865 72.8811 9.93115 75.2611C14.6705 79.0653 20.6067 81.3688 26.6002 82.6783C33.8768 84.2649 41.3736 84.5421 48.7842 85.3163C50.8236 83.0128 52.3172 79.5336 52.8055 74.0185C37.9172 72.2694 23.7471 81.8849 21.3056 59.4327V59.4041Z" fill="#E6F4F8"/>
<path d="M32.3928 14.4903C30.8513 14.5859 29.2333 14.9108 27.7492 15.5704C26.495 16.1247 25.346 16.9276 24.4173 18.0459C23.4024 19.2598 22.6556 20.8656 21.9184 23.2647C21.1812 25.6734 20.4535 28.904 19.4865 33.3582C18.9216 35.9389 18.2993 38.8637 17.6386 41.951C15.9727 49.7696 14.0674 58.6587 12.5929 64.9671C11.961 67.6721 11.4057 69.9278 10.9365 71.8012C10.611 73.1298 10.3237 74.2768 10.0844 75.2804L9.76843 75.204C9.99822 74.2195 10.2855 73.0629 10.6206 71.7152C11.0801 69.8514 11.6354 67.6148 12.2769 64.8811C13.7514 58.5631 15.6471 49.674 17.3227 41.865C17.9929 38.7299 18.6248 35.7668 19.1705 33.2721C20.1375 28.8085 20.8652 25.5778 21.612 23.15C22.3588 20.7031 23.1343 19.0782 24.178 17.8261C25.145 16.6696 26.3322 15.838 27.6248 15.2645C29.1471 14.5859 30.8035 14.2609 32.3737 14.1557C33.8386 14.0602 35.246 14.1749 36.5673 14.4903C37.8694 14.8057 39.0949 15.3123 40.2151 16.0292C41.3545 16.7556 42.3981 17.7018 43.4896 19.7377C44.5715 21.745 45.6917 24.8323 47.0034 29.8503C48.4492 35.3845 50.1151 43.2796 51.3502 51.146C52.3555 57.5213 53.064 63.8871 53.1406 68.9529C53.1981 73.2445 52.8055 76.609 52.0587 79.2758C51.3119 81.9521 50.23 83.9115 48.9087 85.4026L48.6598 85.1827C49.9428 83.7394 51.0055 81.8087 51.7332 79.1897C52.4704 76.5517 52.863 73.2254 52.796 68.9625C52.7194 63.9157 52.0108 57.5691 51.0055 51.2033C49.7704 43.3465 48.1045 35.461 46.6587 29.9363C45.3566 24.947 44.246 21.8788 43.1736 19.8907C42.1205 17.9217 41.1151 17.0136 40.0141 16.3063C38.9226 15.6086 37.7354 15.1116 36.462 14.8057C35.1694 14.4998 33.8003 14.3947 32.3641 14.4807L32.3928 14.4903Z" fill="#8CB5BF"/>
<path d="M44.6864 53.1147L44.7917 77.0389H44.4662L44.3513 53.1147H44.6864Z" fill="#8CB5BF"/>
<path d="M95.9192 2.8291C92.8075 8.478 92.6735 13.238 93.832 17.2333C90.4905 15.0923 86.0001 14.4519 81.8448 16.2584L89.3607 20.6647C86.316 20.8367 82.9267 22.3183 79.815 26.2085L92.4628 26.2754C86.5267 28.1966 83.1852 35.241 84.3246 39.0547L98.1118 27.0878L98.7149 31.6375L97.4128 31.1787L98.0256 36.3879L96.8766 35.9291L97.7958 41.5972L96.6469 40.6031L96.4171 48.8709L95.5745 47.8769L94.4256 54.9213L93.8128 53.8508L93.0469 61.6598L92.1277 60.3599L90.5958 66.4102L89.7533 69.4689L92.683 82.057C93.9947 81.2446 95.2394 80.3365 96.4267 79.352L96.2735 78.3389L101.338 65.4831L99.9596 65.4066L103.943 57.2153L101.262 57.1388L103.866 49.2533L101.798 49.4062L103.866 42.1324L102.411 41.9795L103.636 35.6233L101.645 36.5409L101.798 30.0317L100.572 31.2552L100.084 26.7628L116.906 33.9602C116.82 29.9839 111.487 24.2968 105.245 24.2777L117.27 20.3493C113.105 17.587 109.429 17.2142 106.48 17.9884L112.282 11.4984C107.026 10.9631 102.353 13.7446 100.046 17.6921C100.18 13.5343 99.4235 8.7743 95.9384 2.8291H95.9192Z" fill="#6CC1C2"/>
<path d="M65.0704 29.5061L62.4661 29.812C62.4661 29.812 63.0789 38.0798 61.9299 39.3797C60.781 40.6796 49.1768 44.1493 47.7023 48.7563C45.9694 54.7206 44.3704 74.0473 43.5853 84.8098C45.3757 84.9628 47.1757 85.1253 48.9566 85.3069C55.2757 85.9664 61.5565 87.0082 67.9044 87.3237C74.2523 87.6391 80.7246 87.1994 86.6894 85.001C87.8479 84.5709 88.9777 84.0739 90.0884 83.5195C89.2745 72.5753 87.7331 54.4912 86.0671 48.7563C85.0905 45.3823 72.9884 40.6796 71.8395 39.3797C70.6906 38.0798 71.3033 29.812 71.3033 29.812L68.6991 29.5061L66.8895 31.2553L65.0799 29.5061H65.0704Z" fill="#F3B294"/>
<path d="M71.131 30.6722C70.3555 30.6817 69.197 31.0163 67.397 31.4655C65.6161 31.9147 63.5002 32.2206 62.6193 33.6734C62.6193 33.8168 62.6193 33.9602 62.6193 34.094C66.2385 39.1981 69.6278 40.0105 71.514 38.7297C70.9587 36.9041 71.131 32.5169 71.2363 30.6626C71.198 30.6626 71.1597 30.6626 71.1214 30.6626L71.131 30.6722Z" fill="#E67051"/>
<path d="M58.8566 7.2164C60.0246 6.62379 62.0257 5.69665 64.3714 5.22829C66.7076 4.75994 69.3884 4.74083 71.3129 5.19006C73.2374 5.6393 74.415 6.55688 75.4012 7.71343C76.3874 8.86997 77.182 10.2559 77.5937 12.3778C78.0054 14.4997 78.0437 17.3481 77.8714 20.5692C77.699 23.7903 77.3161 27.3842 75.9374 29.9554C74.5586 32.5265 72.165 34.0749 69.8097 34.7918C67.4544 35.5087 65.1182 35.3749 62.9353 34.4095C60.7523 33.4441 58.7034 31.6376 57.4491 27.7665C56.1949 23.8955 55.7257 17.9598 55.7832 14.3755C55.8502 10.7912 56.4438 9.56772 56.9034 8.82218C57.3629 8.07664 57.6885 7.79945 58.8566 7.20684V7.2164Z" fill="#F3B294"/>
<path d="M57.6885 13.8689C57.6885 13.8689 56.3672 22.1558 56.2331 21.9742C56.0991 21.7831 52.9012 14.6431 52.9012 14.6431L54.28 11.3933C54.28 11.3933 55.9842 12.5021 56.3097 12.827C56.6353 13.152 57.6885 13.8689 57.6885 13.8689Z" fill="#5E2425"/>
<path d="M74.9895 12.8939C74.9895 12.8939 77.7469 21.7735 77.7852 21.5059C77.8235 21.2382 81.9214 11.3264 81.9214 11.3264L78.781 8.34424L74.9895 12.9035V12.8939Z" fill="#5E2425"/>
<path d="M80.1118 8.01926C78.149 17.1091 64.9746 17.2812 58.5597 17.2812L60.9055 13.9167C56.4151 14.7578 52.097 13.066 51.7523 11.2786C54.8257 3.44088 73.2469 -7.88558 80.1118 8.0097V8.01926Z" fill="#7F2D2E"/>
<path d="M97.7575 59.7768C99.433 60.379 100.151 63.514 99.4904 67.3947C101.424 66.4484 103.119 66.4006 104.115 67.2513C104.594 67.6623 104.881 68.2454 104.996 68.9431C102.363 73.7987 98.5617 78.0425 94.0139 81.1776C93.4681 81.1107 92.999 80.9195 92.6256 80.5945C92.4245 80.4225 92.2522 80.2122 92.1181 79.9733C91.582 80.6519 90.9405 81.0438 90.2607 81.1298C89.083 81.2732 87.8384 80.499 86.7947 78.9697C85.7511 77.4403 85.0043 75.2706 84.7171 72.9575C84.1139 68.1402 85.6075 63.9728 88.0681 63.667C89.3798 63.5045 90.7586 64.489 91.85 66.3433C93.1713 62.195 95.5841 59.3562 97.499 59.7003C97.5851 59.7194 97.6809 59.7386 97.767 59.7672L97.7575 59.7768Z" fill="#007391"/>
<path d="M97.3554 62.2908C94.7894 66.1714 94.2629 70.0043 93.7937 73.4643C93.4682 75.8634 93.1618 78.0809 92.2235 80.0308L91.9937 79.9257C92.9129 78.0045 93.2097 75.8061 93.5352 73.4357C94.0139 69.9469 94.5405 66.0854 97.1352 62.157L97.3458 62.2908H97.3554Z" fill="#2B8DA7"/>
<path d="M99.4905 67.3948C97.5085 69.2108 94.3777 74.334 93.6022 78.0904" stroke="#005267" stroke-width="4.78049"/>
<path d="M91.9554 66.3052C92.5586 67.8154 92.8266 69.6028 92.9224 71.4666C93.0181 73.3209 92.9415 75.2325 92.8745 77.0104L92.6256 77.0008C92.6926 75.2325 92.7692 73.3209 92.6735 71.4762C92.5777 69.641 92.3192 67.8823 91.7256 66.4008L91.9554 66.3052Z" fill="#005267"/>
<path d="M103.119 69.9563C102.956 70.2335 102.899 70.3386 102.832 70.4533C100.783 74.009 97.4894 79.6961 93.2958 80.585L93.2479 80.3461C97.3362 79.4858 100.592 73.856 102.621 70.3386L102.909 69.832L103.129 69.9563H103.119Z" fill="#2B8DA7"/>
<path d="M88.1639 66.5442C87.9437 71.3328 87.8671 75.7583 89.8298 80.0977" stroke="#2B8DA7" stroke-width="4.78049"/>
<path d="M71.4661 44.914C68.4023 48.766 62.2842 56.4699 58.8853 60.4365C55.4864 64.4032 54.7779 64.6421 54.4045 64.9098C54.0311 65.1774 53.9832 65.4833 53.6481 68.7713C53.313 72.0593 52.7002 78.339 52.2694 82.8983C52.1736 83.9019 52.0875 84.8195 52.0109 85.6606C57.296 86.2915 62.5715 87.0657 67.8949 87.3333C74.2427 87.6487 80.715 87.209 86.6799 85.0107C89.1693 84.0931 91.5341 82.8601 93.7267 81.3785C92.3958 73.168 89.5905 61.0196 88.0107 54.4053C86.182 46.7683 85.9905 46.5389 85.8469 46.3669C85.7033 46.1948 85.6171 46.0801 85.598 45.6787C85.5788 45.2772 85.6267 44.589 85.1767 44.006C84.7267 43.4229 83.7693 42.9546 83.1182 42.7252C82.4767 42.4958 82.1416 42.4958 81.8831 42.5531C81.6246 42.6105 81.4427 42.7252 81.3565 42.7443C81.2703 42.7634 81.2799 42.687 81.0214 42.3333C80.7533 41.9796 80.2076 41.3392 79.4799 40.8613C78.7523 40.3834 77.8427 40.0584 77.2204 39.9342C76.5884 39.8099 76.2438 39.8673 75.9853 40.0107C75.7267 40.1445 75.5544 40.3643 75.4204 40.4408C75.2863 40.5268 75.1906 40.479 75.047 40.5077C74.9033 40.5364 74.7119 40.6319 74.6161 40.7371C74.5204 40.8422 74.5204 40.9665 74.5299 41.0238C74.5299 41.0812 74.5299 41.0812 71.4757 44.9331L71.4661 44.914Z" fill="white"/>
<path d="M84.2671 54.8544L83.2139 86.0811C84.3916 85.7848 85.5501 85.4216 86.6894 85.001C87.3596 84.7525 88.0203 84.4849 88.6713 84.1981L84.2767 54.8544H84.2671ZM52.03 85.6605C54.6725 85.9759 57.3151 86.3296 59.9576 86.6354C74.3576 77.4309 82.9937 59.3086 84.5448 47.7623C78.1395 67.9014 61.5374 81.6652 61.3938 77.8132C68.2682 66.7066 78.915 61.0768 81.299 43.4324C74.7022 63.973 56.4055 71.9827 55.7257 70.3865L74.1756 41.5303C73.8022 42.0178 73.0363 42.9736 71.4852 44.9235C68.4214 48.7754 62.3033 56.4793 58.9044 60.446C55.5055 64.4126 54.797 64.6516 54.4236 64.9192C54.0502 65.1868 54.0023 65.4927 53.6672 68.7807C53.3321 72.0688 52.7193 78.3485 52.2885 82.9077C52.1927 83.9114 52.1066 84.8289 52.03 85.6701V85.6605ZM68.3352 87.3523C70.6905 87.4575 73.0554 87.4575 75.4012 87.295C77.9384 84.0261 79.6618 80.0212 81.4522 76.0736C77.4118 83.0416 72.7873 86.062 68.3352 87.3523ZM74.7405 40.6318C74.6927 40.6605 74.6544 40.6892 74.6256 40.7274C74.5586 40.8039 74.5395 40.8899 74.5395 40.9568L74.7405 40.6414V40.6318Z" fill="#E6F4F8"/>
<path d="M81.4426 43.4516C80.6958 48.2976 77.4309 54.8259 72.9501 60.3696C69.0342 65.2156 64.1799 69.3065 59.2682 70.8645L59.1725 70.5491C64.0267 69.0102 68.8235 64.9575 72.7012 60.1593C77.1533 54.6634 80.3894 48.1925 81.1267 43.4038L81.4522 43.4516H81.4426Z" fill="#8CB5BF"/>
<path d="M64.3906 57.2534H72.4235V69.8033H64.3906V57.2534Z" fill="#F9A56E"/>
<path d="M60.1587 39.9914C59.9193 40.7082 59.7757 41.492 59.6991 42.3045C59.4598 45.0094 60.1108 48.0967 61.4321 50.7157C62.7534 53.3155 64.7353 55.447 67.1959 56.2499C67.6938 56.4124 68.2108 56.5175 68.7374 56.5653L68.7087 56.9285C68.1438 56.8807 67.6076 56.766 67.081 56.594C64.5246 55.7624 62.4661 53.564 61.1066 50.8782C59.7566 48.2019 59.0959 45.0477 59.3353 42.2758C59.4119 41.4347 59.5651 40.6318 59.8044 39.8862L60.1491 40.0009L60.1587 39.9914Z" fill="#8CB5BF"/>
<path d="M74.6161 40.3069C75.4969 43.2795 75.4586 47.2939 74.281 50.668C73.2948 53.4972 71.5044 55.8963 68.7948 56.9095L68.6703 56.5749C71.265 55.6096 72.9884 53.2965 73.9459 50.5533C75.1044 47.2461 75.1427 43.3177 74.2714 40.412L74.6161 40.3069Z" fill="#8CB5BF"/>
<path d="M69.1395 56.7756C69.1395 57.005 69.0533 57.2248 68.8905 57.3777C68.7278 57.5402 68.5076 57.6262 68.2874 57.6262C67.8182 57.6262 67.4257 57.2439 67.4257 56.766C67.4257 56.2976 67.8086 55.9058 68.2874 55.9058C68.5171 55.9058 68.7374 55.9918 68.8905 56.1543C69.0533 56.3168 69.1395 56.5366 69.1395 56.7564V56.7756Z" fill="#FFF6D5"/>
<path d="M84.4299 54.8545V85.7944H84.0948V54.8545H84.4299Z" fill="#8CB5BF"/>
<path d="M84.698 47.791C83.7884 52.9046 81.6342 58.0278 78.7523 62.74C75.564 67.9588 71.4853 72.6805 67.2438 76.3509L67.0331 76.1024C71.2459 72.4511 75.3055 67.7581 78.4746 62.568C81.3374 57.8844 83.482 52.809 84.382 47.7336L84.7076 47.791H84.698Z" fill="#8CB5BF"/>
<path d="M66.7363 87.1038C70.1544 86.2436 73.6395 84.6665 76.3682 82.5828C78.781 80.7381 80.6097 78.511 81.2799 76.0259L81.5959 76.1119C80.8969 78.6639 79.0299 80.9579 76.5597 82.8409C73.7927 84.9532 70.2693 86.5495 66.8129 87.4193L66.7363 87.1038Z" fill="#8CB5BF"/>
<path d="M51.8768 85.6414L54.7778 55.0552L55.1034 55.0839L52.2023 85.6701L51.8768 85.6414Z" fill="#C57A57"/>
<path d="M52.9204 74.5252C52.4895 73.8466 51.8959 73.493 51.2161 73.3113C50.5172 73.1202 49.7225 73.1106 48.9183 73.1106V72.7856C49.7512 72.7856 50.5651 72.7952 51.3023 72.9959C52.0587 73.1966 52.7098 73.5885 53.198 74.3532L52.9204 74.5252Z" fill="#C57A57"/>
<path d="M34.7098 35.1454C36.7013 35.9101 38.3577 36.6174 40.2151 34.419C40.7704 33.7691 42.3981 32.8993 42.9821 31.7523C43.7864 30.137 43.4704 28.2731 43.4991 28.3782C47.3289 42.6773 22.7896 53.0193 22.5503 27.6614C22.1386 34.744 29.0226 35.1359 34.7194 35.1359L34.7098 35.1454Z" fill="#E6F4F8"/>
<path d="M22.7035 27.6901C22.5598 28.732 22.7418 30.7392 23.412 32.7082C23.9003 34.1324 24.6471 35.5278 25.7098 36.5028L25.4896 36.7417C24.379 35.719 23.6035 34.2757 23.096 32.8133C22.4067 30.7965 22.2247 28.7224 22.3684 27.6423L22.6939 27.6901H22.7035Z" fill="#8CB5BF"/>
<path d="M43.2885 26.7151C43.7768 29.1907 43.5279 31.3126 42.781 33.1096C41.9098 35.1932 40.3779 36.8468 38.5396 38.1276L38.3481 37.86C40.1385 36.6079 41.6321 35.0021 42.4651 32.9853C43.1927 31.2457 43.4321 29.1811 42.9534 26.7725L43.2789 26.7056L43.2885 26.7151Z" fill="#8CB5BF"/>
<path d="M32.929 19.6324C31.9237 19.5655 31.0237 19.7854 29.8939 20.9419C28.7641 22.0984 27.395 24.2108 26.313 26.6481C25.2311 29.095 24.4365 31.8765 24.4269 33.9028C24.4269 35.9291 25.2216 37.2099 26.8971 38.3952C28.5726 39.5804 31.129 40.6796 33.7237 40.3546C36.3183 40.0296 38.9513 38.2805 40.263 36.4262C41.5747 34.5719 41.5555 32.6125 40.6556 29.917C39.7556 27.2216 37.9651 23.8094 36.5098 21.9168C35.0545 20.0339 33.9247 19.6802 32.9194 19.6229L32.929 19.6324Z" fill="#F3B294"/>
<path d="M29.1662 55.9536H37.2087V68.5035H29.1662V55.9536Z" fill="#F9A56E"/>
<path d="M18.5099 36.8851C18.2131 40.9855 20.0609 45.1912 22.7992 48.5365C25.8535 52.2738 30.0183 54.9501 33.5226 55.2559L33.4939 55.6192C29.8939 55.3037 25.6333 52.5796 22.5216 48.7659C19.7258 45.3536 17.8492 41.062 18.146 36.866L18.5099 36.8946V36.8851Z" fill="#8CB5BF"/>
<path d="M49.4257 38.4335C49.0906 40.804 46.5151 44.6464 43.2885 48.1351C40.1768 51.4996 36.4619 54.5391 33.5609 55.6096L33.4364 55.2751C36.28 54.2237 39.947 51.2128 43.0204 47.8866C46.1991 44.4456 48.7364 40.6797 49.0619 38.3857L49.4161 38.4335H49.4257Z" fill="#8CB5BF"/>
<path d="M33.9151 55.4758C33.9151 55.7051 33.8289 55.925 33.6662 56.0779C33.5034 56.2404 33.2832 56.3264 33.063 56.3264C32.5938 56.3264 32.2013 55.9441 32.2013 55.4662C32.2013 54.9978 32.5843 54.606 33.063 54.606C33.2928 54.606 33.513 54.692 33.6662 54.8545C33.8289 55.017 33.9151 55.2368 33.9151 55.4566V55.4758Z" fill="#FFF6D5"/>
<path d="M21.6407 53.1147L21.5354 77.0389H21.2003L21.3152 53.1147H21.6407Z" fill="#8CB5BF"/>
<path d="M32.5556 19.6228C31.6939 19.6324 30.88 19.9287 29.8939 20.9418C29.2811 21.5727 28.6013 22.4711 27.9407 23.5608C31.0045 21.3911 35.0832 22.194 37.6013 23.5034C37.2375 22.9108 36.8736 22.3756 36.5289 21.9359C35.0736 20.0529 33.9438 19.6993 32.9385 19.6419C32.8141 19.6324 32.6896 19.6324 32.5651 19.6324L32.5556 19.6228Z" fill="#E67051"/>
<path d="M30.9662 35.6615C31.0141 35.6041 31.1865 35.6806 31.4545 35.7857C31.7131 35.8909 32.0673 36.0247 32.4503 36.0247C32.4694 36.0247 32.4886 36.0247 32.5173 36.0247C32.8716 36.0247 33.2737 35.9291 33.5226 35.8813C33.8003 35.824 33.9822 35.8144 34.0109 35.8813C34.0396 35.9387 33.9056 36.0725 33.6567 36.2254C33.4077 36.3688 33.0056 36.5408 32.5269 36.5504C32.4982 36.5504 32.4694 36.5504 32.4407 36.5504C31.9237 36.5313 31.512 36.3114 31.2726 36.1011C31.0237 35.8909 30.9375 35.7093 30.9758 35.6615H30.9662Z" fill="white"/>
<path d="M65.8268 30.4906C65.8746 30.4333 66.0566 30.5193 66.3246 30.6149C66.6023 30.72 66.9661 30.8252 67.3778 30.8156C67.3874 30.8156 67.397 30.8156 67.397 30.8156C67.7991 30.8156 68.2204 30.7105 68.498 30.6627C68.7948 30.6053 68.9863 30.5767 69.0151 30.6531C69.0438 30.7105 68.9002 30.8634 68.6225 31.0163C68.3448 31.1693 67.914 31.3318 67.4066 31.3509C67.397 31.3509 67.3874 31.3509 67.3778 31.3509C66.8417 31.3509 66.4012 31.1501 66.1332 30.9494C65.8651 30.7391 65.7693 30.548 65.8172 30.5002L65.8268 30.4906Z" fill="white"/>
<path d="M12.6503 43.8624C12.5546 43.958 12.2099 43.786 12.0758 43.786C11.9418 43.786 11.5971 43.958 11.5014 43.8624C11.4056 43.7668 11.578 43.4227 11.578 43.2889C11.578 43.1551 11.4056 42.811 11.5014 42.7154C11.5971 42.6199 11.9418 42.7919 12.0758 42.7919C12.2099 42.7919 12.5546 42.6199 12.6503 42.7154C12.746 42.811 12.5737 43.1551 12.5737 43.2889C12.5737 43.4227 12.746 43.7668 12.6503 43.8624Z" fill="white"/>
<path d="M6.13967 60.035C6.10138 60.1689 5.70882 60.188 5.58436 60.2644C5.46946 60.3313 5.24925 60.6659 5.11521 60.6276C4.98117 60.5894 4.96202 60.1975 4.88542 60.0733C4.8184 59.9586 4.4833 59.7387 4.52159 59.6049C4.55989 59.4711 4.95244 59.452 5.07691 59.3755C5.1918 59.3086 5.41202 58.9741 5.54606 59.0123C5.6801 59.0505 5.69925 59.4424 5.77584 59.5667C5.84287 59.6814 6.17797 59.9012 6.13967 60.035Z" fill="white"/>
<path d="M98.1979 58.1329C98.1022 58.1902 97.8628 57.98 97.7671 57.9513C97.6617 57.9226 97.3553 57.9895 97.2979 57.8939C97.2405 57.7983 97.4511 57.5594 97.4798 57.4638C97.5085 57.3587 97.4415 57.0528 97.5373 56.9955C97.633 56.9381 97.8724 57.1484 97.9681 57.1771C98.0734 57.2057 98.3798 57.1388 98.4373 57.2344C98.4947 57.33 98.2841 57.5689 98.2553 57.6645C98.2266 57.7697 98.2936 58.0755 98.1979 58.1329Z" fill="white"/>
<path d="M89.4947 42.3811C89.4181 42.4289 89.2266 42.2568 89.1405 42.2281C89.0543 42.209 88.7958 42.2568 88.7575 42.1804C88.7096 42.1039 88.882 41.9127 88.9107 41.8267C88.9298 41.7407 88.882 41.4826 88.9586 41.4444C89.0352 41.3966 89.2266 41.5686 89.3224 41.5973C89.4086 41.6164 89.6671 41.5686 89.7054 41.6451C89.7532 41.7216 89.5809 41.9127 89.5522 41.9987C89.533 42.0848 89.5809 42.3428 89.5043 42.3811H89.4947Z" fill="white"/>
<path d="M90.5097 47.4946C90.4331 47.5329 90.2512 47.3799 90.1746 47.3512C90.098 47.3321 89.8586 47.3799 89.8107 47.3035C89.7724 47.227 89.9256 47.0454 89.9544 46.9689C89.9735 46.8925 89.9256 46.6535 90.0022 46.6057C90.0788 46.5675 90.2607 46.7204 90.3373 46.7491C90.4139 46.7682 90.6533 46.7204 90.7012 46.7969C90.7395 46.8733 90.5863 47.0549 90.5575 47.1314C90.5384 47.2079 90.5863 47.4468 90.5097 47.4946Z" fill="white"/>
<path d="M101.453 68.8857C101.357 68.9431 101.099 68.7233 100.994 68.6946C100.879 68.6659 100.553 68.7328 100.496 68.6277C100.438 68.5321 100.659 68.274 100.687 68.1689C100.716 68.0542 100.649 67.7292 100.754 67.6719C100.85 67.6145 101.109 67.8343 101.214 67.863C101.329 67.8917 101.654 67.8248 101.712 67.9299C101.769 68.0255 101.549 68.2836 101.52 68.3887C101.492 68.5034 101.559 68.8284 101.453 68.8857Z" fill="white"/>
<path d="M104.086 61.9658C104.019 62.0327 103.789 61.918 103.703 61.918C103.617 61.918 103.378 62.0327 103.32 61.9658C103.253 61.8989 103.368 61.6695 103.368 61.5835C103.368 61.4974 103.253 61.2585 103.32 61.2011C103.387 61.1342 103.617 61.2489 103.703 61.2489C103.789 61.2489 104.029 61.1342 104.086 61.2011C104.153 61.268 104.038 61.4974 104.038 61.5835C104.038 61.6695 104.153 61.9084 104.086 61.9658Z" fill="white"/>
<path d="M5.27802 48.6894C5.18228 48.7467 4.94292 48.5364 4.8376 48.5077C4.73228 48.4791 4.41632 48.546 4.35888 48.4504C4.30143 48.3548 4.51207 48.1159 4.54079 48.0107C4.56951 47.9056 4.50249 47.5902 4.59824 47.5328C4.69398 47.4755 4.93334 47.6857 5.03866 47.7144C5.14398 47.7431 5.45994 47.6762 5.51738 47.7718C5.57483 47.8673 5.36419 48.1063 5.33547 48.2114C5.30675 48.3166 5.37377 48.632 5.27802 48.6894Z" fill="white"/>
<path d="M2.07054 72.4988C2.3482 72.3746 3.26735 74.2289 5.43117 76.5515C6.35032 77.5455 7.50882 78.5874 8.94499 79.5528C11.2907 81.1394 14.029 82.2769 17.4375 83.3091C17.495 83.3283 17.5524 83.3474 17.6099 83.3569C21.0184 84.3797 24.3407 85.1061 27.2034 85.8899C30.2577 86.7214 32.4502 87.5052 34.1928 88.3272C35.8204 89.1014 36.6534 89.7418 36.5672 89.933C36.4715 90.1337 35.4853 89.8756 33.7907 89.4455C31.6077 88.9007 30.1715 88.5662 26.7343 87.8684C24.0822 87.3331 20.3003 86.6067 16.9396 85.6031C16.8822 85.584 16.8247 85.5649 16.7673 85.5553C13.2248 84.4944 10.228 83.0989 7.75776 81.2063C6.23542 80.0307 5.06734 78.7594 4.20564 77.5551C2.15671 74.6972 1.8982 72.5848 2.08012 72.4988H2.07054Z" fill="#9CDADB"/>
<path d="M84.2671 88.8435C84.2576 88.4611 85.6842 88.1935 87.8193 87.5149C90.0597 86.8076 92.7214 85.7562 95.7086 83.9019C95.7756 83.8541 95.8522 83.8159 95.9192 83.7681C97.8628 82.5351 99.4618 81.2543 100.812 79.9926C103.359 77.5935 104.661 75.548 105.082 75.7487C105.465 75.9303 104.938 78.4728 102.42 81.4932C101.137 83.0416 99.433 84.5901 97.3075 85.9473C97.2309 85.9951 97.1543 86.0429 97.0777 86.0907C93.8416 88.1075 90.6724 89.0346 88.1831 89.3023C85.7416 89.5603 84.2767 89.178 84.2671 88.8435Z" fill="#007391"/>
</svg>
