<svg width="121" height="90" viewBox="0 0 121 90" fill="none" xmlns="http://www.w3.org/2000/svg">
<path d="M88.3691 7.76263C88.0523 7.65702 87.7354 7.5514 87.4186 7.44579C83.5636 6.1256 79.9727 4.17173 76.2234 2.58751C72.4741 1.00329 68.4607 -0.158476 64.3946 0.263984C61.543 0.52802 58.797 1.58417 56.3678 3.11558C53.9387 4.59419 51.7736 6.54806 49.8197 8.66036C45.912 12.8321 42.6907 17.6904 38.6774 21.8094C34.5584 25.9812 29.7001 29.308 25.1587 33.0574C20.6172 36.7539 16.287 40.9785 13.8051 46.312C11.7456 50.8006 11.1119 55.9758 11.904 60.8869C12.6961 65.7979 14.8612 70.445 18.0297 74.2999C21.6734 78.7886 26.6373 82.1154 31.918 84.4389C37.1988 86.7625 42.902 88.0827 48.6052 88.9276C60.3284 90.6702 72.4741 90.459 83.8277 87.0265C95.1813 83.6468 105.743 76.9403 112.713 67.3822C117.519 60.7812 120.634 52.8601 120.951 44.7278C121.268 36.5955 118.681 28.2519 113.347 22.0734C107.01 14.6804 97.5576 10.8783 88.3691 7.81544V7.76263Z" fill="#E7F5F6"/>
<path d="M87.4714 31.6317V42.6684H82.1379V45.9953H64.5002V38.8135H56.4735V46.7874H39.0471V40.3449H20.5117L14.386 50.9592L11.7985 60.5701C11.7985 60.6757 11.8513 60.7285 11.8513 60.8341C12.0625 62.2071 12.4322 63.5801 12.8546 64.9003H114.403C118.258 58.8275 120.687 51.8569 120.951 44.6751C121.004 43.5133 121.004 42.3516 120.899 41.1898H113.928V46.1009H107.38V35.7506H99.7756V44.4639H96.8712V31.5789H87.4186L87.4714 31.6317Z" fill="#D2EDEE"/>
<path d="M91.696 0C89.1084 0 85.0951 0.633689 78.547 2.8516C68.3023 6.33689 51.8792 13.6771 39.2583 21.2286C39.0999 21.4398 38.8886 21.5982 38.6774 21.8095C34.5584 25.9812 29.7001 29.3081 25.1587 33.0574C20.6173 36.7539 16.2871 40.9785 13.8051 46.3121C12.5905 48.8996 11.9041 51.7512 11.64 54.6028C13.9635 53.9691 17.9241 52.4905 24.6834 49.5333C38.2021 43.7245 62.9688 32.2653 78.0717 24.5026C93.1746 16.7399 98.5082 12.5682 101.36 9.87498C104.211 7.1818 104.528 5.91443 104.317 4.80547C104.053 3.64371 103.261 2.64037 102.205 2.1123C101.149 1.58422 99.8811 1.63703 98.9834 1.53141C98.1385 1.47861 97.716 1.26738 95.7622 0.633689C94.9173 0.369652 93.7555 0 91.696 0Z" fill="#CAE9EB"/>
<path d="M103.155 5.54468C101.518 5.54468 97.6632 7.02328 88.1051 11.8816C74.2696 19.0106 48.394 33.427 34.136 41.929C25.2643 47.2097 20.8813 50.2197 18.6106 52.068C20.3532 51.3815 22.3071 50.5366 24.6834 49.5332C38.2021 43.7244 62.9688 32.2652 78.0717 24.5025C93.1746 16.7398 98.5082 12.5681 101.36 9.87488C103.261 8.07943 104.053 6.91767 104.264 6.01994C104.106 5.7031 103.789 5.54468 103.155 5.54468Z" fill="#B9E1E5"/>
<path d="M98.825 11.8289C95.4453 14.5221 89.6365 18.3242 77.9661 24.3443C62.916 32.107 38.0965 43.5662 24.6306 49.375C17.9241 52.2794 13.9635 53.758 11.64 54.3917C11.64 54.4973 11.64 54.5501 11.64 54.6557H11.6928C14.0163 54.022 17.9769 52.4906 24.7362 49.5862C38.2549 43.7774 63.0216 32.3182 78.1245 24.5555C89.7949 18.5355 95.6566 14.6805 99.0362 11.9874L98.8778 11.7761L98.825 11.8289ZM77.3324 3.11572C67.1406 6.70662 51.668 13.73 39.5223 20.859C39.4695 20.9118 39.3639 21.0174 39.3111 21.0702L39.4167 21.2287C51.5624 13.994 67.1934 6.97066 77.438 3.32695L77.3324 3.11572Z" fill="#62989B"/>
<path d="M47.7074 32.7406C51.4568 30.5755 58.4273 26.7734 61.807 24.2914C65.2395 21.8095 65.0811 20.7533 64.1305 20.014C63.18 19.2747 61.4374 18.8523 51.6152 20.6477C41.793 22.4432 23.9441 26.4565 14.8084 28.6744C5.67276 30.8923 5.35592 31.3676 4.19415 32.8462C3.0852 34.3248 1.13133 36.8068 0.339215 38.1798C-0.505703 39.5527 -0.241666 39.764 7.04575 39.1831C14.3332 38.6022 28.5912 37.2292 36.037 36.3315C43.43 35.381 43.9581 34.9057 47.7074 32.7406Z" fill="#B9E1E5"/>
<path d="M61.543 19.3804C59.8003 19.3804 56.8431 19.6972 51.6152 20.6477C41.793 22.4432 23.9441 26.4566 14.8085 28.6745C5.67277 30.8924 5.35593 31.3676 4.19417 32.8463C3.08521 34.3249 1.13134 36.8068 0.339229 38.1798C-0.0304231 38.7607 -0.188845 39.1303 0.339229 39.3416C1.13134 38.2854 1.97626 37.1765 2.55714 36.3843C3.66609 34.9057 4.03575 34.4305 13.1714 32.2126C22.3071 29.9947 40.156 25.9813 49.9782 24.1858C59.8003 22.3904 61.543 22.76 62.4935 23.5522C62.5463 23.605 62.5991 23.6578 62.6519 23.7106C65.1867 21.7039 64.9755 20.7534 64.1305 20.0669C63.7081 19.6972 63.0744 19.4332 61.4902 19.4332L61.543 19.3804Z" fill="#CAE9EB"/>
<path d="M104.739 14.8389C102.046 15.6839 99.8812 18.113 99.8812 21.3342C99.8812 22.8657 96.7655 19.9084 95.3926 20.4893C93.1746 21.4927 92.9106 26.4038 92.541 25.7701C92.1185 25.0836 90.5871 22.4432 86.6265 26.2453H116.357C115.459 24.7139 114.456 23.2881 113.294 21.9679C110.812 19.1163 107.908 16.74 104.687 14.7861L104.739 14.8389Z" fill="white"/>
<path d="M53.4634 25.506C54.0971 27.5655 53.3578 28.8329 52.0376 29.2553C51.1399 29.5722 38.6246 34.3776 37.9381 32.2653C37.3044 30.2058 48.4467 21.7039 49.8197 21.7039C51.1927 21.7039 52.8297 23.3937 53.4106 25.4532L53.4634 25.506Z" fill="#84CCD0"/>
<path d="M53.4634 25.5059C53.7802 26.5093 53.7802 27.4598 53.5162 28.1463C53.2522 28.8328 52.7241 29.2552 52.0904 29.2552C51.4039 29.2552 50.6646 28.8328 49.9781 28.1463C49.2916 27.4598 48.7635 26.5093 48.4467 25.5059C47.813 23.4464 48.4467 21.7566 49.8725 21.7566C51.2455 21.7566 52.8825 23.4464 53.4634 25.5059Z" fill="#AEDDE0"/>
<path d="M53.0938 25.5061C53.6219 27.2487 53.0938 28.6745 51.9321 28.6745C51.3512 28.6745 50.7175 28.3577 50.1894 27.724C49.6085 27.1431 49.1861 26.351 48.922 25.5061C48.658 24.6612 48.658 23.8691 48.8692 23.2882C49.0805 22.7073 49.5029 22.3376 50.0838 22.3376C51.2456 22.3376 52.6186 23.7634 53.0938 25.5061Z" fill="#6DC2C8"/>
<path d="M50.823 24.1858C50.4006 24.1858 49.9781 24.2386 49.5557 24.397C49.2388 24.5026 48.9748 24.6083 48.7108 24.8195C48.7636 25.0835 48.8164 25.2947 48.8692 25.5588C49.1332 26.4037 49.6085 27.1958 50.1366 27.8295C50.295 27.7767 50.4534 27.7767 50.6118 27.7239C51.2455 27.5127 51.8264 27.0902 52.196 26.6677C52.5657 26.1925 52.6713 25.7172 52.5129 25.2419C52.3017 24.6611 51.6152 24.2386 50.7174 24.2386L50.823 24.1858Z" fill="#CAE9EB"/>
<path d="M17.2376 38.1796C20.7757 37.8628 24.4722 37.4931 27.9575 37.1235C31.0203 36.8066 33.8719 36.4898 36.0371 36.2257C43.0076 35.328 43.8525 34.8528 47.0738 33.0045C47.285 32.8989 47.4434 32.7933 47.6547 32.6877C48.394 32.2652 49.2917 31.7371 50.295 31.1562C54.0972 28.9911 59.0611 26.1923 61.7542 24.2385C63.4441 23.0239 64.2362 22.1262 64.5002 21.4925C64.7643 20.9116 64.5002 20.4891 64.0778 20.1195C63.6025 19.7498 62.9688 19.4858 61.2262 19.5386C59.4307 19.5914 56.5791 19.9083 51.668 20.806C49.4501 21.2285 46.8098 21.7565 43.9582 22.3374C40.8425 22.9711 37.41 23.7104 34.0304 24.4497L33.9776 24.1857C37.3572 23.4464 40.7897 22.7071 43.9053 22.0734C46.7569 21.4925 49.3973 20.9644 51.6152 20.542C56.5263 19.6442 59.4307 19.2746 61.2262 19.2746C63.0744 19.2218 63.7609 19.5386 64.2362 19.9083C64.7643 20.3307 65.0283 20.806 64.7115 21.5453C64.4474 22.2318 63.6025 23.1295 61.8599 24.3969C59.1139 26.3508 54.15 29.2024 50.3479 31.3675C49.3973 31.8955 48.4996 32.4236 47.7075 32.8989C47.4963 33.0045 47.285 33.1101 47.1266 33.2157C43.8525 35.1168 43.0076 35.5921 35.9842 36.4898C33.7663 36.7538 30.9675 37.0707 27.9047 37.3875C24.4722 37.7572 20.7229 38.1268 17.1848 38.4437V38.1796H17.2376Z" fill="#62989B"/>
<path d="M94.4949 0.316723L87.049 4.69974L89.2669 6.33676L98.7723 1.53129C98.0329 1.47849 97.5577 1.26726 95.6566 0.633568C95.287 0.527953 94.9173 0.369531 94.442 0.263916L94.4949 0.316723Z" fill="#007391"/>
<path d="M87.9995 7.07614L85.8872 5.3335L83.7749 6.65368L85.5175 8.29071L87.9995 7.07614Z" fill="#007391"/>
<path d="M70.6787 13.5186C70.6259 13.5186 70.5203 13.5186 70.4674 13.5714C70.2562 13.677 70.1506 13.9938 70.2562 14.2051L70.7843 15.2084C70.8899 15.4196 71.2067 15.5253 71.418 15.4196C71.6292 15.314 71.7348 14.9972 71.6292 14.786L71.1011 13.7826C70.9955 13.6242 70.8371 13.5186 70.6787 13.5186ZM72.791 12.4096C72.7382 12.4096 72.6325 12.4096 72.5797 12.4624C72.3685 12.5681 72.2629 12.8849 72.3685 13.0961L72.8966 14.0995C73.0022 14.3107 73.319 14.4163 73.5303 14.3107C73.7415 14.2051 73.8471 13.8882 73.7415 13.677L73.2134 12.6737C73.1078 12.5152 72.9494 12.4096 72.791 12.4096ZM74.9033 11.3007C74.8505 11.3007 74.7448 11.3007 74.692 11.3535C74.4808 11.4591 74.3752 11.7759 74.4808 11.9872L75.0089 12.9905C75.1145 13.2017 75.4313 13.3074 75.6426 13.2017C75.8538 13.0961 75.9594 12.7793 75.8538 12.5681L75.3257 11.5647C75.2201 11.4063 75.0617 11.3007 74.9033 11.3007ZM77.0156 10.1917C76.9628 10.1917 76.8571 10.1917 76.8043 10.2445C76.5931 10.3501 76.4875 10.667 76.5931 10.8782L77.1212 11.8816C77.2268 12.0928 77.5436 12.1984 77.7549 12.0928C77.9661 11.9872 78.0717 11.6703 77.9661 11.4591L77.438 10.4558C77.3324 10.2973 77.174 10.1917 77.0156 10.1917ZM79.1279 9.08276C79.075 9.08276 78.9694 9.08276 78.9166 9.13557C78.7054 9.24119 78.5998 9.55803 78.7054 9.76926L79.2335 10.7726C79.3391 10.9838 79.6559 11.0894 79.8672 10.9838C80.0784 10.8782 80.184 10.5614 80.0784 10.3501L79.5503 9.3468C79.4447 9.18838 79.2863 9.08276 79.1279 9.08276Z" fill="#007391"/>
<path d="M43.5885 27.3014C44.2222 29.3609 43.4829 30.6283 42.1627 31.0507C41.265 31.3676 28.7496 36.173 28.0631 34.0607C27.4294 32.0013 38.5718 23.4993 39.9448 23.4993C41.3178 23.4993 42.9548 25.1891 43.5357 27.2486L43.5885 27.3014Z" fill="#93D2D6"/>
<path d="M43.5885 27.3013C44.2222 29.3608 43.5885 31.0506 42.1627 31.0506C40.7897 31.0506 39.1527 29.3608 38.5718 27.3013C38.2549 26.298 38.2549 25.3475 38.519 24.661C38.783 23.9745 39.3111 23.552 39.9448 23.552C40.6313 23.552 41.3706 23.9745 42.0571 24.661C42.7436 25.3475 43.2716 26.298 43.5885 27.3013Z" fill="#AEDDE0"/>
<path d="M43.166 27.3015C43.694 29.0441 43.166 30.4699 42.0042 30.4699C40.8424 30.4699 39.4694 29.0441 38.9942 27.3015C38.4661 25.5589 38.9942 24.1331 40.1559 24.1331C40.7368 24.1331 41.3705 24.4499 41.8986 25.0308C42.4795 25.6117 42.9019 26.4038 43.166 27.2487V27.3015Z" fill="#6DC2C8"/>
<path d="M40.8953 25.9812C40.4729 25.9812 40.0504 26.034 39.6279 26.1924C39.3111 26.298 39.0471 26.4037 38.783 26.6149C38.8358 26.8789 38.8886 27.0902 38.9414 27.3542C39.2055 28.1991 39.6807 28.9912 40.2088 29.6249C40.3672 29.5721 40.5257 29.5721 40.6841 29.5193C41.3178 29.3081 41.8987 28.8856 42.2683 28.4631C42.638 27.9879 42.7436 27.5126 42.5852 27.0373C42.3739 26.4565 41.6874 26.034 40.7897 26.034L40.8953 25.9812Z" fill="#CAE9EB"/>
<path d="M13.0657 65.5339C13.6466 67.171 14.3859 68.808 15.2837 70.2866H110.39C110.443 70.2338 110.495 70.181 110.548 70.1282C110.601 70.0226 110.707 69.9698 110.759 69.8641C110.812 69.8113 110.865 69.7585 110.918 69.6529C110.971 69.6001 111.023 69.4945 111.076 69.4417C111.129 69.3361 111.235 69.2833 111.287 69.1776C111.34 69.1248 111.34 69.072 111.393 69.0192C111.499 68.9136 111.552 68.808 111.657 68.7024L111.71 68.5968C111.816 68.4911 111.921 68.3327 111.974 68.2271L112.027 68.1743C112.132 68.0159 112.238 67.9103 112.344 67.7518C112.449 67.5934 112.555 67.435 112.66 67.3294C112.819 67.1182 112.977 66.9069 113.083 66.6957C113.136 66.5901 113.241 66.4845 113.294 66.4317L113.347 66.3789C113.4 66.2732 113.453 66.2204 113.505 66.1148L113.558 66.062C113.611 66.0092 113.664 65.9036 113.717 65.8508L113.769 65.7452C113.822 65.6924 113.875 65.5867 113.928 65.5339H13.0129H13.0657Z" fill="#D2EDEE"/>
<path d="M79.339 48.4243V51.3287H12.1152C11.4287 54.4444 11.3759 57.6656 11.904 60.8341C12.2737 62.9463 12.8545 65.0586 13.6995 67.0653H112.977C116.04 62.8407 118.364 58.0353 119.684 52.9658V51.3287H94.8116V48.4243H79.339Z" fill="#9CDADB"/>
<path d="M11.5344 56.7152H118.469C118.681 56.1343 118.892 55.6063 119.05 55.0254H11.5872C11.5344 55.6063 11.5344 56.1343 11.5344 56.7152Z" fill="#6CC1C2"/>
<path d="M18.2409 67.0654H24.1554V58.7747H18.2409V67.0654ZM11.9041 61.151C12.2737 63.1577 12.8546 65.1644 13.6467 67.0654H17.8185V58.7747H11.9041V61.151Z" fill="#6CC1C2"/>
<path d="M33.4494 67.0654H39.3639V58.7747H33.4494V67.0654ZM27.1125 67.0654H33.027V58.7747H27.1125V67.0654Z" fill="#6CC1C2"/>
<path d="M90.4286 67.0654H96.343V58.7747H90.4286V67.0654ZM84.0917 67.0654H90.0062V58.7747H84.0917V67.0654Z" fill="#6CC1C2"/>
<path d="M83.775 54.6557C85.0951 58.141 87.5771 65.0588 88.7917 68.4913C90.0062 71.9766 89.9534 72.0294 88.7917 72.2406C87.6299 72.4518 85.412 72.8743 84.1446 72.6631C82.8772 72.4518 82.5604 71.6069 82.0323 68.1216C81.5042 64.6363 80.7649 58.4579 80.5537 55.1838C80.2897 51.9098 80.5537 51.5401 80.8177 51.2761C81.1346 51.0648 81.4514 50.9592 81.7155 50.9592C81.9267 50.9592 82.5076 51.0648 82.6132 51.1177C82.7716 51.1705 82.4548 51.1177 83.775 54.5501V54.6557Z" fill="#7CC2A6"/>
<path d="M68.4607 47.4739L61.4902 52.4378L61.0149 89.931C68.7248 90.0894 76.4346 89.1917 83.7749 86.9738C84.567 86.7626 85.3591 86.4985 86.1512 86.2345L82.5603 51.2232L77.8604 48.002L73.4246 47.4739H68.4079H68.4607Z" fill="#7CC2A6"/>
<path d="M84.5142 73.7719C81.3986 73.7719 77.5437 72.9798 71.6292 72.5573C69.4113 72.3989 66.8238 62.3655 66.5597 62.3127C64.289 61.8902 63.18 76.9403 61.2262 76.8347L61.0677 89.9309C67.9327 90.0366 74.7977 89.3501 81.4514 87.6602C83.0884 86.4457 84.567 85.1255 85.7816 83.8053C85.8344 83.7525 85.8344 83.6997 85.8872 83.6469L84.8839 73.7719C84.7783 73.7719 84.6198 73.7719 84.4614 73.7719H84.5142Z" fill="#5EB492"/>
<path d="M60.5924 76.9932C61.0677 79.5807 61.543 84.5446 61.8598 87.5547C61.9654 88.6108 62.0182 89.4029 62.071 89.9838C57.5296 89.9838 53.041 89.5613 48.5524 88.9277C46.0176 88.558 43.5357 88.0827 41.0537 87.5019C41.0537 87.2378 41.0537 86.9738 41.0537 86.7097C41.0537 84.4918 41.2649 80.7953 42.0571 78.5774C42.8492 76.3595 44.2222 75.5674 46.7569 74.7753C49.2917 73.9832 52.9354 73.1911 55.2589 73.0854C57.5296 72.9798 58.4273 73.6135 59.061 73.9832C59.6947 74.3528 60.1172 74.5112 60.5924 77.046V76.9932Z" fill="#7CC2A6"/>
<path d="M45.4367 75.145C43.7469 75.8315 42.6907 76.6764 42.057 78.4719C41.5818 79.7921 41.3177 81.5875 41.1593 83.2774C46.7569 85.9177 53.4634 87.3435 58.9554 87.3435C59.325 87.3435 60.5924 87.3963 61.8598 87.5019C61.5958 84.756 61.1205 80.2673 60.698 77.5742C57.952 76.4652 52.3017 76.6764 50.1894 76.3596C48.9748 76.1484 47.285 75.6731 45.4367 75.145Z" fill="#5EB492"/>
<path d="M61.4902 52.4377C64.7114 52.5962 66.8765 59.4083 66.5597 62.8936L62.4407 79.1055L56.051 75.2505C57.5296 67.2766 59.061 59.3555 61.4902 52.4377Z" fill="#7CC2A6"/>
<path d="M64.9226 72.4517L74.5864 72.6629L73.7943 77.4156L59.2723 79.8447C57.2128 75.7257 59.5891 72.2932 64.9755 72.3989L64.9226 72.4517Z" fill="#7CC2A6"/>
<path d="M73.7943 77.574L62.1766 79.3167L62.1238 79.0526L73.7415 77.3628L73.7943 77.574Z" fill="#4E8670"/>
<path d="M70.2033 40.7146L69.7809 47.1043L73.4774 49.0054C73.4774 49.0054 76.6987 48.1604 76.6987 47.9492C76.6987 47.7908 76.593 40.8202 76.593 40.8202L70.2562 40.7146H70.2033Z" fill="#F3B294"/>
<path d="M71.2068 40.7146C70.7843 40.7146 70.4675 40.7674 70.2034 40.7674L70.1506 41.7707C71.3124 43.6718 75.4314 46.5234 76.6988 45.8369C76.6459 44.3055 76.6459 42.5629 76.5931 41.6123C76.1179 41.1371 75.1145 40.873 73.9528 40.7674L71.2068 40.7146Z" fill="#E67051"/>
<path d="M80.0256 25.6643C81.1346 26.1924 82.3492 26.5092 82.1907 28.7271L81.0818 35.2752L77.8605 27.4598L80.0256 25.6643Z" fill="#7F3300"/>
<path d="M77.7548 24.2386C78.3885 24.5555 79.3391 25.0307 79.9727 26.879C80.6592 28.7272 81.0817 31.8957 81.2929 34.4304C81.5042 36.9652 81.557 38.7607 81.0289 40.2921C80.5008 41.8235 79.4975 43.038 77.8604 43.6189C76.2762 44.2526 74.1111 44.3054 72.2101 43.4605C70.309 42.6156 68.672 40.9258 67.6686 38.6022C66.7181 36.2787 66.4012 33.4271 66.4012 31.4732C66.4012 29.5194 66.7181 28.4632 67.6158 27.4071C68.5663 26.3509 70.1506 25.2948 71.7348 24.6611C73.319 24.0274 74.9032 23.869 75.8538 23.8162C76.8043 23.8162 77.1211 23.9218 77.702 24.2386H77.7548Z" fill="#F3B294"/>
<path d="M76.065 23.7634C76.0122 23.7634 75.9594 23.7634 75.9066 23.7634C74.956 23.7634 73.3718 23.9747 71.7876 24.6083C70.2034 25.242 68.6192 26.2982 67.6686 27.3543C66.7181 28.4105 66.4012 29.4666 66.4541 31.4205C66.4541 33.2159 66.7181 35.6979 67.4574 37.863C68.5135 37.2821 69.4641 36.3316 69.5697 32.3182L71.9988 30.7868L70.7314 34.5361C74.428 33.744 78.811 31.9486 80.2368 27.5128C80.184 27.2487 80.0784 27.0375 80.0255 26.8263C79.3391 24.978 78.3885 24.5027 77.8076 24.1859C77.5964 24.0803 77.438 23.9747 77.2268 23.9218C77.0155 23.869 76.7515 23.8162 76.5403 23.7634C76.4346 23.7634 76.2762 23.7634 76.1178 23.7634H76.065Z" fill="#E67051"/>
<path d="M70.309 30.9978L72.7382 29.4664L71.4708 33.2157C75.7482 32.318 80.9761 30.0473 81.3986 23.816C77.2796 21.5981 62.1767 19.2746 64.553 28.8327C62.3351 28.8855 63.0216 34.3247 67.299 36.9651C68.672 36.2786 70.1506 36.0145 70.2562 30.9978H70.309Z" fill="#7F2D2E"/>
<path d="M66.7709 33.2158C66.5069 33.2158 66.2428 33.2686 65.9788 33.3742C65.0283 33.8495 64.7642 35.2753 65.3451 36.4899C65.9788 37.7044 67.2462 38.2853 68.2495 37.7573C68.7248 37.4932 69.0416 37.0708 69.1472 36.4899C69.2528 35.909 69.1472 35.2753 68.8304 34.6944C68.3551 33.7967 67.563 33.2158 66.7181 33.2158H66.7709Z" fill="#F3B294"/>
<path d="M95.6566 82.0627C95.6566 81.1121 95.6566 80.0032 95.6038 79.1583C95.551 77.8909 95.3925 77.1516 94.1252 76.6763C92.8578 76.201 90.4286 75.937 88.8444 75.9898C87.2074 75.9898 86.4153 76.3067 82.93 77.6797C79.4447 79.0526 73.3719 81.429 70.0978 82.9076C66.8237 84.3862 66.4013 84.8615 66.1901 86.3929C66.0844 87.3434 66.0316 88.7164 66.0844 89.931C72.1045 89.6669 78.0717 88.7692 83.8277 87.0266C87.9467 85.812 91.9072 84.1222 95.7094 82.0627H95.6566Z" fill="#916F6F"/>
<path d="M69.8866 44.8862C71.4708 45.3087 74.3752 46.5761 76.6459 45.1503L77.8605 48.0547C75.0089 50.2726 70.309 49.5333 68.408 47.5266L69.8338 44.939L69.8866 44.8862Z" fill="#7CC2A6"/>
<path d="M90.4286 71.0787H89.8477C89.478 71.1843 89.1084 71.2899 88.7387 71.4483C87.841 71.6596 86.8905 71.8708 85.9928 72.082H85.9399H85.8871C81.1873 73.5606 76.4874 75.0392 71.7348 76.5178L71.5235 76.5707C70.7314 76.8347 69.9393 77.1515 69.7809 78.4717L69.8337 78.8414C70.0449 81.3761 70.2562 83.9109 70.4146 86.3928C70.4674 86.8681 70.8898 87.2377 71.3651 87.1849C71.8404 87.1321 72.21 86.7097 72.1572 86.2344C71.946 83.8581 71.7876 81.4289 71.5763 79.0526C71.5763 78.3661 72.1572 78.3133 72.5269 78.0493C77.1739 76.5707 81.7682 75.1449 86.4152 73.6662C87.3129 73.455 88.2107 73.2438 89.1612 73.0326H89.214H89.2668C89.3196 73.0326 89.3724 72.9798 89.4252 72.9798C89.5837 74.564 89.7421 76.0954 89.9005 77.6796C89.9533 78.1549 90.3758 78.5245 90.851 78.4717C91.3263 78.4189 91.6959 77.9965 91.6431 77.5212C91.4319 75.6201 91.2735 73.6662 91.0623 71.7652L90.5342 71.0259L90.4286 71.0787Z" fill="white"/>
<path d="M72.3157 76.0426C72.1045 75.6729 72.0517 74.6696 72.2629 73.9303C72.4741 73.191 72.8966 72.7685 73.8471 72.4517C74.7448 72.1877 76.1178 72.0292 77.2268 72.2405C78.3357 72.3989 79.1278 72.8741 79.6559 73.5606C80.184 74.2999 80.3952 75.3033 80.5008 76.0954C80.6065 76.8875 80.6593 77.4156 79.8671 77.9437C79.075 78.4717 77.4908 78.947 76.4875 78.8942C75.4313 78.8414 74.9561 78.2605 74.7448 77.7324C74.4808 77.2044 74.4808 76.7819 74.3224 76.5179C74.164 76.201 73.7943 76.0426 73.3718 76.0954C73.0022 76.1482 72.5797 76.4122 72.3685 76.0426H72.3157Z" fill="#F3B294"/>
<path d="M83.2996 72.927C83.7221 72.927 84.4086 72.6102 84.7782 72.5574C85.1479 72.4518 85.2535 72.5574 85.3591 72.8742C85.4647 73.1911 85.5175 73.6663 85.3591 73.9832C85.2535 74.3 84.9367 74.4056 84.7782 74.6169C84.6198 74.8281 84.6198 75.0921 84.7782 75.409C84.9367 75.7258 85.3063 75.9899 86.1512 76.1483C86.9961 76.2539 88.4219 76.2011 89.3197 75.673C90.2174 75.1449 90.6927 74.1944 90.7983 73.2439C90.9039 72.2933 90.6927 71.29 90.2702 70.6563C89.9005 69.9698 89.3197 69.5474 88.4748 69.4417C87.577 69.3361 86.3625 69.5474 85.5175 69.917C84.6198 70.2867 84.1445 70.8147 83.6693 71.2372C83.2468 71.6596 82.8772 71.9765 82.7716 72.2933C82.6659 72.6102 82.8244 72.9798 83.2468 72.9798L83.2996 72.927Z" fill="#F3B294"/>
<path d="M61.0149 76.8875C61.2261 78.2077 61.4902 80.1088 61.7014 82.0099C61.9126 83.9109 62.1239 85.9176 62.2823 87.449C62.3351 87.9243 62.3879 88.3995 62.4407 88.822C62.4935 89.2973 62.4935 89.6141 62.5463 89.8782L61.7014 89.931C61.6486 89.5613 61.6486 89.2445 61.5958 88.8748C61.543 88.5052 61.4902 88.0299 61.4374 87.5018C61.2789 86.0232 61.1205 84.0693 60.8565 82.0627C60.6453 80.1088 60.3812 78.2077 60.17 76.9932C59.7475 74.7224 59.4307 74.564 58.9026 74.2472L58.797 74.1944L58.6914 74.1416C58.1105 73.7719 57.2656 73.2966 55.2061 73.4023C54.15 73.4551 52.777 73.6663 51.3512 73.9303C49.7669 74.2472 48.1299 74.6696 46.8097 75.0921C45.5952 75.4617 44.6446 75.8314 43.9581 76.4123C43.2716 76.9403 42.7964 77.6268 42.4267 78.683C42.0571 79.7391 41.793 81.2177 41.6346 82.6963C41.4762 84.175 41.3706 85.7064 41.3178 86.8681V87.185V87.5018H40.4728V87.185V86.8681C40.5256 85.6536 40.6313 84.1221 40.7897 82.6435C40.9481 81.1121 41.2121 79.6335 41.6346 78.4718C42.0571 77.2572 42.6379 76.4651 43.4829 75.8314C44.275 75.1977 45.2783 74.828 46.5985 74.4056C47.9187 73.9831 49.6085 73.5607 51.1927 73.2438C52.6713 72.9798 54.0443 72.7686 55.1533 72.7158C57.424 72.6101 58.3745 73.191 59.061 73.5607L59.1667 73.6135L59.2723 73.6663C59.9588 74.0887 60.434 74.3528 60.9621 76.9932L61.0149 76.8875Z" fill="#4E8670"/>
<path d="M24.3138 66.0621C22.6239 66.643 21.9374 69.8115 22.5711 73.6664C20.6172 72.7159 18.9274 72.6631 17.9241 73.508C17.8185 73.6136 17.7128 73.7192 17.66 73.8248C17.7656 73.9833 17.8713 74.0889 17.9769 74.2473C21.6206 78.7359 26.5845 82.0628 31.8652 84.3863C32.8686 84.8088 33.9247 85.2312 34.9809 85.6009C35.0865 85.4953 35.1393 85.3368 35.2449 85.2312C36.301 83.6998 37.0403 81.5347 37.3044 79.2112C37.8853 74.4057 36.4067 70.2339 33.9775 69.9171C32.6573 69.7587 31.2843 70.7092 30.1754 72.6103C28.8552 68.4385 26.4261 65.6397 24.525 65.9565C24.4194 65.9565 24.3666 66.0093 24.261 66.0093L24.3138 66.0621Z" fill="#007391"/>
<path d="M24.8946 68.4385C27.4822 72.3462 28.0103 76.2012 28.4855 79.7393C28.644 80.8482 28.8024 81.9572 29.0136 82.9605L28.7496 83.0133C28.5383 81.9572 28.3799 80.901 28.2215 79.7921C27.7462 76.3068 27.2182 72.5046 24.6834 68.5969L24.8946 68.4385Z" fill="#2B8DA7"/>
<path d="M22.624 73.5608C23.4689 74.3529 24.5779 75.7787 25.5812 77.4157C26.5317 78.9471 27.3767 80.6898 27.9575 82.3268L27.7463 82.4324C27.1654 80.7954 26.3205 79.1056 25.37 77.5742C24.3666 75.9371 23.3105 74.5641 22.4656 73.772L22.624 73.6136V73.5608Z" fill="#005267"/>
<path d="M30.3339 72.663C29.753 74.1416 29.4889 75.8842 29.3833 77.6797C29.2777 79.4751 29.3305 81.3762 29.4361 83.1717H29.1721C29.1193 81.429 29.0137 79.5279 29.1193 77.6797C29.2249 75.8314 29.4889 74.0888 30.0698 72.5574L30.281 72.663H30.3339Z" fill="#005267"/>
<path d="M33.9776 72.8214C34.0832 74.9337 34.136 76.9931 34.0304 78.947C33.9248 80.9537 33.6079 82.9076 32.9214 84.8086L32.7102 84.703C33.3439 82.802 33.6607 80.8481 33.7664 78.8942C33.872 76.8875 33.8192 74.8808 33.7135 72.7686H33.9776V72.8214Z" fill="#2B8DA7"/>
<path d="M36.301 74.9338C35.9842 77.3629 35.3505 82.1156 35.0337 84.5447C34.9808 84.9672 34.928 85.3368 34.928 85.6009C37.8324 86.657 40.8425 87.4491 43.9053 88.0828C43.9053 87.8716 43.9581 87.7131 43.9581 87.4491C44.1165 85.3368 44.4334 81.3763 44.539 79.2112C44.6446 77.0461 44.4862 76.7292 43.3772 75.6731C42.2683 74.6697 40.1032 72.9799 38.8358 72.2934C37.5684 71.6069 37.1459 71.9237 36.9347 72.135C36.7235 72.3462 36.6707 72.4518 36.301 74.881V74.9338Z" fill="#7CC2A6"/>
<path d="M43.7997 88.0827V87.7659V87.5019L43.8525 86.6041C44.0109 84.3862 44.275 81.1122 44.3278 79.2639H44.5918C44.4862 81.165 44.275 84.3862 44.1165 86.6041L44.0637 87.5019V87.7659L44.0109 88.0827H43.7469H43.7997Z" fill="#4E8670"/>
<path d="M57.4768 45.1503C57.7937 43.9357 58.2689 41.665 58.3217 40.028C58.3745 38.391 58.0049 37.3876 56.3679 36.3843C54.7836 35.381 51.9848 34.4304 49.6613 34.4304C47.3378 34.4304 45.4895 35.3281 44.2222 36.5427C42.9548 37.7573 42.2683 39.2359 40.7897 45.784C39.3111 52.2793 37.0932 63.7913 35.9314 69.7058C34.7696 75.5674 34.7168 75.7786 34.664 75.937C34.6112 76.0426 34.6112 76.0426 37.0932 77.3628C39.5223 78.683 44.4334 81.3234 48.6052 82.802C52.777 84.3334 56.2622 84.703 58.6914 84.8087C61.1205 84.9143 62.4407 84.8087 63.1272 84.703C63.8137 84.5974 63.8665 84.5974 63.2856 80.0032C62.6519 75.4618 61.3846 66.3261 60.17 60.1476C59.0082 53.9692 57.8993 50.6423 57.3712 48.8996C56.8431 47.157 56.9487 46.9986 57.0015 46.7873C57.0543 46.5761 57.16 46.4177 57.4768 45.1503Z" fill="#7CC2A6"/>
<path d="M44.8558 43.0908C43.6413 51.4872 55.3117 62.2071 57.8465 50.5367C57.6352 49.8502 57.4768 49.3221 57.3712 48.8996C55.0477 49.6389 45.912 54.7084 44.8558 43.1436V43.0908Z" fill="#5EB492"/>
<path d="M53.8331 51.1174C53.9915 51.8567 54.2027 52.4904 54.5196 53.0185C54.8892 53.6522 55.2589 54.0746 55.7341 54.3387C56.1566 54.6027 56.6319 54.6555 57.1071 54.6027C57.2655 54.5499 57.4768 54.4971 57.6352 54.3915L57.7936 54.2859L57.8464 54.4443C59.1666 61.4149 59.1666 69.4416 59.1666 76.5178C59.1666 79.3694 59.1666 82.0626 59.2722 84.4917H59.0082C58.9026 82.0626 58.9026 79.3694 58.9026 76.5178C58.9026 69.5472 58.8498 61.5733 57.5824 54.6555C57.424 54.7083 57.2655 54.7611 57.1071 54.8139C56.5791 54.9196 56.051 54.8139 55.5757 54.5499C55.1004 54.2859 54.6252 53.8106 54.2555 53.1241C53.9915 52.596 53.7275 51.9623 53.569 51.1702L53.8331 51.1174Z" fill="#4E8670"/>
<path d="M45.0142 43.0909C45.0142 44.7279 45.3839 46.2593 46.0704 47.5267C46.8097 48.8469 47.8658 49.9559 49.186 50.6952L49.0804 50.9064C47.7074 50.1143 46.5984 49.0053 45.8591 47.6323C45.1198 46.3121 44.7502 44.7279 44.7502 43.0381H45.0142V43.0909Z" fill="#4E8670"/>
<path d="M48.4996 47.3682C49.7142 45.4672 52.0377 41.7707 53.6219 40.028C55.1533 38.2854 55.8926 38.391 56.5791 40.2392C57.3184 42.0875 58.0049 45.5728 57.9521 47.9491C57.8993 50.3255 57.1072 51.54 55.8398 52.1737C54.6252 52.8074 52.9354 52.8602 51.4568 52.3321C49.9254 51.8041 48.5524 50.6951 47.9187 50.0614C47.2322 49.4277 47.285 49.2693 48.4996 47.3682Z" fill="#F3B294"/>
<path d="M55.3117 38.8135C54.8892 38.8135 54.3084 39.2359 53.6219 40.0809C53.305 40.4505 52.9354 40.873 52.6185 41.3482C53.3578 41.0314 54.0971 40.7673 54.4668 40.7145C55.2589 40.6089 56.051 40.6617 56.7903 40.8202C56.7375 40.6089 56.6847 40.4505 56.5791 40.2921C56.2094 39.3416 55.8398 38.8135 55.3117 38.8135Z" fill="#E57051"/>
<path d="M111.974 37.8628L110.39 52.332H112.872H114.192H116.621L115.037 37.8628H114.192H112.872H111.974Z" fill="#9CDADB"/>
<path d="M110.495 35.7505H116.568V39.1302H110.495V35.7505Z" fill="#9CDADB"/>
<path d="M111.657 35.1697H115.406V36.4899H111.657V35.1697Z" fill="#9CDADB"/>
<path d="M113.241 30.8923C112.608 30.8923 111.921 31.4732 111.552 32.3181C111.076 33.3743 111.287 34.4304 111.921 34.7473C112.238 34.9057 112.66 34.8529 113.03 34.5889C113.4 34.3248 113.769 33.9024 113.981 33.4271C114.192 32.9518 114.298 32.4237 114.192 31.9485C114.139 31.4732 113.875 31.1564 113.558 30.9979C113.453 30.9451 113.347 30.9451 113.189 30.9451L113.241 30.8923Z" fill="#9CDADB"/>
<path d="M113.083 33.1101H113.822V35.7505H113.083V33.1101Z" fill="#9CDADB"/>
<path d="M109.703 31.6317L111.868 33.6383L112.132 33.2159L110.39 31.8957C110.548 31.8957 110.812 31.8957 111.393 31.8957C111.71 31.8957 112.08 31.8957 112.344 31.8957C112.449 31.8957 112.608 31.8957 112.661 31.8957C112.713 31.8957 112.713 31.8957 112.766 31.8957L112.661 31.6317C112.661 31.6317 112.661 31.6317 112.608 31.6317C112.608 31.6317 112.555 31.6317 112.502 31.6317C112.396 31.6317 112.291 31.6317 112.185 31.6317C111.921 31.6317 111.604 31.6317 111.235 31.6317C110.548 31.6317 109.862 31.5789 109.862 31.5789H109.651L109.703 31.6317Z" fill="#9CDADB"/>
<path d="M68.5663 47.5267C68.4607 47.8435 68.4079 48.2132 68.3551 48.5828C68.1967 50.5367 68.9888 52.913 70.309 54.9725C71.6291 57.032 73.4774 58.7747 75.4313 59.4083C75.8009 59.514 76.1706 59.6196 76.5402 59.6196V59.8836C76.1706 59.8308 75.7481 59.778 75.3785 59.6196C73.4246 58.9859 71.5235 57.1904 70.1505 55.1309C68.7776 53.0187 67.9854 50.5895 68.1439 48.5828C68.1967 48.2132 68.2495 47.7907 68.3551 47.4739L68.5663 47.5267Z" fill="white"/>
<path d="M78.0189 47.9492C78.5998 49.4278 78.7054 51.8042 78.4414 54.1277C78.1773 56.504 77.5436 58.7747 76.6459 59.8309L76.4347 59.6725C77.2796 58.6691 77.8605 56.4512 78.1773 54.1277C78.4414 51.857 78.3358 49.4806 77.8077 48.0548L78.0189 47.9492Z" fill="white"/>
<path d="M74.4808 45.8367L74.5864 49.2164C75.9594 53.2826 76.2235 56.3982 76.5403 59.461C76.6987 60.9925 76.8572 62.5239 77.1212 64.1609L76.8572 64.2137C76.5931 62.5767 76.4347 61.0453 76.2763 59.461C75.9594 56.3982 75.6954 53.3354 74.3224 49.2692V49.2164L74.2168 45.7839H74.4808V45.8367Z" fill="#4E8670"/>
<path d="M77.174 59.9363C77.174 60.2532 76.9099 60.5172 76.5931 60.5172C76.2762 60.5172 76.0122 60.2532 76.0122 59.9363C76.0122 59.6195 76.2762 59.3555 76.5931 59.3555C76.9099 59.3555 77.174 59.6195 77.174 59.9363Z" fill="white"/>
<path d="M73.6887 60.2532H79.2334V68.9664H73.6887V60.2532Z" fill="white"/>
<path d="M68.5136 47.3682C69.3057 48.0547 70.309 48.5299 71.3124 48.8468C72.3157 49.1636 73.4246 49.2164 74.4808 49.1108C75.0617 49.058 75.6426 48.8996 76.2234 48.6883C76.8043 48.4771 77.3324 48.2131 77.8077 47.8962L77.9661 48.1075C77.438 48.4243 76.9099 48.7412 76.3291 48.9524C75.7482 49.1636 75.1145 49.322 74.5336 49.3748C73.4246 49.4805 72.3157 49.4277 71.3124 49.1108C70.2562 48.794 69.2529 48.2659 68.4608 47.5794L68.6192 47.3682H68.5136Z" fill="#4E8670"/>
<path d="M83.2997 71.0258L81.821 55.342H82.0851L83.5109 70.973L83.2997 71.0258Z" fill="#4E8670"/>
<path d="M73.1078 72.7686L62.4935 72.4517V72.2405L73.1606 72.5045L73.1078 72.7686Z" fill="#4E8670"/>
<path d="M64.817 72.4517L66.5597 61.1509L66.8237 61.2037L65.0282 72.5045L64.817 72.4517Z" fill="#4E8670"/>
<path d="M39.7336 51.2759C38.5718 56.8735 37.2516 63.5272 36.3539 68.0686L36.037 69.6528C34.8753 75.5145 34.8225 75.7785 34.7697 75.8841C34.7697 75.8841 34.7697 75.8841 37.0932 77.1515C39.5223 78.4717 44.4334 81.112 48.6052 82.5907C50.6647 83.33 52.6186 83.8052 54.3084 84.1221C55.9982 84.4389 57.4768 84.5445 58.6914 84.5973C59.906 84.6501 60.8037 84.6501 61.543 84.6501C62.2295 84.5973 62.7576 84.5445 63.1272 84.5445C63.3913 84.4917 63.5497 84.4917 63.5497 84.0165C63.5497 83.4356 63.4441 82.2738 63.1272 80.0031C62.7576 77.3099 62.1767 73.0325 61.4902 68.7023C61.0149 65.6923 60.5397 62.6823 60.0116 60.1475C59.9588 59.8307 59.906 59.461 59.8004 59.0914C59.7475 58.7217 59.6419 58.4049 59.5891 58.1408L59.8532 58.088C59.906 58.4049 60.0116 58.7745 60.0644 59.0914C60.1172 59.4082 60.17 59.7779 60.2756 60.1475C60.7509 62.6823 61.279 65.6923 61.7542 68.7023C62.4407 73.0325 63.0216 77.3099 63.3913 80.0031C63.7081 82.2738 63.8665 83.4356 63.8137 84.0693C63.7609 84.7558 63.5497 84.8086 63.1272 84.8614C62.7576 84.9142 62.2823 84.967 61.543 84.967C60.8037 85.0198 59.8532 85.0198 58.6914 84.9142C57.4768 84.8614 55.9982 84.7029 54.3084 84.4389C52.6186 84.1221 50.6647 83.6468 48.6052 82.9075C44.4334 81.3761 39.5223 78.7885 37.0932 77.4683C34.5584 76.0953 34.5584 76.0953 34.6112 75.8841C34.664 75.7785 34.7169 75.5673 35.8786 69.7057L36.1955 68.1214C37.0932 63.58 38.4134 56.9263 39.5751 51.3287L39.8392 51.3815L39.7336 51.2759Z" fill="#4E8670"/>
<path d="M106.007 67.0654H111.921V58.7747H106.007V67.0654ZM99.6699 67.0654H105.584V58.7747H99.6699V67.0654Z" fill="#6CC1C2"/>
<path d="M39.7336 51.276C39.6808 51.4344 39.628 51.5929 39.628 51.8041C39.4696 53.8108 41.529 56.8736 44.2222 59.6196C46.9154 62.3656 50.2951 64.7947 52.7242 65.5868C53.1467 65.7452 53.5163 65.7981 53.886 65.8509V66.1149C53.5163 66.0621 53.0939 66.0093 52.6714 65.8509C50.2423 65.0588 46.8098 62.5768 44.1166 59.778C41.3706 56.9792 39.3111 53.8636 39.4696 51.7513C39.4696 51.5401 39.5224 51.3816 39.5752 51.1704L39.7864 51.2232L39.7336 51.276Z" fill="white"/>
<path d="M58.3745 52.4377C58.8497 53.7051 58.4801 55.923 57.688 58.2466C56.6318 61.4678 54.8364 64.9003 53.8859 66.1149L53.6746 65.9564C54.6252 64.7419 56.3678 61.3622 57.4239 58.1937C58.1632 55.923 58.5857 53.7579 58.1104 52.5434L58.3217 52.4377H58.3745Z" fill="white"/>
<path d="M54.3084 66.1148C54.3084 66.2732 54.2556 66.4317 54.1499 66.5373C54.0443 66.6429 53.8859 66.6957 53.7275 66.6957C53.4106 66.6957 53.1466 66.4317 53.1466 66.1148C53.1466 65.798 53.4106 65.5339 53.7275 65.5339C53.8859 65.5339 54.0443 65.5867 54.1499 65.6924C54.2556 65.798 54.3084 65.9564 54.3084 66.1148Z" fill="white"/>
<path d="M50.8231 66.4844H56.3679V75.1448H50.8231V66.4844Z" fill="white"/>
<path d="M95.4453 77.9436L76.7515 88.7163C79.1278 88.2939 81.4513 87.713 83.7749 87.0265C87.8938 85.8119 91.8544 84.1221 95.6565 82.0626C95.6565 81.112 95.6565 80.0031 95.6037 79.1582C95.6037 78.6829 95.5509 78.3133 95.4453 77.9436ZM74.692 89.0332L66.2956 85.6007C66.2428 85.8119 66.19 86.0759 66.1372 86.34C66.0316 87.2905 65.9788 88.6635 66.0316 89.8781C68.936 89.7725 71.8404 89.5084 74.692 89.0332Z" fill="#876767"/>
<path d="M44.4334 77.0989L45.0671 65.27H45.3311L44.6974 77.0989H44.4334Z" fill="#4E8670"/>
<path d="M74.8504 74.8281C75.8009 74.4056 76.8043 74.1416 77.7548 73.8775C78.2301 73.7191 78.7582 73.6135 79.2334 73.4551L79.2862 73.7191C78.811 73.8775 78.2829 74.036 77.8076 74.1416C76.8571 74.4056 75.8538 74.6696 74.9032 75.0921L74.7976 74.8809L74.8504 74.8281Z" fill="#C57A57"/>
<path d="M85.9399 71.9238C86.204 71.7653 86.7321 71.6069 87.3129 71.4485C88.3691 71.1844 89.6893 70.9732 89.8477 70.9204L89.9005 71.1844C89.6893 71.2373 88.4219 71.4485 87.3657 71.7125C86.7849 71.8709 86.3096 72.0294 86.0456 72.135L85.9399 71.9238Z" fill="#C57A57"/>
<path d="M87.3658 71.6069C87.4714 71.871 87.5242 72.135 87.5242 72.4519C87.5242 73.0327 87.3658 73.7192 87.0489 74.3529C86.7321 74.9866 86.2568 75.4619 85.7287 75.7259C85.5175 75.8315 85.3063 75.8843 85.0422 75.8843V75.6203C85.2535 75.6203 85.4119 75.5675 85.6231 75.5147C86.0984 75.3035 86.5208 74.8282 86.8377 74.2473C87.1545 73.6664 87.313 73.0327 87.313 72.4519C87.313 72.1878 87.2601 71.9238 87.1545 71.7125L87.3658 71.6069Z" fill="#C57A57"/>
<path d="M88.8444 71.3428C88.8972 71.3956 88.9501 71.5012 89.0029 71.554C89.3725 72.0821 89.4253 72.927 89.2669 73.7719C89.1085 74.6168 88.7388 75.4089 88.2108 75.937C88.1051 76.0426 87.9995 76.1482 87.8411 76.2539L87.6827 76.0426C87.7883 75.9898 87.8939 75.8842 87.9995 75.7786C88.4748 75.3033 88.8444 74.5112 89.0029 73.7191C89.1613 72.927 89.1085 72.1877 88.7916 71.7124C88.7388 71.6596 88.686 71.554 88.6332 71.5012L88.7916 71.3428H88.8444Z" fill="#C57A57"/>
<path d="M89.9534 70.9731C90.323 71.3956 90.4814 71.9765 90.5342 72.5574C90.5871 73.2967 90.4286 74.0888 90.2174 74.7753L89.9534 74.7225C90.1646 74.0888 90.2702 73.3495 90.2174 72.6102C90.1646 72.0821 90.0062 71.554 89.6893 71.1844L89.9006 71.026L89.9534 70.9731Z" fill="#C57A57"/>
<path d="M75.5897 74.564C76.0122 75.092 76.329 76.0426 76.4346 76.8875C76.4874 77.6268 76.3818 78.3661 75.9593 78.7886L75.8009 78.6301C76.1706 78.2605 76.2762 77.6268 76.2234 76.9403C76.1706 76.0954 75.8537 75.2505 75.4313 74.7224L75.6425 74.564H75.5897Z" fill="#C57A57"/>
<path d="M77.2796 73.9832C77.9133 74.5113 78.1773 75.2506 78.2829 75.9899C78.3885 76.8876 78.2301 77.7854 77.9133 78.5247L77.702 78.419C78.0189 77.7326 78.1773 76.8348 78.0717 75.9899C77.9661 75.3034 77.702 74.6697 77.1212 74.1416L77.2796 73.9304V73.9832Z" fill="#C57A57"/>
<path d="M79.1279 73.6135C79.6031 74.036 79.8672 74.6697 80.0256 75.3562C80.184 76.1483 80.184 76.9932 80.0256 77.6797L79.7615 77.6269C79.92 76.9932 79.92 76.1483 79.7615 75.409C79.6031 74.7753 79.3391 74.1944 78.9166 73.8248L79.075 73.6663L79.1279 73.6135Z" fill="#C57A57"/>
<path d="M74.9032 40.6618C74.956 40.609 75.1144 40.6618 75.3257 40.7146C75.5897 40.7674 75.8537 40.8202 76.2234 40.873C76.593 40.873 76.8571 40.873 77.1211 40.8202C77.3323 40.7674 77.4908 40.7146 77.5436 40.7674C77.5964 40.8202 77.5436 40.9786 77.2795 41.137C77.0155 41.2955 76.6458 41.4011 76.2234 41.4011C75.8009 41.4011 75.4313 41.2426 75.22 41.0842C75.0088 40.9258 74.9032 40.7674 74.956 40.7146L74.9032 40.6618Z" fill="white"/>
<path d="M53.6747 49.6389C53.7275 49.5861 53.8331 49.6917 53.9915 49.7445C54.15 49.8501 54.3084 49.9557 54.5196 50.0086H54.5724C54.7837 50.0614 54.9421 50.0086 55.1005 50.0086C55.2589 50.0086 55.3645 49.9557 55.4173 50.0086C55.4702 50.0614 55.3117 50.5894 54.5196 50.5366C54.4668 50.5366 54.4668 50.5366 54.414 50.5366C54.0444 50.431 53.8331 50.2198 53.7275 50.0086C53.6219 49.7973 53.6219 49.6917 53.6747 49.6389Z" fill="white"/>
<path d="M25.6868 61.0453C25.634 61.1509 25.3172 61.0981 25.2116 61.0981C25.106 61.1509 24.8947 61.3094 24.7891 61.2565C24.6835 61.2037 24.7363 60.8869 24.7363 60.7813C24.6835 60.6757 24.5251 60.4644 24.5779 60.3588C24.6307 60.2532 24.9475 60.306 25.0532 60.306C25.1588 60.2532 25.37 60.0948 25.4756 60.1476C25.5812 60.2004 25.5284 60.5172 25.5284 60.6229C25.5812 60.7285 25.7397 60.9397 25.6868 61.0453Z" fill="white"/>
<path d="M98.2969 64.6891C98.1913 64.7419 97.9272 64.5307 97.8216 64.4779C97.716 64.4251 97.3464 64.5307 97.2936 64.4251C97.2408 64.3195 97.452 64.0554 97.5048 63.9498C97.5576 63.8442 97.452 63.4745 97.5576 63.4217C97.6632 63.3689 97.9272 63.5802 98.0329 63.633C98.1385 63.6858 98.5081 63.5802 98.5609 63.6858C98.6137 63.7914 98.4025 64.0554 98.3497 64.161C98.2969 64.2667 98.4025 64.6363 98.2969 64.6891Z" fill="white"/>
<path d="M96.7127 73.7718C96.6071 73.8774 96.2903 73.719 96.1318 73.719C95.9734 73.719 95.6566 73.8774 95.551 73.7718C95.4453 73.6662 95.6038 73.3493 95.6038 73.1909C95.6038 73.0325 95.4453 72.7157 95.551 72.61C95.6566 72.5044 95.9734 72.6628 96.1318 72.6628C96.2903 72.6628 96.6071 72.5044 96.7127 72.61C96.8183 72.7157 96.6599 73.0325 96.6599 73.1909C96.6599 73.3493 96.8183 73.6662 96.7127 73.7718Z" fill="white"/>
<path d="M87.7354 54.4445C87.6298 54.4973 87.3658 54.2861 87.2602 54.2333C87.1546 54.1804 86.7849 54.2861 86.7321 54.1804C86.6793 54.0748 86.8905 53.8108 86.9433 53.7052C86.9961 53.5996 86.8905 53.2299 86.9961 53.1771C87.1017 53.1243 87.3658 53.3355 87.4714 53.3883C87.577 53.4411 87.9467 53.3355 87.9995 53.4411C88.0523 53.5468 87.8411 53.8108 87.7882 53.9164C87.7354 54.022 87.8411 54.3917 87.7354 54.4445Z" fill="white"/>
<path d="M36.8819 49.4276C36.7763 49.5332 36.301 49.322 36.1426 49.322C35.9842 49.322 35.5089 49.5332 35.4033 49.4276C35.2977 49.322 35.5089 48.8467 35.5089 48.6883C35.5089 48.5299 35.2977 48.0546 35.4033 47.949C35.5089 47.8434 35.9842 48.0546 36.1426 48.0546C36.301 48.0546 36.7763 47.8434 36.8819 47.949C36.9875 48.0546 36.7763 48.5299 36.7763 48.6883C36.7763 48.8467 36.9875 49.322 36.8819 49.4276Z" fill="white"/>
<path d="M38.8886 14.7861C38.8886 16.5816 38.2021 18.2714 36.9347 19.5388C35.6673 20.8062 33.9775 21.4927 32.1821 21.4927C30.3866 21.4927 28.6968 20.8062 27.4294 19.5388C26.162 18.2714 25.4755 16.5816 25.4755 14.7861C25.4755 11.0896 28.4855 8.07959 32.1821 8.07959C35.8786 8.07959 38.8886 11.0896 38.8886 14.7861Z" fill="#F9EAC9"/>
<path d="M14.1748 75.1977C14.386 75.0393 16.0231 76.9932 18.9803 79.4751C20.6173 80.8481 22.5184 82.3267 24.7363 83.7525C24.7891 83.8053 24.8419 83.8053 24.8419 83.8581C27.0598 85.2839 29.1193 86.3929 31.0204 87.2378C32.9214 88.0827 34.2944 88.558 35.509 88.9276C36.6179 89.2445 37.3044 89.4029 37.2516 89.5613C37.2516 89.6669 36.5651 89.7726 35.3506 89.6669C34.136 89.5085 32.499 89.1917 30.5451 88.4524C28.4856 87.7131 26.3205 86.6041 24.0498 85.1255C23.997 85.0727 23.9442 85.0727 23.9442 85.0199C21.6206 83.5413 19.7196 81.9043 18.1354 80.4256C15.2838 77.6797 13.9636 75.4089 14.1748 75.2505V75.1977Z" fill="#0C7997"/>
<path d="M118.945 61.6791C119.314 61.8376 119.209 63.4746 118.205 65.9565C117.202 68.4913 115.354 71.5013 112.555 74.5113C112.449 74.6169 112.344 74.7754 112.185 74.881C109.545 77.627 106.693 79.8449 104.739 81.1651C102.68 82.538 101.254 83.2245 100.99 82.8549C100.726 82.538 101.624 81.2707 103.314 79.4752C105.426 77.2045 107.802 74.9338 109.915 72.7159C110.02 72.6103 110.126 72.5046 110.231 72.3462C112.925 69.4418 114.667 67.0655 116.251 64.8476C117.677 62.8409 118.522 61.4679 118.945 61.6791Z" fill="#A0DBDD"/>
</svg>
