<svg width="126" height="90" viewBox="0 0 126 90" fill="none" xmlns="http://www.w3.org/2000/svg">
<path d="M65.0796 3.51883C59.5087 4.4113 53.9458 5.62393 48.3068 5.61592C43.1401 5.60792 38.0375 4.57138 32.9108 3.93905C27.7841 3.30672 22.4694 3.09461 17.5548 4.68744C13.5047 5.99612 9.87883 8.50943 7.08137 11.7231C4.28792 14.9328 2.31089 18.8268 1.1863 22.9329C-1.06287 31.1452 0.0897304 40.0058 3.01926 48.002C7.82176 61.1088 17.3587 72.3186 29.2009 79.7065C39.6703 86.2379 51.9487 89.8558 64.2872 89.9958C76.6296 90.1359 88.996 86.7902 99.5575 80.4069C110.079 74.0475 118.92 64.4465 122.882 52.8085C124.863 46.9895 125.603 40.7262 124.819 34.627C124.034 28.5279 121.709 22.6088 117.963 17.7342C112.116 10.1263 103.079 5.39181 93.6945 3.41478C84.3096 1.43375 74.5525 2.01005 65.0796 3.52283V3.51883Z" fill="#ABE0E1"/>
<path d="M1.64658 21.396C1.47849 21.9043 1.32641 22.4125 1.18233 22.9288C-1.06684 31.1411 0.0857632 40.0017 3.01529 47.9978C7.81779 61.1047 17.3548 72.3145 29.1969 79.7024C33.139 82.1596 37.3372 84.2047 41.6954 85.8095H88.3117C92.2177 84.3648 95.9917 82.5558 99.5575 80.4027C110.079 74.0434 118.92 64.4424 122.882 52.8043C124.863 46.9853 125.603 40.7221 124.819 34.6229C124.222 29.9845 122.734 25.4501 120.404 21.396H1.64658Z" fill="#F9EAC9"/>
<path d="M22.8816 39.8217H32.3185V35.8596H22.8816V39.8217ZM95.3033 39.1973H104.74V35.2353H95.3033V39.1973ZM4.94427 35.1632H14.3812V31.2012H4.94427V35.1632ZM102.595 32.5259H112.032V28.5638H102.595V32.5259ZM17.5468 32.2777H26.9837V28.3157H17.5468V32.2777ZM86.3266 30.1366H95.7636V26.1746H86.3266V30.1366Z" fill="#FCF6E8"/>
<path d="M35.2601 4.25122V74.7039H53.0173V5.3718C51.4525 5.52789 49.8837 5.61993 48.3069 5.61593C43.9286 5.60793 39.5983 4.86354 35.2601 4.25122Z" fill="#C4E9EA"/>
<path d="M35.2601 22.1885V74.7038H53.0173V23.0249C51.4525 23.141 49.8837 23.209 48.3069 23.209C43.9286 23.205 39.5983 22.6487 35.2601 22.1925V22.1885Z" fill="#F6CFAB"/>
<path d="M1.64655 21.396C1.47847 21.9043 1.32639 22.4125 1.18231 22.9288C0.998215 23.6011 0.838132 24.2735 0.698059 24.9538H122.181C121.657 23.7332 121.065 22.5446 120.404 21.396H1.64655Z" fill="#F3C192"/>
<path d="M108.266 58.7036C108.642 57.7551 108.946 56.7186 109.551 55.9622C110.151 55.2018 111.052 54.7215 111.512 53.805C111.972 52.8886 111.996 51.5399 111.864 50.3472C111.732 49.1546 111.444 48.1181 111.372 46.7574C111.3 45.3967 111.444 43.7118 111.864 42.6312C112.284 41.5507 112.985 41.0784 113.757 40.7342C114.529 40.3901 115.386 40.1699 116.787 40.1779C118.187 40.1859 120.136 40.4141 121.093 40.9063C122.049 41.3986 122.009 42.159 122.049 43.2716C122.089 44.3841 122.209 45.8529 122.217 47.3897C122.225 48.9225 122.121 50.5193 121.881 51.4358C121.641 52.3523 121.265 52.5844 120.328 52.7285C119.392 52.8726 117.899 52.9286 117.135 53.0647C116.37 53.2007 116.33 53.4128 116.386 53.649C116.442 53.8851 116.59 54.1452 117.267 54.5975C117.939 55.0497 119.136 55.69 119.936 56.2303C120.42 56.5585 120.761 56.8426 121.045 57.3549C117.855 64.1344 112.997 70.0935 107.202 74.948C107.214 73.6194 107.278 72.2226 107.302 70.8579C107.358 67.5522 107.178 64.4666 107.31 62.4896C107.442 60.5125 107.89 59.6521 108.266 58.7036Z" fill="#F4C89E"/>
<path d="M93.6825 59.9001C94.7591 55.6259 96.3239 48.7783 97.3844 44.9723C98.445 41.1663 99.0013 40.4019 100.25 39.6535C101.503 38.9052 103.448 38.1768 105.273 38.2648C107.097 38.3529 108.802 39.2573 109.735 39.8176C110.671 40.3819 110.835 40.602 110.783 41.8707C110.731 43.1394 110.459 45.4526 111.192 53.0365C111.628 57.5268 112.412 63.8661 112.872 69.4891C109.018 73.7513 104.468 77.4292 99.5536 80.4028C97.6366 81.5594 95.6635 82.6159 93.6385 83.5724C92.9781 82.736 92.4299 81.7274 92.0416 80.5829C90.861 77.105 91.1372 72.3466 91.5734 69.1129C92.0096 65.8792 92.5979 64.1783 93.6745 59.9001H93.6825Z" fill="#F3C192"/>
<path d="M43.5564 57.3148C43.9526 56.3103 44.2768 55.2177 44.9131 54.4133C45.5495 53.6129 46.502 53.1006 46.9862 52.1361C47.4745 51.1676 47.4985 49.7429 47.3584 48.4822C47.2183 47.2216 46.9142 46.129 46.8381 44.6882C46.7621 43.2515 46.9142 41.4666 47.3584 40.326C47.8026 39.1854 48.543 38.6851 49.3554 38.3209C50.1719 37.9567 51.0763 37.7246 52.5571 37.7326C54.0379 37.7406 56.099 37.9808 57.1075 38.505C58.116 39.0253 58.076 39.8297 58.12 41.0063C58.164 42.1829 58.2921 43.7357 58.3001 45.3566C58.3081 46.9774 58.2 48.6663 57.9439 49.6348C57.6878 50.6033 57.2916 50.8475 56.3031 50.9995C55.3145 51.1516 53.7377 51.2116 52.9253 51.3557C52.1169 51.4998 52.0769 51.7239 52.1369 51.972C52.1969 52.2242 52.353 52.4963 53.0654 52.9766C53.7777 53.4528 55.0424 54.1332 55.8868 54.7015C56.7313 55.2698 57.1555 55.73 57.5997 57.3108C58.044 58.8956 58.5522 61.8572 59.1846 66.1434C59.8169 70.4256 60.5893 76.1566 60.7254 79.0581C60.8614 81.9596 60.3572 82.0317 58.064 82.3318C55.7708 82.632 51.6927 83.1603 48.6911 82.9922C45.6895 82.8241 43.7685 81.9596 42.9681 79.6665C42.1637 77.3733 42.4759 73.6553 42.5359 70.1615C42.5959 66.6677 42.4038 63.406 42.5439 61.3169C42.684 59.2278 43.1562 58.3193 43.5564 57.3148Z" fill="#F0B379"/>
<path d="M76.1174 57.2907C76.5736 56.1421 76.9418 54.8895 77.6702 53.973C78.3985 53.0565 79.4871 52.4722 80.0434 51.3676C80.5997 50.2591 80.6317 48.6302 80.4716 47.1895C80.3115 45.7487 79.9634 44.4961 79.8753 42.8512C79.7873 41.2064 79.9634 39.1653 80.4716 37.8606C80.9799 36.5559 81.8243 35.9836 82.7568 35.5674C83.6893 35.1512 84.7258 34.8871 86.4227 34.851C88.1156 34.815 90.4768 35.0111 91.7175 35.0992C92.9581 35.1872 93.0862 35.1672 93.0622 35.5074C93.0382 35.8476 92.8621 36.5479 92.774 37.0562C92.686 37.5645 92.686 37.8846 92.758 38.9332C92.8301 39.9817 92.9781 41.7586 92.9861 43.6116C92.9941 45.4646 92.8701 47.3976 92.5779 48.5022C92.2858 49.6107 91.8295 49.8909 90.7009 50.067C89.5684 50.2431 87.7634 50.3111 86.8389 50.4712C85.9145 50.6353 85.8664 50.8914 85.9345 51.1795C86.0025 51.4677 86.1826 51.7799 86.999 52.3281C87.8114 52.8724 89.2602 53.6488 90.2247 54.3012C91.1892 54.9535 91.6775 55.4738 92.1857 57.2867C92.694 59.0997 93.2783 62.4894 93.9987 67.388C94.719 72.2865 95.6075 78.8419 95.7596 82.1637C95.7636 82.2877 95.7716 82.4078 95.7756 82.5199C92.642 84.1367 89.3803 85.5054 86.0345 86.61C84.6298 86.698 83.2331 86.7341 81.9964 86.662C78.5626 86.4699 76.3695 85.4814 75.449 82.86C74.5285 80.2387 74.8847 75.9805 74.9527 71.9864C75.0208 67.9923 74.8007 64.2584 74.9608 61.8691C75.1208 59.4799 75.6611 58.4393 76.1174 57.2907Z" fill="#F0B379"/>
<path d="M17.2267 58.0792C18.0791 54.7014 19.3117 49.2946 20.1522 46.2851C20.9886 43.2795 21.4289 42.6752 22.4174 42.0829C23.4059 41.4946 24.9427 40.9143 26.3834 40.9863C27.8242 41.0543 29.1689 41.7707 29.9253 42.4431C30.6817 43.1154 30.8458 43.7477 30.8057 44.7483C30.7657 45.7488 30.5176 47.1215 30.8177 51.888C31.1179 56.6505 31.9703 64.8067 31.5581 69.3771C31.1459 73.9475 29.473 74.936 27.508 76.2127C26.9317 76.5888 26.3274 76.9891 25.7111 77.3652C21.9291 74.6558 18.4313 71.5462 15.3057 68.1044C15.3577 67.1119 15.4537 66.1714 15.5618 65.355C15.906 62.8017 16.3702 61.457 17.2227 58.0792H17.2267Z" fill="#F3C192"/>
<path d="M47.9347 44.6122C48.2789 43.1754 48.8712 40.5381 48.9352 38.6251C48.9992 36.7121 48.535 35.5235 46.678 34.3709C44.8211 33.2183 41.5714 32.0977 38.858 32.0777C36.1445 32.0577 33.9714 33.1342 32.4786 34.551C30.9859 35.9677 30.1774 37.7286 28.4605 45.3326C26.7436 52.9405 24.1263 66.3875 22.4694 74.1356C22.4214 74.3557 22.3774 74.5718 22.3293 74.7799C24.5105 76.5688 26.8077 78.2137 29.2009 79.7065C37.4612 84.8611 46.8501 88.1989 56.5031 89.4475C56.5312 88.8072 56.5031 87.9387 56.4191 86.7781C56.0509 81.7355 54.5461 71.11 52.8132 63.5741C51.0763 56.0421 49.1113 51.5998 48.1708 49.2746C47.2303 46.9494 47.3144 46.7333 47.4064 46.5092C47.4985 46.2851 47.5945 46.0489 47.9347 44.6162V44.6122Z" fill="white"/>
<path d="M48.3189 57.999C48.8432 60.9165 48.9352 63.81 48.6511 66.6555C48.3509 69.6371 47.6385 72.5666 46.57 75.4081L46.2979 75.308C47.3544 72.4906 48.0628 69.5851 48.3589 66.6275C48.6431 63.806 48.551 60.9366 48.0308 58.0511L48.3149 57.999H48.3189Z" fill="#8CB5BF"/>
<path d="M87.9515 65.8633C88.5798 65.6552 89.5844 65.183 90.1366 64.6467C90.6889 64.1104 90.785 63.5141 91.0891 62.9978C91.3933 62.4815 91.9016 62.0533 92.4979 61.7172C93.0942 61.381 93.7705 61.1449 94.2348 61.2129C94.699 61.2809 94.9471 61.6531 95.0752 61.8412C95.2033 62.0293 95.2313 62.0373 95.4954 61.8972C95.7556 61.7572 96.2638 61.469 96.7161 61.437C97.1683 61.405 97.5645 61.6291 97.9607 62.5016C98.3569 63.374 98.7491 64.8988 98.9052 66.0114C99.0613 67.124 98.9772 67.8283 98.597 68.3966C98.2168 68.9649 97.5365 69.3972 96.684 69.7013C95.8316 70.0055 94.8071 70.1776 94.1347 70.2776C93.4624 70.3777 93.1422 70.4017 92.2577 70.7138C91.3733 71.026 89.9205 71.6303 89.1681 71.6463C88.4157 71.6663 88.3637 71.102 87.9315 70.1015C87.4993 69.101 86.6908 67.6562 86.4427 66.8918C86.1946 66.1234 86.5108 66.0314 86.7949 66.0194C87.079 66.0034 87.3312 66.0674 87.9595 65.8633H87.9515Z" fill="#F3B294"/>
<path d="M87.9115 65.7353C88.2516 65.6232 88.7079 65.4311 89.1401 65.191C89.4843 64.9989 89.8084 64.7788 90.0446 64.5507C90.3927 64.2145 90.5528 63.8423 90.7049 63.4861C90.789 63.294 90.869 63.1099 90.9731 62.9298C91.1251 62.6697 91.3292 62.4296 91.5654 62.2134C91.8175 61.9813 92.1136 61.7772 92.4298 61.6011C92.75 61.421 93.0982 61.2649 93.4263 61.1729C93.7265 61.0849 94.0146 61.0488 94.2548 61.0809C94.767 61.1569 95.0352 61.5491 95.1792 61.7572L95.1872 61.7692C95.2313 61.8292 95.2513 61.8613 95.2553 61.8613C95.2753 61.8653 95.3273 61.8372 95.4314 61.7812L95.4794 61.7532C95.7595 61.6011 96.2478 61.337 96.704 61.305C96.9602 61.289 97.2043 61.341 97.4404 61.5251C97.6645 61.7012 97.8766 61.9893 98.0808 62.4496C98.2769 62.8818 98.469 63.4661 98.637 64.0864C98.8131 64.7348 98.9532 65.4231 99.0373 65.9994C99.1173 66.5677 99.1333 67.032 99.0853 67.4322C99.0332 67.8404 98.9092 68.1765 98.7091 68.4767C98.513 68.7689 98.2448 69.025 97.9207 69.2451C97.5805 69.4772 97.1803 69.6693 96.732 69.8294C96.2998 69.9815 95.8236 70.1056 95.3713 70.1976C94.9191 70.2936 94.4949 70.3617 94.1587 70.4097L93.9546 70.4377C93.4183 70.5138 93.0821 70.5618 92.3017 70.8379C92.1417 70.894 91.9416 70.97 91.7254 71.05C90.865 71.3702 89.8004 71.7664 89.1721 71.7824C88.4637 71.8024 88.3037 71.3942 88.0115 70.6538C87.9515 70.5058 87.8874 70.3417 87.8074 70.1576C87.6273 69.7414 87.3872 69.2571 87.1471 68.7729C86.8029 68.0805 86.4627 67.3921 86.3146 66.9319C86.1746 66.4997 86.2026 66.2475 86.3106 66.0955C86.4267 65.9274 86.6148 65.8914 86.7909 65.8834C86.8549 65.8794 86.9189 65.8794 86.987 65.8794C87.2031 65.8834 87.4512 65.8834 87.9195 65.7313L87.9115 65.7353ZM89.2682 65.4231C88.8199 65.6712 88.3477 65.8753 87.9915 65.9914C87.4832 66.1595 87.2111 66.1555 86.975 66.1515C86.9149 66.1515 86.8549 66.1515 86.7949 66.1515C86.6868 66.1555 86.5748 66.1755 86.5227 66.2475C86.4627 66.3356 86.4547 66.5117 86.5628 66.8479C86.7028 67.2881 87.043 67.9644 87.3832 68.6528C87.6273 69.1411 87.8714 69.6333 88.0475 70.0495C88.1236 70.2296 88.1916 70.4017 88.2516 70.5538C88.4998 71.1821 88.6358 71.5263 89.1561 71.5143C89.7364 71.4983 90.781 71.1101 91.6254 70.7979C91.8255 70.7219 92.0176 70.6538 92.2057 70.5858C93.0101 70.3017 93.3543 70.2536 93.9066 70.1736L94.1067 70.1456C94.4429 70.0975 94.8631 70.0295 95.3073 69.9335C95.7475 69.8414 96.2118 69.7214 96.632 69.5733C97.0602 69.4212 97.4404 69.2371 97.7606 69.021C98.0607 68.8169 98.3049 68.5848 98.477 68.3246C98.6571 68.0565 98.7651 67.7603 98.8091 67.3961C98.8572 67.0239 98.8371 66.5797 98.7611 66.0354C98.6811 65.4711 98.541 64.7948 98.3689 64.1545C98.2048 63.5501 98.0167 62.9778 97.8286 62.5616C97.6405 62.1454 97.4564 61.8893 97.2683 61.7412C97.0922 61.6051 96.9121 61.5611 96.716 61.5771C96.3198 61.6051 95.8636 61.8493 95.6035 61.9933L95.5554 62.0213C95.3994 62.1054 95.3073 62.1454 95.2153 62.1334C95.1072 62.1174 95.0512 62.0534 94.9631 61.9253L94.9551 61.9133C94.8351 61.7372 94.6109 61.409 94.2147 61.353C94.0146 61.325 93.7665 61.357 93.5024 61.437C93.1982 61.5251 92.87 61.6732 92.5619 61.8453C92.2617 62.0133 91.9856 62.2094 91.7495 62.4256C91.5293 62.6257 91.3452 62.8418 91.2052 63.0779C91.1051 63.246 91.0291 63.4221 90.953 63.6022C90.789 63.9824 90.6169 64.3786 90.2327 64.7548C89.9765 65.0029 89.6324 65.235 89.2722 65.4391L89.2682 65.4231Z" fill="#C1634B"/>
<path d="M94.1427 63.5259L94.3629 64.7065L93.7585 65.9792L92.9141 66.4954L92.2217 66.3714C93.4704 69.589 94.7831 69.9132 96.1318 69.8732C96.2358 69.8452 96.3399 69.8132 96.4399 69.7811L95.2193 64.7625L94.1427 63.5259Z" fill="#E67051"/>
<path d="M76.6016 53.6648C77.33 55.7859 78.5506 59.82 79.291 62.0612C80.0314 64.2984 80.2916 64.7386 80.6277 64.9587C80.9639 65.1788 81.3761 65.1788 81.6643 65.3509C81.9524 65.523 82.1165 65.8672 82.4927 65.8232C82.8649 65.7831 83.4492 65.3549 84.1776 65.2869C84.906 65.2188 85.7784 65.507 86.2827 65.515C86.7869 65.527 86.923 65.2589 87.2072 65.1508C87.4913 65.0428 87.9235 65.0948 88.4438 66.2434C88.9641 67.392 89.5764 69.6411 89.8565 72.3506C90.1367 75.06 90.0806 78.2296 89.7725 80.6389C89.4683 83.0201 88.916 84.657 87.8275 85.9857C84.6578 87.1303 81.4001 88.0387 78.0904 88.6991C77.9543 88.2508 77.8623 87.6105 77.7502 86.71C77.4901 84.6009 77.1059 81.0471 76.5336 74.9879C75.9653 68.9288 75.2089 60.3603 74.9888 55.966C74.7687 51.5717 75.0848 51.3516 75.361 51.3476C75.6371 51.3396 75.8692 51.5477 76.5976 53.6688L76.6016 53.6648Z" fill="white"/>
<path d="M60.9735 40.7341L60.8334 42.7392C60.8334 42.7352 60.7694 46.9254 60.4972 47.5577C60.4052 47.7298 60.3051 47.8979 60.1851 48.0579C59.6928 48.7223 58.9324 49.2266 57.7118 50.023C56.4951 50.8194 54.8183 51.9079 53.8658 53.0605C52.9133 54.2131 52.6891 55.4338 53.0974 60.5124C53.5056 65.5911 54.5421 74.5237 55.2625 79.8945C55.9829 85.2613 56.3911 87.0622 58.0479 87.9627C59.7048 88.8632 62.6063 88.8632 66.3363 88.8632C70.0662 88.8632 74.6246 88.8632 77.0778 87.1503C79.5311 85.4374 79.8793 82.0116 79.0229 75.5523C78.1664 69.0929 75.2809 60.3403 73.9602 55.2737C72.6395 50.2071 72.8837 48.8263 72.2553 48.5102C71.627 48.194 70.9507 48.202 70.3503 48.158C69.746 48.114 69.2178 48.0219 68.9256 47.7818C68.6895 47.5897 68.6054 47.3015 68.5254 47.0534C68.4814 44.5801 68.3973 40.8942 68.3973 40.8942L60.9775 40.7421L60.9735 40.7341Z" fill="#F3B294"/>
<path d="M62.1181 40.7582C61.6458 40.7782 61.2496 40.8062 60.9655 40.8342L60.8854 41.9908C62.2582 44.232 67.0406 47.5577 68.5174 46.7613C68.4854 44.9924 68.4414 42.9593 68.4134 41.8187C67.8851 41.2384 66.6644 40.9503 65.3398 40.8222L62.1141 40.7542L62.1181 40.7582Z" fill="#E67051"/>
<path d="M80.6157 65.7191C80.6357 65.655 80.6197 65.627 80.5597 65.651C80.5797 65.671 80.5997 65.695 80.6157 65.7191ZM78.0904 88.699C79.4271 88.4309 80.7558 88.1267 82.0765 87.7785C81.7563 87.6665 81.4321 87.4784 81.1 87.2022C79.5231 85.8816 82.5407 73.1869 82.5687 68.0523C82.5687 67.7721 82.4807 66.0192 82.3646 66.0192C82.5287 69.2729 81.0839 76.1445 79.1749 73.9353C77.5941 72.1064 81.5282 66.9717 80.6157 65.7191C80.4996 66.1153 79.0229 67.8962 78.3025 67.2358C75.6011 64.7706 76.3095 57.3747 75.353 54.2771C75.2209 54.5572 75.0888 54.8614 74.9608 55.1896C74.9688 55.4297 74.9808 55.6858 74.9968 55.958C75.2169 60.3523 75.9733 68.9167 76.5416 74.9799C77.1099 81.039 77.4941 84.5969 77.7582 86.702C77.8703 87.6065 77.9583 88.2428 78.0984 88.691L78.0904 88.699ZM84.3777 87.1302C84.6338 87.0542 84.8859 86.9741 85.1381 86.8941C85.8744 85.8816 87.1991 83.8805 87.7914 80.8669C89.0281 76.9129 87.1471 69.8812 87.1911 70.4535C87.8235 78.8619 86.4747 85.0451 84.3777 87.1302Z" fill="#E6F4F8"/>
<path d="M70.0502 48.1141C70.2303 48.1581 70.5184 48.2381 70.6105 48.8384C70.7025 49.4387 70.5985 50.5593 69.3458 52.9166C68.0932 55.2738 65.6919 58.8717 63.3187 61.2049C60.9454 63.5381 58.6082 64.6026 57.1234 65.247C55.6387 65.8873 55.0143 66.1034 54.5581 67.9204C54.1019 69.7373 53.8137 73.1551 53.8858 77.1372C53.9578 81.1152 54.39 85.6536 54.9343 88.0148C55.0544 88.5351 55.1784 88.9513 55.3385 89.2835C58.3041 89.7197 61.2936 89.9598 64.2912 89.9919C69.1737 90.0479 74.0603 89.5556 78.8388 88.5471C78.7467 88.0549 78.6186 87.4826 78.4986 86.8342C78.1704 85.0373 77.9303 82.66 77.6101 79.9947C77.2899 77.3293 76.8857 74.3757 76.5256 70.4977C76.1654 66.6197 75.8492 61.8212 75.8492 58.4034C75.8492 54.9856 76.1694 52.9566 76.1814 51.876C76.1934 50.7954 75.8932 50.6674 75.7291 50.5993C75.561 50.5313 75.525 50.5273 75.497 50.4072C75.469 50.2872 75.449 50.0511 75.3209 49.6388C75.1929 49.2266 74.9567 48.6423 74.6246 48.3622C74.2924 48.078 73.8602 48.102 73.612 48.1781C73.3639 48.2541 73.2959 48.3902 73.2398 48.3622C73.1838 48.3382 73.1318 48.1541 73.0437 48.014C72.9557 47.8779 72.8276 47.7899 72.4394 47.6338C72.0512 47.4817 71.4029 47.2616 71.0027 47.1736C70.5985 47.0855 70.4424 47.1215 70.2343 47.2016C70.0262 47.2816 69.77 47.4057 69.6019 47.5378C69.4299 47.6698 69.3458 47.8099 69.3178 47.8899C69.2898 47.966 69.3178 47.978 69.3938 47.998C69.4699 48.014 69.5979 48.038 69.698 48.05C69.798 48.062 69.8741 48.066 70.0542 48.11L70.0502 48.1141Z" fill="white"/>
<path d="M70.6305 47.1253C70.4664 47.1213 70.3583 47.1574 70.2263 47.2054C70.0182 47.2854 69.762 47.4095 69.5939 47.5416C69.4218 47.6736 69.3378 47.8137 69.3098 47.8937C69.2818 47.9698 69.3098 47.9818 69.3858 48.0018C69.4619 48.0178 69.5899 48.0418 69.69 48.0538C69.79 48.0658 69.8661 48.0698 70.0462 48.1139C70.2263 48.1579 70.5144 48.2379 70.6065 48.8382C70.6985 49.4385 70.5945 50.5591 69.3418 52.9164C68.0892 55.2736 65.6879 58.8715 63.8509 61.1086C62.014 63.3458 57.5357 64.7985 56.5872 65.3428C55.6387 65.8871 55.0103 66.1032 54.0218 68.0162C53.0293 69.9292 54.298 73.1069 53.8337 77.181C53.8257 82.1276 53.7937 86.5219 53.9698 89.0632C56.6832 89.5194 59.4246 89.8076 62.1741 89.9276C65.8 83.6564 72.7476 69.3809 75.3449 54.2771C71.3228 71.7662 66.2642 70.5375 64.6754 68.9967C67.9291 65.4349 70.8746 61.3808 72.3394 54.9734C67.5089 67.54 59.3286 72.7027 59.6207 69.8252C63.919 62.0971 72.3434 51.8558 71.4309 47.2934C71.2708 47.2454 71.1147 47.2014 70.9867 47.1734C70.8346 47.1413 70.7185 47.1253 70.6225 47.1213L70.6305 47.1253Z" fill="#E6F4F8"/>
<path d="M54.0058 89.1072C53.9058 87.9186 53.8337 86.6339 53.7977 85.2211C53.7657 83.8124 53.7737 82.2756 53.8337 80.5707L53.5896 69.6891L53.8818 69.6851L54.1259 80.5787C54.0658 82.2796 54.0578 83.8124 54.0899 85.2171C54.1219 86.6139 54.1939 87.8945 54.298 89.0872L54.0058 89.1112V89.1072Z" fill="#8CB5BF"/>
<path d="M27.2319 51.2196C27.1719 51.4077 27.1319 51.6078 27.1118 51.8159C26.9077 54.1852 29.337 57.7911 32.5267 61.0367C35.7283 64.2984 39.6864 67.184 42.5159 68.1084C42.9921 68.2645 43.4363 68.3646 43.8406 68.4006L43.8165 68.6927C43.3923 68.6567 42.9281 68.5527 42.4278 68.3886C39.5583 67.4481 35.5522 64.5306 32.3226 61.2409C29.0809 57.9391 26.6076 54.2532 26.8237 51.7919C26.8437 51.5598 26.8877 51.3397 26.9558 51.1316L27.2319 51.2196Z" fill="#8CB5BF"/>
<path d="M49.2354 51.1995C49.8237 52.6882 49.3114 55.6218 48.3749 58.6874C47.1103 62.8335 45.0732 67.2438 43.9406 68.6365L43.7165 68.4524C44.8291 67.0797 46.8461 62.7135 48.0988 58.6033C49.0153 55.5897 49.5235 52.7243 48.9632 51.3035L49.2354 51.1995Z" fill="#8CB5BF"/>
<path d="M44.4049 68.7046C44.4049 68.8887 44.3328 69.0648 44.2008 69.1928C44.0727 69.3209 43.8966 69.3969 43.7125 69.3969C43.3283 69.3969 43.0201 69.0848 43.0201 68.7046C43.0201 68.3204 43.3323 68.0122 43.7125 68.0122C43.8966 68.0122 44.0727 68.0842 44.2008 68.2163C44.3288 68.3444 44.4049 68.5245 44.4049 68.7046Z" fill="#FFF6D5"/>
<path d="M40.5629 69.0928H47.0623V79.2541H40.5629V69.0928Z" fill="#F9A56E"/>
<path d="M45.8056 69.8533C46.3339 68.1644 47.0262 66.1714 48.3029 63.2619C49.5796 60.3524 51.4445 56.5184 52.8373 54.4133C54.23 52.3122 55.1465 51.94 56.111 51.904C57.0755 51.868 58.08 52.1641 58.8164 53.3007C59.5487 54.4373 60.013 56.4143 59.8649 57.9791C59.7168 59.544 58.9564 60.6926 57.6958 63.418C56.4351 66.1394 54.6702 70.4376 53.7897 72.5827C52.9093 74.7319 52.9093 74.7319 52.8613 77.2492C52.8132 79.7665 52.7172 84.8051 52.5891 87.4825C52.5651 88.0068 52.5371 88.439 52.5011 88.7992C50.0038 88.3229 47.5345 87.7066 45.1052 86.9542L45.1012 86.8382C44.9812 84.1608 44.7651 79.2382 44.8411 76.0846C44.9171 72.9309 45.2813 71.5382 45.8136 69.8493L45.8056 69.8533Z" fill="#F3B294"/>
<path d="M75.7532 52.4443C74.8327 64.5987 65.6199 75.8005 62.8585 79.1582L62.8505 79.1662L62.6263 78.9821L62.6343 78.9741C65.3838 75.6324 74.5486 64.4866 75.461 52.4243L75.7532 52.4443Z" fill="#8CB5BF"/>
<path d="M61.1055 40.7581C60.9374 41.6706 60.9654 42.6711 60.9894 43.6756C61.0255 45.0363 61.0615 46.405 60.6213 47.6016L60.6133 47.6177C60.5652 47.7057 60.5172 47.7937 60.4612 47.8818C60.4091 47.9658 60.3491 48.0539 60.2891 48.1379C60.0329 48.4821 59.7128 48.7823 59.2966 49.0984C58.8884 49.4106 58.3921 49.7388 57.7798 50.135L57.7318 50.167C56.5231 50.9554 54.8863 52.0239 53.9618 53.1485C53.9418 53.1725 53.9258 53.1966 53.9058 53.2166C53.7537 53.3847 53.6016 53.5688 53.4415 53.7769C53.2814 53.985 53.1133 54.2211 52.9373 54.4892C52.3089 55.4417 51.5805 56.7464 50.8562 58.1631C49.9837 59.868 49.1113 61.729 48.4149 63.3178C47.7786 64.7706 47.2863 65.9952 46.8901 67.0638C46.4939 68.1283 46.1897 69.0488 45.9256 69.8932C45.6615 70.7337 45.4414 71.4981 45.2733 72.4426C45.1052 73.3911 44.9971 74.5197 44.9611 76.0885C44.9251 77.6613 44.9571 79.6823 45.0171 81.6394C45.0772 83.5924 45.1612 85.4934 45.2212 86.8341L45.2252 86.9501L44.9531 86.9621L44.9491 86.8461C44.8891 85.5094 44.805 83.6124 44.745 81.6434C44.685 79.6823 44.6489 77.6613 44.689 76.0805C44.725 74.4916 44.837 73.3511 45.0051 72.3946C45.1732 71.4341 45.3973 70.6616 45.6655 69.8092C45.9296 68.9648 46.2338 68.0443 46.634 66.9637C47.0342 65.8872 47.5264 64.6585 48.1628 63.2058C48.8591 61.6169 49.7356 59.748 50.612 58.0391C51.3444 56.6143 52.0768 55.2977 52.7091 54.3372C52.8852 54.069 53.0573 53.8289 53.2254 53.6088C53.3935 53.3887 53.5496 53.1966 53.7017 53.0325L53.7537 52.9684C54.7062 51.8118 56.363 50.7313 57.5837 49.9309L57.6277 49.8988C58.236 49.5026 58.7283 49.1785 59.1285 48.8743C59.5247 48.5742 59.8288 48.29 60.065 47.9698C60.121 47.8938 60.173 47.8138 60.225 47.7337C60.2731 47.6537 60.3171 47.5776 60.3611 47.4976C60.7813 46.349 60.7453 45.0123 60.7093 43.6796C60.6813 42.6631 60.6573 41.6505 60.8294 40.7061L61.0975 40.7541L61.1055 40.7581Z" fill="#C1634B"/>
<path d="M73.3599 49.1145C74.0523 52.9605 72.2393 59.5719 68.5854 65.427C65.6159 70.1815 61.4257 74.4477 56.3751 76.3287L56.275 76.0565C61.2616 74.1996 65.3998 69.9814 68.3413 65.2749C71.9632 59.4759 73.7601 52.9485 73.0798 49.1665L73.3639 49.1145H73.3599Z" fill="#8CB5BF"/>
<path d="M64.9595 62.2454H71.4589V72.4107H64.9595V62.2454Z" fill="#F9A56E"/>
<path d="M33.231 42.231C31.7983 52.012 45.4414 64.5746 48.3909 50.9155C48.1628 50.1351 47.9667 49.4987 47.8186 48.9825C47.8186 48.9825 47.8186 48.9825 47.8186 48.9785C45.0852 49.8189 34.4477 55.77 33.231 42.235V42.231Z" fill="#D7EEF4"/>
<path d="M33.3791 42.231C33.3551 44.156 33.7993 45.9209 34.6277 47.4337C35.4722 48.9705 36.7168 50.2431 38.2696 51.1436L38.1256 51.3957C36.5247 50.4672 35.244 49.1586 34.3756 47.5737C33.5232 46.0209 33.0669 44.204 33.0909 42.231L33.3831 42.235L33.3791 42.231Z" fill="#8CB5BF"/>
<path d="M37.4692 47.2135C38.87 44.9803 41.6314 40.6981 43.4323 38.641C45.2333 36.5839 46.0737 36.756 46.9102 38.8972C47.7466 41.0383 48.579 45.1524 48.519 47.9178C48.459 50.6833 47.5105 52.1 46.0737 52.8364C44.633 53.5728 42.704 53.6248 40.9431 53.0085C39.1781 52.3922 37.5813 51.0995 36.8009 50.3671C36.0245 49.6307 36.0645 49.4506 37.4652 47.2175L37.4692 47.2135Z" fill="#F3B294"/>
<path d="M45.4334 37.1883C44.9131 37.2003 44.2808 37.6766 43.4363 38.6371C43.0682 39.0573 42.6599 39.5695 42.2357 40.1378C43.0842 39.7937 43.9366 39.4735 44.4088 39.4175C45.3333 39.3094 46.2498 39.3614 47.1423 39.5175C47.0662 39.2934 46.9942 39.0853 46.9182 38.8932C46.4739 37.7566 46.0297 37.1723 45.4374 37.1883H45.4334Z" fill="#E57051"/>
<path d="M43.2762 49.2225C43.3483 49.1785 43.4803 49.2585 43.6484 49.3666C43.8125 49.4707 44.0326 49.6147 44.2608 49.6708C44.2848 49.6748 44.3128 49.6828 44.3368 49.6868C44.5569 49.7308 44.781 49.7068 44.9531 49.6828C45.1252 49.6587 45.2613 49.6347 45.3093 49.6988C45.3453 49.7428 45.1572 50.4071 44.2407 50.2911C44.1967 50.2831 44.1527 50.2751 44.1087 50.2631C43.7005 50.151 43.4403 49.8829 43.3203 49.6628C43.1962 49.4386 43.2082 49.2705 43.2762 49.2305V49.2225Z" fill="white"/>
<path d="M78.2625 87.4264L75.3409 56.7504L75.6331 56.7224L78.5506 87.3984L78.2625 87.4264Z" fill="#8CB5BF"/>
<path d="M32.8989 51.2957C33.5872 55.4018 34.4357 59.556 35.6043 63.6181C36.7729 67.6802 38.2537 71.6462 40.1987 75.3802L39.9425 75.5163C37.9855 71.7623 36.4967 67.7762 35.3241 63.7021C34.1555 59.628 33.2991 55.4618 32.6107 51.3477L32.8989 51.2997V51.2957Z" fill="#8CB5BF"/>
<path d="M70.1822 48.062C70.8586 49.7829 70.9587 52.5924 70.6505 55.2858C70.3343 58.0432 69.5819 60.6846 68.5814 61.9212L68.3573 61.7371C69.3258 60.5445 70.0502 57.9592 70.3623 55.2538C70.6665 52.6004 70.5745 49.8429 69.9141 48.1661L70.1863 48.062H70.1822Z" fill="#8CB5BF"/>
<path d="M59.993 48.086C59.8489 48.5302 59.7568 49.0065 59.7128 49.5027C59.5207 51.7239 60.3051 54.3493 61.6818 56.5984C63.0545 58.8436 65.0076 60.7086 67.1527 61.4089C67.5889 61.553 68.0331 61.6451 68.4814 61.6851L68.4574 61.9772C67.9851 61.9372 67.5209 61.8372 67.0606 61.6891C64.8475 60.9647 62.8384 59.0517 61.4337 56.7545C60.029 54.4573 59.2246 51.7639 59.4247 49.4827C59.4687 48.9665 59.5647 48.4662 59.7208 48.002L59.997 48.09L59.993 48.086Z" fill="#8CB5BF"/>
<path d="M68.8015 61.8611C68.8015 62.0452 68.7295 62.2212 68.5974 62.3493C68.4694 62.4774 68.2893 62.5534 68.1092 62.5534C67.725 62.5534 67.4168 62.2413 67.4168 61.8611C67.4168 61.4769 67.729 61.1687 68.1092 61.1687C68.2933 61.1687 68.4694 61.2407 68.5974 61.3728C68.7255 61.5009 68.8015 61.681 68.8015 61.8611Z" fill="#FFF6D5"/>
<path d="M56.6953 65.1389L58.4762 61.3169L58.7403 61.437L56.9594 65.2589L56.6953 65.1389Z" fill="#C57A57"/>
<path d="M53.0653 74.5878C53.0373 74.5998 52.9773 74.6078 52.9453 74.6038L53.0173 74.6959L53.0653 74.5878ZM52.9453 74.6038C52.9373 74.6038 52.9293 74.5998 52.9293 74.5998L52.8852 74.6238C52.8692 74.6358 52.8572 74.6398 52.8532 74.6398C52.8172 74.5678 52.7572 74.4677 52.6811 74.3517C52.2889 73.7714 51.3805 72.7669 50.0438 72.4387L50.1118 72.1545C51.5365 72.5027 52.505 73.5713 52.9213 74.1876C53.0093 74.3197 53.0733 74.4277 53.1134 74.5078C53.1854 74.6518 53.1814 74.7639 53.1174 74.8159C53.0693 74.8519 53.0173 74.8599 52.9613 74.8359L53.0213 74.6959L52.9493 74.6038H52.9453ZM52.9293 74.5998C52.9293 74.5958 52.9293 74.5958 52.9333 74.5918C52.9653 74.5678 52.9173 74.5998 52.8812 74.6238L52.9253 74.5998H52.9293Z" fill="#C57A57"/>
<path d="M82.5007 66.0233C82.4766 67.352 82.4166 69.0449 82.1085 70.6337C81.8003 72.2385 81.236 73.7353 80.2115 74.6478L80.0314 74.4477C81.0079 73.5792 81.5442 72.1345 81.8443 70.5817C82.1485 69.0128 82.2085 67.332 82.2325 66.0193L82.5007 66.0233Z" fill="#8CB5BF"/>
<path d="M80.7278 65.4951C80.4476 66.7197 79.4631 67.16 78.4826 67.5962L78.3225 67.6682L78.2104 67.4241L78.3705 67.3521C79.291 66.9398 80.2115 66.5276 80.4636 65.4351L80.7238 65.4951H80.7278Z" fill="#8CB5BF"/>
<path d="M86.4427 66.4756C87.003 67.6242 87.5713 72.4227 87.4472 76.9971C87.3592 80.1947 86.939 83.2883 85.9424 84.9692L85.7103 84.8331C86.6788 83.1923 87.095 80.1467 87.1791 76.9891C87.3032 72.4547 86.7469 67.7162 86.2026 66.5916L86.4427 66.4756Z" fill="#8CB5BF"/>
<path d="M95.2353 61.9172C95.9077 62.5616 96.0918 63.442 95.9757 64.0584C95.9277 64.3225 95.8236 64.5426 95.6795 64.6827C95.5195 64.8388 95.3114 64.8988 95.0792 64.8187C94.8831 64.7547 94.671 64.5866 94.4469 64.2905C94.4389 64.6787 94.3348 65.0789 94.1628 65.4351C94.0307 65.7152 93.8546 65.9673 93.6505 66.1674C93.4424 66.3716 93.2023 66.5196 92.9461 66.5797C92.5539 66.6757 92.1337 66.5717 91.7295 66.1674L91.9176 65.9794C92.2458 66.3075 92.5779 66.3916 92.8821 66.3195C93.0902 66.2715 93.2863 66.1474 93.4624 65.9753C93.6425 65.7993 93.7986 65.5711 93.9186 65.323C94.1628 64.8187 94.2548 64.2184 94.1067 63.7382C94.0547 63.6341 93.9987 63.5221 93.9466 63.402L94.1828 63.2739C94.2548 63.386 94.3108 63.5061 94.3549 63.6301C94.651 64.2104 94.9312 64.4906 95.1593 64.5666C95.2873 64.6106 95.4034 64.5746 95.4915 64.4906C95.5955 64.3905 95.6715 64.2224 95.7116 64.0103C95.8116 63.466 95.6475 62.6856 95.0472 62.1133L95.2313 61.9212L95.2353 61.9172Z" fill="#C1634B"/>
<path d="M93.9667 65.6992C94.0027 65.8393 94.0427 66.0234 94.0867 66.2355C94.3509 67.4681 94.8151 69.6333 96.0237 69.5732L96.0358 69.8414C94.603 69.9134 94.1068 67.6042 93.8266 66.2915C93.7826 66.0874 93.7466 65.9113 93.7065 65.7673L93.9667 65.6992Z" fill="#C1634B"/>
<path d="M97.7086 62.8976C96.9722 64.0743 95.7356 64.7866 94.619 65.427C94.3789 65.567 94.1427 65.7031 93.9066 65.8432L93.7665 65.6151C93.9867 65.479 94.2348 65.3389 94.4829 65.1948C95.5715 64.5705 96.7801 63.8741 97.4805 62.7576L97.7086 62.8976Z" fill="#C1634B"/>
<path d="M94.1307 67.1118C94.8671 67.0918 95.6235 66.8517 96.2919 66.4595C96.9602 66.0672 97.5365 65.527 97.9007 64.9106L98.1328 65.0467C97.7446 65.7071 97.1363 66.2794 96.4279 66.6916C95.7236 67.1038 94.9191 67.3559 94.1387 67.3799L94.1307 67.1118Z" fill="#C1634B"/>
<path d="M94.727 68.5487C95.3554 68.7328 96.1638 68.6247 96.8642 68.3045C97.5245 68.0044 98.0808 67.5201 98.3009 66.9238L98.553 67.0159C98.3089 67.6802 97.6926 68.2205 96.9762 68.5487C96.2198 68.8929 95.3434 69.0129 94.651 68.8088L94.727 68.5527V68.5487Z" fill="#C1634B"/>
<path d="M5.56064 53.8969C6.12894 53.3567 6.77728 52.8804 7.14947 52.14C7.63772 51.1715 7.66174 49.7468 7.52166 48.4861C7.38159 47.2255 7.07743 46.1329 7.00139 44.6922C6.92535 43.2554 7.07743 41.4705 7.52166 40.3299C7.9659 39.1893 8.70628 38.689 9.5187 38.3248C10.3351 37.9606 11.2396 37.7285 12.7204 37.7365C14.2011 37.7445 16.2622 37.9847 17.2707 38.5089C18.2793 39.0292 18.2392 39.8336 18.2833 41.0102C18.3273 42.1868 18.4554 43.7397 18.4634 45.3605C18.4714 46.9813 18.3633 48.6702 18.1072 49.6387C17.851 50.6072 17.4548 50.8514 16.4663 51.0034C15.4778 51.1555 13.901 51.2155 13.0886 51.3596C12.2801 51.5037 12.2401 51.7278 12.3002 51.9759C12.3602 52.2281 12.5163 52.5002 13.2286 52.9805C13.941 53.4567 15.2057 54.1371 16.0501 54.7054C16.8945 55.2737 17.3188 55.7339 17.763 57.3147C18.2072 58.8995 18.7155 61.8611 19.3478 66.1473C19.66 68.2644 20.0082 70.7377 20.2923 73.0469C14.2252 67.6561 9.15451 61.1487 5.55664 53.9009L5.56064 53.8969Z" fill="#F0B379"/>
<path d="M70.5104 22.2844C71.8752 22.6566 73.3319 22.8407 73.6161 25.4101L73.6081 33.1621L68.3893 24.7817L70.5104 22.2844Z" fill="#7F3300"/>
<path d="M66.3643 20.8077C66.1001 20.8037 65.792 20.8357 65.3837 20.9118C64.2992 21.1159 62.5022 21.6361 60.7894 22.6647C59.0765 23.6932 57.4516 25.23 56.5672 26.6387C55.6827 28.0435 55.5426 29.3201 55.9268 31.5853C56.311 33.8505 57.2155 37.1082 58.7803 39.5695C60.3451 42.0308 62.5743 43.6996 64.9275 44.2959C67.2807 44.8922 69.762 44.42 71.4909 43.3875C73.2158 42.3549 74.1883 40.7661 74.4845 38.9211C74.7806 37.0762 74.4004 34.9751 73.6681 32.1256C72.9357 29.2761 71.8471 25.6742 70.7145 23.6852C69.5819 21.6962 68.3973 21.32 67.6209 21.0758C67.1367 20.9238 66.8085 20.8197 66.3643 20.8157V20.8077Z" fill="#F3B294"/>
<path d="M65.5799 20.8759C65.5158 20.8879 65.4518 20.8959 65.3837 20.9119C64.2992 21.116 62.5022 21.6362 60.7894 22.6648C59.0765 23.6933 57.4516 25.2301 56.5672 26.6389C55.6827 28.0436 55.5426 29.3203 55.9268 31.5854C56.271 33.6305 57.0434 36.488 58.3441 38.8332C59.4567 37.9567 60.3731 36.6561 59.7168 32.0137L62.2461 29.7805L61.5097 34.3389C65.6159 32.718 70.3183 29.8285 71.1027 24.4417C70.9707 24.1696 70.8426 23.9174 70.7105 23.6853C69.5779 21.6963 68.3933 21.3201 67.6169 21.072C67.3488 20.9879 67.1287 20.9199 66.9085 20.8719C66.6324 20.8518 66.3483 20.8358 66.0601 20.8198C65.916 20.8318 65.7599 20.8518 65.5799 20.8799V20.8759Z" fill="#E67051"/>
<path d="M60.3371 30.2968L62.8665 28.0636L62.1301 32.622C66.9006 30.741 72.4835 27.1391 71.7751 19.8954C66.6204 18.1425 48.7351 18.3626 53.3255 28.8961C50.7562 29.3963 52.6251 35.5035 58.084 37.7607C59.5007 36.6881 61.1616 36.1358 60.3371 30.2968Z" fill="#7F2D2E"/>
<path d="M56.7112 33.5504C56.3951 33.5984 56.1069 33.7225 55.8588 33.9066C54.8463 34.6669 54.7982 36.3158 55.7507 37.5885C56.7032 38.8611 58.3001 39.2773 59.3126 38.517C59.8008 38.1528 60.085 37.5605 60.105 36.8681C60.125 36.1797 59.8809 35.4474 59.4206 34.835C58.7283 33.9106 57.6597 33.4063 56.7072 33.5544L56.7112 33.5504Z" fill="#F3B294"/>
<path d="M70.4544 40.1059C70.3704 40.1019 70.2303 40.1819 70.0342 40.2619C69.77 40.37 69.4699 40.454 69.0417 40.5181C69.0377 40.5181 69.0337 40.5181 69.0257 40.5181C68.5974 40.5661 68.2693 40.5581 67.9771 40.5341C67.709 40.5141 67.5169 40.4821 67.4768 40.5581C67.4368 40.6261 67.5609 40.7982 67.857 40.9463C68.1572 41.0944 68.5974 41.1864 69.1017 41.1224C69.1057 41.1224 69.1137 41.1224 69.1177 41.1184C69.626 41.0584 70.0262 40.8462 70.2703 40.6101C70.5104 40.374 70.5585 40.1699 70.4984 40.1219C70.4864 40.1099 70.4704 40.1059 70.4504 40.1059H70.4544Z" fill="white"/>
<path d="M99.2093 4.91154V14.7006H109.811V10.1142C106.561 7.9051 102.963 6.1722 99.2093 4.91154ZM76.6096 2.25016C73.0637 2.43425 69.5179 2.83446 66.0081 3.37074V14.7006H76.6096V2.25016ZM82.6087 2.16211V14.7006H93.2102V3.30671C89.7164 2.60234 86.1706 2.25016 82.6087 2.16211Z" fill="#E7F5F6"/>
<path d="M12.1601 7.27663C10.2751 8.50927 8.55821 10.0141 7.08144 11.7149C6.26501 12.6554 5.51662 13.652 4.84027 14.6965H12.1641V7.27263L12.1601 7.27663ZM26.1234 3.46265C23.4219 3.46265 20.7405 3.74279 18.1592 4.49518V14.7005H28.7607V3.54669C27.8803 3.49466 26.9998 3.46265 26.1234 3.46265Z" fill="#E7F5F6"/>
<path d="M105.024 70.7418C104.94 70.8859 104.472 70.7899 104.312 70.8339C104.152 70.8779 103.792 71.1941 103.652 71.11C103.508 71.026 103.604 70.5577 103.56 70.3977C103.516 70.2376 103.199 69.8774 103.283 69.7373C103.368 69.5932 103.836 69.6893 103.996 69.6453C104.156 69.6012 104.516 69.2851 104.656 69.3691C104.8 69.4532 104.704 69.9214 104.748 70.0815C104.792 70.2416 105.108 70.6018 105.024 70.7418Z" fill="white"/>
<path d="M107.542 63.2819C107.466 63.3579 107.182 63.2178 107.074 63.2178C106.965 63.2178 106.681 63.3579 106.605 63.2819C106.529 63.2058 106.669 62.9217 106.669 62.8136C106.669 62.7056 106.529 62.4214 106.605 62.3454C106.681 62.2693 106.965 62.4094 107.074 62.4094C107.182 62.4094 107.466 62.2693 107.542 62.3454C107.618 62.4214 107.478 62.7056 107.478 62.8136C107.478 62.9217 107.618 63.2058 107.542 63.2819Z" fill="white"/>
<path d="M84.1416 60.8647C84.1055 60.9247 83.9094 60.8847 83.8454 60.9007C83.7774 60.9167 83.6293 61.0528 83.5693 61.0168C83.5092 60.9808 83.5492 60.7847 83.5332 60.7206C83.5172 60.6526 83.3812 60.5045 83.4172 60.4445C83.4532 60.3845 83.6493 60.4245 83.7133 60.4085C83.7814 60.3925 83.9294 60.2564 83.9895 60.2924C84.0495 60.3284 84.0095 60.5245 84.0255 60.5886C84.0415 60.6566 84.1776 60.8047 84.1416 60.8647Z" fill="white"/>
<path d="M15.982 59.4919C15.906 59.5679 15.6259 59.4278 15.5178 59.4278C15.4097 59.4278 15.1296 59.5679 15.0536 59.4919C14.9775 59.4158 15.1176 59.1357 15.1176 59.0276C15.1176 58.9196 14.9775 58.6394 15.0536 58.5634C15.1296 58.4873 15.4097 58.6274 15.5178 58.6274C15.6259 58.6274 15.906 58.4873 15.982 58.5634C16.0581 58.6394 15.918 58.9196 15.918 59.0276C15.918 59.1357 16.0581 59.4158 15.982 59.4919Z" fill="white"/>
<path d="M20.4484 61.2648C20.4043 61.3408 20.1642 61.2888 20.0802 61.3128C19.9961 61.3368 19.812 61.5009 19.736 61.4569C19.66 61.4128 19.712 61.1727 19.688 61.0887C19.664 61.0046 19.4999 60.8205 19.5439 60.7445C19.5879 60.6724 19.828 60.7205 19.9121 60.6965C19.9961 60.6724 20.1802 60.5084 20.2563 60.5524C20.3323 60.5964 20.2803 60.8405 20.3043 60.9206C20.3283 61.0046 20.4924 61.1887 20.4484 61.2648Z" fill="white"/>
<path d="M116.334 58.7355C116.258 58.8116 115.978 58.6715 115.87 58.6715C115.762 58.6715 115.482 58.8116 115.406 58.7355C115.33 58.6595 115.47 58.3793 115.47 58.2713C115.47 58.1632 115.33 57.8831 115.406 57.807C115.482 57.731 115.762 57.8711 115.87 57.8711C115.978 57.8711 116.258 57.731 116.334 57.807C116.41 57.8831 116.27 58.1632 116.27 58.2713C116.27 58.3793 116.41 58.6595 116.334 58.7355Z" fill="white"/>
<path d="M23.1978 54.5774C23.1137 54.7215 22.6455 54.6255 22.4894 54.6695C22.3293 54.7135 21.9731 55.0297 21.829 54.9456C21.685 54.8616 21.781 54.3933 21.737 54.2373C21.693 54.0772 21.3768 53.721 21.4609 53.5769C21.5449 53.4328 22.0131 53.5289 22.1692 53.4849C22.3293 53.4408 22.6855 53.1247 22.8296 53.2087C22.9736 53.2928 22.8776 53.761 22.9216 53.9171C22.9656 54.0772 23.2818 54.4334 23.1978 54.5774Z" fill="white"/>
<path d="M3.71963 57.3148C4.18387 57.1547 5.23642 59.2879 7.15742 62.4935C9.13445 65.7912 11.8559 69.8854 15.8339 74.0235C16.3862 74.5998 16.9425 75.1561 17.5028 75.6884C21.2448 79.2663 24.8106 81.7796 27.6361 83.6365C30.3815 85.4455 32.1584 86.482 31.9903 86.9022C31.8423 87.2704 29.7572 86.9623 26.5835 85.5976C23.3779 84.2168 19.2717 81.8276 15.2336 78.1017C14.6213 77.5374 14.021 76.9491 13.4287 76.3287C9.18247 71.9104 6.53309 67.236 5.04432 63.5341C3.57555 59.8762 3.31942 57.4469 3.71963 57.3108V57.3148Z" fill="#F0B379"/>
<path d="M117.415 68.7646C117.703 68.9007 117.399 70.5055 116.062 72.7747C114.665 75.1479 112.452 77.7213 109.247 80.2866C109.219 80.3106 109.187 80.3346 109.159 80.3586C106.141 82.7719 102.911 84.6969 100.75 85.8575C98.497 87.0661 97.0082 87.6664 96.8201 87.3823C96.624 87.0901 97.7686 85.9616 99.7736 84.3727C101.775 82.7879 104.628 80.7749 107.586 78.3976L107.67 78.3296C110.823 75.7763 112.856 73.7952 114.625 71.7502C116.214 69.9132 117.083 68.6085 117.411 68.7646H117.415Z" fill="#F3C192"/>
<path d="M41.3032 0.80934C41.4273 0.629246 41.9636 0.793332 42.836 1.05347C43.7245 1.3176 44.9131 1.66178 46.4139 1.83788C47.9107 2.01397 49.5275 2.00596 51.4085 1.80586L51.4405 1.80186C54.1339 1.51371 56.8433 0.841357 58.6202 0.449152C60.4932 0.0369379 61.6978 -0.155162 61.8139 0.148996C61.922 0.429142 60.9214 1.14952 59.1325 1.96594C57.3756 2.76636 54.7222 3.70685 51.6926 4.05103L51.6606 4.05503C49.6115 4.28315 47.7266 4.16709 46.0657 3.76688C42.5879 2.92644 41.1231 1.07748 41.3072 0.805338L41.3032 0.80934Z" fill="#ABE0E1"/>
</svg>
