<svg width="37" height="25" viewBox="0 0 37 25" fill="none" xmlns="http://www.w3.org/2000/svg">
<path fill-rule="evenodd" clip-rule="evenodd" d="M28.4657 9.90263C28.4732 10.2013 28.6037 10.6128 28.674 10.8512C28.935 11.7346 29.1006 12.5954 29.4143 13.5791L30.4884 17.1276H26.5158C26.5233 16.7687 27.3364 14.1237 27.497 13.5565L28.2749 10.2891C28.3578 9.95282 28.2524 10.0607 28.4682 9.90263H28.4657ZM28.3753 4.71793C28.694 4.4996 31.8586 1.26983 32.4558 0.672556C32.6641 0.464264 32.9352 0.306163 33.0155 0.00501907H23.695L28.3728 4.71793H28.3753ZM11.2001 4.12317C11.8576 6.94389 12.5427 8.99167 13.2805 11.6518L14.0183 14.1638H8.5274C8.816 12.9266 9.54377 10.5677 9.93023 9.21L10.8663 5.37794C10.914 5.16212 11.0746 4.31389 11.1976 4.12066L11.2001 4.12317ZM0.00250954 25H5.85475L7.66161 18.282H14.8866C14.9066 18.5103 15.0397 18.9169 15.1124 19.1402C15.1952 19.3962 15.2755 19.6723 15.3609 19.9759C15.5315 20.5782 15.6746 21.0701 15.8402 21.6623L16.8365 25H24.5658C24.9398 23.3939 25.4919 21.6924 25.8658 20.0888H31.0681C31.1835 20.3298 31.3441 21.0149 31.4294 21.316L32.5135 25H36.9931L35.5953 20.4753C35.3443 19.7099 35.1285 19.0047 34.8725 18.2368L33.4471 13.7397C33.2087 13.027 32.9502 12.234 32.7244 11.4987C32.491 10.7408 32.2526 10.0005 32.0192 9.24011L31.2864 7.00913H25.7955C25.7579 7.46085 25.4592 8.21371 25.3162 8.69554L21.6774 20.4452C21.449 20.2771 21.3486 19.6446 21.2181 19.2431C21.0726 18.7939 20.9521 18.41 20.8191 17.9783C20.0738 15.5441 19.0725 12.6782 18.3949 10.2891C18.149 9.41829 17.8528 8.65037 17.5994 7.75949C17.1577 6.20608 16.3873 4.13572 15.9682 2.59988C15.8251 2.0779 15.2028 0.361373 15.1727 0H7.6591L6.22365 4.6326C6.04798 5.1847 5.92501 5.68159 5.7368 6.24122C5.38797 7.27766 5.09938 8.32162 4.77816 9.32795C4.60751 9.86248 4.48956 10.3368 4.30887 10.8813C3.18962 14.2893 2.00512 18.3849 0.948605 21.8254C0.828147 22.2194 0.0276049 24.6612 0 24.995L0.00250954 25Z" fill="white"/>
</svg>
