<svg width="107" height="90" viewBox="0 0 107 90" fill="none" xmlns="http://www.w3.org/2000/svg">
<path d="M26.1097 10.1476C18.9143 12.0658 12.828 17.0772 8.41141 23.0733C3.85583 29.2596 0.867525 36.6401 0.160666 44.2888C-0.546192 51.9375 1.07958 59.8348 5.03311 66.4208C10.337 75.2565 19.5554 81.3209 29.4611 84.1702C39.3645 87.0172 49.9283 86.8758 60.1144 85.3134C69.2012 83.9192 78.2344 81.3599 86.0829 76.5727C93.9315 71.7832 100.542 64.6025 103.464 55.8837C105.322 50.3483 105.641 44.2864 104.244 38.6169C102.848 32.9474 99.7204 27.6972 95.3135 23.8679C90.0803 19.3221 83.3067 16.9212 76.5135 15.5416C69.7204 14.1645 62.7712 13.716 55.9415 12.5338C50.9813 11.6759 46.0894 10.4303 41.1072 9.72102C36.1227 9.01173 30.9797 8.85086 26.1145 10.1476H26.1097Z" fill="#E7F5F6"/>
<path d="M29.2418 79.8827C29.2418 81.3257 29.0102 82.7248 28.5837 83.9094C26.1292 83.1537 23.7258 82.2007 21.4176 81.0551C21.3835 80.6749 21.3664 80.2824 21.3664 79.8851C21.3664 75.8658 23.1287 72.6094 25.3029 72.6094C26.3461 72.6094 27.3479 73.3747 28.0864 74.7397C28.825 76.1047 29.2393 77.9547 29.2393 79.8851L29.2418 79.8827Z" fill="#6E4C8D"/>
<path d="M42.1066 64.0295H92.023L83.3042 69.4577H33.3903L42.1066 64.0295Z" fill="#EA9258"/>
<path d="M33.5292 9.19214H92.023V64.0297H33.5292V9.19214Z" fill="#F9A56E"/>
<path d="M37.9849 13.3674H87.5673V59.8543H37.9849V13.3674Z" fill="#B4E3E4"/>
<path d="M55.4126 20.921C55.4174 21.4718 55.3004 22.2567 55.142 22.9197C54.9836 23.5827 54.7837 24.1213 54.8032 24.5942C54.8203 25.0695 55.0543 25.479 55.5296 25.7617C56.0049 26.0445 56.7215 26.2029 57.5185 26.1956C58.3156 26.1907 59.193 26.0201 59.8536 25.7081C60.5141 25.3961 60.9602 24.9379 61.0894 24.4577C61.2186 23.9775 61.0309 23.473 60.9187 22.7247C60.8066 21.9739 60.7725 20.9795 60.2801 20.4286C59.7878 19.8777 58.8396 19.7729 57.9085 19.7315C56.9774 19.6901 56.0634 19.7144 55.6709 19.8826C55.2785 20.0532 55.4077 20.3701 55.4126 20.9185V20.921Z" fill="#D0CDC0"/>
<path d="M44.934 30.9023C45.597 29.5349 46.8889 27.3973 48.5219 26.3589C50.155 25.3181 52.1269 25.3766 54.6375 25.3864C57.148 25.3937 60.1973 25.3523 62.3837 25.6959C64.5701 26.0396 65.896 26.7684 66.8491 28.3186C67.8021 29.8688 68.3822 32.238 69.4303 34.305C70.4784 36.3695 71.9945 38.1293 72.6282 39.5674C73.262 41.0055 73.0134 42.1194 72.6112 42.9457C72.209 43.772 71.6533 44.3107 70.8708 44.8274C70.0884 45.3442 69.0769 45.8414 66.3177 46.0071C63.5585 46.1729 59.0517 46.0071 55.0494 45.1028C51.0471 44.201 47.5518 42.5582 45.8286 40.4961C44.1053 38.434 44.154 35.9478 44.1955 34.4074C44.2369 32.8669 44.271 32.2697 44.934 30.9023Z" fill="#4EB7BA"/>
<path d="M54.0964 25.4328C54.1451 25.2598 54.7935 22.8735 54.7935 22.8735C56.0853 23.7851 59.0858 24.0069 61.2308 22.9978L61.4794 25.8326C59.8195 26.8319 56.5582 27.2 54.0964 25.4353V25.4328Z" fill="#50BDC0"/>
<path d="M59.488 40.4326C58.4253 40.4326 57.4381 40.4521 56.6045 40.496C53.2652 40.6715 52.3609 41.2419 51.3713 42.3948C50.3817 43.5477 49.3019 45.2807 48.8583 47.9643C48.4122 50.648 48.5999 54.2797 48.7413 56.5636C48.8485 58.3088 48.929 59.2668 49.3141 59.8517H75.4825C75.7189 59.3106 75.6482 58.4551 75.5142 57.0779C75.1973 53.8093 74.5416 47.5987 73.8153 44.3886C73.0889 41.1785 72.2919 40.9664 69.0062 40.7519C66.5419 40.5911 62.6762 40.4278 59.488 40.4302V40.4326Z" fill="#8F6CB0"/>
<path d="M69.4547 39.2653C69.4547 39.7187 69.3036 40.1501 69.0379 40.4718C68.7698 40.7911 68.4091 40.9715 68.0313 40.9715C67.244 40.9715 66.6078 40.2086 66.6078 39.2677C66.6078 38.3269 67.244 37.564 68.0313 37.564C68.4091 37.564 68.7698 37.7443 69.0379 38.0636C69.306 38.3829 69.4547 38.8168 69.4547 39.2702V39.2653Z" fill="#CAAFA2"/>
<path d="M61.8767 44.947C61.3965 44.9543 60.8676 45.0347 60.3849 45.3199C59.6147 45.7757 58.9688 46.7531 58.0158 47.8646C57.0627 48.9736 55.8026 50.2167 54.5692 51.6767C53.3359 53.1343 52.1245 54.8089 51.8685 56.2762C51.6126 57.7387 52.3048 58.9964 53.4943 59.8592H74.7927C74.4051 58.0799 73.5739 54.9137 72.9548 52.9783C72.326 51.0138 71.9116 50.3191 70.7343 49.9218C69.557 49.5245 67.6193 49.4245 66.3932 49.2661C65.1672 49.1077 64.6529 48.8932 64.3799 48.3204C64.1069 47.7476 64.0728 46.8214 64.0411 46.2315C64.007 45.6441 63.9753 45.3955 63.7925 45.2443C63.6097 45.0956 63.2782 45.0445 62.6664 44.9884C62.4373 44.9665 62.1667 44.9445 61.8791 44.947H61.8767Z" fill="#D0CDC0"/>
<path d="M57.3626 47.7183C53.899 51.428 46.4184 52.8978 48.9924 59.8518H64.4336C60.9383 56.7246 59.5026 51.2721 57.3626 47.7183Z" fill="#D5EFF0"/>
<path d="M57.0505 39.2653C57.0505 39.7187 56.8994 40.1501 56.6337 40.4718C56.3656 40.7911 56.0049 40.9715 55.6271 40.9715C54.8398 40.9715 54.2036 40.2086 54.2036 39.2677C54.2036 38.3269 54.8422 37.564 55.6271 37.564C56.0049 37.564 56.3656 37.7443 56.6337 38.0636C56.9019 38.3829 57.0505 38.8168 57.0505 39.2702V39.2653Z" fill="#CAAFA2"/>
<path d="M58.1084 23.7363L57.8817 26.6369L57.7745 34.8364L57.5478 34.834L57.6526 26.6198L57.8817 23.7192L58.1084 23.7363Z" fill="#408587"/>
<path d="M57.0895 31.6971C57.6111 31.0755 58.4399 30.3808 59.9145 30.1639C61.3892 29.9494 63.5098 30.2127 65.0185 30.744C66.5273 31.2754 67.4219 32.07 67.7777 33.8249C68.1336 35.5823 67.9508 38.3001 67.7022 40.4792C67.4535 42.6582 67.1391 44.2986 65.8716 45.3687C64.6042 46.4363 62.3837 46.9335 60.4532 46.4363C58.5228 45.939 56.8824 44.4473 56.2121 42.1122C55.5418 39.7747 55.8391 36.5939 56.0951 34.7292C56.351 32.8646 56.5679 32.3186 57.0895 31.6971Z" fill="#D0CDC0"/>
<path d="M55.7806 38.8606C55.5223 38.4876 53.5772 32.745 55.8854 31.9699L55.5686 30.3758C61.1625 26.7221 65.3744 27.3583 68.9282 31.2679L68.0483 33.6225L68.9623 34.6072C68.6235 37.2933 68.1555 38.1391 67.7314 39.6332C67.7021 36.9228 67.8216 36.1062 66.1154 34.01L66.1861 36.0478C62.2545 36.857 59.9584 35.3775 57.7842 33.7273L55.8147 38.7533L55.7806 38.8581V38.8606Z" fill="#9C9193"/>
<path d="M35.9521 69.4578H83.3043V78.1448C76.1357 81.9326 68.1458 84.0751 60.112 85.3084C52.1245 86.5345 43.903 86.8855 35.9521 85.6082V69.4578Z" fill="#DA844B"/>
<path d="M92.023 64.0295V72.2681C90.1608 73.8597 88.1645 75.3003 86.0805 76.5702C85.1738 77.1235 84.25 77.6475 83.314 78.1423L83.3043 69.4577L92.023 64.0271V64.0295Z" fill="#D37D44"/>
<path d="M42.0164 63.9028C42.0408 63.8857 42.0725 63.8735 42.1066 63.8735H92.5616L83.3481 69.6113H32.8492L42.0164 63.9003V63.9028ZM91.4818 64.1831H42.1505L33.929 69.3042H83.2603L91.4818 64.1831Z" fill="#925D3A"/>
<path d="M33.1685 72.2439H80.5207V79.5197C74.0956 82.469 67.1196 84.2361 60.112 85.311C51.1885 86.6809 41.975 86.9587 33.1685 85.0916V72.2415V72.2439Z" fill="#B76630"/>
<path d="M70.5345 74.5959H73.318V82.2909C72.3967 82.5859 71.468 82.8589 70.5345 83.1172V74.5935V74.5959Z" fill="#70528C"/>
<path d="M72.9305 74.5959H74.8341V81.7888C74.2028 82.0058 73.5691 82.213 72.9305 82.4128V74.5959Z" fill="#5C4473"/>
<path d="M65.7815 82.5884C67.4268 80.9821 70.6734 77.9012 72.4966 76.3437C74.3198 74.7861 74.7171 74.7496 74.939 74.6375C75.1608 74.5229 75.2071 74.3303 75.1461 73.9184C75.0852 73.5065 74.9195 72.8703 74.744 72.5023C74.5685 72.1342 74.3808 72.0294 73.4107 72.1683C72.4406 72.3048 70.6856 72.6851 68.9282 73.7234C67.1708 74.7618 65.4134 76.4607 64.3946 77.6282C63.3757 78.7933 63.093 79.427 63.0832 80.1704C63.0711 80.9139 63.3294 81.7694 63.2539 82.5031C63.1783 83.2343 62.7664 83.8437 62.8444 84.1483C62.9199 84.453 63.483 84.453 63.7877 84.3897C64.0923 84.3263 64.1387 84.1971 65.7864 82.5908L65.7815 82.5884Z" fill="#8F6CB0"/>
<path d="M55.3395 57.6898C56.117 57.6386 57.4942 57.9043 59.2247 60.4465C60.9553 62.9912 63.0442 67.8125 64.1386 70.2572C65.233 72.702 65.3305 72.7678 66.2129 72.1413C67.0952 71.5149 68.7576 70.1987 70.025 69.5455C71.2925 68.8922 72.1676 68.9044 72.85 69.0214C73.5325 69.1384 74.0249 69.3627 74.3881 69.7307C74.7512 70.1012 74.9852 70.6155 75.1095 71.2127C75.2314 71.8099 75.2436 72.4899 75.1802 72.8238C75.1169 73.1578 74.9755 73.1456 74.7829 73.0066C74.5904 72.8653 74.3442 72.5972 73.9445 72.4314C73.5471 72.2681 72.9963 72.2096 71.2486 73.4746C69.5034 74.7397 66.5614 77.3307 64.9795 78.6176C63.3976 79.907 63.1758 79.8949 61.6402 76.6019C60.1047 73.3089 57.2577 66.7375 55.8001 63.1691C54.3401 59.6007 54.2719 59.0377 54.3255 58.5745C54.3815 58.109 54.5619 57.7434 55.3419 57.6922L55.3395 57.6898Z" fill="#F3B294"/>
<path d="M37.0733 4.78508C37.6827 5.25063 38.626 5.89899 39.2109 6.84959C39.7935 7.80019 40.0129 9.05791 39.6716 12.095C39.3279 15.132 38.4212 19.9484 37.3536 22.615C36.286 25.2815 35.0551 25.8007 33.5658 25.8836C32.0766 25.9689 30.3289 25.6179 29.41 25.4619C28.4911 25.3059 28.4009 25.3449 28.0962 26.2662C27.7915 27.1852 27.2748 28.984 26.8604 29.8127C26.4461 30.6415 26.1341 30.5001 24.6399 29.898C23.1433 29.296 20.4646 28.2333 19.0728 27.5337C17.681 26.8342 17.5762 26.4978 18.3099 24.738C19.0411 22.9781 20.6084 19.7924 21.3396 18.1691C22.0733 16.5482 21.9929 16.5019 21.6565 15.1613C21.3201 13.8207 20.7376 11.1931 20.9569 9.00429C21.1763 6.81547 22.2 5.06782 23.7868 4.12209C25.3736 3.17637 27.5234 3.035 29.6391 3.10568C31.7572 3.17637 33.8413 3.46155 35.0185 3.74673C36.1958 4.03191 36.4688 4.31709 37.0782 4.78264L37.0733 4.78508Z" fill="#F3B294"/>
<path d="M53.253 40.1719C53.253 40.1719 53.9502 47.7767 53.4017 49.5682C52.8557 51.3573 47.3374 55.4839 47.3374 55.4839C47.3374 55.4839 45.7969 54.6893 45.7969 51.8058C45.7969 48.9223 45.597 44.4983 45.597 44.0498C45.597 43.6014 49.2264 40.869 49.9723 40.6691C50.7181 40.4692 53.253 40.1719 53.253 40.1719Z" fill="#F3B294"/>
<path d="M29.9925 51.4572C34.6797 51.4231 43.7007 51.2573 48.5537 51.562C53.4042 51.8667 54.0842 52.6394 56.3803 58.1358C58.6763 63.6322 62.5909 73.8476 64.5481 79.0978C65.6767 82.1275 66.1544 83.5023 66.0959 84.2091C64.1143 84.6405 62.1156 85.0037 60.1169 85.3108C59.137 85.462 58.1523 85.5985 57.1676 85.7203C56.529 85.1451 55.6612 84.2164 54.3304 82.7515C50.7327 78.7907 43.7495 70.9178 38.2189 66.7473C32.6883 62.5768 28.6105 62.1064 26.4071 60.8877C24.2036 59.669 23.877 57.6995 23.8867 55.9787C23.8989 54.2554 24.2499 52.7807 24.6009 52.0885C24.9519 51.3963 25.3029 51.4913 29.9901 51.4548L29.9925 51.4572Z" fill="#AE8ECB"/>
<path d="M36.2007 32.6672C41.7434 23.2489 50.9716 28.7795 54.8934 32.3186L52.5559 34.1077C56.8897 35.8212 54.8008 40.0014 54.4449 41.6638L53.2555 41.4517C50.7668 48.6251 49.7967 47.7891 48.132 50.6116C48.132 50.6116 44.9999 51.9035 44.7512 51.8035C44.5026 51.7036 33.1685 39.475 33.1685 39.475C34.0679 37.0716 32.9467 32.2431 36.2007 32.6647V32.6672Z" fill="#7F2D2E"/>
<path d="M29.1296 55.8326C32.9296 55.9325 40.1347 55.7083 44.2223 55.7887C48.3123 55.8716 49.2873 56.2591 51.6248 61.5728C53.9647 66.8864 57.6672 77.1285 59.4246 82.2959C59.8609 83.5755 60.1753 84.5432 60.3265 85.2769C60.2558 85.2891 60.1826 85.2988 60.112 85.311C49.9259 86.8734 39.362 87.0172 29.4587 84.1678C29.427 84.1581 29.3929 84.1483 29.3612 84.1386C29.1808 83.5755 28.998 82.9126 28.7835 82.1301C27.5307 77.5478 25.1859 68.8534 24.1329 63.9444C23.0775 59.0354 23.3115 57.9093 23.5942 57.0318C23.8745 56.1519 24.2036 55.5206 24.5667 55.4158C24.9299 55.311 25.3272 55.7326 29.1296 55.8301V55.8326Z" fill="#8F6CB0"/>
<path d="M32.4738 19.4438C26.4485 21.1769 25.2297 26.2346 27.4429 28.2991C27.6891 27.563 27.9255 26.7805 28.0937 26.2687C28.3984 25.3498 28.4886 25.3108 29.4075 25.4643C30.3264 25.6203 32.0741 25.9689 33.5633 25.886C33.9436 25.8641 34.3068 25.8153 34.6553 25.7081C32.7029 25.8592 30.4434 23.9361 32.4714 19.4438H32.4738Z" fill="#E67051"/>
<path d="M7.36819 27.0487C10.4004 25.8885 14.7756 25.1256 17.1521 24.7526C19.531 24.3797 19.9113 24.3968 21.2689 24.9842C22.6266 25.5716 24.9641 26.7318 27.343 28.4965C29.722 30.2613 32.1399 32.6304 33.4171 34.0466C34.6919 35.4628 34.826 35.9283 33.7316 40.3523C32.6371 44.7762 30.3191 53.161 29.1735 57.5533C28.0304 61.9456 28.0645 62.3429 28.7762 65.8723C29.488 69.4017 30.8797 76.0632 31.5525 79.4342C32.2228 82.8052 32.174 82.8881 31.5281 83.378C31.182 83.6388 30.6653 84.0166 30.1558 84.3603C29.9243 84.2969 29.6927 84.2335 29.4612 84.1653C28.881 83.9995 28.3058 83.8216 27.7306 83.6315C27.6721 83.4243 27.6087 83.1952 27.538 82.9368C26.9433 80.748 25.8781 76.6068 25.3663 74.9249C24.852 73.2431 24.8861 74.006 25.1932 76.2582C25.4491 78.1424 25.8976 81.0673 26.1097 83.066C17.5079 79.8973 9.73494 74.2449 5.03555 66.4158C1.08202 59.8299 -0.54375 51.9325 0.163108 44.2839C0.687158 38.6144 2.46649 33.0936 5.20617 28.0944C5.84235 27.6946 6.55895 27.3558 7.37062 27.0438L7.36819 27.0487Z" fill="#50BDC0"/>
<path d="M29.31 68.4878C29.1735 71.5248 27.7866 73.9623 25.4832 75.337C26.0292 77.2065 26.9847 80.9114 27.5356 82.9418C27.6062 83.2002 27.6696 83.4293 27.7281 83.6365C28.3009 83.8242 28.8786 84.0021 29.4587 84.1703C29.6903 84.2361 29.9218 84.3019 30.1534 84.3653C30.6652 84.0216 31.1795 83.6438 31.5256 83.383C32.1716 82.8931 32.2228 82.8102 31.55 79.4392C31.0211 76.78 30.0461 72.0928 29.3076 68.4902L29.31 68.4878ZM4.25311 65.051C4.50173 65.5141 4.7601 65.9699 5.03065 66.4208C9.73004 74.2499 17.503 79.9023 26.1048 83.071C25.8927 81.0723 25.4442 78.1474 25.1883 76.2632C25.1542 76.0049 25.1225 75.7733 25.0957 75.5539C21.7783 77.2894 16.7499 76.9457 10.8903 73.3091C7.58022 69.1849 6.80024 52.3787 12.9986 35.7676C8.10914 43.2018 6.65399 55.2159 4.25067 65.051H4.25311ZM25.4442 48.8445C24.7691 53.1124 26.1657 58.0726 28.3253 63.2863C28.1571 61.7166 28.3862 60.588 29.1735 57.5559C29.4611 56.4493 29.8243 55.0867 30.224 53.5999C27.9572 51.3599 25.4418 48.8445 25.4418 48.8445H25.4442Z" fill="#3EA9AC"/>
<path d="M33.8437 40.3815C33.171 43.0993 32.0424 47.2917 31.0065 51.1428C30.346 53.5949 29.722 55.908 29.2881 57.5825C28.7177 59.7714 28.4423 60.9633 28.396 62.0406C28.3521 63.118 28.5374 64.0954 28.8908 65.8503C29.2004 67.3884 29.6513 69.5674 30.112 71.8074C30.6969 74.6422 31.299 77.5695 31.6671 79.4147C32.0034 81.1087 32.1594 81.9764 32.1497 82.4907C32.1399 83.0489 31.9498 83.2049 31.5964 83.4706C31.4062 83.6144 31.1625 83.7948 30.8919 83.9898C30.6775 84.1433 30.4483 84.3042 30.2192 84.4578L30.0925 84.2676C30.3191 84.1165 30.5458 83.9581 30.7603 83.8045C31.0211 83.6168 31.2673 83.4365 31.4599 83.2902C31.7548 83.0684 31.9132 82.9368 31.9205 82.4883C31.9303 81.9959 31.7743 81.138 31.4404 79.4586C31.0577 77.5379 30.463 74.6495 29.8877 71.8538C29.4319 69.6357 28.9859 67.4761 28.6666 65.8966C28.3083 64.1222 28.1206 63.135 28.1669 62.0333C28.2132 60.934 28.4911 59.7299 29.0663 57.5265C29.5172 55.7983 30.1339 53.5096 30.7847 51.0843C31.823 47.2283 32.954 43.031 33.6219 40.3279L33.8437 40.3815ZM27.6185 83.6656C27.5941 83.5827 27.5648 83.473 27.5258 83.3365C27.4795 83.1732 27.4478 83.0562 27.4259 82.9685L27.6477 82.9075C27.694 83.0782 27.7281 83.2049 27.7476 83.2732C27.7745 83.3682 27.8037 83.4755 27.8403 83.5998L27.6209 83.6632L27.6185 83.6656Z" fill="#2D6465"/>
<path d="M52.3585 45.1443C52.3585 46.6263 51.6248 47.8279 50.7181 47.8279C50.2818 47.8279 49.865 47.5452 49.5579 47.0406C49.2508 46.5361 49.0777 45.8536 49.0777 45.1419C49.0777 44.4301 49.2508 43.7477 49.5579 43.2431C49.865 42.7386 50.2818 42.4558 50.7181 42.4558C51.6248 42.4558 52.3585 43.6575 52.3585 45.1394V45.1443Z" fill="#F3B294"/>
<path d="M62.4593 37.8417L60.948 42.1463L60.5605 41.9366L62.2496 37.7369L62.6226 36.3086L63.0589 36.5572L62.4593 37.8417Z" fill="#8F6CB0"/>
<path d="M61.8791 37.4711L63.3903 41.7781L63.7779 41.566L62.0912 37.3663L61.7158 35.938L61.2819 36.1866L61.8791 37.4711Z" fill="#8F6CB0"/>
<path d="M56.0683 46.2242C56.3437 45.432 57.3991 44.5887 57.9963 43.8111C58.5935 43.0311 58.7348 42.317 58.8518 41.4444C58.9688 40.5718 59.0639 39.5407 59.2199 38.9728C59.3783 38.4049 59.6001 38.3001 59.8756 38.3293C60.151 38.3586 60.4801 38.5219 60.6263 39.0264C60.7726 39.531 60.7384 40.3743 60.7774 40.8496C60.8189 41.3249 60.9359 41.4297 61.3722 41.2786C61.8085 41.1275 62.5763 40.7156 63.2076 40.1111C63.8413 39.5066 64.3434 38.7096 64.8041 38.3561C65.2648 38.0027 65.6816 38.0929 65.9034 38.1733C66.1252 38.2562 66.1544 38.3293 66.0691 38.6023C65.9838 38.8729 65.7839 39.3433 65.3915 39.9161C64.9991 40.4913 64.4141 41.1689 64.2191 41.9733C64.0265 42.7752 64.224 43.7014 64.2142 44.4741C64.202 45.2468 63.9802 45.8683 63.617 46.4947C63.2539 47.1212 62.7493 47.7549 62.1692 48.1181C61.5891 48.4813 60.9115 48.5763 60.2314 48.8518C59.5514 49.1272 58.8616 49.583 58.2864 49.5537C57.7111 49.5245 57.2553 49.0077 56.7751 48.3813C56.295 47.7549 55.7904 47.0164 56.0659 46.2242H56.0683Z" fill="#F3B294"/>
<path d="M55.961 46.1876C56.1462 45.6514 56.6605 45.1078 57.1675 44.574C57.4332 44.2913 57.6989 44.0134 57.9061 43.7404C58.1961 43.3626 58.3765 42.9994 58.4959 42.6265C58.6178 42.2487 58.6812 41.8587 58.7397 41.4273C58.7689 41.2177 58.7982 40.9715 58.8274 40.7253C58.9103 40.0477 58.9932 39.3701 59.1126 38.9411C59.1979 38.634 59.3052 38.4463 59.4319 38.339C59.5708 38.2196 59.7244 38.1952 59.8901 38.2147C60.0656 38.2342 60.2582 38.3 60.4239 38.4536C60.5531 38.573 60.6653 38.7485 60.7359 38.9923C60.8407 39.353 60.8554 39.8673 60.8676 40.3109C60.8724 40.5035 60.8773 40.6839 60.8919 40.835C60.909 41.0397 60.9382 41.1592 60.9943 41.203C61.0479 41.2445 61.1552 41.2274 61.3355 41.1665C61.5695 41.086 61.9035 40.9252 62.2642 40.6961C62.5518 40.5132 62.8541 40.2866 63.1295 40.0233C63.4244 39.743 63.6926 39.4164 63.9412 39.1142C64.2239 38.7705 64.4823 38.456 64.7358 38.261C64.9868 38.0685 65.2281 37.9954 65.4378 37.9832C65.6474 37.971 65.8229 38.0173 65.9447 38.0612C66.0886 38.1148 66.1714 38.1709 66.2104 38.2708C66.247 38.3634 66.2324 38.4707 66.1812 38.6315C66.1324 38.79 66.0447 39.0142 65.9058 39.2848C65.7985 39.4895 65.6644 39.7235 65.4889 39.977C65.4085 40.094 65.3256 40.2086 65.2379 40.328C64.8845 40.8155 64.4823 41.3712 64.3336 41.9952C64.2117 42.5046 64.2532 43.0774 64.2922 43.6259C64.3141 43.9159 64.3336 44.1987 64.3312 44.4717C64.3263 44.8714 64.2654 45.2297 64.1581 45.5685C64.0533 45.9073 63.9022 46.2266 63.7169 46.5484C63.5195 46.8872 63.2806 47.2308 63.0125 47.5331C62.7736 47.7988 62.5128 48.0352 62.2301 48.2107C61.8572 48.4447 61.4501 48.569 61.0284 48.6982C60.7822 48.7737 60.5312 48.8493 60.2753 48.9541C60.0754 49.0345 59.8828 49.1272 59.6903 49.2198C59.1979 49.4562 58.7177 49.6878 58.2814 49.6634C57.967 49.6463 57.6867 49.5001 57.421 49.2734C57.1675 49.0565 56.9287 48.764 56.6849 48.4471C56.4412 48.1278 56.1901 47.7793 56.0317 47.4039C55.8708 47.0188 55.8099 46.6093 55.9586 46.1827L55.961 46.1876ZM57.3333 44.7325C56.8458 45.2492 56.3485 45.7732 56.1779 46.2632C56.0512 46.6263 56.1048 46.9822 56.2462 47.321C56.3924 47.6696 56.6337 48.0035 56.8702 48.3131C57.1066 48.6202 57.3357 48.9005 57.5746 49.1052C57.8013 49.3002 58.0377 49.427 58.2961 49.4392C58.6739 49.4587 59.1272 49.2417 59.5952 49.0175C59.7951 48.9224 59.9974 48.8249 60.1924 48.7445C60.4508 48.6397 60.7091 48.5617 60.9651 48.4837C61.3721 48.3594 61.7621 48.2399 62.1131 48.0206C62.3739 47.8573 62.6201 47.6354 62.8443 47.3844C63.1027 47.0943 63.3318 46.7653 63.5219 46.4362C63.6999 46.1291 63.8437 45.8244 63.9412 45.5051C64.0411 45.1834 64.0972 44.847 64.102 44.4717C64.1069 44.2157 64.085 43.933 64.063 43.6429C64.0216 43.0799 63.9777 42.49 64.1094 41.944C64.2702 41.2762 64.687 40.7009 65.0502 40.1964C65.138 40.0745 65.2233 39.9575 65.2964 39.8503C65.4646 39.6041 65.5962 39.3798 65.6986 39.1824C65.8302 38.9265 65.9131 38.7144 65.9594 38.5657C65.9935 38.456 66.0081 38.3902 65.9935 38.3561C65.9837 38.3317 65.9423 38.3074 65.8619 38.2805C65.7619 38.244 65.6181 38.205 65.4475 38.2147C65.2769 38.2245 65.0819 38.2854 64.8723 38.4463C64.6407 38.6242 64.3897 38.9289 64.1142 39.2628C63.8607 39.57 63.5877 39.9014 63.2855 40.1915C62.9979 40.4669 62.6835 40.7009 62.3836 40.891C62.0107 41.1275 61.6573 41.2957 61.4062 41.3834C61.1503 41.4712 60.9797 41.4809 60.8554 41.3858C60.7359 41.2957 60.6848 41.125 60.6604 40.8545C60.6482 40.7107 60.6433 40.5206 60.636 40.3158C60.6238 39.8844 60.6092 39.3871 60.5117 39.0532C60.4532 38.8533 60.363 38.712 60.2631 38.6169C60.1388 38.4999 59.9925 38.4512 59.8609 38.4365C59.7536 38.4244 59.6561 38.439 59.5757 38.5072C59.4831 38.5877 59.4002 38.7364 59.3271 38.9972C59.2125 39.4066 59.1321 40.0769 59.0492 40.7472C59.0224 40.9764 58.9932 41.2079 58.9615 41.4541C58.903 41.8953 58.8372 42.2999 58.7104 42.6923C58.5812 43.0896 58.3911 43.4747 58.084 43.8745C57.8719 44.1499 57.6014 44.4375 57.3284 44.7251L57.3333 44.7325Z" fill="#B65D46"/>
<path d="M35.3062 36.2453C37.6266 39.2117 41.6118 45.1103 43.6032 48.0596C45.597 51.0089 45.597 51.0089 45.6531 51.0089C45.7116 51.0089 45.8262 51.0089 47.5835 49.9145C49.3385 48.8225 52.7387 46.6337 54.5449 45.588C56.351 44.5448 56.5655 44.6447 57.0628 45.1322C57.56 45.6222 58.3375 46.4996 58.8348 47.477C59.332 48.4545 59.5465 49.5318 59.6465 50.2362C59.7464 50.9406 59.7293 51.2721 57.6648 53.5414C55.6003 55.8131 51.4932 60.0201 48.8998 62.2163C46.3063 64.4124 45.229 64.5952 41.5996 62.2991C37.9703 60.0031 31.7889 55.233 28.7007 52.1155C25.61 49.0004 25.61 47.5429 25.5686 45.6953C25.5271 43.8477 25.4443 41.6101 25.9342 39.531C26.4241 37.4518 27.4844 35.5287 28.5349 34.5025C29.5879 33.4764 30.6311 33.3423 31.4794 33.2936C32.3276 33.2448 32.9833 33.2765 35.3037 36.2429L35.3062 36.2453Z" fill="#50BDC0"/>
<path d="M23.7209 4.02478C24.5277 3.5446 25.4783 3.26673 26.4923 3.12049C27.499 2.97424 28.5739 2.95718 29.6391 2.99374C30.6457 3.02786 31.6402 3.1083 32.5347 3.21555C33.5365 3.33498 34.4164 3.4861 35.0429 3.63722C36.1227 3.89803 36.459 4.16127 36.966 4.55614C37.0148 4.59514 37.0659 4.63414 37.1439 4.69507C37.2292 4.76088 37.2926 4.8072 37.3584 4.85594C37.9654 5.31418 38.7819 5.92598 39.3108 6.79127C39.6106 7.2812 39.8178 7.84912 39.9031 8.68029C39.9884 9.50171 39.9592 10.5815 39.7861 12.1098C39.5984 13.7745 39.2426 15.9707 38.7819 18.0571C38.4017 19.7877 37.9483 21.4452 37.4608 22.6615C36.9173 24.0167 36.3298 24.8283 35.6863 25.3158C35.0356 25.8058 34.336 25.9618 33.5706 26.0056C32.2349 26.0812 30.7018 25.8131 29.7268 25.6424C29.5903 25.6181 29.466 25.5961 29.388 25.584C28.9566 25.5108 28.7201 25.4816 28.5788 25.5669C28.4374 25.6522 28.3472 25.8764 28.2034 26.3079L27.9816 26.2347C28.1425 25.7473 28.2497 25.4913 28.4593 25.367C28.669 25.2427 28.9395 25.272 29.427 25.3524C29.5562 25.3743 29.6586 25.3914 29.7682 25.4109C30.7335 25.5791 32.252 25.8448 33.5585 25.7716C34.2824 25.7302 34.9405 25.5864 35.545 25.1281C36.1568 24.6675 36.7174 23.8875 37.2439 22.5737C37.724 21.372 38.175 19.7268 38.5528 18.0059C39.011 15.9268 39.3669 13.738 39.5521 12.083C39.7228 10.5742 39.7544 9.50658 39.6691 8.70467C39.5863 7.9125 39.3913 7.37626 39.1085 6.91315C38.6015 6.08685 37.8094 5.48724 37.2171 5.04363C37.1318 4.98025 37.0513 4.91932 37.0026 4.88032C36.9538 4.84376 36.888 4.79013 36.8222 4.74138C36.3396 4.36358 36.0203 4.11496 34.9868 3.86634C34.3701 3.71766 33.5 3.56898 32.5055 3.44954C31.6134 3.34229 30.6238 3.26186 29.6293 3.22773C28.5763 3.19117 27.5185 3.21067 26.524 3.35448C25.5368 3.49829 24.6179 3.76397 23.8404 4.22952L23.7209 4.02965V4.02478Z" fill="#B65D46"/>
<path d="M21.5931 17.1381L29.9437 18.2374C29.9437 18.2374 36.7564 13.677 36.9197 13.1846C37.0854 12.6898 38.2384 9.33831 38.2384 9.33831L41.8092 9.61374C41.8092 9.61374 43.5666 0.0540968 31.9205 0.00047304C20.2744 -0.0555881 20.6035 4.88998 20.6035 4.88998L18.8461 6.81312L21.5931 17.1406V17.1381Z" fill="#7F2D2E"/>
<path d="M36.5005 14.769C36.5005 15.5733 36.2567 16.3436 35.8229 16.9139C35.389 17.4819 34.8016 17.8012 34.1873 17.8012C33.5731 17.8012 32.9857 17.4819 32.5518 16.9139C32.118 16.346 31.8742 15.5733 31.8742 14.769C31.8742 13.9646 32.118 13.1944 32.5518 12.624C32.9857 12.0561 33.5731 11.7368 34.1873 11.7368C34.8016 11.7368 35.389 12.0561 35.8229 12.624C36.2567 13.192 36.5005 13.9646 36.5005 14.769Z" fill="#F3B294"/>
<path d="M16.8133 25.1111L19.4482 21.5159C24.3815 22.5445 27.7842 24.9917 28.5447 26.1056L28.7275 29.4766L16.8133 25.1111Z" fill="#50BDC0"/>
<path d="M38.2822 19.0295C38.465 19.0246 38.6162 19.1172 38.6503 19.3975C38.6844 19.6778 38.604 20.1483 38.3578 20.5626C38.1116 20.9794 37.7021 21.3426 37.4974 21.3719C37.2926 21.4011 37.2926 21.0964 37.356 20.6869C37.4194 20.2774 37.5486 19.7607 37.7192 19.4512C37.8898 19.1416 38.0994 19.0344 38.2822 19.0295Z" fill="#7F2D2E"/>
<path d="M60.2095 29.2644L62.2472 37.737C60.5409 36.6304 57.7915 33.4666 60.2095 29.2644Z" fill="white"/>
<path d="M64.2873 29.2644L62.2496 37.737C63.9558 36.6304 66.7053 33.4666 64.2873 29.2644Z" fill="white"/>
<path d="M61.7962 38.9484C61.767 39.0776 61.4477 39.0995 61.0138 39.2189C60.5775 39.3384 60.0071 39.5626 59.5562 40.0135C59.5538 40.016 59.5538 40.016 59.5513 40.0184C59.271 40.2987 59.0833 40.6131 58.9834 40.9154C58.7543 41.5662 58.9176 42.1731 58.7592 42.2438C58.686 42.2779 58.0474 41.8684 58.1912 40.7448C58.2595 40.2695 58.4886 39.7698 58.9005 39.3652C58.903 39.3627 58.9054 39.3603 58.9054 39.3603C59.5708 38.7095 60.3898 38.534 60.9577 38.573C61.5379 38.612 61.8182 38.8411 61.7938 38.9508L61.7962 38.9484Z" fill="#8F6CB0"/>
<path d="M62.6176 38.8777C62.6542 39.0483 63.2246 39.0532 63.7876 39.4115C64.0435 39.5748 64.3044 39.8063 64.4823 40.1037C64.4872 40.1135 64.4945 40.1232 64.4993 40.133C64.6602 40.4206 64.7358 40.7131 64.7065 40.9593C64.6968 41.2347 64.5286 41.5101 64.4165 41.6929C64.297 41.8879 64.2166 42.022 64.2605 42.1C64.3019 42.1707 64.475 42.1853 64.7309 42.0585C64.9722 41.9367 65.3232 41.6564 65.4963 41.1396C65.6279 40.6814 65.5767 40.1427 65.294 39.6698C65.2842 39.6552 65.2769 39.6406 65.2671 39.6235C64.9746 39.1482 64.5505 38.8411 64.1386 38.6827C63.1271 38.2903 62.5957 38.7851 62.6152 38.8801L62.6176 38.8777Z" fill="#8F6CB0"/>
<path d="M51.2519 13.3674C51.3177 14.7836 51.5444 16.5922 52.0782 18.0376C52.7924 19.9705 54.0574 21.2599 55.8148 21.8351C57.5722 22.4103 59.8219 22.269 61.416 21.3549C63.0101 20.4409 63.9461 18.7542 64.5213 16.8091C64.8626 15.6538 65.0746 14.4082 65.0771 13.3699H51.2519V13.3674Z" fill="#D0CDC0"/>
<path d="M74.6562 38.5315C74.549 38.4023 74.4588 38.3267 74.2223 38.317C73.9859 38.3072 73.6057 38.3633 73.0719 38.5583C72.5381 38.7508 71.8507 39.0799 71.468 39.6064C71.0878 40.1304 71.0122 40.8519 71.1122 41.3516C71.2145 41.8513 71.49 42.1291 71.9458 42.4631C72.3991 42.797 73.0304 43.187 73.7324 43.2552C74.4344 43.3235 75.2046 43.07 75.6434 42.6312C76.0821 42.1925 76.1845 41.571 76.1991 41.0225C76.2137 40.4741 76.1382 39.9964 75.9261 39.6771C75.7141 39.3578 75.3655 39.1945 75.1266 39.0214C74.8878 38.8483 74.761 38.6655 74.6538 38.5339L74.6562 38.5315Z" fill="#D0CDC0"/>
<path d="M73.7422 37.1397L75.58 40.9567L75.307 41.1298L73.3936 37.0154L73.7422 37.1397Z" fill="#8F6CB0"/>
<path d="M71.8799 29.2644L73.9176 37.737C72.2114 36.6304 69.462 33.4666 71.8799 29.2644Z" fill="#D5EFF0"/>
<path d="M74.1809 37.1397L72.3406 40.9567L72.6161 41.1298L74.5295 37.0154L74.1809 37.1397Z" fill="#8F6CB0"/>
<path d="M75.9578 29.2644L73.9201 37.737C75.6263 36.6304 78.3757 33.4666 75.9578 29.2644Z" fill="#D5EFF0"/>
<path d="M57.811 17.238C57.7184 17.238 57.6087 17.2453 57.482 17.2624C56.8068 17.3526 55.6393 17.7011 55.1908 18.0668C54.7423 18.4324 55.0177 18.8126 55.5515 18.8882C56.0853 18.9637 56.8824 18.7297 57.421 18.4494C57.7062 18.3008 57.9183 18.1374 58.0621 17.9815C58.2059 18.1374 58.418 18.3008 58.7031 18.4494C59.2418 18.7322 60.0364 18.9637 60.5726 18.8882C61.1064 18.8126 61.3794 18.4324 60.9334 18.0668C60.4849 17.7011 59.3174 17.355 58.6422 17.2624C58.379 17.2258 58.1913 17.2307 58.0621 17.2624C57.9963 17.2453 57.9134 17.2356 57.8135 17.2356L57.811 17.238Z" fill="#9C9193"/>
<path d="M72.0189 39.4602C72.17 39.1409 72.6161 38.6851 72.9866 38.5437C73.3546 38.4023 73.6496 38.5778 73.7007 38.8362C73.7544 39.0946 73.5667 39.4334 73.2669 39.6649C72.9671 39.8965 72.5576 40.0183 72.2821 39.9891C72.0067 39.9599 71.8653 39.7795 72.0189 39.4577V39.4602Z" fill="#D0CDC0"/>
<path d="M75.6287 39.1313C75.2485 38.8266 74.6221 38.4585 74.3856 38.5414C74.1516 38.6267 74.3101 39.1654 74.5758 39.5822C74.8414 39.999 75.2168 40.2915 75.519 40.3256C75.8213 40.3597 76.0504 40.1379 76.0967 39.9064C76.143 39.6748 76.009 39.4359 75.6287 39.1313Z" fill="#D0CDC0"/>
<path d="M73.6349 38.3098C73.63 38.3659 73.4813 38.3927 73.2424 38.4317C73.0231 38.4658 72.6623 38.5122 72.4259 38.6998C72.3065 38.7778 72.2187 38.9168 72.17 39.0874C72.1529 39.1435 72.1432 39.2019 72.1358 39.258C72.1066 39.5408 72.1748 39.8625 72.226 40.1111C72.3308 40.5962 72.4308 40.9228 72.343 40.9593C72.2821 40.9837 72.053 40.7229 71.8531 40.2281C71.7483 39.9746 71.6386 39.6212 71.6605 39.2239C71.6654 39.1337 71.68 39.0435 71.7069 38.9533C71.7873 38.6852 71.9555 38.461 72.1773 38.3196C72.5868 38.0905 73.0036 38.1051 73.2449 38.1465C73.5032 38.1904 73.6397 38.266 73.6349 38.3123V38.3098Z" fill="#8F6CB0"/>
<path d="M74.1321 38.2587C74.1321 38.205 74.3734 38.11 74.7903 38.1855C75.1876 38.2562 75.775 38.517 76.0504 39.1483C76.0602 39.1727 76.0699 39.1946 76.0797 39.219C76.282 39.8601 76.0504 40.428 75.8189 40.7449C75.5775 41.0763 75.346 41.1665 75.3094 41.13C75.2607 41.0788 75.3923 40.896 75.5239 40.5767C75.6507 40.2696 75.7872 39.8016 75.6239 39.3726C75.619 39.3555 75.6141 39.3409 75.6092 39.3238C75.4581 38.8948 75.0096 38.6511 74.6952 38.5146C74.3637 38.3732 74.1321 38.3294 74.1321 38.2562V38.2587Z" fill="#8F6CB0"/>
<path d="M30.0754 53.5657L25.3638 48.9248L25.5247 48.7615L30.2363 53.4024L30.0754 53.5657Z" fill="#31696B"/>
<path d="M16.8523 25.0037L28.7689 29.3667L28.6885 29.5836L16.7743 25.2182L16.8523 25.0037Z" fill="#31696B"/>
<path d="M45.5726 50.9893C46.2576 51.9009 46.6549 52.9685 46.8084 54.0775C46.9742 55.2743 46.8572 56.5198 46.5037 57.6654L46.2844 57.5972C46.6281 56.4808 46.7426 55.2718 46.5817 54.1092C46.4331 53.0367 46.0479 52.0057 45.3898 51.1258L45.5726 50.9893Z" fill="#31696B"/>
<path d="M69.1281 59.8469V54.6089H69.3596V59.8469H69.1281Z" fill="#B4A99A"/>
<path d="M54.1622 25.3401C55.1006 25.9958 56.4217 26.4637 57.8232 26.5393C59.0322 26.6051 60.2972 26.3784 61.4233 25.7325L61.5379 25.9324C60.3704 26.6002 59.0615 26.8367 57.8135 26.7684C56.3681 26.6904 55.0031 26.2078 54.033 25.5278L54.1646 25.3401H54.1622Z" fill="#408587"/>
<path d="M65.4353 72.4338C65.7522 73.0676 65.8497 73.7013 65.7888 74.3229C65.7205 75.0297 65.4451 75.7146 65.0575 76.3484L64.8625 76.2289C65.233 75.622 65.4963 74.9712 65.5621 74.3009C65.6182 73.7208 65.528 73.1285 65.2306 72.5362L65.4353 72.4338Z" fill="#B75F48"/>
<path d="M48.522 78.0082C48.3976 78.0814 48.0808 77.8035 47.9418 77.7645C47.8029 77.7279 47.391 77.8108 47.3179 77.6841C47.2447 77.5598 47.5226 77.2429 47.5616 77.104C47.5982 76.965 47.5153 76.5531 47.642 76.48C47.7664 76.4068 48.0832 76.6847 48.2222 76.7237C48.3611 76.7603 48.773 76.6774 48.8461 76.8042C48.9193 76.9285 48.6414 77.2453 48.6024 77.3843C48.5658 77.5232 48.6487 77.9351 48.522 78.0082Z" fill="white"/>
<path d="M75.5897 67.5787C75.5142 67.7079 75.0876 67.6225 74.9438 67.6615C74.8 67.7005 74.4734 67.9882 74.3418 67.9126C74.2126 67.837 74.2979 67.4105 74.2589 67.2667C74.2199 67.1229 73.9323 66.7963 74.0078 66.6646C74.0834 66.5355 74.5099 66.6208 74.6538 66.5818C74.7976 66.5428 75.1242 66.2551 75.2558 66.3307C75.385 66.4063 75.2997 66.8328 75.3387 66.9766C75.3777 67.1204 75.6653 67.4471 75.5897 67.5787Z" fill="white"/>
<path d="M85.5808 72.7606C85.5198 72.7777 85.4199 72.6266 85.3663 72.5949C85.3127 72.5632 85.1323 72.5535 85.1152 72.4925C85.0982 72.4316 85.2493 72.3317 85.281 72.278C85.3127 72.2244 85.3224 72.044 85.3833 72.027C85.4443 72.0099 85.5442 72.161 85.5978 72.1927C85.6515 72.2244 85.8318 72.2342 85.8489 72.2951C85.866 72.356 85.7148 72.456 85.6832 72.5096C85.6515 72.5632 85.6417 72.7436 85.5808 72.7606Z" fill="white"/>
<path d="M38.3432 70.0574C38.253 70.1086 38.0288 69.9112 37.9289 69.8844C37.8289 69.8576 37.5364 69.9161 37.4828 69.8283C37.4316 69.7381 37.629 69.5139 37.6559 69.414C37.6827 69.314 37.6242 69.0215 37.7119 68.9679C37.8021 68.9167 38.0263 69.1142 38.1263 69.141C38.2262 69.1678 38.5187 69.1093 38.5723 69.197C38.6235 69.2872 38.4261 69.5115 38.3993 69.6114C38.3725 69.7113 38.431 70.0038 38.3432 70.0574Z" fill="white"/>
<path d="M17.6249 68.0903C17.4202 68.1463 17.0789 67.632 16.8961 67.5248C16.7133 67.4176 16.0966 67.381 16.043 67.1762C15.987 66.9715 16.5013 66.6303 16.6085 66.4474C16.7157 66.2646 16.7523 65.648 16.9571 65.5943C17.1618 65.5383 17.503 66.0526 17.6858 66.1598C17.8687 66.2671 18.4853 66.3036 18.539 66.5084C18.595 66.7131 18.0807 67.0544 17.9735 67.2372C17.8662 67.42 17.8297 68.0367 17.6249 68.0903Z" fill="white"/>
<path d="M95.2014 63.9759C95.1063 64.0003 94.9479 63.7639 94.8626 63.7127C94.7773 63.6639 94.4921 63.6444 94.4653 63.5494C94.4409 63.4543 94.6773 63.2959 94.7285 63.2106C94.7773 63.1253 94.7968 62.8401 94.8918 62.8133C94.9869 62.7889 95.1453 63.0253 95.2306 63.0765C95.3159 63.1253 95.6011 63.1448 95.6279 63.2398C95.6523 63.3349 95.4159 63.4933 95.3647 63.5786C95.3159 63.6639 95.2964 63.9491 95.2014 63.9759Z" fill="white"/>
<path d="M17.2203 53.4828C17.1277 53.4828 17.0424 53.2293 16.9766 53.1635C16.9108 53.0977 16.6573 53.0124 16.6573 52.9197C16.6573 52.8271 16.9108 52.7418 16.9766 52.676C17.0424 52.6102 17.1277 52.3567 17.2203 52.3567C17.313 52.3567 17.3983 52.6102 17.4641 52.676C17.5299 52.7418 17.7834 52.8271 17.7834 52.9197C17.7834 53.0124 17.5299 53.0977 17.4641 53.1635C17.3983 53.2293 17.313 53.4828 17.2203 53.4828Z" fill="white"/>
<path d="M2.90519 70.6692C3.41218 70.3133 6.30055 74.0158 11.1535 78.3471C13.0181 80.0095 15.2045 81.7449 17.6932 83.2293C18.01 83.4195 18.3269 83.6023 18.6462 83.7778C21.4102 85.3134 24.1646 86.32 26.6654 86.9879C32.0156 88.4211 35.9374 88.5235 35.9545 89.089C35.9667 89.4887 32.0984 90.5929 26.1072 89.5911C23.3334 89.1255 20.2354 88.17 17.1545 86.498C16.801 86.3054 16.4501 86.1055 16.1015 85.8959C13.3545 84.2531 11.056 82.2909 9.20598 80.3678C4.3701 75.3418 2.53226 70.9325 2.90763 70.6692H2.90519Z" fill="#3EA9AC"/>
<path d="M106.543 59.362C106.862 59.4765 106.667 61.3558 105.439 64.1467C104.181 67.0033 101.98 70.4426 98.5504 73.7282C98.4968 73.7794 98.4456 73.8282 98.392 73.8794C95.0893 77.0017 91.5672 79.2295 88.9957 80.5921C86.3925 81.9717 84.6497 82.5347 84.4742 82.2325C84.2817 81.901 85.6881 80.7554 87.9793 79.0029C90.2046 77.2991 93.4927 74.847 96.5469 71.9343C96.5956 71.888 96.6444 71.8392 96.6955 71.7929C99.9373 68.6754 102.129 65.7602 103.776 63.2497C105.344 60.861 106.175 59.2328 106.548 59.3668L106.543 59.362Z" fill="#F9A56E"/>
<path d="M13.2839 14.0256C13.4813 14.3303 12.8134 15.0932 11.7873 16.234C10.7099 17.4332 9.41564 18.8664 8.06774 20.7968L8.06286 20.8017C6.74177 22.6859 5.74485 24.5018 4.94537 25.8618C4.15564 27.2073 3.58528 28.0531 3.2416 27.9434C2.91742 27.841 2.87599 26.7929 3.27329 25.1891C3.67059 23.5853 4.50663 21.4476 5.97397 19.3441L5.97885 19.3368C7.46569 17.2114 9.20115 15.7245 10.6441 14.8422C12.0725 13.9696 13.1011 13.7404 13.2839 14.0232V14.0256Z" fill="#F3B294"/>
</svg>
