<svg width="120" height="90" viewBox="0 0 120 90" fill="none" xmlns="http://www.w3.org/2000/svg">
<path d="M113.052 14.6307C109.841 10.1559 105.25 6.7317 100.114 4.76668C94.9773 2.80167 89.3157 2.31528 83.8876 3.19078C77.9925 4.1441 72.4671 6.69279 67.1363 9.35821C61.8054 12.0431 56.5135 14.9225 50.7936 16.6541C45.3849 18.3078 39.7233 18.8915 34.1785 19.981C28.6336 21.0705 23.0304 22.7437 18.5556 26.2068C15.4038 28.6582 12.933 31.8878 10.9485 35.3509C8.96401 38.814 7.44648 42.53 5.90948 46.2071C4.00283 50.7792 2.05727 55.4291 1.41524 60.3319C1.08449 62.7833 1.08449 65.3125 1.57088 67.725C2.05727 70.157 3.04951 72.5111 4.5865 74.4567C6.96009 77.4917 10.5205 79.4179 14.1976 80.5463C17.8747 81.6747 21.7463 82.1027 25.5596 82.628C38.1669 84.3985 50.6185 87.5114 63.323 88.2701C76.0275 89.0289 89.3935 87.239 99.8995 80.0404C107.118 75.0793 112.604 67.7834 115.853 59.651C119.083 51.5185 120.133 42.5884 119.375 33.8528C118.791 27.0434 117.059 20.1366 113.071 14.5723L113.052 14.6307Z" fill="#E7F5F6"/>
<path d="M11.8434 33.8722C11.5321 34.3781 11.2208 34.8839 10.929 35.3898C8.94454 38.8529 7.42701 42.5689 5.89001 46.246C3.98336 50.8181 2.0378 55.468 1.39577 60.3708C1.06502 62.8222 1.06502 65.3514 1.55141 67.7639C2.0378 70.1959 3.03004 72.55 4.56703 74.4955C6.94062 77.5306 10.501 79.4567 14.1781 80.5852C15.5789 81.0132 16.9992 81.3439 18.4389 81.6163H97.4676C98.2847 81.1299 99.1018 80.6241 99.8801 80.0793C107.098 75.1181 112.585 67.8223 115.834 59.6898C119.063 51.5574 120.114 42.6273 119.355 33.8917C119.355 33.8722 119.355 33.8722 119.355 33.8528H11.8434V33.8722Z" fill="#CAE9EB"/>
<path d="M13.1275 31.946C12.3299 33.055 11.61 34.2029 10.929 35.3897C10.9096 35.4091 10.9096 35.4286 10.8901 35.4481H119.472C119.433 34.9422 119.394 34.4169 119.355 33.9111C119.297 33.2496 119.238 32.6075 119.161 31.946H13.1275Z" fill="#ABE0E1"/>
<path d="M1.57087 59.2812C1.5125 59.6509 1.45413 60.0011 1.39577 60.3708C1.06502 62.8222 1.06502 65.3514 1.55141 67.7639C2.0378 70.1958 3.03004 72.55 4.56703 74.4955C6.94062 77.5306 10.501 79.4567 14.1781 80.5851C17.8552 81.7136 21.7269 82.1416 25.5402 82.6669C38.1474 84.4374 50.599 87.5502 63.3035 88.309C76.008 89.0678 89.374 87.2779 99.88 80.0793C107.098 75.1376 112.585 67.8223 115.834 59.6898C115.892 59.5536 115.95 59.4174 115.989 59.2812H1.55141H1.57087Z" fill="#E7F5F6"/>
<path d="M110.308 43.425C108.869 43.425 107.721 44.5729 107.721 46.0126V59.2425H112.915V46.0126C112.915 44.5729 111.767 43.425 110.328 43.425H110.308Z" fill="white"/>
<path d="M115.386 38.2302C115.269 38.2302 115.172 38.2302 115.055 38.2497C113.285 38.3664 111.223 39.2808 110.114 40.0007C109.005 40.7205 108.869 41.2264 108.869 42.8217C108.888 44.4366 109.044 47.1409 109.316 48.9892C109.588 50.8375 109.958 51.8297 110.367 52.4523C110.775 53.0749 111.223 53.3472 111.709 53.4056C112.176 53.464 112.682 53.3278 113.207 53.1138C113.732 52.8998 114.297 52.6274 114.472 53.211C114.627 53.7169 114.511 54.8648 114.433 55.7792C114.394 55.8375 114.355 55.8765 114.316 55.9543C114.122 56.2267 113.791 56.6547 113.246 57.0827C112.721 57.5107 111.981 57.9388 111.456 58.6392C110.95 59.3201 110.659 60.254 110.308 61.577C109.958 62.8999 109.511 64.826 109.297 65.8572C109.083 66.8883 109.102 67.1218 109.647 67.4525C110.036 67.686 110.697 67.9584 111.495 68.0751C113.207 65.4486 114.647 62.647 115.814 59.7287C117.624 55.1761 118.752 50.3705 119.258 45.4872C119.219 44.0669 119.316 41.9852 118.849 40.5844C118.305 38.9501 116.982 38.2497 115.367 38.2497L115.386 38.2302Z" fill="#9CDADB"/>
<path d="M16.9408 43.4639C15.5011 43.4639 14.3532 44.6117 14.3532 46.0515V59.2813H19.5479V46.0515C19.5479 44.6117 18.4 43.4639 16.9603 43.4639H16.9408Z" fill="white"/>
<path d="M9.78114 43.4639C8.34142 43.4639 7.19354 44.6117 7.19354 46.0515V59.2813H12.3882V46.0515C12.3882 44.6117 11.2403 43.4639 9.80059 43.4639H9.78114Z" fill="white"/>
<path d="M15.4428 57.1802C15.3649 57.1802 15.2677 57.1802 15.1315 57.1996C14.6062 57.2385 13.5556 57.3553 12.8941 57.8222C12.2326 58.2697 11.9213 59.0674 11.7851 60.4487C11.6489 61.8495 11.6684 63.8534 11.7851 65.1375C11.9018 66.4216 12.1158 66.9663 12.4466 67.3944C12.7773 67.8418 13.2248 68.1726 13.4972 68.4255C13.7696 68.659 13.9058 68.8146 13.9447 69.0092C13.9836 69.2232 13.9447 69.4956 13.3415 69.8652C12.7384 70.2543 11.5905 70.7407 10.5788 71.1688C9.56716 71.5968 8.69166 71.947 8.04962 73.4256C7.64105 74.3789 7.32976 75.7992 7.15466 77.0638C9.21696 78.6786 11.6684 79.8265 14.1976 80.6047C16.0653 81.1689 17.972 81.5775 19.8786 81.8888C20.9487 81.6164 22.0577 81.3051 22.8164 81.0717C24.1978 80.6242 24.4312 80.3907 24.3729 78.9705C24.2951 77.5502 23.9059 74.9237 23.2639 73.4256C22.6219 71.947 21.7658 71.5773 20.7347 71.1688C19.723 70.7407 18.5556 70.2543 17.972 69.8652C17.3689 69.4761 17.3299 69.2037 17.3689 69.0092C17.4078 68.7952 17.5245 68.659 17.8163 68.4255C18.0887 68.192 18.5362 67.8418 18.8669 67.3944C19.1977 66.9469 19.4117 66.4021 19.5284 65.1375C19.6452 63.8534 19.6646 61.8495 19.5284 60.4487C19.3922 59.0479 19.0809 58.2697 18.4195 57.8222C17.758 57.3747 16.7074 57.258 16.1821 57.1996C15.8708 57.1802 15.7346 57.1802 15.6762 57.2191C15.6373 57.1996 15.5789 57.1802 15.4817 57.1802H15.4428Z" fill="#ABE0E1"/>
<path d="M46.1048 0.0195312L20.1315 16.4595V81.9276C21.9409 82.2195 23.7503 82.4529 25.5596 82.7059C32.4469 83.6786 39.2758 85.0405 46.1242 86.2079V0.0389869L46.1048 0.0195312Z" fill="#004455"/>
<path d="M46.1048 0.0194556H105.055V75.8769C103.44 77.4139 101.728 78.8341 99.8801 80.0987C89.3741 87.2973 76.0081 89.1067 63.3036 88.3285C57.5252 87.9783 51.8053 87.1417 46.1048 86.1689V0V0.0194556Z" fill="#004C5E"/>
<path d="M46.1048 19.6307H105.055V11.8679H46.1048V19.6307Z" fill="#007391"/>
<path d="M20.1121 26.7515L46.1048 11.8875V19.553L20.1121 34.417V26.7515Z" fill="#006680"/>
<path d="M93.3041 51.0515C91.2029 51.0515 89.5102 52.7442 89.5102 54.8454C89.5102 56.2656 90.3079 57.5691 91.5725 58.2306C92.1173 58.6976 92.448 59.4369 92.0978 60.1956C91.9811 60.3902 91.9227 60.6237 91.9227 60.8571C91.9227 61.1295 92.0006 61.4019 92.1757 61.6354C92.4286 62.3163 92.1951 63.0362 91.806 63.3669C91.7865 63.3864 91.7865 63.3864 91.7671 63.4058C90.3857 64.0089 89.4908 65.3708 89.4908 66.8884C89.4908 68.9896 91.1834 70.6822 93.2846 70.6822C94.2963 70.6822 95.2496 70.2737 95.9695 69.5733C96.6894 68.8534 97.0785 67.9001 97.0785 66.8884C97.0785 65.3708 96.1641 63.9895 94.7633 63.3864C94.7633 63.3864 94.7633 63.3864 94.7438 63.3669C94.3547 63.0556 94.1212 62.3552 94.3741 61.6743C94.5492 61.4408 94.6465 61.149 94.6465 60.8571C94.6465 60.5848 94.5687 60.3318 94.4325 60.1178C94.1407 59.398 94.4714 58.6976 94.9773 58.2501C96.2613 57.6081 97.0785 56.2851 97.0785 54.8454C97.0785 53.8337 96.6699 52.8803 95.9695 52.1605C95.2496 51.4406 94.2963 51.0515 93.2846 51.0515H93.3041Z" fill="#D38144"/>
<path d="M47.6418 45.8568C47.9725 44.4949 48.5367 41.9657 48.5951 40.1369C48.6535 38.3081 48.206 37.1796 46.4355 36.0707C44.6651 34.9617 41.5716 33.9111 38.984 33.8916C36.3964 33.8722 34.3147 34.9033 32.8944 36.2458C31.4742 37.5882 30.6959 39.2808 29.0617 46.5378C27.4274 53.7947 24.9176 66.616 23.3417 74.0091C22.4468 78.192 21.8436 80.624 21.4351 82.1221C22.797 82.3166 24.1588 82.4917 25.5207 82.6863C35.1902 84.0482 44.7429 86.1883 54.4123 87.4529C54.3345 86.7525 54.2178 85.8576 54.0621 84.6708C53.3812 79.5928 51.9415 69.437 50.6185 62.5303C49.2955 55.6235 48.0892 51.9464 47.525 50.0009C46.9608 48.0553 47.0386 47.8608 47.1359 47.6467C47.2137 47.4327 47.311 47.2187 47.6418 45.8374V45.8568Z" fill="white"/>
<path d="M60.0934 42.1602L59.9572 44.0669C59.9572 44.0669 59.8988 48.0553 59.6264 48.6584C59.5486 48.8141 59.4513 48.9892 59.3346 49.1448C58.8677 49.7868 58.1478 50.2538 56.9805 51.0126C55.8131 51.7713 54.2178 52.8025 53.3034 53.9114C52.3889 55.0204 52.1749 56.1683 52.564 61.0127C52.9532 65.8572 53.9454 74.3787 54.6263 79.4956C55.3073 84.6124 55.6964 86.3245 57.2723 87.2C58.8482 88.056 61.6109 88.056 65.1713 88.056C68.7317 88.056 73.0703 88.056 75.4244 86.4218C77.7591 84.7875 78.0898 81.5189 77.2727 75.3515C76.4555 69.1841 74.4905 60.1372 73.2259 55.2928C71.9613 50.4678 71.4165 49.8452 70.8134 49.5534C70.2103 49.2615 69.5682 49.2615 69.004 49.2226C68.4204 49.1837 67.9145 49.0864 67.6421 48.853C67.4087 48.6779 67.3308 48.386 67.253 48.1526C67.2141 45.7984 67.1363 42.277 67.1363 42.277L60.0545 42.1213L60.0934 42.1602Z" fill="#F3B294"/>
<path d="M61.1828 42.1797C60.7354 42.1991 60.3462 42.2186 60.0933 42.2575L60.0155 43.3665C61.319 45.5066 65.8911 48.6779 67.2919 47.9191C67.253 46.2265 67.2141 44.3003 67.1946 43.2108C66.6888 42.6661 65.5214 42.3742 64.2568 42.2575L61.1828 42.1991V42.1797Z" fill="#E67051"/>
<path d="M69.1791 24.5723C70.4827 24.9225 71.864 25.0976 72.1364 27.549V34.9421L67.1558 26.9458L69.1791 24.5723Z" fill="#7F3300"/>
<path d="M65.2296 23.1521C64.9767 23.1521 64.6849 23.1716 64.2957 23.2494C63.2646 23.4439 61.5525 23.9303 59.9182 24.9226C58.284 25.8953 56.7275 27.374 55.8909 28.7164C55.0543 30.0588 54.9181 31.2651 55.2878 33.4247C55.6575 35.5842 56.5135 38.6971 58.0116 41.0318C59.5097 43.3859 61.6303 44.9618 63.8677 45.5455C66.1051 46.1097 68.4787 45.6622 70.1324 44.6895C71.7862 43.6972 72.7006 42.1797 72.9924 40.4287C73.2648 38.6777 72.9146 36.6737 72.2142 33.95C71.5138 31.2262 70.4826 27.802 69.3931 25.8953C68.3036 23.9887 67.1752 23.6385 66.4359 23.405C65.9689 23.2494 65.6576 23.1521 65.2296 23.1521Z" fill="#F3B294"/>
<path d="M64.4903 23.23C64.4319 23.23 64.3736 23.2495 64.2957 23.2689C63.2646 23.4635 61.5525 23.9499 59.9182 24.9421C58.284 25.9149 56.7275 27.3935 55.8909 28.7359C55.0543 30.0784 54.9181 31.2846 55.2878 33.4442C55.6185 35.3898 56.3579 38.1135 57.603 40.3509C58.6731 39.5143 59.5486 38.2692 58.9065 33.8528L61.319 31.7321L60.6186 36.0707C64.5292 34.5337 69.0235 31.771 69.7628 26.6347C69.646 26.3818 69.5098 26.1289 69.3931 25.9149C68.3036 24.0082 67.1752 23.658 66.4359 23.4246C66.1829 23.3467 65.9689 23.2689 65.7549 23.23C65.4825 23.2105 65.2102 23.1911 64.9378 23.1716C64.8016 23.1911 64.6459 23.1911 64.4708 23.23H64.4903Z" fill="#E67051"/>
<path d="M59.4902 32.199L61.9027 30.0783L61.2023 34.4169C65.7549 32.627 71.0858 29.1834 70.4048 22.2766C65.4826 20.6034 48.42 20.8174 52.7975 30.8565C50.3461 31.3429 52.136 37.1602 57.3307 39.3197C58.6731 38.2886 60.2685 37.7633 59.4708 32.199H59.4902Z" fill="#7F2D2E"/>
<path d="M56.0272 35.3118C55.7353 35.3507 55.4435 35.4675 55.21 35.6426C54.2372 36.3624 54.1983 37.9383 55.1127 39.1446C56.0272 40.3508 57.5447 40.7594 58.5175 40.0201C58.9844 39.6699 59.2568 39.1057 59.2762 38.4442C59.2957 37.7827 59.0622 37.0823 58.6147 36.4986C57.9533 35.6231 56.9416 35.1367 56.0272 35.2729V35.3118Z" fill="#F3B294"/>
<path d="M69.1402 41.5571C69.0624 41.5571 68.9262 41.635 68.7316 41.7128C68.4787 41.8101 68.1869 41.9073 67.7783 41.9657C67.7783 41.9657 67.7783 41.9657 67.7588 41.9657C67.3503 42.0046 67.039 42.0046 66.7666 41.9852C66.5137 41.9657 66.3191 41.9462 66.2802 42.0046C66.2413 42.063 66.358 42.2381 66.6499 42.3743C66.9417 42.5105 67.3503 42.6077 67.8367 42.5494H67.8561C68.3425 42.491 68.7316 42.2964 68.9651 42.063C69.1985 41.849 69.2375 41.635 69.1791 41.596C69.1596 41.596 69.1596 41.5766 69.1402 41.5766V41.5571Z" fill="white"/>
<path d="M68.7511 49.2034C68.9262 49.2423 69.1986 49.3201 69.2959 49.9038C69.3931 50.468 69.2764 51.538 68.0896 53.7949C66.9028 56.0517 64.6071 59.4759 62.8561 61.616C61.1051 63.7562 59.8988 64.5733 58.9844 65.0986C58.07 65.6239 57.4863 65.8185 56.533 67.6473C55.5797 69.4761 54.2956 72.9198 53.8481 76.8109C53.4006 80.702 53.8092 85.0211 54.3345 87.278C54.354 87.3558 54.3734 87.4142 54.3734 87.4725C57.3307 87.8617 60.3074 88.1729 63.3035 88.348C67.6227 88.601 72.0002 88.5621 76.3388 88.134C76.6501 87.7838 76.9225 87.3169 77.1365 86.7138C77.8369 84.6709 77.7201 81.0522 78.2844 78.3868C78.8486 75.7214 80.0548 74.0287 80.2688 71.947C80.4828 69.8652 79.6657 67.4138 78.6151 64.0091C77.5645 60.6044 76.2415 56.2657 75.4438 54.0284C74.6462 51.791 74.3543 51.6742 74.1987 51.6159C74.043 51.5575 74.0041 51.538 73.9847 51.4408C73.9652 51.324 73.9458 51.11 73.8096 50.7014C73.6928 50.3123 73.4594 49.7481 73.1481 49.4757C72.8368 49.2034 72.4282 49.2228 72.1753 49.3006C71.9418 49.3785 71.8835 49.4952 71.8251 49.4757C71.7667 49.4563 71.7278 49.2812 71.6305 49.145C71.5527 49.0088 71.4165 48.931 71.0469 48.7753C70.6772 48.6197 70.0546 48.4251 69.6655 48.3279C69.2764 48.25 69.1402 48.2695 68.9262 48.3473C68.7317 48.4251 68.4787 48.5419 68.3231 48.6781C68.1674 48.7948 68.0702 48.931 68.0507 49.0088C68.0313 49.0866 68.0507 49.0866 68.1285 49.1061C68.2064 49.1255 68.3231 49.145 68.4204 49.1645C68.5176 49.1839 68.5955 49.1839 68.7706 49.2228L68.7511 49.2034Z" fill="white"/>
<path d="M69.2959 48.25C69.1402 48.25 69.0429 48.2695 68.9068 48.3278C68.7122 48.4056 68.4593 48.5224 68.3036 48.6586C68.148 48.7753 68.0507 48.9115 68.0313 48.9893C68.0118 49.0671 68.0313 49.0671 68.1091 49.0866C68.1869 49.106 68.3036 49.1255 68.4009 49.145C68.4982 49.1644 68.576 49.1644 68.7511 49.2033C68.9262 49.2422 69.1986 49.3201 69.2959 49.9037C69.3931 50.4679 69.2764 51.538 68.0896 53.7948C66.9028 56.0517 64.6071 59.4759 62.8561 61.616C61.1051 63.7561 59.8988 64.5733 58.9844 65.0986C58.07 65.6239 57.4863 65.8184 56.533 67.6472C55.5797 69.4761 54.2956 72.9197 53.8481 76.8108C53.4006 80.702 53.8092 85.0211 54.3345 87.278C54.354 87.3558 54.3734 87.4141 54.3734 87.4725C56.8248 87.8032 59.2568 88.0562 61.7276 88.2507C65.288 81.8887 71.436 68.8535 73.8096 55.0984C69.9768 71.7718 65.1518 70.6045 63.6343 69.1453C66.7472 65.7406 69.5488 61.8884 70.9496 55.7599C66.3386 67.7445 58.5369 72.6668 58.8288 69.9235C62.9339 62.5499 70.969 52.7832 70.0935 48.4251C69.9379 48.3862 69.8017 48.3473 69.6655 48.3084C69.5293 48.2695 69.4126 48.2695 69.3153 48.25H69.2959Z" fill="#E6F4F8"/>
<path d="M48.3617 72.1802C48.5173 70.507 48.7702 68.5031 49.3733 65.5459C49.9959 62.5692 50.9687 58.6391 51.8442 56.4017C52.7197 54.1643 53.5174 53.639 54.3929 53.4056C55.2879 53.1721 56.2801 53.2499 57.1945 54.1838C58.1089 55.0982 58.9261 56.8492 59.1012 58.3473C59.2763 59.8259 58.7899 61.0516 58.1478 63.8532C57.5058 66.6354 56.7276 70.9934 56.319 73.1725C55.9299 75.3515 55.9299 75.3515 56.3774 77.7056C56.8248 80.0597 57.7393 84.7875 58.1478 87.2972C58.1867 87.5307 58.2256 87.7447 58.2451 87.9393C55.7353 87.6669 53.2256 87.3361 50.7158 86.9665C50.0543 84.3983 49.1399 80.7407 48.6535 78.2115C48.0893 75.2542 48.1671 73.8923 48.3227 72.1997L48.3617 72.1802Z" fill="#F3B294"/>
<path d="M67.0779 70.4098C66.7861 70.9935 66.4164 71.9273 66.4942 73.1919C66.5721 74.4566 67.1363 76.0714 67.4086 77.4138C67.681 78.7562 67.7005 79.8068 67.8561 81.6357C68.0118 83.4645 68.3231 86.0521 68.79 87.628C68.8873 87.9587 68.9845 88.2506 69.1013 88.5035C70.5799 88.5035 72.0391 88.4451 73.5177 88.3479C73.7706 87.9587 74.0041 87.4918 74.1986 86.9081C74.6267 85.5657 74.8796 83.5618 74.685 81.4022C74.4905 79.2426 73.8679 76.908 72.6422 74.8846C71.4165 72.8417 69.5877 71.1102 68.5954 70.3514C67.5837 69.5926 67.3892 69.8261 67.0974 70.4098H67.0779Z" fill="#B9D8E1"/>
<path d="M74.1792 53.3473C73.8484 55.7209 73.2064 58.2696 72.3114 60.7988C71.4554 63.2308 70.3464 65.6627 69.0234 67.9001L68.79 67.7639C70.0935 65.546 71.2025 63.153 72.0585 60.721C72.9535 58.2112 73.5761 55.682 73.9068 53.3279L74.1792 53.3668V53.3473Z" fill="#8CB5BF"/>
<path d="M71.9029 50.176C71.7668 53.5224 70.8913 57.2773 69.3932 60.7599C67.9924 64.0284 66.0468 67.044 63.7121 69.2231L63.5176 69.0285C65.8133 66.8884 67.7394 63.8922 69.1208 60.6626C70.5994 57.219 71.4749 53.5029 71.6111 50.176L71.8835 50.1955L71.9029 50.176Z" fill="#8CB5BF"/>
<path d="M63.8872 62.686H70.0935V72.3749H63.8872V62.686Z" fill="#F9A56E"/>
<path d="M68.5955 70.196C68.362 70.2932 68.1091 70.41 67.7978 70.4489C67.4865 70.4878 67.1363 70.41 66.7472 70.4683C66.3775 70.5267 65.969 70.6823 65.288 70.9547C64.5876 71.2271 63.6148 71.6162 63.1284 71.8691C62.642 72.1221 62.6615 72.2777 62.8171 72.4333C62.9728 72.6084 63.2452 72.803 63.6537 72.8808C64.0818 72.9587 64.6265 72.9197 64.6849 72.9587C64.7238 72.9781 64.2763 73.0559 63.6343 73.2699C63.0117 73.484 62.1946 73.8536 61.7082 74.3011C61.2023 74.7486 60.9883 75.2933 60.9105 75.7213C60.8327 76.1494 60.8716 76.4801 61.2412 76.8498C61.6109 77.2194 62.3113 77.6085 63.2063 77.7836C64.0818 77.9587 65.1518 77.9004 66.1441 77.7058C67.1363 77.5113 68.0507 77.1805 68.7122 76.6941C69.3737 76.2077 69.7823 75.5657 70.0741 74.6318C70.3659 73.698 70.541 72.4528 70.3659 71.6357C70.2103 70.8185 69.7239 70.3905 69.3737 70.2154C69.0429 70.0403 68.8484 70.0987 68.6149 70.196H68.5955Z" fill="#F3B294"/>
<path d="M82.6229 85.8575C82.3506 84.2815 81.9031 81.2659 81.3972 78.5032C80.9108 75.7211 80.3855 73.1724 79.51 71.2657C78.6345 69.3396 77.4283 68.0556 76.3193 67.5303C75.2103 67.005 74.2376 67.219 73.7317 67.3941C73.2259 67.5692 73.187 67.7054 72.8562 67.7832C72.5255 67.8416 71.9224 67.8416 71.5332 67.9777C71.1441 68.1139 71.0079 68.3669 70.8134 68.4641C70.6188 68.542 70.3854 68.4447 69.9573 68.4641C69.5293 68.4836 68.9067 68.6198 68.2842 68.8727C67.6616 69.1256 67.0584 69.4758 66.7472 69.7871C66.4164 70.0984 66.3775 70.3513 66.3775 70.4875C66.3775 70.6237 66.4164 70.6626 66.5137 70.6821C66.6304 70.7015 66.825 70.7015 67.4476 71.5381C68.0701 72.3747 69.1013 74.0284 69.6071 75.4682C70.113 76.9079 70.0741 78.153 70.1519 80.2737C70.2103 82.3749 70.3854 85.3711 70.5021 87.0637C70.541 87.7057 70.5799 88.1532 70.6383 88.5034C74.7434 88.4061 78.8485 87.9781 82.8564 87.1415C82.8175 86.8497 82.7397 86.4606 82.6424 85.8769L82.6229 85.8575Z" fill="white"/>
<path d="M33.6337 43.5806C32.2718 52.9193 45.2876 64.8845 48.0892 51.8687C47.8752 51.1293 47.6807 50.5262 47.5445 50.0204C44.9374 50.8181 34.7816 56.4991 33.6337 43.5806Z" fill="#D7EEF4"/>
<path d="M33.7699 43.5806C33.7504 45.4094 34.1785 47.102 34.9567 48.5417C35.7544 50.0009 36.9412 51.2266 38.4392 52.0827L38.3031 52.3161C36.7855 51.4406 35.5598 50.176 34.7232 48.6779C33.9061 47.1993 33.4781 45.4678 33.4975 43.5806H33.7699Z" fill="#8CB5BF"/>
<path d="M37.6611 48.3473C39.0035 46.2266 41.63 42.1215 43.3421 40.1759C45.0542 38.2109 45.8713 38.386 46.669 40.4289C47.4667 42.4717 48.2644 46.4017 48.206 49.0282C48.1476 51.6742 47.2527 53.0166 45.8713 53.717C44.49 54.4174 42.6612 54.4758 40.9685 53.8727C39.2953 53.289 37.7583 52.0439 37.019 51.3435C36.2797 50.643 36.3186 50.4679 37.6611 48.3473Z" fill="#F3B294"/>
<path d="M45.2682 38.7751C44.7623 38.7946 44.1592 39.2421 43.3615 40.1565C43.0113 40.5651 42.6222 41.0515 42.2136 41.5962C43.0308 41.2655 43.8284 40.9542 44.2954 40.9153C45.1709 40.818 46.0464 40.8569 46.9024 41.0125C46.8246 40.7985 46.7662 40.604 46.6884 40.4094C46.2604 39.3199 45.8324 38.7751 45.2682 38.7751Z" fill="#E57051"/>
<path d="M43.2059 50.2539C43.2837 50.215 43.4005 50.2928 43.5561 50.3901C43.7118 50.4874 43.9258 50.6235 44.1398 50.6819C44.1592 50.6819 44.1981 50.7014 44.2176 50.7014C44.4316 50.7403 44.6456 50.7208 44.8013 50.7014C44.9569 50.6819 45.0931 50.6625 45.1515 50.7208C45.1904 50.7597 45.0153 51.4018 44.1398 51.285C44.1009 51.285 44.062 51.2656 44.0036 51.2656C43.6145 51.1683 43.3616 50.8959 43.2448 50.7014C43.1281 50.4874 43.1281 50.3317 43.2059 50.2928V50.2539Z" fill="white"/>
<path d="M74.0819 66.9662L73.6733 55.0789H73.9457L74.3543 66.9662H74.0819Z" fill="#8CB5BF"/>
<path d="M71.2025 69.7095C73.8095 72.1998 74.0236 75.838 74.2376 79.3789C74.3348 81.1105 74.4516 82.8226 74.8212 84.3595L74.5489 84.4179C74.1597 82.8615 74.0625 81.1299 73.9457 79.3984C73.7317 75.9158 73.5177 72.336 71.0079 69.9235L71.2025 69.7289V69.7095Z" fill="#8CB5BF"/>
<path d="M73.3037 68.7365C77.2727 71.1295 77.9147 75.4292 78.5567 79.6705C78.8291 81.441 79.082 83.192 79.5879 84.7874L79.3155 84.8652C78.8097 83.2504 78.5373 81.4799 78.2649 79.69C77.6423 75.507 77.0003 71.2852 73.1481 68.9505L73.2843 68.717L73.3037 68.7365Z" fill="#8CB5BF"/>
<path d="M79.8797 72.5305C79.8019 72.3164 79.7241 72.1219 79.6462 71.9079C79.5684 71.7133 79.4906 71.5188 79.3933 71.3242C78.9847 70.4098 78.4984 69.651 77.9731 69.0479C77.4088 68.3864 76.8252 67.9195 76.261 67.6471C75.7357 67.3942 75.2298 67.3164 74.8018 67.3358C74.3738 67.3553 74.0041 67.4525 73.7706 67.5304C73.5372 67.6082 73.401 67.686 73.2842 67.7444C73.1481 67.8222 73.0508 67.8806 72.8757 67.9195C72.7395 67.9389 72.5644 67.9584 72.3893 67.9778C72.1169 67.9973 71.7862 68.0362 71.5722 68.114C71.3581 68.1919 71.222 68.3086 71.1052 68.4059C71.0274 68.4837 70.9496 68.5421 70.8523 68.581C70.7161 68.6393 70.5799 68.6199 70.4048 68.6199C70.2881 68.6004 70.1324 68.6004 69.9573 68.6004C69.7433 68.6004 69.4709 68.6588 69.1791 68.7172C68.9067 68.7755 68.6149 68.8728 68.3231 68.9895C68.0312 69.1063 67.7199 69.2619 67.467 69.4176C67.2141 69.5732 66.9806 69.7289 66.825 69.8845C66.6693 70.0207 66.5915 70.1569 66.5526 70.2542C66.5137 70.3514 66.4942 70.4293 66.4942 70.4876H66.2219C66.2219 70.4098 66.2413 70.2931 66.2997 70.1569C66.3581 70.0207 66.4553 69.865 66.6304 69.7094C66.8055 69.5538 67.039 69.3787 67.3114 69.2036C67.5838 69.0479 67.895 68.8923 68.2063 68.7561C68.4982 68.6393 68.8095 68.5421 69.1013 68.4642C69.4126 68.3864 69.7044 68.3475 69.9184 68.328C70.113 68.328 70.2686 68.328 70.3854 68.3475C70.5216 68.367 70.6383 68.367 70.7161 68.328C70.7745 68.3086 70.8328 68.2502 70.9107 68.1919C71.0469 68.0751 71.2025 67.9389 71.4554 67.8417C71.7083 67.7638 72.0391 67.7249 72.3309 67.7055C72.506 67.686 72.6617 67.6666 72.7979 67.6471C72.9535 67.6082 73.0313 67.5693 73.1286 67.5109C73.2453 67.4525 73.401 67.3553 73.6539 67.2774C73.9263 67.1802 74.3154 67.0829 74.7629 67.0634C75.2298 67.044 75.7746 67.1413 76.3388 67.4136C76.9224 67.7055 77.545 68.1919 78.1287 68.8728C78.654 69.4954 79.1598 70.2736 79.5879 71.2075C79.6657 71.402 79.763 71.5966 79.8408 71.8106C79.9186 72.0052 79.9964 72.2192 80.0743 72.4526L79.8213 72.5305H79.8797ZM69.7239 75.4099C70.1714 76.7134 70.2103 77.8224 70.2492 79.5345C70.2492 79.7679 70.2686 80.0014 70.2686 80.2543C70.3075 81.266 70.3465 82.4723 70.4243 83.6396C70.4826 84.9042 70.5605 86.1494 70.6383 87.0443C70.6577 87.3751 70.6772 87.6475 70.6967 87.8615C70.7161 88.0949 70.7356 88.2895 70.755 88.4646L70.5021 88.5035C70.4826 88.3479 70.4632 88.1339 70.4437 87.9004C70.4243 87.6475 70.4048 87.3751 70.3854 87.0833C70.327 86.1883 70.2492 84.9626 70.1714 83.6785C70.113 82.5112 70.0546 81.3049 70.0157 80.2738C70.0157 80.0209 69.9963 79.7874 69.9963 79.5539C69.9573 77.8808 69.9184 76.7718 69.4904 75.5266L69.7433 75.4488L69.7239 75.4099Z" fill="#8CB5BF"/>
<path d="M33.303 52.2383C33.9644 56.1489 34.7621 60.1178 35.8906 63.9895C36.9995 67.8611 38.4198 71.655 40.2681 75.2154L40.0151 75.3515C38.1474 71.7717 36.7271 67.9779 35.6182 64.0867C34.5092 60.1956 33.6921 56.2267 33.0306 52.2966L33.303 52.2577V52.2383Z" fill="#8CB5BF"/>
<path d="M48.0114 58.6393C48.5173 61.4214 48.5951 64.1841 48.3227 66.8884C48.0309 69.7289 47.3499 72.5306 46.3383 75.2349L46.0853 75.1376C47.097 72.4527 47.778 69.6706 48.0503 66.8495C48.3227 64.1646 48.2254 61.4214 47.7391 58.6587L48.0114 58.6003V58.6393Z" fill="#8CB5BF"/>
<path d="M27.8943 52.1603C27.8359 52.3354 27.797 52.53 27.7776 52.7246C27.583 54.9814 29.8982 58.425 32.9528 61.5185C36.0073 64.6314 39.7817 67.3746 42.486 68.2696C42.9335 68.4252 43.3615 68.5225 43.7506 68.542L43.7312 68.8143C43.3226 68.7754 42.8751 68.6782 42.4082 68.5225C39.665 67.6276 35.8517 64.8454 32.7582 61.713C29.6648 58.5612 27.3106 55.0398 27.5052 52.7051C27.5247 52.4911 27.5636 52.2771 27.6219 52.0825L27.8943 52.1603Z" fill="#8CB5BF"/>
<path d="M48.8285 53.5613C49.3733 54.9621 48.9258 57.4329 48.0698 60.0205C46.883 63.6198 44.918 67.4331 43.8285 68.7756L43.6144 68.6005C44.6845 67.2775 46.6301 63.5031 47.7974 59.9233C48.634 57.394 49.0815 54.9815 48.5562 53.6586L48.8091 53.5613H48.8285Z" fill="#8CB5BF"/>
<path d="M44.2759 68.8339C44.2759 69.009 44.1981 69.1841 44.0814 69.3008C43.9646 69.4175 43.7895 69.4953 43.6144 69.4953C43.2448 69.4953 42.9529 69.2035 42.9529 68.8339C42.9529 68.4642 43.2448 68.1724 43.6144 68.1724C43.7895 68.1724 43.9646 68.2502 44.0814 68.3669C44.1981 68.4837 44.2759 68.6588 44.2759 68.8339Z" fill="#FFF6D5"/>
<path d="M40.6183 69.2036H46.8246V78.912H40.6183V69.2036Z" fill="#F9A56E"/>
<path d="M68.8678 49.1448C69.5099 50.779 69.6071 53.4639 69.3153 56.0321C69.004 58.6586 68.3036 61.1878 67.3308 62.3551L67.1168 62.18C68.0312 61.0516 68.7316 58.5807 69.0235 55.9931C69.3153 53.4639 69.218 50.8374 68.5954 49.2421L68.8484 49.1448H68.8678Z" fill="#8CB5BF"/>
<path d="M59.1595 49.1839C59.0233 49.6119 58.926 50.0594 58.8871 50.5457C58.712 52.6664 59.4513 55.1762 60.7549 57.3163C62.0584 59.4564 63.9261 61.2463 65.969 61.9078C66.3775 62.044 66.8056 62.1413 67.2336 62.1802L67.2141 62.4526C66.7666 62.4137 66.3192 62.3164 65.8911 62.1802C63.7899 61.4993 61.8638 59.6704 60.5214 57.4719C59.179 55.2735 58.4202 52.7053 58.5953 50.5457C58.6342 50.0594 58.7315 49.573 58.8677 49.1255L59.1401 49.2033L59.1595 49.1839Z" fill="#8CB5BF"/>
<path d="M67.5643 62.3163C67.5643 62.4914 67.4865 62.6665 67.3698 62.7832C67.253 62.8999 67.0779 62.9778 66.9028 62.9778C66.5332 62.9778 66.2413 62.6859 66.2413 62.3163C66.2413 61.9466 66.5332 61.6548 66.9028 61.6548C67.0779 61.6548 67.253 61.7326 67.3698 61.8493C67.4865 61.9661 67.5643 62.1412 67.5643 62.3163Z" fill="#FFF6D5"/>
<path d="M66.4748 70.5655C66.1246 70.8573 65.4437 71.0908 64.7627 71.3048C63.8872 71.5966 62.9923 71.8885 62.7783 72.3165L62.5253 72.1803C62.7977 71.6745 63.751 71.3437 64.6654 71.0324C65.3269 70.8184 65.969 70.585 66.2803 70.332L66.4554 70.546L66.4748 70.5655Z" fill="#C57A57"/>
<path d="M57.5836 65.6239L58.498 61.6938L58.7703 61.7522L57.8559 65.6822L57.5836 65.6239Z" fill="#C57A57"/>
<path d="M65.1323 73.4255C65.3853 73.8536 65.502 74.4761 65.5604 75.1182C65.6382 76.0715 65.5798 77.0248 65.4825 77.2777L65.2296 77.1805C65.3074 76.947 65.3853 76.052 65.288 75.1376C65.2296 74.5345 65.1129 73.9508 64.8989 73.5617L65.1323 73.4255Z" fill="#C57A57"/>
<path d="M61.6498 74.6316C62.2335 74.904 62.9339 74.8456 63.5954 74.69C64.2569 74.5149 64.86 74.2425 65.2102 74.0674L65.3269 74.3203C64.9573 74.4954 64.3347 74.7872 63.6537 74.9623C62.9533 75.1374 62.1946 75.1958 61.5331 74.8845L61.6498 74.6316Z" fill="#C57A57"/>
<path d="M61.2996 75.7601C62.6615 76.5383 64.0234 75.9741 65.1712 75.5072L65.4047 75.4099L65.502 75.6628C65.3658 75.7212 65.3269 75.7407 65.2685 75.7601C64.0623 76.2465 62.642 76.8496 61.1634 75.9936L61.2996 75.7601Z" fill="#C57A57"/>
<path d="M65.4437 76.9274C64.8016 77.1414 64.1207 77.2776 63.4203 77.2776C62.7783 77.2971 62.1557 77.1998 61.5526 77.0052L61.6498 76.7523C62.214 76.9469 62.8172 77.0247 63.4203 77.0052C64.0818 76.9858 64.7433 76.869 65.3659 76.655L65.4631 76.9274H65.4437Z" fill="#C57A57"/>
<path d="M56.0855 75.1571C56.0661 75.1765 56.0077 75.196 55.9688 75.196L56.0466 75.2738L56.0661 75.1571H56.0855ZM55.9688 75.196H55.9493L55.9104 75.2349C55.891 75.2543 55.891 75.2543 55.891 75.2543C55.852 75.196 55.7742 75.1182 55.6769 75.0209C55.1906 74.5539 54.14 73.7952 52.8364 73.7563V73.4839C54.2372 73.5228 55.3462 74.3399 55.852 74.8263C55.9688 74.9236 56.0466 75.0209 56.105 75.0792C56.2022 75.196 56.2217 75.3127 56.1633 75.3711C56.1244 75.41 56.0855 75.4294 56.0271 75.4294L56.0466 75.2933L55.9688 75.2154V75.196ZM55.9493 75.196C55.9688 75.1765 55.9299 75.2154 55.9104 75.2349L55.9493 75.196Z" fill="#C57A57"/>
<path d="M83.907 66.188H112.662C109.452 71.6745 105.114 76.4995 99.88 80.0987C95.055 83.4062 89.6075 85.5852 83.907 86.8888V66.188Z" fill="#F9EAC9"/>
<path d="M93.3041 33.4636C93.1874 33.4636 93.0901 33.5025 93.0123 33.5804L92.2146 34.378C92.0395 34.5531 92.0395 34.8061 92.2146 34.9812L93.0123 35.7788C93.1874 35.9539 93.4403 35.9539 93.6154 35.7788L94.4131 34.9812C94.5882 34.8061 94.5882 34.5531 94.4131 34.378L93.6154 33.5804C93.5376 33.5025 93.4208 33.4636 93.3235 33.4636H93.3041Z" fill="white"/>
<path d="M89.9578 39.1252C89.9578 37.2769 91.4558 35.7788 93.3041 35.7788C95.1524 35.7788 96.6505 37.2769 96.6505 39.1252C96.6505 40.9735 95.1524 42.4715 93.3041 42.4715C91.4558 42.4715 89.9578 40.9735 89.9578 39.1252Z" fill="#FABA8B"/>
<path d="M88.732 41.0513H97.8956V54.32H88.732V41.0513Z" fill="#F9A96E"/>
<path d="M89.4519 41.8101H94.5298V53.5418H89.4519V41.8101Z" fill="white"/>
<path d="M95.2496 41.8101H97.3703V53.5418H95.2496V41.8101Z" fill="white"/>
<path d="M87.7592 53.9504H98.8684V55.3123H87.7592V53.9504Z" fill="#E7975B"/>
<path d="M87.7592 53.9504H94.88V55.3123H87.7592V53.9504Z" fill="#FABA8B"/>
<path d="M88.4597 38.8528H98.1485V40.3703H88.4597V38.8528Z" fill="#D38144"/>
<path d="M87.7592 40.0398H98.8684V41.3822H87.7592V40.0398Z" fill="#E7975B"/>
<path d="M87.7592 40.0398H94.88V41.3822H87.7592V40.0398Z" fill="#FABA8B"/>
<path d="M86.8643 70.9351H109.355V71.2269H86.8643V70.9351Z" fill="#DBAB88"/>
<path d="M86.8643 75.7991H104.997V76.0715H86.8643V75.7991Z" fill="#DBAB88"/>
<path d="M86.8643 80.6628H98.8295V80.9352H86.8643V80.6628Z" fill="#DBAB88"/>
<path d="M96.5337 71.0908V66.616H96.8061V71.0908H96.5337Z" fill="#DBAB88"/>
<path d="M108.946 71.0908V66.616H109.219V71.0908H108.946Z" fill="#DBAB88"/>
<path d="M103.051 75.7407V71.2659H103.343V75.7407H103.051Z" fill="#DBAB88"/>
<path d="M90.3468 75.7407V71.2659H90.6192V75.7407H90.3468Z" fill="#DBAB88"/>
<path d="M96.5337 80.6435V76.1687H96.8061V80.6435H96.5337Z" fill="#DBAB88"/>
<path d="M90.3468 84.9237V80.8186H90.6192V84.9237H90.3468Z" fill="#DBAB88"/>
<path d="M6.1235 52.6663C4.9367 52.6663 3.84719 53.1332 3.04951 53.6196C2.3102 55.8375 1.72653 58.0749 1.41524 60.3901C1.08449 62.8415 1.08449 65.3708 1.57088 67.7833C2.05727 70.2152 3.04951 72.5693 4.5865 74.5149C6.37642 76.8107 8.84728 78.4644 11.5322 79.6317C11.5711 79.2426 11.5516 78.7562 11.4932 78.1142C11.3181 76.3437 10.8318 73.4059 10.2675 71.5577C9.68387 69.7094 9.02238 68.9311 8.49708 68.4837C7.97178 68.0362 7.54375 67.8805 7.3492 67.6082C7.15464 67.3358 7.15464 66.9272 7.1741 66.6548C7.1741 66.3825 7.19355 66.2268 7.48539 66.2268C7.77722 66.2074 8.32198 66.3241 9.04184 66.2268C9.76169 66.1295 10.6177 65.8182 11.1041 64.9038C11.5711 64.0089 11.6683 62.5108 11.6489 60.7403C11.6489 58.9699 11.5516 56.927 10.6956 55.4095C9.83952 53.892 8.24416 52.9192 6.74607 52.7246C6.55152 52.7052 6.37642 52.6857 6.18186 52.6857L6.1235 52.6663Z" fill="#9CDADB"/>
<path d="M17.4467 23.7943C17.6413 24.0862 16.9408 24.9227 15.7735 26.1874C14.6256 27.4325 12.9914 29.1446 11.4933 31.1291C9.91737 33.2108 8.98351 34.9424 8.24419 36.5183C7.56325 37.9775 7.19359 39.0086 6.82393 38.9502C6.49319 38.9113 6.25972 37.7829 6.59047 35.993C6.92121 34.1642 7.79671 31.9073 9.48935 29.631C11.1431 27.3741 13.1081 25.7788 14.6451 24.806C16.1821 23.8332 17.2521 23.5219 17.4467 23.7943Z" fill="#ABE0E1"/>
<path d="M0.13117 75.0403C0.403549 74.7873 1.29851 75.2543 2.69931 76.2271C3.8861 77.0247 6.24023 78.7757 8.3998 80.0209C10.4037 81.1882 12.7384 82.1999 15.4816 82.9976C16.6101 83.3284 17.7774 83.6202 19.0031 83.8926C21.0654 84.34 23.3223 84.7681 25.2484 85.1377C29.6648 85.9938 33.2446 86.7525 35.9684 87.5308C38.6144 88.2895 40.1319 88.951 40.0541 89.418C39.9762 89.8849 38.3225 90.06 35.5793 89.9822C32.9139 89.9238 28.9449 89.632 24.5869 89.0483C22.5635 88.7954 20.3261 88.4452 18.0692 87.9393C16.7657 87.6475 15.4816 87.2973 14.2365 86.9082C11.143 85.916 8.53599 84.4957 6.41533 82.8809C4.00284 81.0326 2.25183 79.0092 1.2596 77.6473C0.228448 76.2271 -0.180119 75.2737 0.0728035 75.0403H0.13117Z" fill="#ABE0E1"/>
<path d="M94.0434 88.4645C93.8683 88.0754 95.1524 87.1805 97.1174 85.7408C99.2575 84.1649 101.534 82.3749 104.433 79.6706C104.549 79.5539 104.666 79.4371 104.783 79.3204C107.701 76.5383 109.705 74.2036 111.417 72.0829C113.013 70.1179 113.985 68.8144 114.374 69.0089C114.744 69.184 114.452 70.8378 113.246 73.2503C112.001 75.7211 109.939 78.6784 106.904 81.5578C106.767 81.6745 106.651 81.7913 106.514 81.9275C103.538 84.6902 100.619 86.519 98.168 87.589C95.7944 88.6396 94.1796 88.8147 94.0239 88.4451L94.0434 88.4645Z" fill="#F9EAC9"/>
<path d="M24.1005 64.3009C23.9448 64.3787 23.5946 64.0674 23.4195 64.009C23.2639 63.9701 22.7775 64.0674 22.6997 63.9118C22.6218 63.7561 22.9331 63.4059 22.9915 63.2308C23.0304 63.0752 22.9331 62.5888 23.0888 62.5109C23.2444 62.4331 23.5946 62.7444 23.7697 62.8028C23.9254 62.8417 24.4118 62.7444 24.4896 62.9001C24.5674 63.0557 24.2561 63.4059 24.1977 63.581C24.1588 63.7366 24.2561 64.223 24.1005 64.3009Z" fill="white"/>
<path d="M85.7748 62.2386C85.6969 62.2775 85.4829 62.1024 85.4051 62.0829C85.3078 62.0635 85.0549 62.1218 84.9965 62.0246C84.9576 61.9467 85.1327 61.7327 85.1522 61.6549C85.1716 61.5576 85.1133 61.3047 85.2105 61.2463C85.2884 61.2074 85.5024 61.3825 85.5802 61.402C85.6775 61.4214 85.9304 61.3631 85.9888 61.4604C86.0277 61.5382 85.8526 61.7522 85.8331 61.83C85.8137 61.9273 85.872 62.1802 85.7748 62.2386Z" fill="white"/>
<path d="M99.5688 61.7327C99.4131 61.8299 98.9851 61.4603 98.81 61.4214C98.6349 61.363 98.0902 61.4797 97.9929 61.3241C97.8956 61.1684 98.2653 60.7404 98.3042 60.5653C98.3625 60.3902 98.2458 59.8455 98.4014 59.7482C98.5571 59.6509 98.9851 60.0206 99.1602 60.0595C99.3353 60.1178 99.8801 60.0011 99.9773 60.1568C100.075 60.3124 99.705 60.7404 99.6661 60.9155C99.6077 61.0906 99.7244 61.6354 99.5688 61.7327Z" fill="white"/>
<path d="M112.215 49.6313C112.098 49.6896 111.806 49.4367 111.69 49.4173C111.553 49.3784 111.184 49.4562 111.125 49.3394C111.067 49.2227 111.32 48.9309 111.339 48.8141C111.378 48.678 111.301 48.3083 111.417 48.2499C111.534 48.1916 111.826 48.4445 111.943 48.4639C112.079 48.5029 112.448 48.425 112.507 48.5418C112.565 48.6585 112.312 48.9503 112.293 49.0671C112.254 49.2033 112.332 49.5729 112.215 49.6313Z" fill="white"/>
<path d="M5.30634 64.1452C5.22851 64.1841 5.03396 64.009 4.95614 63.9896C4.87831 63.9701 4.60594 64.009 4.56702 63.9312C4.52811 63.8534 4.70321 63.6588 4.72267 63.581C4.74212 63.5032 4.70321 63.2308 4.78104 63.1919C4.85886 63.153 5.05341 63.3281 5.13124 63.3475C5.20906 63.367 5.48144 63.3281 5.52035 63.4059C5.55926 63.4837 5.38416 63.6783 5.3647 63.7561C5.34525 63.8339 5.38416 64.1063 5.30634 64.1452Z" fill="white"/>
<path d="M15.1704 73.9314C15.0925 73.9703 14.898 73.7952 14.8202 73.7757C14.7423 73.7563 14.4699 73.7952 14.431 73.7173C14.3921 73.6395 14.5672 73.445 14.5867 73.3671C14.6061 73.2893 14.5672 73.0169 14.645 72.978C14.7229 72.9391 14.9174 73.1142 14.9953 73.1337C15.0731 73.1531 15.3455 73.1142 15.3844 73.192C15.4233 73.2699 15.2482 73.4644 15.2287 73.5422C15.2093 73.6201 15.2482 73.8924 15.1704 73.9314Z" fill="white"/>
</svg>
