<svg width="200" height="154" viewBox="0 0 200 154" fill="none" xmlns="http://www.w3.org/2000/svg">
<path d="M121.663 25.128C114.779 26.7478 108.558 30.429 102.558 34.1839C96.5573 37.9387 90.5201 41.8408 83.7466 43.9391C76.4946 46.2215 68.764 46.3319 61.1806 46.2215C53.5973 46.1111 45.9035 45.7797 38.4674 47.2154C30.4056 48.7615 22.7854 52.406 16.5273 57.7438C10.2692 63.0447 5.4468 70.0391 2.68588 77.7697C-0.0750454 85.5002 -0.700855 93.9671 0.882075 102.029C2.465 110.091 6.29349 117.674 11.8521 123.711C20.503 133.135 32.872 138.4 45.3882 141.16C57.9044 143.885 70.7519 144.363 83.4889 145.688C94.2749 146.83 104.987 148.597 115.773 149.149C126.596 149.701 137.64 148.928 147.8 145.173C161.789 140.019 173.421 129.123 180.048 115.797C186.637 102.434 188.22 86.7519 184.944 72.2478C182.477 61.3514 177.287 51.0439 169.777 42.798C162.267 34.552 152.365 28.4043 141.542 25.6802C135.063 24.0605 128.179 23.6187 121.663 25.1648V25.128Z" fill="#D6F0E3"/>
<path d="M176.072 50.9703C171.875 52.6268 168.636 56.5658 168.636 61.7931C168.636 64.37 163.335 59.3267 160.979 60.3942C157.187 62.1244 156.782 70.444 156.157 69.4501C155.42 68.2721 152.77 63.7442 146.107 70.2231H184.465C182.698 63.4129 179.864 56.8971 176.072 50.9703Z" fill="white"/>
<path d="M157.003 72.7632L155.163 75.7082L149.236 75.8922L144.156 81.5245L65.3037 100.115L49.7689 95.5132L45.1674 97.8692L37.4 96.0286L27.2398 83.4387L17.2636 84.3591L14.8708 80.0888L3.01725 76.8862C2.94362 77.0702 2.87 77.2543 2.79637 77.4383C2.75956 77.512 2.72275 77.6224 2.68594 77.696V77.7328C2.31781 78.7636 1.9865 79.7575 1.72882 80.7883C1.692 80.9355 1.65519 81.0459 1.61838 81.1932C1.54475 81.4141 1.50794 81.6718 1.43432 81.8926C0.440385 85.8315 -0.0381751 89.8809 0.0354496 93.9671C0.0354496 94.2248 0.0354496 94.4824 0.0722619 94.7401C0.0722619 94.8874 0.0722619 94.9978 0.0722619 95.1451C0.0722619 95.2555 0.0722619 95.4028 0.0722619 95.5132C0.0722619 95.6236 0.0722619 95.7709 0.109074 95.8813C0.109074 96.139 0.145887 96.3967 0.145887 96.6544C0.293136 98.4582 0.51401 100.225 0.882133 101.992C1.25026 103.87 1.76563 105.747 2.35463 107.551C2.39144 107.661 2.42825 107.809 2.46506 107.919C2.50187 108.029 2.53869 108.177 2.5755 108.287C2.61231 108.397 2.64912 108.545 2.72275 108.655C2.79637 108.913 2.90681 109.134 2.98044 109.391C3.09087 109.649 3.1645 109.87 3.27493 110.091C3.31175 110.201 3.38537 110.312 3.42218 110.459C5.41005 115.318 8.28141 119.809 11.8154 123.711C16.4169 128.718 22.0492 132.546 28.1601 135.455C28.6018 135.639 29.0067 135.859 29.4485 136.044C29.7062 136.154 29.9639 136.264 30.2584 136.412C35.1176 138.51 40.2345 140.056 45.3514 141.197C54.4809 143.185 63.7944 143.958 73.0711 144.768L73.476 144.805L74.2491 144.879L74.654 144.915L75.3903 144.989C78.0776 145.21 80.7281 145.467 83.4154 145.725C86.8021 146.093 90.1888 146.498 93.5756 146.94C100.754 147.86 107.932 148.781 115.184 149.149C115.368 149.149 115.553 149.186 115.737 149.186C117.761 149.296 119.786 149.333 121.847 149.333C122.031 149.333 122.179 149.333 122.363 149.333C122.878 149.333 123.357 149.333 123.872 149.296H123.909C124.572 149.296 125.234 149.259 125.897 149.222H125.97C133.406 148.928 140.806 147.75 147.763 145.173C155.604 142.265 162.746 137.553 168.673 131.626C173.274 126.988 177.14 121.65 180.011 115.797C180.085 115.613 180.195 115.429 180.269 115.245L180.305 115.134C180.379 114.95 180.489 114.766 180.563 114.619L180.637 114.508C180.71 114.324 180.784 114.14 180.894 113.993L180.931 113.883C181.005 113.698 181.078 113.514 181.189 113.33L181.226 113.294C181.299 113.109 181.373 112.925 181.447 112.741C181.447 112.705 181.483 112.668 181.483 112.631C181.557 112.447 181.631 112.263 181.704 112.079L181.778 111.931C181.852 111.747 181.925 111.563 181.999 111.416C181.999 111.379 182.036 111.342 182.036 111.269C182.109 111.085 182.183 110.938 182.256 110.753L182.293 110.643C182.367 110.496 182.404 110.312 182.477 110.164C182.514 110.128 182.514 110.054 182.551 110.017C182.625 109.833 182.661 109.686 182.735 109.502C182.772 109.428 182.772 109.391 182.809 109.318C182.882 109.134 182.919 108.986 182.993 108.802C183.029 108.729 183.029 108.692 183.066 108.618C183.14 108.471 183.177 108.287 183.214 108.14C183.25 108.066 183.25 108.029 183.287 107.956C183.324 107.809 183.398 107.661 183.434 107.514C183.471 107.44 183.471 107.404 183.508 107.33C183.545 107.183 183.618 106.999 183.655 106.851C183.692 106.778 183.692 106.704 183.729 106.631C183.766 106.483 183.839 106.299 183.876 106.152C183.913 106.078 183.913 106.005 183.95 105.931C183.987 105.784 184.023 105.673 184.06 105.526C184.097 105.416 184.134 105.342 184.134 105.232C184.171 105.121 184.207 105.011 184.244 104.9C184.281 104.79 184.318 104.679 184.318 104.569C184.355 104.459 184.392 104.311 184.428 104.201C184.465 104.127 184.465 104.017 184.502 103.943C184.539 103.796 184.576 103.649 184.612 103.501C184.649 103.391 184.649 103.317 184.686 103.207C184.723 103.097 184.723 102.986 184.76 102.912C184.796 102.765 184.833 102.655 184.87 102.508C184.907 102.434 184.907 102.323 184.944 102.25C184.981 102.103 185.017 101.955 185.054 101.808C185.091 101.734 185.091 101.624 185.128 101.55C185.165 101.44 185.165 101.33 185.201 101.219C185.238 101.072 185.275 100.961 185.275 100.814C185.312 100.704 185.312 100.593 185.349 100.483C185.349 100.409 185.385 100.336 185.385 100.262C185.422 100.078 185.459 99.8939 185.496 99.7098C185.496 99.6362 185.533 99.5994 185.533 99.5257C185.57 99.3417 185.606 99.1208 185.643 98.9367C185.643 98.8999 185.643 98.8263 185.68 98.7895C185.754 98.4214 185.79 98.0532 185.864 97.6851V97.5747C185.901 97.3538 185.938 97.1329 185.974 96.9121V96.8016C186.011 96.5807 186.048 96.3599 186.085 96.139V96.0654C186.122 95.6972 186.195 95.2923 186.232 94.9242C186.269 94.6665 186.306 94.4088 186.306 94.1879V94.1143C186.343 93.8934 186.343 93.6358 186.379 93.4149V93.3413C186.453 92.6786 186.49 92.0528 186.527 91.3902V91.3534L173.495 78.3218L157.04 72.7632H157.003Z" fill="#429E73"/>
<path d="M27.203 83.4756L17.779 84.3591L7.39796 99.673L9.09133 102.139L26.614 102.912L34.5655 92.5682L27.203 83.4756ZM186.453 91.3902V91.3534L173.422 78.3218L172.501 101.624C172.501 101.624 179.275 101.992 184.907 102.029C185.57 99.1944 186.011 96.2862 186.306 93.3781V93.3413C186.306 93.1572 186.343 92.9363 186.343 92.7523V92.605C186.343 92.421 186.379 92.2369 186.379 92.0528V91.8688C186.379 91.6847 186.416 91.5375 186.416 91.3534L186.453 91.3902ZM14.7972 80.1625L8.02377 89.476L0.477245 86.4942C0.0723099 89.2919 -0.0749394 92.1265 0.0354976 94.961L5.15241 97.0593L17.0796 84.2118L14.7972 80.1993V80.1625ZM149.199 75.8922L144.119 81.5245L139.628 82.5921L143.677 93.6358L150.819 97.1697L155.531 92.4578L149.236 75.8922H149.199ZM156.966 72.7632L155.126 75.7082L167.642 91.1325C167.642 91.1325 169.998 88.0035 169.483 86.9359C168.967 85.9052 156.966 72.7264 156.966 72.7264V72.7632Z" fill="#5AC493"/>
<path d="M10.2693 91.3902C7.39799 92.421 6.18318 97.7587 7.32436 104.422C4.96837 103.281 2.79645 102.876 1.13989 103.317C2.87007 110.901 6.58812 118.042 11.8523 123.748C13.2511 125.258 14.7605 126.693 16.3066 127.982C17.3741 127.908 18.2944 127.577 18.9939 126.951C19.3252 126.656 19.6197 126.288 19.8774 125.883C20.7977 127.025 21.8652 127.724 23.0432 127.871C25.0679 128.129 27.1662 126.804 28.97 124.19C30.737 121.576 32.0254 117.895 32.504 113.919C33.5347 105.673 30.9947 98.5686 26.7981 98.0532C24.5525 97.7956 22.1965 99.4521 20.3559 102.618C18.1104 95.5132 13.9874 90.6908 10.7111 91.2798C10.5638 91.3166 10.4166 91.3534 10.2693 91.3902Z" fill="#007391"/>
<path d="M11.3369 95.4396C15.7544 102.139 16.6747 108.729 17.4846 114.692C18.0368 118.742 18.5521 122.497 20.1351 125.773L19.7669 125.957C18.184 122.607 17.6686 118.815 17.0796 114.729C16.2698 108.802 15.3863 102.287 11.0056 95.6604L11.3737 95.4396H11.3369Z" fill="#2B8DA7"/>
<path d="M7.47155 104.238C9.27536 105.894 11.6682 109.171 13.6928 112.852C15.4598 116.054 16.9691 119.588 17.5949 122.607L17.19 122.681C16.5642 119.699 15.0917 116.202 13.3247 113.036C11.3368 109.391 8.98086 106.152 7.21387 104.532L7.50837 104.201L7.47155 104.238Z" fill="#005267"/>
<path d="M20.5768 102.692C19.546 105.232 19.1043 108.25 18.957 111.379C18.8098 114.508 18.9202 117.785 19.0307 120.803H18.5889C18.4785 117.785 18.3312 114.508 18.5153 111.342C18.6625 108.177 19.1411 105.121 20.1719 102.544L20.5768 102.692Z" fill="#005267"/>
<path d="M9.71716 121.208C12.1468 123.932 14.9077 126.067 17.9263 126.693" stroke="#2B8DA7" stroke-width="4.78523"/>
<path d="M26.614 102.912C26.9821 111.085 27.1293 118.631 23.7794 126.067" stroke="#2B8DA7" stroke-width="4.78523"/>
<path d="M55.254 24.4654C50.3212 24.7599 44.9834 26.4165 41.4494 30.6131C37.9523 34.8465 36.2589 41.6568 32.9826 56.8971C29.6695 72.1374 24.7734 95.8077 21.2395 110.901C19.3989 118.889 17.9264 124.448 16.9692 128.534C25.0679 135.05 35.1913 138.952 45.3883 141.197C57.7941 143.921 70.568 144.363 83.2314 145.688C87.6489 140.682 90.5939 132.399 90.373 117.785C90.0785 98.495 84.3726 68.1616 79.9183 51.0807C75.464 33.963 72.2981 30.0977 68.4697 27.6313C64.6412 25.1648 60.1869 24.1709 55.254 24.4654Z" fill="white"/>
<path d="M100.938 38.8222C100.938 40.0738 100.459 41.2518 99.6128 42.1353C98.7661 43.0188 97.5881 43.4974 96.4101 43.4974C95.1953 43.4974 94.0541 43.0188 93.2074 42.1353C92.3608 41.2518 91.8822 40.0738 91.8822 38.8222C91.8822 36.2085 93.9069 34.1102 96.4101 34.1102C98.9134 34.1102 100.938 36.2085 100.938 38.8222Z" fill="#E67051"/>
<path d="M136.536 38.8222C136.536 40.0738 136.057 41.2518 135.21 42.1353C134.364 43.0188 133.186 43.4974 132.008 43.4974C130.793 43.4974 129.652 43.0188 128.805 42.1353C127.958 41.2518 127.48 40.0738 127.48 38.8222C127.48 36.2085 129.504 34.1102 132.008 34.1102C134.511 34.1102 136.536 36.2085 136.536 38.8222Z" fill="#E67051"/>
<path d="M36.3693 101.44C35.7435 101.44 35.9276 129.16 31.4733 130.669C22.4175 133.688 22.712 119.184 22.712 114.067V104.459C22.1966 106.741 21.718 108.876 21.2395 110.901C19.3989 118.889 17.9264 124.448 16.9692 128.534C25.0679 135.05 35.1913 138.952 45.3883 141.197C57.7941 143.921 70.568 144.363 83.2314 145.688C86.6918 141.749 89.2318 135.823 90.0785 126.399C64.678 123.417 40.5291 139.835 36.3693 101.477V101.44Z" fill="#D6F0E3"/>
<path d="M55.254 24.7231C52.6403 24.8704 49.8794 25.4225 47.3393 26.5637C45.2042 27.5208 43.2532 28.8829 41.6702 30.7971C39.9401 32.8586 38.6516 35.6195 37.4 39.7057C36.1484 43.8287 34.8968 49.3505 33.2402 56.9339C32.2831 61.3514 31.2155 66.321 30.1112 71.622C27.2766 84.9849 24.0371 100.152 21.4971 110.938C20.4295 115.576 19.4724 119.404 18.6625 122.607C18.1104 124.889 17.6318 126.84 17.2269 128.571L16.6747 128.46C17.0796 126.767 17.5582 124.816 18.1104 122.497C18.8834 119.331 19.8405 115.502 20.9449 110.827C23.4481 100.041 26.6876 84.8744 29.5222 71.5116C30.6634 66.1738 31.7309 61.0937 32.6512 56.8234C34.3078 49.2033 35.5594 43.6814 36.811 39.5217C38.0995 35.3619 39.3879 32.5641 41.1917 30.429C42.8482 28.4411 44.8729 27.0423 47.0817 26.0483C49.6585 24.9072 52.4931 24.3182 55.1804 24.1709C57.6836 24.0237 60.0764 24.2077 62.322 24.7231C64.5307 25.2385 66.629 26.122 68.5432 27.3736C70.4943 28.6252 72.2613 30.2449 74.1387 33.7053C75.9793 37.1289 77.8936 42.393 80.1391 50.9703C82.6055 60.431 85.4401 73.9044 87.5752 87.3409C89.2686 98.2373 90.5202 109.097 90.6306 117.748C90.7411 125.073 90.0416 130.816 88.79 135.381C87.5384 139.946 85.661 143.296 83.4154 145.836L83.0105 145.467C85.1824 143.001 87.023 139.725 88.2378 135.234C89.4894 130.743 90.1521 125.037 90.0416 117.748C89.9312 109.134 88.7164 98.2741 86.9862 87.4145C84.8879 74.0148 82.0534 60.5415 79.5869 51.0807C77.3782 42.5403 75.464 37.3129 73.6601 33.9262C71.8563 30.5763 70.1262 28.9933 68.2855 27.8153C66.4081 26.6005 64.3834 25.7538 62.2483 25.2385C60.0396 24.7231 57.7204 24.539 55.254 24.6863V24.7231Z" fill="#429E73"/>
<path d="M76.2001 90.6908L76.3842 131.552H75.832L75.6479 90.6908H76.2001Z" fill="#429E73"/>
<path d="M163.556 4.80764C158.255 14.4525 158.034 22.588 159.985 29.3983C154.279 25.7538 146.622 24.6495 139.554 27.7417L152.365 35.2514C147.174 35.5459 141.395 38.086 136.094 44.7122L157.666 44.8226C147.542 48.0989 141.836 60.1365 143.788 66.6523L167.274 46.2215L168.305 53.9889L166.096 53.2158L167.127 62.0876L165.175 61.3145L166.758 70.9962L164.807 69.3028L164.402 83.4387L162.967 81.7454L161.016 93.783L159.985 91.9424L158.66 105.268L157.077 103.06L154.463 113.404L153.027 118.631L158.034 140.13C160.279 138.731 162.415 137.185 164.439 135.528L164.182 133.798L172.796 111.821L170.44 111.674L177.25 97.6851L172.685 97.5379L177.139 84.0646L173.605 84.3222L177.139 71.9165L174.673 71.6588L176.771 60.7992L173.385 62.3821L173.642 51.2648L171.544 53.3631L170.697 45.7061L199.374 58.0014C199.227 51.1912 190.134 41.5095 179.495 41.4727L200 34.7729C192.895 30.0609 186.637 29.4351 181.594 30.7235L191.496 19.643C182.551 18.7227 174.563 23.4715 170.624 30.2081C170.845 23.1034 169.556 14.9678 163.629 4.80764H163.556Z" fill="#429E73"/>
<path d="M110.951 50.3813L106.497 50.8967C106.497 50.8967 107.527 65.0326 105.576 67.2413C103.625 69.4501 83.8203 75.3768 81.317 83.2547C78.3721 93.4517 75.6479 126.472 74.2859 144.805C77.3413 145.063 80.3967 145.32 83.4522 145.652C94.2382 146.793 104.951 148.56 115.737 149.112C126.559 149.664 137.603 148.891 147.763 145.136C149.751 144.4 151.665 143.553 153.543 142.596C152.144 123.895 149.53 93.0099 146.696 83.2179C145.039 77.4383 124.387 69.4132 122.436 67.2045C120.485 64.9958 121.516 50.8598 121.516 50.8598L117.062 50.3445L113.97 53.3263L110.877 50.3445L110.951 50.3813Z" fill="#F3B294"/>
<path d="M121.295 52.3692C119.97 52.3692 117.982 52.9582 114.927 53.7312C111.908 54.5043 108.301 55.0196 106.791 57.5229C106.791 57.7806 106.791 58.0014 106.791 58.2591C112.939 66.9836 118.755 68.3825 121.958 66.1738C121.001 63.0447 121.295 55.5718 121.479 52.406C121.406 52.406 121.369 52.406 121.295 52.406V52.3692Z" fill="#E67051"/>
<path d="M100.386 12.3174C102.374 11.2866 105.797 9.74049 109.773 8.93062C113.749 8.12075 118.314 8.08393 121.59 8.85699C124.866 9.63005 126.891 11.213 128.547 13.164C130.241 15.1519 131.566 17.5079 132.302 21.1155C133.002 24.7231 133.075 29.6191 132.781 35.1042C132.486 40.5892 131.824 46.7369 129.468 51.1175C127.112 55.4982 123.026 58.1487 119.013 59.3635C115 60.5783 111.025 60.3574 107.307 58.7009C103.589 57.0443 100.091 53.9889 97.9563 47.3627C95.8212 40.7365 95.0114 30.6131 95.1218 24.5022C95.2322 18.3914 96.263 16.2931 97.036 15.0047C97.8091 13.7162 98.3613 13.2745 100.349 12.2437L100.386 12.3174Z" fill="#F3B294"/>
<path d="M98.398 23.6555C98.398 23.6555 96.1525 37.8283 95.8948 37.497C95.6739 37.1657 90.2257 24.9808 90.2257 24.9808L92.5817 19.4221C92.5817 19.4221 95.4899 21.2996 96.0421 21.8886C96.5942 22.4407 98.398 23.6924 98.398 23.6924V23.6555Z" fill="#5E2425"/>
<path d="M127.885 21.999C127.885 21.999 132.597 37.1657 132.67 36.7239C132.744 36.2822 139.738 19.3485 139.738 19.3485L134.364 14.2316L127.885 21.999Z" fill="#5E2425"/>
<path d="M136.609 13.6794C133.259 29.2142 110.804 29.5087 99.8705 29.5087L103.846 23.766C96.1893 25.2017 88.8268 22.2935 88.2378 19.2749C93.4651 5.8752 124.866 -13.4513 136.572 13.7162L136.609 13.6794Z" fill="#7F2D2E"/>
<path d="M166.685 102.066C169.556 103.097 170.771 108.434 169.63 115.097C172.943 113.478 175.814 113.404 177.508 114.84C178.317 115.539 178.796 116.533 179.017 117.748C174.526 126.031 168.047 133.283 160.279 138.657C159.359 138.547 158.549 138.215 157.923 137.663C157.592 137.369 157.298 137.001 157.04 136.596C156.12 137.737 155.052 138.436 153.874 138.584C151.849 138.841 149.751 137.516 147.947 134.902C146.18 132.289 144.892 128.607 144.413 124.632C143.383 116.386 145.923 109.281 150.119 108.766C152.365 108.508 154.721 110.164 156.561 113.33C158.807 106.226 162.93 101.403 166.206 101.992C166.353 102.029 166.501 102.066 166.648 102.103L166.685 102.066Z" fill="#007391"/>
<path d="M166.022 106.373C161.642 112.999 160.758 119.552 159.948 125.442C159.396 129.528 158.881 133.319 157.261 136.669L156.893 136.485C158.439 133.209 158.954 129.454 159.543 125.405C160.353 119.441 161.273 112.852 165.691 106.152L166.059 106.373H166.022Z" fill="#2B8DA7"/>
<path d="M169.887 115.318C168.12 116.938 165.764 120.177 163.777 123.785C162.046 126.951 160.537 130.448 159.948 133.393L159.286 133.246C159.911 130.227 161.421 126.656 163.188 123.454C165.212 119.773 167.605 116.459 169.409 114.803L169.851 115.281L169.887 115.318Z" fill="#005267"/>
<path d="M156.819 113.22C157.85 115.797 158.292 118.852 158.476 122.018C158.623 125.184 158.512 128.46 158.402 131.479H157.96C158.071 128.46 158.218 125.184 158.034 122.055C157.887 118.926 157.445 115.907 156.414 113.367L156.819 113.22Z" fill="#005267"/>
<path d="M175.851 119.441C175.593 119.92 175.483 120.104 175.373 120.288C171.875 126.362 166.28 136.08 159.101 137.59L159.028 137.185C165.985 135.712 171.544 126.104 175.004 120.104L175.483 119.257L175.851 119.478V119.441Z" fill="#2B8DA7"/>
<path d="M150.34 113.625C149.972 121.797 149.825 129.344 153.175 136.78" stroke="#2B8DA7" stroke-width="4.78523"/>
<path d="M121.884 76.7021C116.657 83.2915 106.239 96.4335 100.459 103.207C94.68 109.98 93.4651 110.385 92.8393 110.827C92.2135 111.269 92.1031 111.821 91.5509 117.417C90.9987 123.049 89.9312 133.761 89.1949 141.529C89.0477 143.222 88.9004 144.805 88.7532 146.241C97.7722 147.308 106.754 148.633 115.81 149.075C126.633 149.627 137.677 148.854 147.837 145.099C152.07 143.516 156.12 141.418 159.838 138.915C157.555 124.889 152.77 104.127 150.082 92.8627C146.953 79.8311 146.622 79.4262 146.401 79.1317C146.144 78.8372 145.996 78.6531 145.96 77.9537C145.923 77.2543 145.996 76.0763 145.223 75.0823C144.45 74.0884 142.83 73.2785 141.726 72.8736C140.622 72.4687 140.07 72.4687 139.628 72.5791C139.186 72.6895 138.855 72.8736 138.744 72.9104C138.597 72.9472 138.634 72.8 138.155 72.211C137.714 71.5852 136.756 70.5176 135.542 69.7077C134.29 68.8979 132.744 68.3457 131.676 68.1248C130.609 67.9039 130.02 68.0144 129.578 68.2353C129.136 68.4561 128.842 68.8243 128.621 68.9715C128.4 69.1188 128.216 69.0451 127.995 69.0819C127.737 69.1188 127.406 69.3028 127.259 69.4501C127.112 69.6341 127.112 69.8182 127.112 69.9286C127.112 70.0391 127.112 70.0391 121.884 76.5917V76.7021Z" fill="white"/>
<path d="M143.677 93.6726L141.873 147.014C143.861 146.498 145.849 145.909 147.8 145.173C148.941 144.768 150.082 144.29 151.187 143.811L143.677 93.7094V93.6726ZM88.7163 146.277C93.2074 146.83 97.7353 147.419 102.226 147.934C126.78 132.215 141.505 101.256 144.156 81.5613C133.222 115.944 104.951 139.467 104.693 132.878C116.399 113.919 134.548 104.311 138.634 74.162C127.406 109.244 96.1892 122.938 95.0112 120.177L126.486 70.8857C125.86 71.6956 124.535 73.3522 121.884 76.6653C116.657 83.2547 106.239 96.3967 100.459 103.17C94.6799 109.944 93.4651 110.349 92.8393 110.79C92.2135 111.232 92.103 111.784 91.5509 117.38C90.9987 123.012 89.9311 133.724 89.1949 141.492C89.0476 143.185 88.9004 144.768 88.7531 146.204L88.7163 146.277ZM116.51 149.149C120.522 149.333 124.572 149.333 128.547 149.038C132.854 143.443 135.799 136.633 138.855 129.896C131.971 141.786 124.093 146.977 116.473 149.149H116.51ZM127.443 69.3764C127.369 69.4133 127.296 69.4869 127.259 69.5237C127.148 69.6709 127.112 69.8182 127.112 69.8918L127.443 69.3396V69.3764Z" fill="#D6F0E3"/>
<path d="M138.892 74.1989C137.603 82.4816 132.044 93.6358 124.424 103.097C117.761 111.379 109.479 118.374 101.085 121.024L100.901 120.509C109.184 117.895 117.356 110.974 123.983 102.765C131.566 93.3781 137.088 82.3344 138.339 74.162L138.892 74.2357V74.1989Z" fill="#429E73"/>
<path d="M109.81 97.7587H123.504V119.22H109.81V97.7587Z" fill="#F9A56E"/>
<path d="M102.595 68.2721C102.19 69.4869 101.932 70.8121 101.822 72.211C101.417 76.8493 102.521 82.1135 104.767 86.5678C107.012 91.0221 110.399 94.6297 114.595 96.0286C115.442 96.3231 116.326 96.5071 117.246 96.5807L117.209 97.2066C116.252 97.1329 115.332 96.9121 114.448 96.6544C110.104 95.2187 106.57 91.4638 104.251 86.8991C101.932 82.3344 100.828 76.9598 101.233 72.211C101.343 70.7753 101.638 69.4133 102.042 68.1248L102.631 68.3089L102.595 68.2721Z" fill="#429E73"/>
<path d="M127.259 68.8243C128.768 73.9044 128.695 80.7515 126.67 86.531C124.976 91.3534 121.958 95.4764 117.32 97.1697L117.099 96.5808C121.516 94.9242 124.461 90.9853 126.081 86.3101C128.032 80.641 128.106 73.978 126.633 68.9715L127.222 68.7875L127.259 68.8243Z" fill="#429E73"/>
<path d="M117.909 96.9489C117.909 97.3538 117.761 97.7219 117.467 97.9796C117.209 98.2373 116.804 98.4214 116.436 98.4214C115.626 98.4214 114.964 97.7587 114.964 96.9489C114.964 96.139 115.626 95.4764 116.436 95.4764C116.841 95.4764 117.209 95.6236 117.467 95.9181C117.725 96.1758 117.909 96.5807 117.909 96.9489Z" fill="#FFF6D5"/>
<path d="M143.972 93.6726V146.498H143.42V93.6726H143.972Z" fill="#429E73"/>
<path d="M144.45 81.5981C142.904 90.3227 139.223 99.084 134.327 107.146C128.879 116.054 121.921 124.116 114.706 130.411L114.338 130.006C121.516 123.785 128.437 115.76 133.848 106.888C138.744 98.8999 142.389 90.2122 143.898 81.5613L144.45 81.6718V81.5981Z" fill="#429E73"/>
<path d="M113.822 148.744C119.639 147.271 125.602 144.584 130.241 141.013C134.364 137.884 137.456 134.056 138.634 129.822L139.186 129.97C138.008 134.35 134.805 138.252 130.609 141.455C125.897 145.063 119.896 147.787 113.97 149.259L113.822 148.707V148.744Z" fill="#429E73"/>
<path d="M88.4587 146.241L93.4284 94.0039L93.9806 94.0775L89.0477 146.314L88.4587 146.241Z" fill="#C57A57"/>
<path d="M90.2625 127.282C89.5262 126.104 88.5323 125.515 87.3543 125.221C86.1763 124.889 84.8143 124.889 83.4154 124.889V124.337C84.8511 124.337 86.2131 124.374 87.5016 124.705C88.79 125.037 89.8944 125.736 90.7411 127.025L90.2625 127.319V127.282Z" fill="#C57A57"/>
<path d="M59.1929 60.0261C62.5796 61.3145 65.4142 62.5294 68.58 58.7745C69.5372 57.6701 72.2981 56.1976 73.292 54.2098C74.6541 51.4488 74.1387 48.283 74.1755 48.467C80.6913 72.9104 38.8725 90.5435 38.4676 47.2522C37.7681 59.3635 49.5113 60.0261 59.1929 60.0261Z" fill="#D6F0E3"/>
<path d="M38.7253 47.2891C38.4676 49.056 38.7989 52.5164 39.9401 55.8663C40.7868 58.2959 42.0384 60.6887 43.879 62.3453L43.5109 62.7502C41.5966 61.0201 40.3082 58.5536 39.4247 56.0504C38.2467 52.59 37.9522 49.056 38.1731 47.2154L38.7253 47.2891Z" fill="#429E73"/>
<path d="M73.8442 45.6325C74.6909 49.8659 74.2491 53.4735 72.9607 56.5658C71.4882 60.1366 68.8745 62.9343 65.7455 65.143L65.4142 64.7013C68.4696 62.5662 71.0097 59.8421 72.4453 56.3817C73.697 53.3999 74.1019 49.9027 73.292 45.7797L73.8442 45.6693V45.6325Z" fill="#429E73"/>
<path d="M56.1743 33.5212C54.4442 33.4108 52.9349 33.7789 50.9838 35.7668C49.0696 37.7547 46.7136 41.3623 44.873 45.5221C43.0323 49.6819 41.6703 54.4306 41.6703 57.9278C41.6703 61.3882 43.0323 63.5601 45.9037 65.6216C48.7751 67.6463 53.1189 69.5237 57.5364 68.9715C61.9539 68.4193 66.445 65.4375 68.6905 62.2717C70.9361 59.1058 70.8993 55.7559 69.3531 51.1543C67.807 46.5528 64.7884 40.6996 62.2852 37.497C59.8188 34.2943 57.8677 33.6685 56.1743 33.5581V33.5212Z" fill="#F3B294"/>
<path d="M49.7689 95.55H63.4631V116.975H49.7689V95.55Z" fill="#F9A56E"/>
<path d="M31.5836 62.9711C31.0683 69.9654 34.2341 77.1438 38.9093 82.8866C44.1366 89.2919 51.2046 93.8566 57.205 94.372L57.1682 94.9978C51.0205 94.4456 43.7685 89.8073 38.4675 83.2915C33.7187 77.4752 30.4793 70.1495 31.0314 62.9711L31.6572 63.0079L31.5836 62.9711Z" fill="#429E73"/>
<path d="M84.2989 65.6216C83.7099 69.6709 79.3292 76.2235 73.8442 82.1871C68.5432 87.9298 62.2115 93.1204 57.2786 94.961L57.0577 94.372C61.917 92.5682 68.1751 87.4513 73.4024 81.7454C78.8138 75.8922 83.1577 69.4501 83.7099 65.5111L84.3357 65.5848L84.2989 65.6216Z" fill="#429E73"/>
<path d="M57.8677 94.7401C57.8677 95.1451 57.7205 95.5132 57.426 95.7709C57.1683 96.0286 56.7633 96.2126 56.3952 96.2126C55.5854 96.2126 54.9227 95.55 54.9227 94.7401C54.9227 93.9303 55.5854 93.2676 56.3952 93.2676C56.8002 93.2676 57.1683 93.4149 57.426 93.7094C57.6837 93.9671 57.8677 94.372 57.8677 94.7401Z" fill="#FFF6D5"/>
<path d="M36.9214 90.6908L36.7374 131.552H36.1852L36.3692 90.6908H36.9214Z" fill="#429E73"/>
<path d="M55.5485 33.5212C54.076 33.5581 52.7139 34.0366 51.0206 35.7668C49.9898 36.8344 48.8118 38.3805 47.6707 40.2211C52.898 36.503 59.8555 37.9019 64.1258 40.1107C63.5 39.1167 62.8741 38.1964 62.2851 37.4234C59.8187 34.2207 57.8677 33.5949 56.1743 33.4844C55.9534 33.4844 55.7326 33.4476 55.5485 33.4844V33.5212Z" fill="#E67051"/>
<path d="M52.8243 60.8728C52.898 60.7624 53.1925 60.9096 53.671 61.0937C54.1128 61.2777 54.7018 61.4986 55.3644 61.4986C55.4012 61.4986 55.438 61.4986 55.4748 61.4986C56.0638 61.4986 56.7633 61.3146 57.205 61.2409C57.6836 61.1673 57.9781 61.1305 58.0517 61.2409C58.0885 61.3514 57.8676 61.5722 57.4259 61.8299C57.0209 62.0876 56.3215 62.3453 55.5116 62.3821C55.4748 62.3821 55.4012 62.3821 55.3644 62.3821C54.4809 62.3453 53.7815 61.9772 53.3765 61.609C52.9716 61.2409 52.7875 60.9464 52.8612 60.8728H52.8243Z" fill="white"/>
<path d="M112.276 52.0747C112.35 51.9642 112.681 52.1115 113.123 52.2955C113.602 52.4796 114.227 52.6637 114.927 52.6637H114.964C115.663 52.6637 116.362 52.4796 116.841 52.406C117.356 52.2955 117.688 52.2587 117.724 52.3692C117.761 52.4796 117.54 52.7373 117.062 52.995C116.583 53.2527 115.847 53.5472 115 53.5472H114.964C114.043 53.5472 113.307 53.2158 112.828 52.8477C112.387 52.4796 112.203 52.1483 112.276 52.0747Z" fill="white"/>
<path d="M21.6075 74.8983C21.4602 75.0455 20.8712 74.751 20.6135 74.751C20.3927 74.751 19.8037 75.0455 19.6196 74.8983C19.4723 74.751 19.7668 74.1621 19.7668 73.9044C19.7668 73.6835 19.4723 73.0945 19.6196 72.9104C19.7668 72.7632 20.3927 73.0577 20.6135 73.0577C20.8344 73.0577 21.4234 72.7632 21.6075 72.9104C21.7547 73.0577 21.4602 73.6835 21.4602 73.9044C21.4602 74.1252 21.7547 74.7142 21.6075 74.8983Z" fill="white"/>
<path d="M10.4902 102.508C10.4165 102.728 9.75392 102.765 9.53305 102.876C9.31218 102.986 8.94405 103.575 8.72318 103.501C8.50231 103.428 8.46549 102.765 8.35506 102.544C8.24462 102.323 7.65562 101.955 7.72925 101.734C7.80287 101.514 8.46549 101.477 8.68637 101.366C8.90724 101.256 9.27536 100.667 9.49624 100.741C9.71711 100.814 9.75392 101.477 9.86436 101.698C9.9748 101.919 10.5638 102.287 10.4902 102.508Z" fill="white"/>
<path d="M167.458 99.268C167.311 99.3785 166.906 99.0104 166.722 98.9735C166.538 98.9367 166.022 99.0472 165.912 98.8631C165.801 98.7159 166.17 98.3109 166.206 98.1269C166.243 97.9428 166.133 97.4274 166.317 97.317C166.464 97.2066 166.869 97.5747 167.053 97.6115C167.237 97.6483 167.752 97.5379 167.863 97.7219C167.973 97.8692 167.605 98.2741 167.568 98.4582C167.532 98.6422 167.642 99.1576 167.458 99.268Z" fill="white"/>
<path d="M152.623 72.3582C152.475 72.4319 152.144 72.1374 151.997 72.1006C151.85 72.0637 151.408 72.1374 151.334 72.0269C151.261 71.8797 151.555 71.5484 151.592 71.4011C151.629 71.2539 151.555 70.8121 151.665 70.7385C151.813 70.6649 152.144 70.9594 152.291 70.9962C152.439 71.033 152.88 70.9594 152.954 71.0698C153.028 71.2171 152.733 71.5484 152.696 71.6956C152.659 71.8429 152.733 72.2846 152.623 72.3582Z" fill="white"/>
<path d="M154.353 81.1196C154.242 81.1932 153.911 80.8987 153.764 80.8619C153.617 80.8251 153.212 80.8987 153.138 80.7883C153.064 80.6778 153.359 80.3465 153.396 80.1993C153.432 80.052 153.359 79.6471 153.469 79.5735C153.58 79.4998 153.911 79.7575 154.058 79.8311C154.206 79.868 154.61 79.7943 154.684 79.9048C154.758 80.0152 154.463 80.3465 154.426 80.4938C154.39 80.641 154.463 81.046 154.353 81.1196Z" fill="white"/>
<path d="M172.98 117.637C172.796 117.748 172.391 117.343 172.207 117.306C172.023 117.269 171.471 117.38 171.36 117.196C171.25 117.012 171.655 116.607 171.691 116.423C171.728 116.239 171.618 115.686 171.802 115.576C171.986 115.465 172.391 115.87 172.575 115.907C172.759 115.944 173.311 115.834 173.422 116.018C173.532 116.202 173.127 116.607 173.09 116.791C173.053 116.975 173.164 117.527 172.98 117.637Z" fill="white"/>
<path d="M177.508 105.821C177.397 105.931 176.992 105.747 176.845 105.747C176.698 105.747 176.293 105.931 176.183 105.821C176.072 105.71 176.256 105.305 176.256 105.158C176.256 105.011 176.072 104.606 176.183 104.495C176.293 104.385 176.698 104.569 176.845 104.569C176.992 104.569 177.397 104.385 177.508 104.495C177.618 104.606 177.434 105.011 177.434 105.158C177.434 105.305 177.618 105.71 177.508 105.821Z" fill="white"/>
<path d="M9.01767 83.1442C8.87043 83.2547 8.42868 82.8866 8.28143 82.8129C8.09737 82.7761 7.58199 82.8866 7.47156 82.7025C7.36112 82.5552 7.72924 82.1135 7.80287 81.9663C7.83968 81.7822 7.72924 81.2668 7.91331 81.1564C8.06055 81.0459 8.5023 81.4141 8.64955 81.4877C8.83361 81.5245 9.34899 81.4141 9.45942 81.5981C9.56986 81.7454 9.20174 82.1871 9.12811 82.3344C9.0913 82.5184 9.20174 83.0338 9.01767 83.1442Z" fill="white"/>
<path d="M3.56955 123.785C4.04811 123.564 5.63104 126.73 9.27546 130.706C10.8584 132.399 12.8094 134.166 15.2759 135.823C19.2516 138.51 23.9636 140.461 29.7431 142.228C29.8535 142.265 29.9272 142.302 30.0376 142.302C35.854 144.032 41.5231 145.283 46.3823 146.609C51.5728 148.044 55.3277 149.37 58.3095 150.768C61.1072 152.094 62.5061 153.198 62.3588 153.493C62.2116 153.861 60.5182 153.382 57.61 152.683C53.892 151.762 51.4256 151.173 45.5724 149.995C41.0445 149.075 34.6023 147.824 28.8964 146.13C28.786 146.093 28.7124 146.057 28.6019 146.057C22.5647 144.253 17.4478 141.86 13.2512 138.62C10.6743 136.633 8.68646 134.461 7.21397 132.399C3.7168 127.54 3.27505 123.896 3.60636 123.785H3.56955Z" fill="#D6F0E3"/>
<path d="M143.677 151.726C143.677 151.063 146.107 150.621 149.714 149.443C153.543 148.228 158.071 146.425 163.188 143.259C163.298 143.185 163.445 143.112 163.556 143.038C166.869 140.94 169.593 138.731 171.912 136.596C176.256 132.51 178.465 129.012 179.201 129.344C179.864 129.638 178.943 133.982 174.673 139.173C172.464 141.823 169.593 144.474 165.949 146.793C165.801 146.866 165.691 146.977 165.544 147.05C160.022 150.511 154.61 152.094 150.377 152.535C146.217 152.977 143.714 152.315 143.714 151.762L143.677 151.726Z" fill="#429E73"/>
</svg>
