<svg width="55" height="90" viewBox="0 0 55 90" fill="none" xmlns="http://www.w3.org/2000/svg">
<path fill-rule="evenodd" clip-rule="evenodd" d="M0.112411 48.1119C0.112411 50.4726 1.68617 52.6084 3.37233 53.3953C6.0702 54.5194 8.43083 54.0697 10.4542 51.9339C11.5783 50.6974 13.1521 44.7396 13.8266 42.7162C14.0514 41.9293 14.9507 38.4446 15.5127 37.9949C15.4003 41.4797 11.4659 51.7091 15.0631 56.0931C15.6251 56.7676 16.0748 57.1048 16.7492 57.6669C17.4237 58.2289 17.7609 58.791 18.5478 59.2406L27.2035 67.1094C28.2152 68.0087 27.7655 68.2335 27.9904 69.6949C28.2152 70.9314 27.9904 80.8236 27.9904 82.9594C27.9904 85.9945 27.9904 86.5565 29.2269 88.3551C31.5875 91.053 40.5804 90.7157 40.5804 85.2076V64.6364C40.5804 62.2757 38.8942 60.3647 37.3205 59.1282C35.8591 57.8917 30.8006 53.058 29.5641 52.1587C30.351 50.585 32.7116 31.9247 32.7116 30.0138C32.7116 28.1028 33.3861 24.8428 30.351 22.4822C26.1918 19.3347 18.9975 22.3698 15.0631 24.2808C13.6017 25.0677 12.3652 25.7421 11.0163 26.6414C9.66735 27.4283 8.31842 28.3276 7.0819 29.3393C5.17091 30.913 5.28332 30.6882 4.49644 33.1613C3.93439 34.8474 3.48474 36.4212 2.92269 38.2198C2.24822 40.1308 0 46.763 0 48.2243L0.112411 48.1119ZM14.9507 84.7579L17.8734 76.6643C18.323 75.203 18.7726 74.0789 19.3347 72.6175C19.7843 71.2686 20.234 70.0321 20.796 68.6832C21.6953 66.2101 22.0326 65.7605 21.1333 64.7488C20.1216 63.7371 13.4893 56.6552 13.1521 56.4304C11.5783 55.6435 11.1287 58.1165 10.7915 59.2406L3.59715 79.4746C2.47304 82.2849 2.36063 82.2849 2.36063 85.2076C2.36063 90.4909 12.7025 92.4019 15.1755 84.7579H14.9507Z" fill="#FEFEFE"/>
<path fill-rule="evenodd" clip-rule="evenodd" d="M18.7726 9.55494V10.5666C18.7726 15.4003 23.3815 20.0092 28.2152 20.0092H29.2269C34.0605 20.0092 38.6694 15.4003 38.6694 10.5666C38.6694 7.41913 37.8825 4.83368 35.8591 2.92269C33.9481 1.0117 31.8123 0.112411 29.5641 0H28.1028C23.2691 0.337233 18.7726 4.27162 18.7726 9.55494Z" fill="#FEFEFE"/>
<path fill-rule="evenodd" clip-rule="evenodd" d="M48.2244 54.0697C50.0229 54.0697 51.4843 53.7325 52.6084 52.2711C54.2945 50.1353 54.7442 47.2126 52.9456 45.0768L50.585 43.1658C49.5733 42.379 36.5336 32.262 35.9715 32.262C34.5102 32.262 34.5102 34.173 34.2854 35.5219L33.2737 41.9293C32.9364 44.1775 32.9364 43.6155 36.1964 46.0885L44.852 52.2711C45.3017 52.6084 45.7513 52.9456 46.3134 53.3952C46.8754 53.8449 47.3251 54.1821 48.2244 54.1821V54.0697Z" fill="#FEFEFE"/>
</svg>
