<svg width="375" height="63" viewBox="0 0 375 63" fill="none" xmlns="http://www.w3.org/2000/svg">
<path d="M0 9.76439C15.469 6.5974 18.7627 11.0312 31.3603 10.6511C36.7512 10.4822 41.8747 8.32869 47.1952 7.54046C55.7109 6.27366 64.7192 8.7228 71.4473 14.0996C77.908 19.2794 81.455 16.6051 89.5485 14.8457C97.6419 13.0862 105.341 9.51103 113.589 8.70873C130.199 7.07597 146.625 16.8585 163.079 14.0152C178.562 11.3408 195.706 2.40289 210.865 6.52702C217.889 8.44129 224.251 12.4247 231.359 14.0433C241.114 16.2673 251.318 13.8181 260.735 10.4259C270.151 7.03374 279.301 2.67033 289.139 0.882738C303.299 -1.69308 318.43 1.43168 330.409 9.42658C335.729 12.9736 340.656 14.3389 347.046 14.4375C353.436 14.5219 359.742 13.1144 365.978 11.7209C368.863 11.0734 372.1 10.4259 375 9.77847V62.1816H0V9.77847V9.76439Z" fill="#255C42"/>
</svg>
