<svg width="922" height="92" viewBox="0 0 922 92" fill="none" xmlns="http://www.w3.org/2000/svg">
<path d="M921.6 11.9409C897.779 22.7887 874.563 39.5272 850.068 45.7291C825.695 51.9133 800.285 41.9459 777.932 30.442C755.562 18.9549 733.089 5.39498 707.99 3.82301C688.245 2.57909 669.089 8.953 651.107 16.4502C635.456 22.9625 617.854 25.2083 600.787 23.6709C584.947 22.2372 569.781 16.8129 554.77 11.5446C539.759 6.27626 524.489 1.0594 508.615 0.108965C492.74 -0.858338 476.952 4.73887 460.8 11.9586V11.9409C436.979 22.7887 413.763 39.5272 389.268 45.7291C364.895 51.9133 339.485 41.9459 317.132 30.442C294.762 18.9549 272.289 5.39498 247.19 3.82301C227.445 2.57909 208.289 8.953 190.307 16.4502C174.656 22.9625 157.054 25.2083 139.987 23.6709C124.147 22.2372 108.981 16.8129 93.9701 11.5446C78.9588 6.27626 63.6886 1.0594 47.8145 0.108965C31.9396 -0.858338 16.1515 4.73887 0 11.9586V91.3324H460.8H921.6V11.9586V11.9409Z" fill="#1E4A35"/>
</svg>
