<svg width="922" height="77" viewBox="0 0 922 77" fill="none" xmlns="http://www.w3.org/2000/svg">
<path d="M0.000842045 11.9985C19.0092 8.10656 23.056 13.5546 38.5362 13.0881C45.1605 12.881 51.4565 10.2344 57.9941 9.26606C68.4582 7.70996 79.5278 10.7186 87.795 17.3253C95.7337 23.6903 100.092 20.4038 110.038 18.2423C119.983 16.0799 129.443 11.6878 139.579 10.7009C159.988 8.69431 180.172 20.7153 200.391 17.2217C219.417 13.9352 240.484 2.9524 259.111 8.02067C267.742 10.3725 275.56 15.2673 284.294 17.2562C296.28 19.9895 308.82 16.9792 320.39 12.8111C331.962 8.64294 343.204 3.2808 355.293 1.08475C372.693 -2.0805 391.286 1.75923 406.005 11.5834C412.544 15.9418 418.596 17.6191 426.449 17.7404C434.301 17.844 442.051 16.1144 449.712 14.4025C453.258 13.6068 457.236 12.8111 460.8 12.0162L460.801 11.9993C479.809 8.1074 483.856 13.5554 499.336 13.0889C505.96 12.8818 512.256 10.2352 518.794 9.2669C529.258 7.7108 540.327 10.7194 548.595 17.3261C556.533 23.6911 560.892 20.4046 570.837 18.2431C580.783 16.0807 590.243 11.6886 600.379 10.7017C620.788 8.69515 640.972 20.7162 661.191 17.2225C680.216 13.936 701.283 2.95325 719.911 8.02151C728.541 10.3733 736.36 15.2682 745.094 17.2571C757.08 19.9903 769.62 16.98 781.19 12.8119C792.762 8.64378 804.004 3.28164 816.093 1.08559C833.493 -2.07965 852.086 1.76007 866.805 11.5842C873.344 15.9426 879.396 17.62 887.249 17.7412C895.101 17.8448 902.85 16.1152 910.512 14.4034C914.058 13.6076 918.036 12.8119 921.599 12.017V76.4099H460.8H0V12.017L0.000842045 12.0002V11.9985Z" fill="#255C42"/>
</svg>
